<svg xmlns="http://www.w3.org/2000/svg" xmlns:xlink="http://www.w3.org/1999/xlink" width="129" height="128" viewBox="0 0 129 128">
  <defs>
    <clipPath id="clip-path">
      <rect id="Rectángulo_378546" data-name="Rectángulo 378546" width="74.793" height="74.485" fill="none"/>
    </clipPath>
  </defs>
  <g id="Grupo_1074724" data-name="Grupo 1074724" transform="translate(-390 -10783)">
    <g id="Grupo_108927" data-name="Grupo 108927" transform="translate(0 6316)">
      <path id="Rectángulo_36179" data-name="Rectángulo 36179" d="M0,0H129V128H0Z" transform="translate(390 4467)" fill="#ecb062"/>
      <path id="Rectángulo_36181" data-name="Rectángulo 36181" d="M6.132,0H81.754a21.8,21.8,0,0,1,21.8,21.8v74.26a6.132,6.132,0,0,1-6.132,6.132H6.132A6.132,6.132,0,0,1,0,96.061V6.132A6.132,6.132,0,0,1,6.132,0Z" transform="translate(402.944 4479.944)" fill="#590e00"/>
    </g>
    <g id="Grupo_156312" data-name="Grupo 156312" transform="translate(122.332 6350.736)">
      <g id="Grupo_1074562" data-name="Grupo 1074562" transform="matrix(0.996, -0.087, 0.087, 0.996, 291.668, 4467.783)">
        <g id="Grupo_1074561" data-name="Grupo 1074561" clip-path="url(#clip-path)">
          <path id="Trazado_825846" data-name="Trazado 825846" d="M33.345,70.929c.331-.321.645-.616.951-.921q8.626-8.585,17.252-17.172,7.329-7.285,14.675-14.553a.858.858,0,0,0,.272-.647q.137-8.476.29-16.952c.017-.934.088-1.867.1-2.8a.843.843,0,0,0-.218-.552q-3.626-3.646-7.273-7.272c-.166-.166-.273-.2-.454-.005a26.475,26.475,0,0,0-3.116,4.2,1.094,1.094,0,0,0-.066.178c.155.079.3.158.447.228A7.972,7.972,0,0,1,60.82,22.5a7.762,7.762,0,0,1-5.03,6.9,8.059,8.059,0,1,1-5.211-15.215c.651-.168,1.332-.218,2-.336a.435.435,0,0,0,.284-.17A29.1,29.1,0,0,1,56.886,8.05a1.032,1.032,0,0,0,.087-.159c-.149-.012-.264-.031-.38-.028-4.074.092-8.147.191-12.221.276q-3.506.074-7.013.1a1.547,1.547,0,0,0-1.187.464q-3.133,3.147-6.305,6.255a3.2,3.2,0,0,1-1.074.753,1.339,1.339,0,0,1-1.614-.746,1.293,1.293,0,0,1,.312-1.683c1.114-1.121,2.239-2.231,3.358-3.347,1.331-1.329,2.666-2.654,3.987-3.992a1.844,1.844,0,0,1,1.312-.568c2.2-.05,4.408-.076,6.612-.122q7.23-.151,14.459-.319a1.983,1.983,0,0,1,1.664.595c.206.233.362.183.578-.012A25.754,25.754,0,0,1,66.233,1a10.326,10.326,0,0,1,3.885-1,4.147,4.147,0,0,1,4.026,1.933,5.018,5.018,0,0,1,.561,3.479,16.186,16.186,0,0,1-2.633,6.177,26.8,26.8,0,0,1-3.1,3.925c.142.171.28.354.436.52a1.35,1.35,0,0,1,.364,1q-.093,4.888-.176,9.777c-.054,3.4-.094,6.808-.147,10.212-.008.5-.039,1-.084,1.5a2.033,2.033,0,0,1-.645,1.282q-2.987,2.963-5.965,5.935Q57.427,51.063,52.1,56.381q-3.652,3.642-7.31,7.28-3.607,3.593-7.214,7.188c-.818.817-1.624,1.648-2.435,2.472-.117.119-.23.242-.349.359-1.1,1.081-1.761,1.07-2.85-.02q-4.544-4.547-9.1-9.085-7.718-7.7-15.438-15.4Q4.045,45.829.668,42.5a1.516,1.516,0,0,1-.622-1.518,2.022,2.022,0,0,1,.5-.837q3.9-3.918,7.82-7.811,4.54-4.528,9.077-9.056c.551-.55,1.094-1.11,1.659-1.646a1.4,1.4,0,0,1,1.607-.3,1.294,1.294,0,0,1,.818,1.334,1.721,1.721,0,0,1-.382.957c-.561.645-1.188,1.234-1.8,1.837q-5.569,5.527-11.143,11.05-2.3,2.28-4.6,4.555c-.182.179-.054.267.056.377q.841.835,1.683,1.669,5.738,5.713,11.477,11.426Q24.645,62.326,32.477,70.1c.275.273.561.537.868.83m27.821-63.2c.142.173.224.29.322.39.265.27.539.531.807.8,1.466,1.461,2.935,2.919,4.393,4.389.2.2.316.175.475-.026.193-.244.412-.468.611-.707A20.084,20.084,0,0,0,71.485,6.45,5.243,5.243,0,0,0,71.792,3.8a.942.942,0,0,0-.834-.83,4.986,4.986,0,0,0-2.306.189,15.755,15.755,0,0,0-4.47,2.27c-1.024.722-1.995,1.519-3.017,2.3M57.812,23.119a3.778,3.778,0,0,0-.457.061,5.412,5.412,0,0,1-3.152,0,3.889,3.889,0,0,1-2.716-2.739A6.209,6.209,0,0,1,51.5,17.21c.022-.089.028-.183.043-.288a5.174,5.174,0,0,0,.875,10.212,5.156,5.156,0,0,0,5.393-4.015m-3.259-6.076a4.7,4.7,0,0,0-.242,2.745.958.958,0,0,0,.465.519,1.957,1.957,0,0,0,1.36.186c.414-.083.829-.163,1.246-.224.241-.035.268-.139.181-.34a5.375,5.375,0,0,0-3.011-2.886" transform="translate(0 0)" fill="#fff"/>
          <path id="Trazado_825847" data-name="Trazado 825847" d="M19.966,6.093l-5.939,6.036c.182.275.425.618.64.976a7.175,7.175,0,0,1,1.164,3.742,6.806,6.806,0,0,1-1.745,4.5,7.519,7.519,0,0,1-9.672,1.207c-.2-.123-.388-.252-.591-.384-.34.335-.666.668-1,.987a4.863,4.863,0,0,1-.639.533,1.347,1.347,0,0,1-1.874-.309A1.414,1.414,0,0,1,.393,21.53c.384-.4.763-.813,1.18-1.18.276-.243.23-.445.077-.716a7.587,7.587,0,0,1-.972-3.093A7.835,7.835,0,0,1,2.469,10.8a2.294,2.294,0,0,1,1.2-.956,1.413,1.413,0,0,1,1.508.526,1.274,1.274,0,0,1,.046,1.581c-.329.473-.745.893-1.027,1.391a5.038,5.038,0,0,0-.248,4.514l.148.124,5.8-6.062A21.472,21.472,0,0,1,8.68,9.6a7.667,7.667,0,0,1-.552-2.386,6.274,6.274,0,0,1,.9-3.372A6.722,6.722,0,0,1,13.766.363,7.9,7.9,0,0,1,19.988,1.7c.044.032.091.061.211.141.33-.35.655-.714,1-1.056.212-.209.463-.379.689-.575.7-.609,2,.191,2.05,1.007a1.574,1.574,0,0,1-.448,1.337c-.465.446-.921.9-1.39,1.361a9.01,9.01,0,0,1,1.121,3.111,7.758,7.758,0,0,1-2.267,6.728,1.406,1.406,0,0,1-1.989.055,1.352,1.352,0,0,1-.046-2.017,5.193,5.193,0,0,0,1.431-2.843,4.961,4.961,0,0,0-.385-2.86M5.946,20.111c.079.056.154.119.237.167a4.909,4.909,0,0,0,3.811.431,3.963,3.963,0,0,0,2.486-5.616c-.171-.33-.361-.65-.55-.988L5.946,20.111M18.009,3.858c.007.012,0-.009-.016-.026a.2.2,0,0,0-.052-.04,4.963,4.963,0,0,0-4.606-.277,4.013,4.013,0,0,0-2.29,3.864A5.034,5.034,0,0,0,11.36,8.6a4.11,4.11,0,0,0,.705,1.273l5.944-6.014" transform="translate(20.735 29.887)" fill="#fff"/>
          <path id="Trazado_825848" data-name="Trazado 825848" d="M1.438,2.875A1.515,1.515,0,0,1,0,1.436,1.479,1.479,0,0,1,1.429,0,1.408,1.408,0,0,1,2.854,1.445a1.426,1.426,0,0,1-1.415,1.43" transform="translate(22.837 17.062)" fill="#fff"/>
        </g>
      </g>
    </g>
  </g>
</svg>
