<svg xmlns="http://www.w3.org/2000/svg" xmlns:xlink="http://www.w3.org/1999/xlink" width="125" height="125" viewBox="0 0 125 125">
  <defs>
    <clipPath id="clip-path">
      <rect id="Rectángulo_378833" data-name="Rectángulo 378833" width="82.025" height="81.733" fill="none"/>
    </clipPath>
  </defs>
  <g id="Grupo_1074696" data-name="Grupo 1074696" transform="translate(-1089 -2146)">
    <path id="Trazado_608387" data-name="Trazado 608387" d="M62.5,0A62.5,62.5,0,1,1,0,62.5,62.5,62.5,0,0,1,62.5,0Z" transform="translate(1089 2146)" fill="#fff"/>
    <g id="Grupo_1074698" data-name="Grupo 1074698" transform="translate(1113.642 2167.634)">
      <g id="Grupo_1074697" data-name="Grupo 1074697" clip-path="url(#clip-path)">
        <path id="Trazado_826222" data-name="Trazado 826222" d="M1.594,65.615A2.659,2.659,0,0,1,.063,63.258a21.478,21.478,0,0,1,.014-2.866,2.715,2.715,0,0,1,2.176-2.326,17.923,17.923,0,0,1,2.8-.118c.256-.013.34-.057.332-.328-.022-.666-.012-1.334,0-2,0-.215,0-.315-.293-.308a21.773,21.773,0,0,1-2.716,0A2.78,2.78,0,0,1,.073,52.926c-.062-.893-.047-1.787-.03-2.679a2.75,2.75,0,0,1,2.1-2.727,3.94,3.94,0,0,1,1.142-.138c.6-.01,1.208-.015,1.812-.005.2,0,.286-.039.281-.265-.015-.667-.017-1.335,0-2,.007-.265-.085-.3-.328-.287A16.994,16.994,0,0,1,2.524,44.8a2.681,2.681,0,0,1-2.2-1.543,2.288,2.288,0,0,1-.263-.964,19.5,19.5,0,0,1,.011-2.866,2.663,2.663,0,0,1,2.743-2.537c.767-.013,1.535.007,2.3.032.2.007.259-.033.256-.236-.011-.692-.008-1.385,0-2.077,0-.159-.008-.245-.214-.247-.766-.007-1.532-.027-2.3-.006a2.742,2.742,0,0,1-.852-.2,2.716,2.716,0,0,1-1.965-2.2,1.916,1.916,0,0,1,.011-.419A14.713,14.713,0,0,1,.11,28.567a2.673,2.673,0,0,1,2.557-2.182c.791,0,1.583-.031,2.373-.012.3.007.347-.094.339-.36q-.029-.925,0-1.85c.009-.279-.045-.387-.358-.376-.729.025-1.463.041-2.19-.005A2.767,2.767,0,0,1,.074,21.221a13.917,13.917,0,0,1,.032-3.165,2.609,2.609,0,0,1,2.478-2.167c.83.015,1.659.022,2.488.052.256.01.307-.078.306-.316-.009-2.127-.006-4.255,0-6.383A3.785,3.785,0,0,1,7.11,6.019a3.7,3.7,0,0,1,2.41-.662c.348.018.8.149,1.022-.055s.071-.666.069-1.012A4.059,4.059,0,0,1,13.579.206a6.583,6.583,0,0,1,1.735-.2l26.25,0q9.99,0,19.98-.008A4.633,4.633,0,0,1,65.1,1.351a3.326,3.326,0,0,1,.871,1.677,18.034,18.034,0,0,1,.138,3.288q.011,8.989.007,17.978a.654.654,0,0,0,.05.414c.315-.206.16-.548.232-.808a10.116,10.116,0,0,1,1.464-3.57,7.647,7.647,0,0,1,4.222-2.972,9.085,9.085,0,0,1,2.262-.348,7.8,7.8,0,0,1,2.515.466A7.465,7.465,0,0,1,79.6,19.107a6.454,6.454,0,0,1,2.013,3.2,7.148,7.148,0,0,1,.373,2.838,6.526,6.526,0,0,1-.274,1.061c-.346,1.068-.553,2.17-.861,3.247s-.577,2.149-.858,3.225c-.35,1.34-.666,2.688-1.05,4.018-.269.929-.529,1.862-.788,2.792-.252.9-.5,1.812-.7,2.729-.279,1.29-.694,2.542-1.01,3.821-.349,1.409-.74,2.808-1.113,4.212-.441,1.655-.9,3.3-1.318,4.964-.381,1.521-.822,3.024-1.21,4.543-.783,3.062-1.665,6.1-2.423,9.168a6.4,6.4,0,0,1-2.1,3.231c-.916.839-1.758,1.758-2.639,2.637q-2.258,2.254-4.527,4.5a.766.766,0,0,0-.25.629c.018.49.013.982.024,1.472.006.242-.061.348-.343.347q-23.946-.012-47.892,0a6.188,6.188,0,0,1-2.013-.259,3.826,3.826,0,0,1-1.789-1.3c-.823-1.056-1.572-2.168-2.433-3.2A6.325,6.325,0,0,1,5.39,75.052a.914.914,0,0,1-.016-.3q0-4.155,0-8.309a.538.538,0,0,1,0-.188c.175-.439-.09-.452-.409-.448q-1.34.015-2.681.008a.757.757,0,0,1-.466-.1c-.042-.109-.082-.221-.227-.105m9.591.177a.064.064,0,0,0-.1-.051c-.02.009-.024.053-.035.081-.893,0-1.787.02-2.68,0C8.059,65.811,8,65.91,8,66.2c.01,2.316.005,4.633,0,6.949,0,.662-.006.663.666.663l46.532,0c.491,0,.983-.017,1.473,0,.294.012.337-.1.281-.355-.153-.683-.254-1.381-.445-2.052-.243-.855-.335-1.742-.6-2.593a4.789,4.789,0,0,1-.122-2.642q.4-1.51.772-3.028c.275-1.127.532-2.258.827-3.379a15.4,15.4,0,0,1,.381-1.51,6.341,6.341,0,0,0,.473-2.209q.026-23.832.022-47.664c0-.376-.059-.475-.467-.474q-11.954.027-23.908.016T9.98,7.931A3.916,3.916,0,0,0,8.929,8a1.189,1.189,0,0,0-.908.975C8.009,11.2,8.009,13.43,8,15.658c0,.2.066.243.263.239.755-.015,1.511-.012,2.266,0a2.772,2.772,0,0,1,.784.074,2.622,2.622,0,0,1,1.915,2.624c.019.856.012,1.712,0,2.568a2.539,2.539,0,0,1-.991,1.954,3.271,3.271,0,0,1-2.025.672c-.64.042-1.284.022-1.925,0-.265-.008-.321.092-.314.327.018.641.034,1.284.022,1.925-.005.294.108.368.379.361.629-.015,1.259-.021,1.888,0a3.059,3.059,0,0,1,2.04.648,2.818,2.818,0,0,1,.925,2.219c.021.793,0,1.586,0,2.379A2.744,2.744,0,0,1,10.61,34.3a21.007,21.007,0,0,1-2.3.039c-.264-.008-.316.1-.312.331.01.6.022,1.21-.01,1.812-.019.352.078.443.436.434a11.506,11.506,0,0,1,2.85.093,2.524,2.524,0,0,1,1.868,1.917,20.2,20.2,0,0,1,.028,3.628A2.57,2.57,0,0,1,10.9,44.8a19.475,19.475,0,0,1-2.565.026c-.223,0-.343.012-.332.3.024.654.016,1.309,0,1.963-.005.229.058.307.3.3.616-.017,1.234-.016,1.85-.007A2.835,2.835,0,0,1,13.179,49.9a24.7,24.7,0,0,1-.027,3.251,2.5,2.5,0,0,1-2.3,2.157c-.855.065-1.711.052-2.567.033-.25-.005-.292.066-.288.3.011.667,0,1.334-.019,2-.007.228.051.3.289.308a18.891,18.891,0,0,1,2.477.063,3.062,3.062,0,0,1,1.514.6,2.745,2.745,0,0,1,.967,2.247c.016.692-.009,1.385.007,2.077a2.876,2.876,0,0,1-.455,1.72,2.51,2.51,0,0,1-1.594,1.136m62.4-20.173c.347.008.371.009.379-.145a11.256,11.256,0,0,1,.513-2.136c.323-1.3.7-2.586,1.04-3.88.354-1.331.722-2.66,1.038-4,.236-1,.535-1.984.8-2.974.3-1.127.58-2.263.892-3.388.351-1.268.733-2.529,1.005-3.821a4.2,4.2,0,0,0-.39-2.98,4.634,4.634,0,0,0-3.457-2.51,4.2,4.2,0,0,0-1.39-.209,6.951,6.951,0,0,0-2.3.74,5.276,5.276,0,0,0-2.459,3.064c-.246.763-.382,1.549-.6,2.316a15.523,15.523,0,0,0-.41,1.615c-.128.721-.376,1.407-.539,2.116-.17.743-.356,1.483-.538,2.224-.177.718-.315,1.452-.534,2.153-.225.723-.366,1.464-.566,2.19-.254.922-.469,1.86-.7,2.791-.262,1.064-.533,2.127-.806,3.188-.089.346-.453.807-.1,1.1a2.524,2.524,0,0,0,1.166.354,15.938,15.938,0,0,1,1.721.453c.58.17,1.181.326,1.762.514,1.113.36,2.252.646,3.394.9.38.084.691.377,1.079.323M60.9,45.312c.237-.078.26-.326.3-.528.092-.447.167-.894.3-1.335.231-.789.411-1.593.61-2.391.362-1.45.7-2.908,1.1-4.347a6.478,6.478,0,0,0,.287-1.772q-.006-14.9.005-29.8c0-.54-.125-1.067-.1-1.6,0-.087-.048-.133-.086-.2a1.579,1.579,0,0,0-1.509-.7q-13.048-.006-26.1,0-10.442,0-20.884-.006a1.466,1.466,0,0,0-1.593,1.594,3.254,3.254,0,0,1,0,.679c-.058.389.093.462.464.462q23.283-.015,46.565-.007c.643,0,.64-.158.64.654q0,18.731,0,37.462v1.831m2.893.277c-.126.047-.146.171-.181.282-.312,1-.545,2.028-.8,3.044-.309,1.24-.633,2.479-.909,3.728-.178.8-.42,1.594-.619,2.393-.275,1.1-.511,2.215-.809,3.311-.342,1.256-.625,2.527-.97,3.783-.265.962-.483,1.939-.749,2.9-.045.162-.075.392.177.458.723.189,1.453.356,2.174.552,1.422.388,2.833.82,4.264,1.174.735.182,1.458.4,2.181.618.243.072.368.054.441-.142a17.154,17.154,0,0,0,.515-1.851c.136-.547.259-1.108.4-1.653.2-.793.458-1.578.662-2.373.332-1.293.687-2.579,1.04-3.866.266-.97.539-1.94.766-2.919.135-.58.34-1.142.459-1.721.14-.683.382-1.335.523-2.018.2-.967.5-1.914.76-2.868.039-.144.013-.282-.143-.284a4.822,4.822,0,0,1-.97-.255c-.787-.169-1.554-.419-2.331-.626-.635-.169-1.277-.312-1.908-.5-.743-.219-1.5-.394-2.235-.635a7.223,7.223,0,0,1-1.738-.536M33.476,76.371H24.9q-7.627,0-15.255,0c-.109,0-.278-.018-.315.039-.082.127.075.214.144.311.366.514.754,1.011,1.133,1.516a1.775,1.775,0,0,0,1.506.861q22.788-.015,45.577-.008c.1,0,.2-.008.3,0,.188.015.245-.1.159-.225a1.752,1.752,0,0,1-.162-.832c-.067-.443-.355-.835-.328-1.281.023-.379-.15-.386-.437-.385q-11.876.008-23.751,0m25.107-8.3c-.131-.013-.217,0-.131.247.245.688.3,1.424.487,2.129.215.787.351,1.6.53,2.393.238,1.058.539,2.1.682,3.181a.42.42,0,0,0,.168.315c.113.06.185-.091.26-.167,1.838-1.862,3.689-3.712,5.571-5.529.054-.052.111-.1.163-.158.157-.166.139-.278-.1-.34-.312-.082-.619-.18-.931-.263-1.037-.275-2.076-.543-3.113-.819-.666-.177-1.329-.363-1.993-.546-.514-.142-1.027-.286-1.6-.444M6.615,42.218c1.22,0,2.44,0,3.659,0,.192,0,.336.009.329-.263-.02-.716-.021-1.433-.012-2.15,0-.236-.084-.3-.309-.3q-3.678.01-7.357,0c-.219,0-.271.068-.268.276.012.716.016,1.434,0,2.15-.006.244.077.288.3.286,1.22-.01,2.44,0,3.659-.005M6.6,31.642c1.232,0,2.464,0,3.7,0,.177,0,.316.011.31-.243-.018-.729-.02-1.458-.016-2.187,0-.215-.08-.278-.289-.277q-3.7.008-7.391,0c-.205,0-.251.07-.248.26.01.7.021,1.408,0,2.111-.011.3.095.344.361.341,1.194-.014,2.388-.006,3.582-.006M6.6,50.092c-1.208,0-2.417,0-3.625,0-.227,0-.332.03-.324.3.021.7.016,1.41,0,2.114,0,.228.055.3.293.3q3.663-.014,7.326,0c.248,0,.326-.068.321-.316-.016-.68-.021-1.36,0-2.039.007-.285-.083-.362-.364-.359-1.208.015-2.417.006-3.625.007m0-29.025c1.234,0,2.467,0,3.7,0,.2,0,.3-.028.294-.261-.019-.692-.023-1.384-.022-2.076,0-.2-.052-.292-.276-.292q-3.663.009-7.325,0c-.247,0-.32.085-.325.331-.012.574.035,1.147-.033,1.725-.064.536.009.572.588.572h3.4M6.6,63.289c1.221,0,2.442-.009,3.663.007.273,0,.346-.075.338-.34-.02-.654-.018-1.309-.008-1.963,0-.235-.053-.332-.314-.331q-3.682.014-7.364,0c-.193,0-.259.048-.256.25.012.692.014,1.385,0,2.077-.005.246.066.309.316.306,1.208-.016,2.417-.007,3.625-.007" transform="translate(0 -0.001)"/>
        <path id="Trazado_826223" data-name="Trazado 826223" d="M5.259,216.379c.145-.115.185,0,.227.105-.1.011-.192.017-.227-.105" transform="translate(-3.665 -150.765)" fill="#e5e8ed"/>
        <path id="Trazado_826224" data-name="Trazado 826224" d="M29.515,83.974a2.512,2.512,0,0,0,1.594-1.136,2.877,2.877,0,0,0,.455-1.72c-.015-.692.009-1.385-.007-2.077a2.747,2.747,0,0,0-.967-2.248,3.065,3.065,0,0,0-1.514-.6,18.886,18.886,0,0,0-2.477-.063c-.238,0-.3-.08-.289-.308.021-.666.029-1.334.019-2,0-.229.038-.3.288-.3.855.019,1.712.032,2.567-.033a2.5,2.5,0,0,0,2.3-2.157,24.76,24.76,0,0,0,.027-3.251,2.835,2.835,0,0,0-3.031-2.517c-.617-.008-1.234-.009-1.851.008-.237.006-.3-.071-.295-.3.014-.654.023-1.31,0-1.963-.011-.284.109-.3.332-.3a19.53,19.53,0,0,0,2.565-.026,2.57,2.57,0,0,0,2.271-2.25,20.2,20.2,0,0,0-.028-3.628A2.523,2.523,0,0,0,29.6,55.191a11.507,11.507,0,0,0-2.85-.093c-.359.009-.455-.082-.436-.434.032-.6.02-1.208.01-1.812,0-.232.048-.339.312-.331a21.015,21.015,0,0,0,2.3-.04,2.744,2.744,0,0,0,2.621-2.656c0-.793.016-1.587,0-2.379a2.817,2.817,0,0,0-.926-2.219,3.06,3.06,0,0,0-2.04-.648c-.629-.016-1.259-.011-1.888,0-.27.006-.384-.068-.379-.361.012-.641,0-1.284-.022-1.925-.006-.235.05-.335.314-.326.642.02,1.286.04,1.925,0a3.274,3.274,0,0,0,2.025-.672,2.54,2.54,0,0,0,.991-1.954c.011-.856.018-1.712,0-2.568a2.622,2.622,0,0,0-1.915-2.624,2.761,2.761,0,0,0-.784-.074c-.755-.009-1.511-.012-2.266,0-.2,0-.264-.036-.263-.239.01-2.228.011-4.457.022-6.685a1.19,1.19,0,0,1,.909-.975,3.915,3.915,0,0,1,1.051-.068q11.954-.005,23.908-.007t23.908-.016c.408,0,.467.1.467.474q-.016,23.832-.022,47.663a6.345,6.345,0,0,1-.473,2.209,15.272,15.272,0,0,0-.382,1.51c-.3,1.121-.553,2.252-.827,3.379q-.37,1.518-.772,3.028A4.792,4.792,0,0,0,74.239,87c.263.85.355,1.737.6,2.593.191.672.292,1.369.445,2.052.056.253.013.367-.281.355-.49-.02-.982,0-1.473,0L27,91.995c-.672,0-.667,0-.666-.663,0-2.316.008-4.633,0-6.949,0-.291.06-.39.373-.382.893.022,1.787,0,2.68,0,.063.073.1.044.132-.029M61.962,31.4q-4.455,0-8.91,0c-.236,0-.347.017-.347.31q.015,8.91,0,17.82c0,.29.105.312.345.312q8.872-.009,17.745,0c.363,0,.419-.136.407-.437-.018-.478-.013-.956-.013-1.434q0-8.115.011-16.23c0-.295-.095-.347-.366-.346-2.957.01-5.915.006-8.873.006M43.535,68.265c-2.971,0-5.942,0-8.913-.007-.281,0-.349.064-.349.348q.014,8.875,0,17.75c0,.281.064.349.347.349q8.875-.014,17.751,0c.281,0,.349-.064.349-.347q-.014-8.875,0-17.75c0-.281-.064-.35-.347-.349-2.946.012-5.892.007-8.838.007m9.171-7.856q9.023,0,18.047.009c.378,0,.468-.119.452-.469-.027-.6-.037-1.209,0-1.811.02-.364-.076-.457-.447-.457q-18.028.016-36.056.009a.964.964,0,0,1-.151,0c-.212-.032-.276.05-.272.266.014.679.025,1.36,0,2.038-.015.344.083.426.425.425q9-.017,18.009-.008m.046-7.884c0,.008,0,.017,0,.025q-9.08,0-18.16,0c-.232,0-.327.041-.318.3.022.616.024,1.234,0,1.85-.012.3.084.376.379.376q17.6-.008,35.192,0c.352,0,.705-.014,1.057,0,.254.011.33-.1.321-.334-.019-.49-.038-.981-.027-1.471.016-.738.026-.743-.7-.743q-8.874,0-17.747,0M52.729,65.55v.022h16.2c.68,0,1.36-.017,2.039.005.22.007.253-.15.235-.243-.09-.455.041-.907-.015-1.36-.036-.3.171-.676-.04-.871s-.6-.079-.911-.079q-13.029-.006-26.057,0c-3.147,0-6.294.021-9.44.016-.351,0-.492.072-.469.453a16.035,16.035,0,0,1,0,1.7c-.013.3.075.369.368.368q9.044-.013,18.088-.007M42.136,47.113c-2.505,0-5.01.005-7.515-.007-.282,0-.358.065-.349.349.023.7.016,1.41,0,2.114,0,.216.062.269.272.268q7.59-.009,15.181,0c.228,0,.321-.067.32-.289,0-.679,0-1.359.005-2.038,0-.294-.11-.409-.441-.407-2.492.017-4.985.009-7.477.009m21.2,34.352v.009c2.491,0,4.981-.006,7.472.007.341,0,.434-.109.42-.433-.028-.64-.032-1.282-.025-1.923,0-.239-.081-.3-.306-.291-.553.015-1.107,0-1.661,0q-6.718,0-13.435-.006c-.282,0-.388.051-.374.36.028.628.028,1.258,0,1.886-.015.324.1.392.4.391,2.5-.01,5.007-.006,7.51-.006m-21.2-42.208h7.359c.572,0,.568,0,.549-.581a14.114,14.114,0,0,1-.029-1.564c.037-.479.081-.483-.389-.483q-7.377,0-14.755,0c-.112,0-.224.018-.336.026-.186.015-.266.089-.26.3.018.653.024,1.309,0,1.962-.012.294.082.344.354.343,2.5-.011,5.006-.007,7.509-.007M34.1,44.544c.1.006.2.018.3.018q7.679,0,15.359.005c.266,0,.321-.1.314-.33-.017-.616-.042-1.232-.023-1.847.01-.319-.052-.425-.4-.423-3.761.015-7.522.009-11.283.009-1.271,0-2.541,0-3.811,0-.209,0-.281.048-.274.267.016.515.007,1.031,0,1.547a1.627,1.627,0,0,1-.178.758M63.264,76.121c2.518,0,5.035-.006,7.553.008.309,0,.4-.1.383-.383a12.778,12.778,0,0,1,.017-1.773c.027-.321-.066-.438-.413-.438q-6.647.011-13.294,0c-.579,0-1.158.023-1.737.006-.29-.008-.357.094-.348.369q.031.924,0,1.85c-.01.284.054.376.361.374,2.493-.015,4.985-.008,7.478-.008M46.069,31.4c-1.208,0-2.416.006-3.624-.005-.237,0-.324.047-.315.3.021.578,0,1.157.011,1.736,0,.2-.2.411-.027.6s.393-.006.591,0c2.328.018,4.656.01,6.983.009.165,0,.3.028.314-.234.046-.7,0-1.4.042-2.1.013-.24-.056-.323-.314-.32-1.221.015-2.441.007-3.662.007m-9.212,0c-.73,0-1.46.015-2.189-.007-.3-.009-.416.045-.4.378.033.552,0,1.107.013,1.66,0,.206-.194.409-.03.607.18.217.392-.006.59,0,1.421.024,2.843.005,4.264.015.243,0,.3-.064.319-.31.052-.674,0-1.349.041-2.022.015-.235-.045-.331-.309-.324-.767.019-1.535.007-2.3.007" transform="translate(-18.33 -18.183)" fill="#e5e8ed"/>
        <path id="Trazado_826225" data-name="Trazado 826225" d="M221.46,90.586c-.388.054-.7-.239-1.079-.323-1.143-.252-2.282-.538-3.394-.9-.582-.188-1.182-.345-1.762-.514A15.946,15.946,0,0,0,213.5,88.4a2.524,2.524,0,0,1-1.166-.354c-.354-.3.01-.758.1-1.1q.41-1.592.806-3.188c.229-.931.444-1.87.7-2.791.2-.726.341-1.468.566-2.19.219-.7.357-1.434.534-2.153.182-.741.368-1.481.538-2.224.162-.71.41-1.4.539-2.116a15.445,15.445,0,0,1,.41-1.615c.224-.766.359-1.553.605-2.316a5.276,5.276,0,0,1,2.459-3.064,6.942,6.942,0,0,1,2.3-.74,4.2,4.2,0,0,1,1.39.209,4.634,4.634,0,0,1,3.457,2.51,4.2,4.2,0,0,1,.39,2.98c-.272,1.292-.655,2.554-1.005,3.822-.311,1.125-.588,2.261-.891,3.388-.267.99-.566,1.974-.8,2.974-.316,1.341-.684,2.669-1.037,4-.344,1.294-.717,2.58-1.04,3.88a11.279,11.279,0,0,0-.513,2.136c-.008.154-.032.153-.379.145" transform="translate(-147.876 -44.968)" fill="#fcd76f"/>
        <path id="Trazado_826226" data-name="Trazado 826226" d="M91.278,51.375V49.543q0-18.731,0-37.462c0-.812,0-.653-.639-.654q-23.283,0-46.565.007c-.371,0-.522-.073-.464-.462a3.254,3.254,0,0,0,0-.679A1.466,1.466,0,0,1,45.2,8.7q10.442.016,20.884.006,13.048,0,26.1,0a1.579,1.579,0,0,1,1.509.7c.038.063.09.11.086.2-.025.538.1,1.064.1,1.6q-.016,14.9-.005,29.8a6.478,6.478,0,0,1-.287,1.772c-.4,1.438-.736,2.9-1.1,4.347-.2.8-.379,1.6-.61,2.391-.129.441-.2.888-.3,1.335-.042.2-.065.45-.3.528" transform="translate(-30.381 -6.063)" fill="#efcfb3"/>
        <path id="Trazado_826227" data-name="Trazado 826227" d="M198.825,150.417a7.207,7.207,0,0,0,1.738.536c.735.242,1.491.417,2.235.635.631.185,1.274.328,1.909.5.777.208,1.544.457,2.331.626a4.827,4.827,0,0,0,.97.255c.157,0,.182.14.143.284-.259.955-.559,1.9-.76,2.869-.142.683-.383,1.335-.523,2.018-.119.579-.324,1.141-.459,1.721-.227.98-.5,1.949-.766,2.92-.352,1.287-.707,2.573-1.04,3.866-.2.794-.459,1.58-.662,2.373-.139.545-.262,1.106-.4,1.653a17.13,17.13,0,0,1-.516,1.851c-.073.2-.2.215-.441.143-.723-.214-1.446-.436-2.18-.618-1.431-.354-2.842-.786-4.264-1.173-.721-.2-1.45-.364-2.174-.552-.252-.066-.222-.3-.177-.458.266-.964.484-1.941.749-2.9.346-1.256.629-2.526.97-3.783.3-1.1.535-2.208.809-3.311.2-.8.441-1.589.619-2.393.276-1.249.6-2.488.909-3.728.253-1.016.486-2.042.8-3.044.034-.11.054-.235.18-.282" transform="translate(-135.035 -104.828)" fill="#fcd76f"/>
        <path id="Trazado_826228" data-name="Trazado 826228" d="M54.888,251.969q11.876,0,23.751,0c.287,0,.46.006.437.385-.027.447.261.838.328,1.282a1.747,1.747,0,0,0,.161.831c.086.124.03.24-.159.226-.1-.008-.2,0-.3,0q-22.788,0-45.576.008a1.774,1.774,0,0,1-1.506-.861c-.379-.5-.767-1-1.133-1.516-.068-.1-.226-.184-.143-.311.037-.058.206-.039.315-.039q7.627,0,15.255,0h8.571" transform="translate(-21.411 -175.598)" fill="#efcfb3"/>
        <path id="Trazado_826229" data-name="Trazado 826229" d="M192.91,224.575c.569.159,1.083.3,1.6.444.664.183,1.327.369,1.993.546,1.037.276,2.076.544,3.113.819.312.083.619.181.931.263.235.062.253.174.1.34-.052.055-.109.1-.163.157-1.883,1.817-3.733,3.667-5.571,5.529-.075.075-.146.227-.26.167a.42.42,0,0,1-.168-.315c-.142-1.079-.444-2.123-.682-3.181-.179-.8-.316-1.606-.53-2.393-.192-.7-.242-1.441-.487-2.129-.086-.243,0-.26.131-.247" transform="translate(-134.327 -156.508)" fill="#efcfb3"/>
        <path id="Trazado_826230" data-name="Trazado 826230" d="M12.721,133.069c-1.22,0-2.44-.005-3.659,0-.222,0-.306-.042-.3-.286.018-.716.014-1.434,0-2.15,0-.208.048-.277.268-.276q3.678.011,7.357,0c.225,0,.312.06.309.3-.009.716-.008,1.434.012,2.15.008.273-.137.264-.329.263-1.22,0-2.44,0-3.659,0" transform="translate(-6.106 -90.852)" fill="#fcd76f"/>
        <path id="Trazado_826231" data-name="Trazado 826231" d="M12.7,98.179c-1.194,0-2.388-.008-3.582.006-.266,0-.372-.04-.361-.341.026-.7.015-1.408,0-2.111,0-.19.042-.261.248-.26q3.7.01,7.391,0c.209,0,.29.062.289.277,0,.729,0,1.458.016,2.187.006.254-.133.244-.31.243-1.232,0-2.464,0-3.7,0" transform="translate(-6.101 -66.537)" fill="#fcd76f"/>
        <path id="Trazado_826232" data-name="Trazado 826232" d="M12.709,165.256c1.208,0,2.417.008,3.625-.006.282,0,.372.075.364.359-.017.679-.012,1.359,0,2.039.006.248-.073.317-.321.316q-3.663-.013-7.326,0c-.238,0-.3-.071-.293-.3.014-.7.018-1.41,0-2.114-.008-.269.1-.3.324-.3,1.208.009,2.417,0,3.625,0" transform="translate(-6.105 -115.165)" fill="#fcd76f"/>
        <path id="Trazado_826233" data-name="Trazado 826233" d="M12.6,63.465H9.2c-.579,0-.652-.036-.588-.572.068-.577.022-1.15.034-1.725,0-.245.078-.331.325-.331q3.663.01,7.326,0c.224,0,.276.091.276.292,0,.692,0,1.384.022,2.076.006.234-.1.262-.294.261-1.234-.007-2.467,0-3.7,0" transform="translate(-5.986 -42.399)" fill="#fcd76f"/>
        <path id="Trazado_826234" data-name="Trazado 826234" d="M12.709,202.774c-1.208,0-2.417-.008-3.625.007-.25,0-.321-.059-.316-.306.014-.692.012-1.385,0-2.077,0-.2.063-.251.256-.25q3.682.009,7.364,0c.261,0,.318.1.314.331-.01.654-.012,1.309.008,1.963.008.265-.064.343-.338.34-1.221-.016-2.442-.007-3.663-.007" transform="translate(-6.11 -139.486)" fill="#fcd76f"/>
        <path id="Trazado_826235" data-name="Trazado 826235" d="M36.6,216.937c-.03.074-.069.1-.132.029.012-.028.016-.072.035-.081a.064.064,0,0,1,.1.052" transform="translate(-25.415 -151.146)" fill="#efcfb3"/>
        <path id="Trazado_826236" data-name="Trazado 826236" d="M122.675,43.6c2.957,0,5.915,0,8.872-.006.271,0,.367.051.366.346q-.016,8.115-.011,16.23c0,.478-.005.957.013,1.434.012.3-.044.438-.407.437q-8.872-.02-17.745,0c-.239,0-.345-.022-.345-.312q.015-8.91,0-17.819c0-.293.111-.31.347-.31q4.455.01,8.91,0m.088,2.659V46.25c-2.088,0-4.177.006-6.265-.007-.275,0-.36.051-.359.344q.015,6.21,0,12.421c0,.279.1.343.343.333.364-.015.73-.013,1.094-.013q5.72-.007,11.44-.01c.213,0,.374.022.373-.3q-.024-6.192-.016-12.383c0-.3-.082-.386-.382-.385-2.076.012-4.151.006-6.227.006" transform="translate(-79.043 -30.381)"/>
        <path id="Trazado_826237" data-name="Trazado 826237" d="M61.864,165.226c2.946,0,5.892,0,8.838-.007.283,0,.348.068.347.349q-.014,8.875,0,17.75c0,.283-.068.348-.349.347q-8.875-.014-17.751,0c-.283,0-.348-.068-.347-.349q.014-8.875,0-17.75c0-.283.068-.349.349-.348,2.971.012,5.942.007,8.913.007m-.027,2.719c-2.077,0-4.154,0-6.232,0-.263,0-.371.039-.37.345q.02,5.872.013,11.745a1.28,1.28,0,0,1-.044.33c-.139.532-.038.651.507.652l6.647,0c1.9,0,3.8-.007,5.7,0,.282,0,.381-.081.365-.362-.02-.351-.005-.7-.005-1.057q0-5.57,0-11.141c0-.516-.005-.516-.5-.516h-6.08" transform="translate(-36.659 -115.144)"/>
        <path id="Trazado_826238" data-name="Trazado 826238" d="M71.028,133.048q-9,0-18.009.008c-.342,0-.439-.082-.425-.425.029-.678.017-1.359,0-2.038,0-.215.06-.3.272-.265a1,1,0,0,0,.151,0q18.028,0,36.056-.009c.371,0,.466.093.447.457-.033.6-.023,1.208,0,1.811.016.35-.074.47-.452.469q-9.023-.019-18.047-.009" transform="translate(-36.653 -90.822)"/>
        <path id="Trazado_826239" data-name="Trazado 826239" d="M71.077,113.308q8.873,0,17.747,0c.723,0,.713,0,.7.743-.01.49.008.981.027,1.471.01.239-.067.345-.321.334-.352-.015-.7,0-1.057,0q-17.6,0-35.192,0c-.3,0-.391-.072-.379-.376.024-.616.022-1.234,0-1.85-.009-.262.086-.3.318-.3q9.08.008,18.16,0v-.025" transform="translate(-36.656 -78.966)"/>
        <path id="Trazado_826240" data-name="Trazado 826240" d="M71.048,150.4q-9.044,0-18.088.007c-.293,0-.382-.071-.368-.368a16.115,16.115,0,0,0,0-1.7c-.023-.381.118-.454.469-.453,3.147,0,6.294-.015,9.441-.016q13.029,0,26.057,0c.31,0,.7-.118.911.079s0,.575.04.871c.055.452-.076.9.015,1.36.018.093-.015.251-.235.243-.679-.022-1.359-.005-2.039-.005h-16.2V150.4" transform="translate(-36.65 -103.029)"/>
        <path id="Trazado_826241" data-name="Trazado 826241" d="M60.462,95.434c2.493,0,4.985.008,7.477-.009.33,0,.442.113.441.407,0,.68-.006,1.359-.005,2.038,0,.222-.092.289-.32.289q-7.591-.01-15.181,0c-.21,0-.277-.052-.272-.268.014-.7.021-1.41,0-2.114-.009-.283.066-.35.349-.349,2.5.012,5.01.007,7.515.007" transform="translate(-36.656 -66.503)"/>
        <path id="Trazado_826242" data-name="Trazado 826242" d="M130.293,202.748c-2.5,0-5.007,0-7.51.006-.3,0-.412-.066-.4-.39.028-.628.028-1.258,0-1.886-.013-.309.092-.361.374-.36q6.717.013,13.435.006c.553,0,1.107.01,1.66,0,.225-.006.309.052.306.29-.008.641,0,1.283.024,1.923.014.324-.079.435-.42.433-2.491-.014-4.981-.008-7.472-.008v-.009" transform="translate(-85.292 -139.465)"/>
        <path id="Trazado_826243" data-name="Trazado 826243" d="M60.46,63.493c-2.5,0-5.006,0-7.509.006-.272,0-.366-.049-.354-.342.026-.653.019-1.308,0-1.962-.006-.212.074-.286.26-.3.112-.009.224-.026.336-.026q7.378,0,14.755,0c.47,0,.425,0,.389.482a14.118,14.118,0,0,0,.029,1.564c.02.581.023.581-.549.581H60.46" transform="translate(-36.655 -42.418)"/>
        <path id="Trazado_826244" data-name="Trazado 826244" d="M52.035,81.053a1.632,1.632,0,0,0,.178-.758c0-.516.012-1.032,0-1.547-.007-.219.065-.269.274-.267,1.27.009,2.541,0,3.811,0,3.761,0,7.522.006,11.283-.009.352,0,.414.1.4.423-.018.615.006,1.232.023,1.847.006.23-.048.331-.314.33q-7.679-.012-15.358-.005c-.1,0-.2-.012-.3-.018" transform="translate(-36.264 -54.691)"/>
        <path id="Trazado_826245" data-name="Trazado 826245" d="M130.232,185.206c-2.493,0-4.985-.006-7.478.008-.307,0-.371-.09-.361-.374.021-.616.021-1.234,0-1.85-.009-.275.058-.377.348-.369.578.017,1.158-.007,1.736-.006q6.648,0,13.294,0c.347,0,.44.117.413.437a12.639,12.639,0,0,0-.017,1.773c.015.283-.074.385-.383.384-2.518-.014-5.036-.008-7.553-.008" transform="translate(-85.297 -127.268)"/>
        <path id="Trazado_826246" data-name="Trazado 826246" d="M82.27,43.6c1.221,0,2.441.008,3.662-.007.258,0,.327.079.314.32-.038.7,0,1.4-.042,2.1-.017.262-.149.234-.314.234-2.328,0-4.656.009-6.984-.009-.2,0-.411.208-.591,0s.031-.4.026-.6c-.012-.579.01-1.158-.011-1.736-.009-.257.078-.306.315-.3,1.208.012,2.416.005,3.624.005" transform="translate(-54.532 -30.379)"/>
        <path id="Trazado_826247" data-name="Trazado 826247" d="M54.994,43.594c.767,0,1.535.012,2.3-.007.264-.007.324.089.309.324-.042.673.011,1.347-.041,2.022-.019.246-.076.312-.319.31-1.421-.009-2.843.009-4.264-.015-.2,0-.41.22-.59,0-.163-.2.035-.4.03-.606-.013-.553.019-1.108-.013-1.66-.019-.332.1-.387.4-.378.729.022,1.459.007,2.189.007" transform="translate(-36.467 -30.376)"/>
        <path id="Trazado_826248" data-name="Trazado 826248" d="M129.017,52.351c2.076,0,4.151.006,6.227-.006.3,0,.382.083.382.385q-.007,6.191.016,12.383c0,.319-.16.3-.373.3q-5.72,0-11.44.01c-.365,0-.73,0-1.094.013-.246.01-.344-.054-.343-.333q.015-6.21,0-12.421c0-.293.085-.345.359-.344,2.088.013,4.177.007,6.265.007Z" transform="translate(-85.298 -36.473)" fill="#68d6f4"/>
        <path id="Trazado_826249" data-name="Trazado 826249" d="M67.693,174.2h6.08c.5,0,.5,0,.5.516q0,5.571,0,11.141c0,.352-.014.706.005,1.057.016.281-.082.364-.365.362-1.9-.011-3.8,0-5.7,0l-6.647,0c-.545,0-.646-.119-.507-.652a1.282,1.282,0,0,0,.044-.33q0-5.872-.013-11.745c0-.306.107-.346.37-.346,2.077.009,4.154.005,6.232.005" transform="translate(-42.516 -121.402)" fill="#fcd76f"/>
      </g>
    </g>
  </g>
</svg>
