<svg xmlns="http://www.w3.org/2000/svg" xmlns:xlink="http://www.w3.org/1999/xlink" width="129" height="128" viewBox="0 0 129 128">
  <defs>
    <clipPath id="clip-path">
      <rect id="Rectángulo_378545" data-name="Rectángulo 378545" width="75.766" height="76.311" fill="#fff"/>
    </clipPath>
  </defs>
  <g id="Grupo_1074725" data-name="Grupo 1074725" transform="translate(-390 -10638)">
    <g id="Grupo_108927" data-name="Grupo 108927" transform="translate(0 6171)">
      <path id="Rectángulo_36179" data-name="Rectángulo 36179" d="M0,0H129V128H0Z" transform="translate(390 4467)" fill="#ecb062"/>
      <path id="Rectángulo_36181" data-name="Rectángulo 36181" d="M6.132,0H81.754a21.8,21.8,0,0,1,21.8,21.8v74.26a6.132,6.132,0,0,1-6.132,6.132H6.132A6.132,6.132,0,0,1,0,96.061V6.132A6.132,6.132,0,0,1,6.132,0Z" transform="translate(402.944 4479.944)" fill="#590e00"/>
    </g>
    <g id="Grupo_156312" data-name="Grupo 156312" transform="translate(112.715 6200.655)">
      <g id="Grupo_156261" data-name="Grupo 156261" transform="translate(281.285 4474.575)">
        <g id="Grupo_1074560" data-name="Grupo 1074560" transform="translate(23 -11.23)">
          <g id="Grupo_1074559" data-name="Grupo 1074559" clip-path="url(#clip-path)">
            <path id="Trazado_825840" data-name="Trazado 825840" d="M19.915,99.261a1.36,1.36,0,0,1-1.924.7,4.578,4.578,0,0,0-.932-.2c-.8-.231-1.629-.392-2.447-.574s-1.667-.334-2.489-.548a2.51,2.51,0,0,1-2.177-2.357,23.427,23.427,0,0,1-.035-2.455q.008-8.533.017-17.065c0-.2-.07-.253-.24-.289-.848-.178-1.7-.351-2.542-.553-1.109-.266-2.227-.489-3.336-.759-.971-.236-1.953-.431-2.924-.672a1.054,1.054,0,0,1-.533-1.829C1.368,71.63,2.4,70.615,3.424,69.592Q6.617,66.4,9.806,63.206a2.306,2.306,0,0,1,1.23-.808c.657-.092,1.29-.274,1.933-.412,1.371-.293,2.726-.665,4.1-.948.515-.106,1.013-.255,1.4-.333-.552-.606-1.12-1.26-1.722-1.88a5.593,5.593,0,0,1-1.328-1.63,2.633,2.633,0,0,1-.04-2.137,3,3,0,0,1,2.046-1.853c.552-.145,1.121-.222,1.683-.325.594-.108,1.2-.116,1.792-.264.992-.249,1.439-.029,1.962.939a1.307,1.307,0,0,1-1.192,1.227c-.428.078-.861.13-1.292.187A11.841,11.841,0,0,1,18.6,55.2a1.694,1.694,0,0,0-.9.3.7.7,0,0,0-.237.857,4.893,4.893,0,0,0,1.186,1.247l.082.075c.616.664,1.289,1.269,1.939,1.9,1.252,1.213,2.507,2.424,3.739,3.657.642.643,1.333,1.237,1.935,1.92a5.165,5.165,0,0,1,.374.656c.254.384.691.351,1.08.435.952.207,1.9.438,2.848.651.7.156,1.4.265,2.089.457s1.4.324,2.094.484c.935.214,1.874.417,2.805.647a.942.942,0,0,0,.46.019c.81-.194,1.619-.4,2.432-.58,1.628-.367,3.258-.723,4.886-1.086.923-.206,1.848-.407,2.765-.638.3-.076.672-.038.87-.359.13-.212.231-.442.345-.663,1.065-1.045,2.125-2.1,3.2-3.134q2.553-2.475,5.117-4.939a3.412,3.412,0,0,0,.507-.552.761.761,0,0,0-.488-1.224,8.142,8.142,0,0,0-1.128-.148c-.775-.075-1.541-.237-2.314-.347-1.1-.156-2.2-.28-3.3-.473-.639-.113-1.285-.166-1.926-.258a15.834,15.834,0,0,0-1.794-.285,6.194,6.194,0,0,1-1.682-.338A3.063,3.063,0,0,1,43.748,51.8c-.435-.89-.884-1.772-1.323-2.66q-1.867-3.774-3.732-7.549a.893.893,0,0,0-.456-.485c-.51-.2-.881,0-1.176.6q-1.295,2.635-2.6,5.264c-.787,1.589-1.595,3.168-2.36,4.767a3.1,3.1,0,0,1-2.686,1.892c-.062.019-.124.043-.187.058-.757.177-1.546.133-2.3.334a.93.93,0,0,1-.521-.081c-.435-.143-.547-.544-.762-.865.066-.781.538-1.17,1.364-1.315s1.683-.167,2.5-.39a.779.779,0,0,0,.525-.439c.413-.819.791-1.656,1.19-2.48.253-.522.514-1.049.787-1.565.575-1.089,1.1-2.2,1.654-3.306.524-1.052,1.013-2.12,1.569-3.157a2.938,2.938,0,0,1,3.919-1.3,3.407,3.407,0,0,1,1.529,1.58c.36.762.743,1.514,1.117,2.27q1.127,2.28,2.254,4.559c.507,1.022,1.06,2.025,1.509,3.072a1.56,1.56,0,0,0,1.5.958,12.558,12.558,0,0,1,1.828.255c.433.1.89.081,1.335.153.806.13,1.616.232,2.423.349.605.088,1.21.182,1.815.271.771.114,1.54.252,2.314.332.513.053,1,.207,1.508.278A2.97,2.97,0,0,1,60.6,55.852a2.787,2.787,0,0,1-.67,2.061c-.783.906-1.713,1.657-2.544,2.512-.068.07-.2.131-.172.232s.178.059.27.09c.856.287,1.75.414,2.625.622,1.587.378,3.183.721,4.774,1.083a2.06,2.06,0,0,1,.983.633q3.964,3.968,7.932,7.933c.556.556,1.106,1.119,1.671,1.666a1.017,1.017,0,0,1,.242,1.076,1,1,0,0,1-.781.736c-.934.208-1.855.477-2.795.654-.611.115-1.228.231-1.822.387-1.2.315-2.429.464-3.61.835-.021.007-.04.028-.06.03-.264.026-.613-.016-.744.193-.118.189-.031.507-.031.767,0,5.917.015,11.835-.013,17.752a6.435,6.435,0,0,1-.1,1.645,2.452,2.452,0,0,1-1.638,1.734,23.17,23.17,0,0,1-2.361.56c-.647.163-1.3.332-1.952.448-.823.145-1.625.375-2.438.559-1.395.316-2.785.647-4.187.932-1.17.238-2.323.551-3.488.817q-2.039.464-4.08.929t-4.083.929c-1.129.258-2.258.518-3.388.771a2.935,2.935,0,0,1-1.255-.151c-.889-.191-1.764-.453-2.656-.631-1.795-.361-3.564-.831-5.351-1.219q-2.3-.5-4.6-1.044a2.947,2.947,0,0,1-.856-.247.981.981,0,0,1-.573-.96c.007-.105.052-.227-.045-.323a1.24,1.24,0,0,1,1.181-.748A5.16,5.16,0,0,1,25,99.326c1.7.367,3.4.717,5.083,1.126.628.153,1.262.283,1.89.441,1.005.254,2.022.458,3.033.693a9.548,9.548,0,0,1,1.547.384c.182.075.263.009.254-.2-.019-.432-.02-.865-.021-1.3,0-3.2.01-6.4-.011-9.6A1.128,1.128,0,0,1,37.9,89.6a1.177,1.177,0,0,1,1.126.973.04.04,0,0,0,.009.059c0,.921-.01,1.842-.011,2.764q0,4.165,0,8.33l-.007.13c.034.26.217.14.32.1a13.331,13.331,0,0,1,1.962-.487c1.718-.4,3.446-.765,5.165-1.16,1.113-.255,2.226-.521,3.34-.774,1.268-.288,2.536-.581,3.809-.853.919-.2,1.834-.428,2.751-.641,2.325-.54,4.654-1.065,6.979-1.6.151-.035.318-.1.283-.316.007-.006.019-.012.019-.018a.282.282,0,0,0,0-.05.787.787,0,0,0,.045-.4q0-7.264,0-14.527c0-1.025-.008-2.05-.012-3.076,0-.14.065-.288-.049-.414a1.134,1.134,0,0,1,0-.2c.06-.342-.1-.39-.381-.3s-.565.171-.853.234c-1.119.245-2.243.466-3.357.726-.887.207-1.253.071-1.7-.722-.044-.831.2-1.19,1.021-1.385,1.316-.311,2.642-.579,3.958-.889,1.432-.337,2.869-.646,4.3-.978.823-.191,1.648-.373,2.471-.563,1.035-.238,2.07-.477,3.108-.7.2-.044.247-.142.082-.3q-.348-.328-.688-.665-3.446-3.419-6.884-6.844a.648.648,0,0,0-.645-.183c-.772.147-1.539.331-2.3.523-.871.22-1.749.407-2.625.6-1.989.442-3.969.927-5.961,1.358-1.3.281-2.6.572-3.893.884-.885.213-1.774.413-2.656.638-1.271.324-2.565.562-3.846.847-.892.2-1.774.446-2.561.562.364.408.744.878,1.168,1.3q3.254,3.272,6.527,6.526c.078.078.138.168.284.135,1.508-.345,3.024-.66,4.525-1.032.886-.22,1.29-.086,1.7.719a1.1,1.1,0,0,1-.872,1.392c-1.039.259-2.087.483-3.132.717a22.133,22.133,0,0,0-2.2.5,1.119,1.119,0,0,1-1.261-.3c-.545-.524-1.094-1.043-1.631-1.575q-2.149-2.128-4.289-4.265a21.783,21.783,0,0,0-1.961-1.931c-.118-.016-.059.061-.058.108l.007.141,0,.129,0,.145a.045.045,0,0,0,0,.061,1.066,1.066,0,0,0,0,.419.036.036,0,0,0,.005.058q0,.11.005.22l-.015.026.018.024a1.612,1.612,0,0,0-.018.169q0,3.11,0,6.22,0,2.631.015,5.262c0,.04-.009.08-.013.12a1.261,1.261,0,0,1-1.128,1.04,1.067,1.067,0,0,1-.42-.081,1.43,1.43,0,0,1-.711-1.358q.026-6.205.028-12.411c0-.1.034-.2-.036-.3-.158.01-.227.142-.319.233q-3.476,3.459-6.949,6.921c-.25.249-.5.5-.774.723a.952.952,0,0,1-.874.3c-1.005-.3-2.038-.491-3.058-.73-1.3-.3-2.61-.567-3.913-.857-1.415-.315-2.827-.643-4.24-.966-1.382-.317-2.79-.53-4.146-.96-.3-.1-.366.042-.366.324q.008,8.563,0,17.127c0,.467-.009.934,0,1.4,0,.212.051.4.308.466.864.212,1.732.4,2.6.618,1.24.307,2.5.533,3.744.829.924.22,1.1.467,1.141,1.378M7.105,73.623a10.413,10.413,0,0,0,2.043.5c1.18.237,2.351.515,3.53.758,1.356.279,2.7.626,4.053.913,1.582.335,3.156.706,4.735,1.053.943.207,1.887.422,2.826.652a23.9,23.9,0,0,1,2.427.56,1.452,1.452,0,0,0,1.716-.487C30.8,75.2,33.143,72.806,35.575,70.5c.053-.05.1-.107.088-.175-.018-.084-.106-.063-.171-.075-.142-.027-.283-.011-.432-.048-.984-.246-1.974-.465-2.963-.692-1.626-.372-3.251-.749-4.879-1.115C25.478,68,23.728,67.652,22,67.225c-.814-.2-1.636-.372-2.449-.581-.883-.227-1.775-.422-2.67-.594a16.141,16.141,0,0,0-2.168-.442,3.011,3.011,0,0,0-.576-.207c-.786-.115-1.545-.352-2.321-.51a.758.758,0,0,0-.789.208q-3.615,3.606-7.244,7.2c-.144.143-.452.256-.381.451s.393.176.6.224c1.031.234,2.07.436,3.106.649M16.172,63.5c.062.089.11.164.235.178.768.083,1.5.33,2.258.483.826.167,1.648.359,2.47.546.583.132,1.166.268,1.746.414.074.019.152.1.211.027.075-.091-.01-.156-.079-.221q-1.138-1.083-2.272-2.171a.463.463,0,0,0-.388-.16c-.435.059-.862.156-1.29.258-.959.228-1.923.432-2.89.648M52.63,65.116a7.34,7.34,0,0,0,.764-.086c1.531-.345,3.056-.722,4.592-1.041a8.065,8.065,0,0,1,1.39-.315c.089,0,.24.064.258-.069s-.14-.162-.246-.182c-.3-.058-.6-.087-.9-.152-.9-.2-1.793-.416-2.694-.6a.963.963,0,0,0-.975.3c-.685.722-1.419,1.4-2.192,2.146" transform="translate(0 -28.155)" fill="#fff"/>
            <path id="Trazado_825841" data-name="Trazado 825841" d="M172.713,35.43a.687.687,0,0,1,.766.4,1.274,1.274,0,0,1-.1,1.351q-.879,1.05-1.757,2.1c-.386.46-.768.925-1.169,1.371a1.175,1.175,0,0,1-.893.459,1.47,1.47,0,0,1-1.025-.645c-.265-.65.142-1.083.495-1.524.437-.546.874-1.095,1.35-1.606.451-.484.827-1.028,1.282-1.506a1.1,1.1,0,0,1,1.056-.4" transform="translate(-122.221 -25.695)" fill="#fff"/>
            <path id="Trazado_825842" data-name="Trazado 825842" d="M217.106,59.022a1.053,1.053,0,0,1-.824-1.827,20.95,20.95,0,0,1,1.726-1.452c.475-.4.943-.805,1.412-1.211a1.772,1.772,0,0,1,1.3-.65.915.915,0,0,1,.9.608.976.976,0,0,1-.169,1.15c-.684.68-1.455,1.261-2.193,1.879a15.989,15.989,0,0,1-1.587,1.286.814.814,0,0,1-.567.217" transform="translate(-156.68 -39.094)" fill="#fff"/>
            <path id="Trazado_825843" data-name="Trazado 825843" d="M89.968,35.45a.866.866,0,0,1,.78.367c.756.875,1.5,1.764,2.241,2.649.241.286.481.574.712.869a1.228,1.228,0,0,1,.161,1.23,1.28,1.28,0,0,1-1.232.557,1.053,1.053,0,0,1-.575-.364c-.363-.426-.683-.891-1.069-1.294-.561-.587-1-1.277-1.579-1.845a1.66,1.66,0,0,1-.511-.789,1.042,1.042,0,0,1,1.072-1.38" transform="translate(-64.471 -25.717)" fill="#fff"/>
            <path id="Trazado_825844" data-name="Trazado 825844" d="M134.012,4.414q0-.907,0-1.814a.483.483,0,0,0,0-.3c0-.126,0-.252,0-.377l0-.1c0-.216.021-.434.008-.649A1.089,1.089,0,0,1,135.664.122a1.018,1.018,0,0,1,.575.939c.007,1.55.015,3.1,0,4.651a1.1,1.1,0,0,1-1.06,1.011,1.024,1.024,0,0,1-1.157-1.079c-.016-.33-.009-.661-.013-.991a.288.288,0,0,0,0-.24" transform="translate(-97.237 0)" fill="#fff"/>
            <path id="Trazado_825845" data-name="Trazado 825845" d="M40.034,53.915a1.468,1.468,0,0,1,1.025.416c.737.619,1.463,1.25,2.212,1.854a13.176,13.176,0,0,1,1.173,1.041.86.86,0,0,1,.2,1.185,1.139,1.139,0,0,1-1.062.634.382.382,0,0,1-.186-.055,6.352,6.352,0,0,1-1.417-1.027c-.5-.451-1.018-.871-1.525-1.309a11.1,11.1,0,0,1-1.111-.962,1.057,1.057,0,0,1-.283-1.042.973.973,0,0,1,.974-.735" transform="translate(-28.308 -39.118)" fill="#fff"/>
          </g>
        </g>
      </g>
    </g>
  </g>
</svg>
