<svg xmlns="http://www.w3.org/2000/svg" xmlns:xlink="http://www.w3.org/1999/xlink" width="125" height="125" viewBox="0 0 125 125">
  <defs>
    <clipPath id="clip-path">
      <rect id="Rectángulo_378834" data-name="Rectángulo 378834" width="89.28" height="86.955" fill="none"/>
    </clipPath>
  </defs>
  <g id="Grupo_1074932" data-name="Grupo 1074932" transform="translate(6160 -560.713)">
    <g id="Grupo_1074695" data-name="Grupo 1074695" transform="translate(-6898 -1585.287)">
      <path id="Trazado_608386" data-name="Trazado 608386" d="M62.5,0A62.5,62.5,0,1,1,0,62.5,62.5,62.5,0,0,1,62.5,0Z" transform="translate(738 2146)" fill="#fff"/>
    </g>
    <g id="Grupo_1074700" data-name="Grupo 1074700" transform="translate(-6141 578.719)">
      <g id="Grupo_1074699" data-name="Grupo 1074699" clip-path="url(#clip-path)">
        <path id="Trazado_826250" data-name="Trazado 826250" d="M75.92,34.076q0,5.755-.006,11.511a.489.489,0,0,0,.343.543A19.123,19.123,0,0,1,79.5,47.786a20.646,20.646,0,0,1,5.764,5.128,19.57,19.57,0,0,1,2.381,4.041,21.091,21.091,0,0,1,1.282,4.111,14.872,14.872,0,0,1,.331,3.991,22.149,22.149,0,0,1-.835,4.741,18.362,18.362,0,0,1-1.542,3.7,20.85,20.85,0,0,1-3.784,4.979,27.248,27.248,0,0,1-2.49,2.064,28.4,28.4,0,0,1-4.1,2.43,16.258,16.258,0,0,1-1.9.741c-.454.168-.9.4-1.37.546-.958.3-1.924.575-2.9.809a3.472,3.472,0,0,1-1.367.1,1.379,1.379,0,0,1-1-1.643,2.34,2.34,0,0,1,1.344-1.149,16.66,16.66,0,0,0,7.117-5.926,10.33,10.33,0,0,0,1.435-3.635,10.174,10.174,0,0,0,.1-2.6,9.741,9.741,0,0,0-1.836-4.922c-.132-.192-.239-.311-.422-.032a2.752,2.752,0,0,1-1.031.792c-.889.51-1.78,1.014-2.671,1.52-1.263.717-2.539,1.413-3.785,2.159-.993.595-2,1.155-3.019,1.709A5.336,5.336,0,0,1,64.072,72c-.229.065-.471.407-.752.568q-1.79,1.031-3.583,2.057-2.713,1.561-5.424,3.125c-1.282.739-2.542,1.518-3.851,2.2-.966.507-1.878,1.1-2.83,1.625-1.41.782-2.794,1.61-4.19,2.415-1.588.915-3.179,1.824-4.764,2.742a1.278,1.278,0,0,1-1.44-.019c-3.159-1.844-6.358-3.618-9.514-5.467-1.449-.849-2.952-1.6-4.384-2.475-4.085-2.494-8.278-4.8-12.416-7.2Q5.993,68.718,1.035,65.9A1.885,1.885,0,0,1,0,64.079Q.026,43.266.015,22.453a1.552,1.552,0,0,1,.97-1.328c.637-.377,1.31-.693,1.934-1.088,1.1-.7,2.243-1.308,3.368-1.956q3.944-2.274,7.888-4.547c2.222-1.285,4.435-2.584,6.661-3.861,1.36-.781,2.757-1.5,4.1-2.307S27.645,5.8,29,5.017q3.19-1.849,6.386-3.685c.681-.393,1.372-.77,2.044-1.178a1.2,1.2,0,0,1,1.346.134c.592.385,1.22.7,1.822,1.058.922.551,1.843,1.1,2.786,1.619,1.23.67,2.442,1.373,3.647,2.084,1.6.944,3.223,1.846,4.826,2.784.923.541,1.82,1.132,2.772,1.616.914.465,1.746,1.063,2.651,1.537,1.284.672,2.492,1.476,3.77,2.157.75.4,1.451.887,2.209,1.264.677.337,1.28.79,1.955,1.123a10.443,10.443,0,0,1,1,.495,6.538,6.538,0,0,0,.784.549c1.164.522,2.19,1.288,3.323,1.869.5.256.981.583,1.471.874.7.418,1.4.861,2.131,1.22a13.748,13.748,0,0,1,1.581.979.971.971,0,0,1,.364.655,3.807,3.807,0,0,1,.048.713q0,5.6,0,11.193M39.633,83.035c1.045-.6,2.092-1.189,3.136-1.788Q50.887,76.583,59,71.915c4.435-2.549,8.861-5.114,13.313-7.634.625-.354.986-.7.865-1.456a.684.684,0,0,0-.328-.574c-.368-.209-.73-.431-1.105-.627a16.6,16.6,0,0,0-3.467-1.358c-.97-.256-1.969-.332-2.938-.571a4.965,4.965,0,0,0-1.66-.072l-.028,0c0,.016,0,.032.005.047,0,1.366,0,2.733-.011,4.1a3.157,3.157,0,0,1-.053.672,1.4,1.4,0,0,1-2.145.871c-.455-.308-.895-.638-1.339-.963q-2.439-1.783-4.876-3.568c-1.144-.835-2.294-1.664-3.438-2.5s-2.316-1.681-3.459-2.541a35.141,35.141,0,0,1-3.188-2.377,1.216,1.216,0,0,1-.05-1.857c.465-.473,1.025-.842,1.487-1.308.691-.7,1.531-1.206,2.235-1.885.49-.472,1.089-.829,1.586-1.294.733-.684,1.525-1.3,2.292-1.936.943-.784,1.892-1.567,2.852-2.334,1.232-.983,2.395-2.052,3.615-3.05q1.037-.848,2.04-1.732a1.452,1.452,0,0,1,1.683-.157,1.54,1.54,0,0,1,.761,1.467c0,1.262,0,2.523-.02,3.784,0,.318.076.455.424.446a15.912,15.912,0,0,1,2.447.153,14.456,14.456,0,0,0,1.675.225,19.362,19.362,0,0,1,2.7.489,9.818,9.818,0,0,1,1.96.528c.285.107.369.009.368-.289q-.02-8.744-.025-17.487a10.853,10.853,0,0,1,.034-2.053c.03-.158-.089-.157-.166-.13a2.209,2.209,0,0,0-.391.193c-1.884,1.084-3.779,2.151-5.647,3.262-1.321.786-2.676,1.513-3.992,2.311-1.1.664-2.233,1.275-3.352,1.907-1.662.94-3.289,1.942-4.959,2.867q-1.525.845-3.031,1.72-3.229,1.867-6.461,3.729-.724.417-1.453.825c-.38.213-.732.491-1.116.671a2.555,2.555,0,0,0-1.124.662c-.047.063-.1.067-.159.094a14.377,14.377,0,0,0-1.829,1.028.332.332,0,0,0-.151.4c0,.027,0,.055,0,.082,0,.066-.008.133-.008.2q0,13.027,0,26.054,0,5.876,0,11.752c-.011.148-.1.317.051.431.056.041.145-.028.19-.1m-2.983-38.5c0-.308-.262-.376-.459-.49q-1.786-1.035-3.579-2.054-2.9-1.655-5.793-3.3c-.118-.067-.221-.246-.372-.153-.12.074-.062.245-.062.373q0,6.135,0,12.269c0,.491.008.983-.006,1.474a1.343,1.343,0,0,1-.908,1.208,1.638,1.638,0,0,1-1.464-.256q-2.129-1.2-4.251-2.421-2.922-1.682-5.837-3.377A1.674,1.674,0,0,1,13,46.189c.031-.835.008-1.673.008-2.509q0-6.334,0-12.667a.425.425,0,0,0-.233-.444c-2.53-1.443-5.051-2.9-7.575-4.354-.753-.433-1.509-.858-2.315-1.316v.48q0,18.961-.009,37.923a.779.779,0,0,0,.45.783c1.186.661,2.36,1.343,3.537,2.021q5.119,2.951,10.237,5.9,5.058,2.909,10.124,5.8,4.284,2.461,8.563,4.933c.279.161.562.316.865.486V44.619l0-.081M78.021,78.912c.162.093.247-.012.342-.074a19.216,19.216,0,0,0,2.01-1.56,17.328,17.328,0,0,0,2.672-2.923,19.563,19.563,0,0,0,1.847-3.047,14.808,14.808,0,0,0,1.18-3.6,8.35,8.35,0,0,0,.307-1.8c-.029-1.03,0-2.06-.045-3.091a12.123,12.123,0,0,0-.4-2.491A15.331,15.331,0,0,0,83.1,54.559a20.4,20.4,0,0,0-10.041-6.753,39.588,39.588,0,0,0-4.7-1.11c-.637-.126-1.3-.071-1.926-.176a22.582,22.582,0,0,0-4.1-.3,1.333,1.333,0,0,1-1.455-1.458c0-.923,0-1.845,0-2.834-.775.642-1.495,1.239-2.215,1.835-2.1,1.734-4.151,3.518-6.292,5.2-.894.7-1.742,1.465-2.611,2.2-.394.332-.818.627-1.182,1-.147.149-.21.288-.009.422.615.411,1.214.843,1.806,1.287q1.6,1.2,3.229,2.351c1.618,1.151,3.184,2.373,4.828,3.492.716.487,1.388,1.053,2.1,1.562.093.067.218.218.265.2.159-.074.09-.255.091-.394.005-.982,0-1.965.005-2.947a1.3,1.3,0,0,1,1.289-1.383c.384-.033.763.054,1.142.059a19.287,19.287,0,0,1,2.867.234,21.757,21.757,0,0,1,3.977.946,21.235,21.235,0,0,1,2.275.914,15.623,15.623,0,0,1,6.442,5.668,11.183,11.183,0,0,1,1.765,4.944,12.981,12.981,0,0,1-.306,4.7,14.057,14.057,0,0,1-1.219,3.033c-.321.589-.729,1.119-1.107,1.675m-50.2-42.851c.062.042.124.09.192.129q2.821,1.63,5.643,3.257,1.982,1.14,3.971,2.269a.546.546,0,0,0,.588.046c1.3-.692,2.522-1.518,3.833-2.195,1.18-.61,2.311-1.314,3.464-1.977q5.824-3.353,11.649-6.706,4.775-2.746,9.553-5.486c1.576-.9,3.156-1.8,4.732-2.7.1-.055.273-.023.279-.174,0-.132-.138-.181-.24-.24-.766-.449-1.53-.9-2.3-1.344-2.423-1.4-4.851-2.786-7.27-4.191a.617.617,0,0,0-.7.023c-.616.365-1.228.736-1.848,1.092q-5.1,2.931-10.209,5.857-4.84,2.784-9.673,5.58-3.876,2.233-7.756,4.459c-1.092.627-2.189,1.247-3.278,1.879-.215.124-.527.106-.631.42M14.306,28.274a.753.753,0,0,0,.519-.163q6.279-3.616,12.558-7.234,5.43-3.125,10.863-6.245,4.829-2.773,9.661-5.541c.088-.051.238-.071.229-.19s-.158-.165-.259-.223C44.716,6.865,41.55,5.059,38.4,3.23a.7.7,0,0,0-.822.009q-4.361,2.533-8.733,5.045-5.524,3.178-11.053,6.348Q14.7,16.411,11.6,18.195q-3.465,1.991-6.936,3.974c-.491.281-.5.283-.019.563q4.665,2.7,9.336,5.39c.114.066.238.113.322.153M17.139,29.9c.03.058.034.074.043.08q3.773,2.165,7.544,4.332a.557.557,0,0,0,.626-.024c.967-.568,1.939-1.129,2.91-1.69l7.717-4.463,5.5-3.176q2.734-1.58,5.469-3.158c.967-.555,1.947-1.086,2.914-1.64,1.2-.688,2.392-1.389,3.589-2.082q2.465-1.426,4.933-2.846c.117-.068.321-.083.327-.215s-.176-.208-.3-.281c-1.084-.626-2.164-1.257-3.248-1.883-1.247-.719-2.5-1.427-3.744-2.156a.779.779,0,0,0-.875-.01q-1.531.87-3.057,1.748c-1.32.756-2.631,1.531-3.95,2.289q-3.744,2.152-7.494,4.3c-1.064.607-2.134,1.208-3.191,1.83-.925.545-1.874,1.062-2.8,1.61-1.091.649-2.206,1.256-3.3,1.9-1.2.711-2.413,1.391-3.629,2.069-1.061.591-2.086,1.252-3.152,1.836-.75.411-1.486.845-2.223,1.278-.2.117-.333.351-.614.351M23.6,50.2v-.295c0-4.14-.008-8.28.01-12.42a.979.979,0,0,0-.566-1.039c-1.021-.561-2.017-1.176-3.026-1.758-1.262-.728-2.541-1.43-3.8-2.16-.12-.069-.235-.244-.379-.149-.123.082-.073.268-.073.41,0,1.725.012,3.45.01,5.175q0,3.742-.027,7.483c0,.251.136.345.317.448,1.228.7,2.448,1.423,3.682,2.118,1.266.713,2.493,1.5,3.856,2.186" transform="translate(0.001 0)"/>
        <path id="Trazado_826251" data-name="Trazado 826251" d="M42.758,97.6v38.612c-.3-.169-.586-.325-.866-.486q-4.282-2.466-8.563-4.933-5.059-2.906-10.124-5.8-5.122-2.945-10.236-5.9c-1.176-.678-2.351-1.36-3.537-2.021a.778.778,0,0,1-.45-.783Q9,97.319,8.991,78.358v-.48c.806.458,1.562.883,2.315,1.316,2.524,1.452,5.045,2.911,7.574,4.354a.425.425,0,0,1,.234.444q0,6.334,0,12.667c0,.836.023,1.674-.008,2.509a1.674,1.674,0,0,0,.926,1.617q2.917,1.69,5.837,3.377,2.121,1.22,4.252,2.421a1.638,1.638,0,0,0,1.464.256,1.342,1.342,0,0,0,.908-1.208c.014-.491.006-.982.006-1.474q0-6.135,0-12.269c0-.129-.057-.3.062-.373.151-.093.254.086.371.153q2.9,1.648,5.793,3.3Q40.514,96,42.3,97.029c.2.114.461.182.459.49-.009.007-.026.017-.025.022a.344.344,0,0,0,.022.059" transform="translate(-6.11 -52.98)" fill="#f2d0a4"/>
        <path id="Trazado_826252" data-name="Trazado 826252" d="M147.477,112.675a4.979,4.979,0,0,1,1.66.072c.97.239,1.969.315,2.938.571a16.613,16.613,0,0,1,3.468,1.358c.375.2.737.418,1.105.627a.685.685,0,0,1,.327.574c.121.758-.239,1.1-.865,1.457-4.452,2.52-8.878,5.085-13.313,7.634q-8.118,4.667-16.236,9.331c-1.044.6-2.091,1.193-3.136,1.788-.134-.071-.138-.237-.241-.332q0-5.876,0-11.751,0-13.027,0-26.054c0-.066.005-.132.008-.2.009-.008.026-.02.024-.025a.357.357,0,0,0-.029-.058.331.331,0,0,1,.151-.4,14.335,14.335,0,0,1,1.828-1.028c.057-.027.113-.031.16-.094a2.56,2.56,0,0,1,1.124-.662c.384-.179.736-.458,1.116-.671q.729-.409,1.453-.825,3.232-1.863,6.461-3.729,1.508-.873,3.03-1.721c1.67-.926,3.3-1.928,4.958-2.867,1.119-.633,2.256-1.243,3.352-1.907,1.316-.8,2.671-1.524,3.992-2.311,1.868-1.112,3.763-2.178,5.647-3.263a2.229,2.229,0,0,1,.39-.193c.077-.026.2-.028.166.13a10.884,10.884,0,0,0-.034,2.054q.009,8.743.025,17.487c0,.3-.083.4-.368.289a9.849,9.849,0,0,0-1.96-.528,19.39,19.39,0,0,0-2.7-.489,14.469,14.469,0,0,1-1.675-.225,15.912,15.912,0,0,0-2.447-.153c-.348.009-.428-.128-.424-.446.018-1.261.021-2.522.02-3.784a1.54,1.54,0,0,0-.761-1.467,1.453,1.453,0,0,0-1.683.157q-1,.886-2.04,1.732c-1.221,1-2.383,2.067-3.615,3.05-.96.766-1.909,1.549-2.852,2.333-.767.638-1.559,1.252-2.291,1.936-.5.465-1.1.822-1.586,1.294-.7.679-1.544,1.187-2.235,1.885-.462.466-1.022.835-1.487,1.308a1.216,1.216,0,0,0,.05,1.856,35.091,35.091,0,0,0,3.188,2.377c1.143.861,2.3,1.7,3.459,2.541s2.294,1.664,3.438,2.5q2.44,1.782,4.876,3.569c.444.324.884.655,1.339.963a1.4,1.4,0,0,0,2.145-.871,3.155,3.155,0,0,0,.053-.671c.007-1.366.007-2.733.01-4.1a.048.048,0,0,0,.023-.05" transform="translate(-83.792 -53.052)" fill="#e3a66e"/>
        <path id="Trazado_826253" data-name="Trazado 826253" d="M181.11,168.126c.377-.556.786-1.086,1.107-1.675a14.052,14.052,0,0,0,1.218-3.033,12.975,12.975,0,0,0,.306-4.7,11.186,11.186,0,0,0-1.765-4.944,15.621,15.621,0,0,0-6.442-5.668,21.1,21.1,0,0,0-2.275-.914,21.779,21.779,0,0,0-3.977-.946,19.287,19.287,0,0,0-2.867-.234c-.379,0-.758-.092-1.142-.059a1.3,1.3,0,0,0-1.289,1.383c-.006.982,0,1.965,0,2.947,0,.138.068.319-.091.393-.047.022-.172-.129-.265-.2-.708-.509-1.381-1.075-2.1-1.562-1.644-1.118-3.21-2.341-4.828-3.492q-1.628-1.157-3.229-2.351c-.592-.444-1.191-.876-1.806-1.286-.2-.135-.139-.273.009-.422.364-.369.788-.664,1.182-1,.87-.734,1.717-1.5,2.611-2.2,2.14-1.682,4.2-3.466,6.292-5.2.721-.6,1.44-1.193,2.215-1.835,0,.989,0,1.912,0,2.834a1.333,1.333,0,0,0,1.455,1.458,22.577,22.577,0,0,1,4.1.3c.628.1,1.289.051,1.926.176a39.652,39.652,0,0,1,4.7,1.109,20.4,20.4,0,0,1,10.041,6.754,15.326,15.326,0,0,1,2.841,5.768,12.14,12.14,0,0,1,.4,2.491c.04,1.031.015,2.061.045,3.091a8.369,8.369,0,0,1-.307,1.8,14.807,14.807,0,0,1-1.18,3.6,19.623,19.623,0,0,1-1.847,3.047,17.35,17.35,0,0,1-2.672,2.923,19.246,19.246,0,0,1-2.011,1.56c-.095.063-.181.168-.342.075" transform="translate(-103.088 -89.214)" fill="#6bf5c1"/>
        <path id="Trazado_826254" data-name="Trazado 826254" d="M87.027,71.494c.1-.314.417-.3.631-.42,1.089-.633,2.186-1.252,3.278-1.879q3.879-2.228,7.756-4.459,4.838-2.788,9.673-5.58,5.1-2.934,10.208-5.857c.621-.356,1.233-.727,1.848-1.092a.618.618,0,0,1,.7-.023c2.419,1.405,4.846,2.794,7.27,4.191.769.443,1.534.9,2.3,1.344.1.059.246.108.24.24-.006.151-.182.119-.278.174-1.576.9-3.156,1.8-4.732,2.7q-4.778,2.74-9.553,5.486-5.826,3.351-11.649,6.706c-1.152.663-2.284,1.367-3.463,1.977-1.311.677-2.533,1.5-3.833,2.195a.547.547,0,0,1-.589-.046q-1.987-1.132-3.971-2.269-2.824-1.625-5.643-3.257c-.068-.039-.13-.087-.192-.129" transform="translate(-59.204 -35.433)" fill="#c48857"/>
        <path id="Trazado_826255" data-name="Trazado 826255" d="M23.441,34.876c-.083-.039-.208-.087-.322-.153q-4.67-2.692-9.336-5.39c-.484-.28-.473-.283.019-.563q3.47-1.982,6.935-3.974,3.1-1.778,6.188-3.562,5.525-3.176,11.052-6.348,4.371-2.515,8.733-5.045a.7.7,0,0,1,.822-.009c3.153,1.828,6.319,3.634,9.48,5.448.1.058.249.1.259.223s-.14.139-.228.19q-4.83,2.772-9.661,5.541-5.433,3.12-10.863,6.245-6.28,3.615-12.558,7.234a.751.751,0,0,1-.519.163" transform="translate(-9.134 -6.602)" fill="#c48857"/>
        <path id="Trazado_826256" data-name="Trazado 826256" d="M53.61,52.374c.28,0,.413-.233.614-.351.737-.432,1.473-.867,2.223-1.278,1.067-.585,2.091-1.246,3.152-1.836,1.217-.677,2.432-1.358,3.629-2.069,1.091-.648,2.206-1.256,3.3-1.9.922-.548,1.871-1.065,2.8-1.609,1.057-.622,2.127-1.224,3.191-1.831q3.752-2.14,7.494-4.3c1.319-.758,2.63-1.532,3.95-2.289q1.527-.875,3.057-1.748a.778.778,0,0,1,.874.01c1.242.729,2.5,1.436,3.744,2.156,1.084.625,2.164,1.257,3.248,1.883.127.073.309.143.3.281s-.211.147-.328.215q-2.468,1.42-4.932,2.846c-1.2.693-2.389,1.395-3.589,2.082-.967.554-1.947,1.085-2.914,1.64q-2.739,1.572-5.469,3.158l-5.5,3.176-7.717,4.464c-.971.562-1.943,1.122-2.91,1.69a.556.556,0,0,1-.626.024q-3.769-2.172-7.544-4.332c-.01-.005-.012-.022-.043-.08" transform="translate(-36.471 -22.472)" fill="#f2d0a4"/>
        <path id="Trazado_826257" data-name="Trazado 826257" d="M57.1,119.052c-1.363-.689-2.59-1.473-3.856-2.186-1.233-.7-2.454-1.414-3.682-2.118-.181-.1-.318-.2-.317-.448q.024-3.742.027-7.483c0-1.725-.008-3.45-.01-5.175,0-.142-.05-.328.073-.41.144-.095.259.08.379.149,1.263.73,2.543,1.431,3.8,2.16,1.009.582,2.006,1.2,3.026,1.758a.979.979,0,0,1,.566,1.039c-.018,4.14-.01,8.28-.01,12.42v.295" transform="translate(-33.501 -68.849)" fill="#f7f9fb"/>
        <path id="Trazado_826258" data-name="Trazado 826258" d="M123.135,258.685c.1.094.106.261.241.332-.046.07-.134.14-.19.1-.155-.114-.061-.282-.051-.431" transform="translate(-83.742 -175.982)" fill="#c48857"/>
        <path id="Trazado_826259" data-name="Trazado 826259" d="M114.581,139.392a.343.343,0,0,1-.022-.059c0-.005.016-.015.025-.022l0,.081" transform="translate(-77.934 -94.772)" fill="#c48857"/>
        <path id="Trazado_826260" data-name="Trazado 826260" d="M123.217,139.557a.345.345,0,0,1,.029.058c0,.005-.016.016-.024.024,0-.027,0-.055,0-.082" transform="translate(-83.824 -94.94)" fill="#c48857"/>
        <path id="Trazado_826261" data-name="Trazado 826261" d="M199.14,186.492a.048.048,0,0,1-.023.05c0-.016,0-.032-.005-.048l.028,0" transform="translate(-135.455 -126.869)" fill="#c48857"/>
      </g>
    </g>
  </g>
</svg>
