<svg xmlns="http://www.w3.org/2000/svg" xmlns:xlink="http://www.w3.org/1999/xlink" width="129" height="128" viewBox="0 0 129 128">
  <defs>
    <clipPath id="clip-path">
      <rect id="Rectángulo_378543" data-name="Rectángulo 378543" width="70" height="74.123" fill="none"/>
    </clipPath>
  </defs>
  <g id="Grupo_1074726" data-name="Grupo 1074726" transform="translate(-390 -10484)">
    <g id="Grupo_108927" data-name="Grupo 108927" transform="translate(0 6017)">
      <path id="Rectángulo_36179" data-name="Rectángulo 36179" d="M0,0H129V128H0Z" transform="translate(390 4467)" fill="#ecb062"/>
      <path id="Rectángulo_36181" data-name="Rectángulo 36181" d="M6.132,0H81.754a21.8,21.8,0,0,1,21.8,21.8v74.26a6.132,6.132,0,0,1-6.132,6.132H6.132A6.132,6.132,0,0,1,0,96.061V6.132A6.132,6.132,0,0,1,6.132,0Z" transform="translate(402.944 4479.944)" fill="#590e00"/>
    </g>
    <g id="Grupo_1074558" data-name="Grupo 1074558" transform="translate(420 10511)">
      <g id="Grupo_1074557" data-name="Grupo 1074557" clip-path="url(#clip-path)">
        <path id="Trazado_825833" data-name="Trazado 825833" d="M57.694,37.375q1.833-1.8,3.665-3.6a3.8,3.8,0,0,1,2.894-1.231A4.249,4.249,0,0,1,67.28,34.04c.48.513,1,.99,1.488,1.5a4.056,4.056,0,0,1,1.2,2.405,3.879,3.879,0,0,1-1.233,3.25c-.842.889-1.721,1.74-2.584,2.606q-3.375,3.386-6.789,6.732c-.631.619-1.274,1.225-1.879,1.87-.162.063-.233.218-.346.331-1.673,1.676-3.355,3.342-5.031,5.016-.891.89-1.774,1.79-2.66,2.686-.948.947-1.892,1.9-2.845,2.838-1.062,1.048-2.108,2.111-3.2,3.132s-2.125,2.116-3.184,3.178a4.47,4.47,0,0,1-1.383.944c-.926.4-1.857.8-2.788,1.193a1.008,1.008,0,0,0-.428.272h.488q5.077,0,10.155,0c.686,0,1.371-.007,2.057-.011,1.6,0,3.205.018,4.808.008a3.463,3.463,0,0,0,3.421-3.706q.014-5.939-.005-11.878a1.157,1.157,0,0,1,1.072-1.157,1.177,1.177,0,0,1,1.062,1.329c0,3.641,0,7.282-.005,10.923,0,.5-.022,1.008-.047,1.512a5.565,5.565,0,0,1-2.993,4.475,6.419,6.419,0,0,1-1.981.575,9.835,9.835,0,0,1-1.445.053q-23.048.006-46.1.012A5.987,5.987,0,0,1,1.8,72.539,5.435,5.435,0,0,1,.245,69.847,9.625,9.625,0,0,1,0,67.489Q.005,36.73,0,5.97A5.918,5.918,0,0,1,.37,3.783,5.733,5.733,0,0,1,2.182,1.234,5.694,5.694,0,0,1,4.392.179,7.9,7.9,0,0,1,6.144,0q23.2.011,46.394.017a6.359,6.359,0,0,1,3.273.712,5.416,5.416,0,0,1,2.267,2.434,4.737,4.737,0,0,1,.565,2.065c-.007.53.035,1.074.036,1.61q.008,13.213,0,26.427a1.181,1.181,0,0,1-.472,1.117,1.418,1.418,0,0,1-.589.167.975.975,0,0,1-.972-.607,1.524,1.524,0,0,1-.084-.754Q56.552,24.093,56.558,15c0-.63,0-.63-.6-.609l-.133,0-3.549.007q-1.308,0-2.617.01c-.354-.008-.707-.024-1.061-.024H8.836c-2.113,0-4.226,0-6.338-.013-.265,0-.306.059-.306.3Q2.2,29.585,2.2,44.493q0,11.953-.013,23.905a3.932,3.932,0,0,0,.2,1.283A3.328,3.328,0,0,0,5.42,71.973c7.556.031,15.112.015,22.667.015.044,0,.089,0,.133,0,.137.013.205-.037.2-.186a.478.478,0,0,1,.03-.224c.373-.864.733-1.733,1.107-2.6.66-1.525,1.339-3.041,1.985-4.572a7.784,7.784,0,0,1,1.7-2.609c1.25-1.227,2.459-2.5,3.711-3.723.9-.886,1.794-1.786,2.691-2.679q4.211-4.192,8.421-8.384c.563-.561,1.114-1.136,1.67-1.7.05-.042.1-.08.151-.126q2.148-2.136,4.3-4.275,1.764-1.763,3.52-3.535M29.375,12.227v0q13.441,0,26.882.006c.252,0,.31-.065.305-.31-.046-2.231.074-4.464-.072-6.694a3.109,3.109,0,0,0-.335-1.237,3.417,3.417,0,0,0-3.262-1.844Q29.312,2.113,5.731,2.13a3.534,3.534,0,0,0-1.722.46,3.357,3.357,0,0,0-1.8,3.1c-.02,2.081,0,4.161-.013,6.242,0,.273.1.3.329.3q13.424-.007,26.848,0m30.962,34.3a.572.572,0,0,0-.205-.294c-.76-.757-1.525-1.509-2.283-2.268q-.8-.8-1.58-1.61c-.189-.2-.327-.226-.542-.007q-2.235,2.269-4.493,4.515-3.846,3.849-7.7,7.694c-1.3,1.294-2.6,2.579-3.9,3.872-.812.809-1.591,1.651-2.429,2.432-.654.609-1.216,1.308-1.9,1.883-.161.135-.144.235,0,.372a9.817,9.817,0,0,1,.8.82c.511.622,1.148,1.111,1.694,1.7.483.52,1.031.987,1.518,1.511.124.133.224.176.39.007C43.282,63.514,46.96,59.986,50.5,56.32q.986-1.021,2.034-1.987c.965-.893,1.87-1.851,2.8-2.78q2.4-2.388,4.794-4.776a.636.636,0,0,0,.206-.254m3.8-11.78a1.306,1.306,0,0,0-1.043.333c-.8.72-1.53,1.5-2.289,2.256-.136.136-.156.223,0,.368.42.392.823.8,1.229,1.208q1.369,1.373,2.734,2.75c.124.124.234.281.432.079.72-.732,1.459-1.446,2.169-2.188a1.7,1.7,0,0,0-.04-2.437q-.9-.906-1.8-1.807a1.669,1.669,0,0,0-1.393-.563m-5.045,4.3a.206.206,0,0,0-.168.082q-.649.681-1.307,1.355c-.1.107-.076.18.019.274q2.073,2.043,4.138,4.1c.147.146.235.107.352-.013.409-.419.817-.839,1.233-1.25.132-.13.137-.221,0-.354q-2.046-2.032-4.084-4.071c-.052-.052-.091-.132-.186-.117M37.776,68.637c-.019-.107-.105-.167-.174-.235q-1.82-1.815-3.642-3.629c-.123-.123-.185-.12-.256.046-.262.615-.528,1.229-.806,1.837A.356.356,0,0,0,33,67.1c.79.788,1.584,1.571,2.375,2.358a.36.36,0,0,0,.437.075,13.746,13.746,0,0,1,1.859-.753.113.113,0,0,0,.1-.142m-6.929,3.015a.277.277,0,0,0,.043-.009q1.16-.5,2.319-1c.164-.071.136-.188.037-.286-.411-.408-.827-.809-1.242-1.213-.1-.094-.15-.076-.211.052-.133.277-.215.573-.358.848-.242.465-.445.95-.658,1.429-.032.072-.082.181.071.177" transform="translate(0 0)" fill="#fff"/>
        <path id="Trazado_825834" data-name="Trazado 825834" d="M67.572,86.667c-.232-.007-.464-.021-.695-.021q-20.354,0-40.708.005a2.878,2.878,0,0,1-1.044-.093,1.077,1.077,0,0,1-.574-1.5,1.178,1.178,0,0,1,1.152-.571c.708-.015,1.415,0,2.123,0H65.481c.7,0,1.393.032,2.089-.023.5,0,1-.022,1.491.016a1.042,1.042,0,0,1,1.093.968,1.014,1.014,0,0,1-.643,1.1,1.763,1.763,0,0,1-.613.092l-1.325.019" transform="translate(-17.916 -61.96)" fill="#fff"/>
        <path id="Trazado_825835" data-name="Trazado 825835" d="M67.579,144.692c-.287,0-.575-.011-.862-.011q-20.457,0-40.914,0a1.334,1.334,0,0,1-1.072-.392.9.9,0,0,1-.233-.985,1.043,1.043,0,0,1,.973-.75c.11-.007.221,0,.332,0H66.983c.2,0,.4-.007.6-.011.5,0,.993,0,1.488.014a1.011,1.011,0,0,1,1.065.75,1.079,1.079,0,0,1-.413,1.158,1.471,1.471,0,0,1-.752.217c-.463,0-.926.006-1.389.01" transform="translate(-17.925 -104.566)" fill="#fff"/>
        <path id="Trazado_825836" data-name="Trazado 825836" d="M67.619,115.718c-.188,0-.376-.01-.563-.01q-20.626,0-41.252,0a1.268,1.268,0,0,1-1.244-.735,1.059,1.059,0,0,1,.879-1.387c.21,0,.42-.011.63-.011l41.119-.009c.143,0,.287-.01.43-.016l.489.012c.076.112.148.129.215-.009.309.01.618.008.925.033a.978.978,0,0,1,.918.785.945.945,0,0,1-.271,1.019,1.388,1.388,0,0,1-.954.31c-.44.016-.881.013-1.322.018" transform="translate(-17.964 -83.296)" fill="#fff"/>
        <path id="Trazado_825837" data-name="Trazado 825837" d="M40.572,171.4q7.266,0,14.532.006a1.75,1.75,0,0,1,.965.111c.517.3.747.691.63,1.151a1.089,1.089,0,0,1-1.146.885q-5.424.005-10.848.005H25.863c-.784,0-1.128-.228-1.35-.833a1.085,1.085,0,0,1,.864-1.3c.485-.031.973-.026,1.459-.026q6.868,0,13.736,0" transform="translate(-17.952 -125.727)" fill="#fff"/>
        <path id="Trazado_825838" data-name="Trazado 825838" d="M36.6,202.53c-3.715,0-7.43-.007-11.145.009a1.175,1.175,0,0,1-1.032-.981,1.1,1.1,0,0,1,.816-1.1,1.765,1.765,0,0,1,.446-.058q10.913,0,21.826,0a1.315,1.315,0,0,1,1.232.582,1.069,1.069,0,0,1-.865,1.54c-.1,0-.2,0-.3,0H36.6" transform="translate(-17.912 -147.01)" fill="#fff"/>
        <path id="Trazado_825839" data-name="Trazado 825839" d="M32.733,231.444q-3.6,0-7.2,0a1.077,1.077,0,0,1-1.091-.97,1.107,1.107,0,0,1,.858-1.092,2.483,2.483,0,0,1,.614-.062q6.917,0,13.833.005a1.289,1.289,0,0,1,1.207.453,1,1,0,0,1,.1,1.1,1.07,1.07,0,0,1-1.027.563q-2.62,0-5.241,0H32.733Z" transform="translate(-17.928 -168.222)" fill="#fff"/>
      </g>
    </g>
  </g>
</svg>
