<svg xmlns="http://www.w3.org/2000/svg" xmlns:xlink="http://www.w3.org/1999/xlink" width="142" height="142" viewBox="0 0 142 142">
  <defs>
    <clipPath id="clip-path">
      <rect id="Rectángulo_378523" data-name="Rectángulo 378523" width="96" height="95.557" fill="none" stroke="#590e00" stroke-width="3"/>
    </clipPath>
  </defs>
  <g id="Grupo_1071494" data-name="Grupo 1071494" transform="translate(-269.001 -958.001)">
    <circle id="Elipse_5614" data-name="Elipse 5614" cx="71" cy="71" r="71" transform="translate(269.001 958.001)" fill="#590e00"/>
    <g id="Grupo_1074446" data-name="Grupo 1074446" transform="translate(292.001 981.223)">
      <g id="Grupo_1074445" data-name="Grupo 1074445" clip-path="url(#clip-path)">
        <path id="Trazado_825712" data-name="Trazado 825712" d="M39.422,78.39a3.446,3.446,0,0,1-2.542,1.218,2.087,2.087,0,0,1-1.052-.29c-1.229-.679-2.47-1.335-3.7-2.01-.84-.461-1.668-.944-2.505-1.411q-3.7-2.065-7.4-4.126c-.972-.542-1.93-1.109-2.916-1.622-1.036-.54-2.031-1.152-3.054-1.713-1.879-1.03-3.75-2.076-5.625-3.113-.9-.5-1.811-.99-2.711-1.494-1.188-.665-2.368-1.342-3.555-2.009q-1.212-.68-2.435-1.342A3.433,3.433,0,0,1,0,57.189Q.028,41.916.01,26.643c0-1.885.013-3.77,0-5.655A2.934,2.934,0,0,1,1.8,18.1c1.682-.8,3.379-1.578,5.058-2.389,1.251-.6,2.476-1.261,3.726-1.868,1.847-.9,3.709-1.763,5.558-2.657,1.685-.814,3.359-1.651,5.042-2.47,1.877-.913,3.76-1.813,5.637-2.725,2.129-1.034,4.252-2.081,6.382-3.114,1.741-.844,3.489-1.671,5.231-2.513a3.391,3.391,0,0,1,3.12.029q1.458.713,2.918,1.423,2.87,1.392,5.741,2.78,1.67.809,3.339,1.62l6.011,2.906q3.362,1.625,6.724,3.25c1.978.958,3.966,1.9,5.925,2.892,1.231.625,2.5,1.173,3.714,1.833.641.348,1.353.63,2.043.919A3.052,3.052,0,0,1,80,21.069c.028,4.955.008,9.91,0,14.865a5.834,5.834,0,0,1-.191,1.72A3.2,3.2,0,0,1,77.993,39.6l-.19.036a3.948,3.948,0,0,1-.75.124,3.024,3.024,0,0,1-3-2.555A14.441,14.441,0,0,1,74,34.774c-.009-2.783,0-5.566-.009-8.349,0-.254.191-.6,0-.734s-.441.169-.664.274q-2.359,1.1-4.7,2.244c-2.65,1.286-5.295,2.584-7.944,3.871q-3.4,1.654-6.813,3.295-3.192,1.544-6.383,3.088c-1.665.807-3.326,1.62-4.992,2.424a6.056,6.056,0,0,1-2.376.869,2.406,2.406,0,0,1-1.243-.153c-.841-.519-1.749-.891-2.627-1.323-3.578-1.759-7.168-3.492-10.755-5.232-.481-.234-.967-.458-1.489-.7v.58q0,4.69,0,9.38a4.845,4.845,0,0,1-.084.931,3.058,3.058,0,0,1-3.172,2.488,3.148,3.148,0,0,1-2.671-2.482,7.482,7.482,0,0,1-.067-1.367q0-6.018.011-12.036c0-.218.023-.429-.238-.535-1.414-.572-2.694-1.44-4.162-1.895-.531-.575-1.324-.659-1.966-1.038-.7-.415-1.495-.7-2.209-1.076-1.041-.556-2.159-.951-3.162-1.575-.248-.154-.416-.11-.363.223A12.381,12.381,0,0,1,6.012,27.9q0,12.914,0,25.829c0,.614-.019,1.227,0,1.84a.6.6,0,0,0,.289.592c2.132,1.173,4.257,2.36,6.384,3.542Q19.893,63.7,27.1,67.711q5.54,3.081,11.079,6.164a3.122,3.122,0,0,1,1.785,2.475q-.009.465-.019.931a3.553,3.553,0,0,1-.525,1.111m30.7-57.515c-.081-.149-.231-.171-.355-.23-.964-.461-1.929-.918-2.891-1.383q-4.521-2.184-9.036-4.378a.961.961,0,0,0-.93,0q-3.459,1.739-6.923,3.469-2.2,1.1-4.4,2.215-3.616,1.819-7.232,3.636-4.985,2.5-9.968,5c-.188.095-.54.033-.534.326,0,.25.336.209.517.3q5.651,2.747,11.311,5.478a.713.713,0,0,0,.689,0q1.05-.528,2.108-1.04,4.592-2.23,9.187-4.456l14.811-7.177q1.821-.882,3.649-1.76M21.033,26.147a.631.631,0,0,0,.389-.1q3.416-1.722,6.832-3.44,9.546-4.8,19.095-9.593A21.755,21.755,0,0,1,50.4,11.578c.072-.023.159-.047.157-.119,0-.108-.1-.162-.2-.206-.45-.215-.9-.425-1.35-.643q-4.244-2.068-8.485-4.143a1.048,1.048,0,0,0-1.037-.007c-2.037,1.018-4.089,2.006-6.138,3q-4.86,2.356-9.724,4.705-3.827,1.848-7.658,3.688-2.884,1.393-5.763,2.8c-.1.048-.248.067-.244.2s.158.144.256.191c.63.3,1.264.592,1.891.9q4.093,1.988,8.183,3.98a1.465,1.465,0,0,0,.743.226" transform="translate(0 0)" fill="#fff" stroke="#590e00" stroke-width="3"/>
        <path id="Trazado_825713" data-name="Trazado 825713" d="M162.022,128.513c.055.168.213.158.341.2a23.288,23.288,0,0,1,7.432,3.943,25.718,25.718,0,0,1,7.851,9.838,26.224,26.224,0,0,1,1.649,4.694,23.39,23.39,0,0,1,.577,3.65,22.991,22.991,0,0,1,.158,2.321,32.2,32.2,0,0,1-.5,4.727,24.3,24.3,0,0,1-2.519,7.265,25.268,25.268,0,0,1-5.729,7.282,26.056,26.056,0,0,1-4.542,3.222,27.7,27.7,0,0,1-4.705,2.093,19.992,19.992,0,0,1-2.832.772c-1.054.184-2.111.39-3.188.472a36.18,36.18,0,0,1-3.621.057,22.465,22.465,0,0,1-3.679-.516,19.508,19.508,0,0,1-3.51-1.025,30.365,30.365,0,0,1-3.413-1.54,29.559,29.559,0,0,1-4.75-3.261,23.141,23.141,0,0,1-2.68-2.7,26.814,26.814,0,0,1-3.955-6.137,28.084,28.084,0,0,1-1.506-4.088,3.269,3.269,0,0,0-.072-.42,16.538,16.538,0,0,1-.712-4.128,27.248,27.248,0,0,1,.143-5.489,29.078,29.078,0,0,1,1.008-4.371,27.971,27.971,0,0,1,2.077-4.814,26.857,26.857,0,0,1,5.185-6.537A24.523,24.523,0,0,1,139.4,131.8a26.293,26.293,0,0,1,8.3-3.768,27.463,27.463,0,0,1,5.079-.748l.161-.007,2.332-.022.031.022.037-.01c.6.07,1.2.11,1.79.219a10.412,10.412,0,0,1,1.59.187c.853.3,1.772.327,2.617.662.186.074.371.218.6.157l.084.019m-27.932,25.7a6.545,6.545,0,0,0,.013.983,23.765,23.765,0,0,0,.952,4.3,21.6,21.6,0,0,0,2.606,5.112,19.071,19.071,0,0,0,3.786,4.047,21.26,21.26,0,0,0,5.821,3.266,21.82,21.82,0,0,0,4,.967,16.68,16.68,0,0,0,4.427.137,19.9,19.9,0,0,0,5.112-1.109,23.473,23.473,0,0,0,3.123-1.451,19.288,19.288,0,0,0,2.482-1.7,25.2,25.2,0,0,0,2.323-2.137,17.635,17.635,0,0,0,2.694-3.713,20.541,20.541,0,0,0,1.88-4.424c.151-.5.239-1.008.343-1.517a22.891,22.891,0,0,0,.38-3.045,21.4,21.4,0,0,0-.439-5,14.934,14.934,0,0,0-1.023-3.279,17.839,17.839,0,0,0-.96-1.9c-.357-.627-.7-1.271-1.1-1.872a17.01,17.01,0,0,0-1.277-1.578,26.721,26.721,0,0,0-2.922-2.858,14.829,14.829,0,0,0-1.443-.975,21.005,21.005,0,0,0-2.023-1.2,15.66,15.66,0,0,0-3.551-1.334,18.8,18.8,0,0,0-3.085-.553c-.294-.021-.588-.054-.882-.081a.268.268,0,0,0-.23-.008,18.618,18.618,0,0,0-6.224.611,17.082,17.082,0,0,0-2.391.805,20.148,20.148,0,0,0-4.972,2.933,19.627,19.627,0,0,0-4.772,5.523,19.2,19.2,0,0,0-2.122,5.25,18.437,18.437,0,0,0-.517,3.748l-.022.03.02.031a7.066,7.066,0,0,0-.013,1.88c-.007.011-.021.024-.019.033a.407.407,0,0,0,.028.071" transform="translate(-84.034 -83.512)" fill="#fff" stroke="#590e00" stroke-width="3"/>
        <path id="Trazado_825714" data-name="Trazado 825714" d="M115.2,224.811a3.931,3.931,0,0,1,.081,1.316,1.172,1.172,0,0,1-.606-.205,3.556,3.556,0,0,0,.525-1.111" transform="translate(-75.257 -147.531)" fill="#fff" stroke="#590e00" stroke-width="3"/>
        <path id="Trazado_825715" data-name="Trazado 825715" d="M226.478,115.473c-.107-.039-.12-.138-.146-.229l.19-.037-.044.265" transform="translate(-148.529 -75.604)" fill="#fff" stroke="#590e00" stroke-width="3"/>
        <path id="Trazado_825716" data-name="Trazado 825716" d="M226.626,130.583l.048-.142c.119.029.144.08.036.161l-.084-.019" transform="translate(-148.722 -85.601)" fill="#fff" stroke="#590e00" stroke-width="3"/>
        <path id="Trazado_825717" data-name="Trazado 825717" d="M206.949,144.81l-.23-.009a.267.267,0,0,1,.23.009" transform="translate(-135.658 -95.011)" fill="#fff" stroke="#590e00" stroke-width="3"/>
        <path id="Trazado_825718" data-name="Trazado 825718" d="M199.993,127.243c.05-.067.1-.072.16-.008l-.16.008" transform="translate(-131.244 -83.468)" fill="#fff" stroke="#590e00" stroke-width="3"/>
        <path id="Trazado_825719" data-name="Trazado 825719" d="M207.244,127.229l.037-.016.03.028-.037.01Z" transform="translate(-136.003 -83.483)" fill="#fff" stroke="#590e00" stroke-width="3"/>
        <path id="Trazado_825720" data-name="Trazado 825720" d="M145.592,199.737a.089.089,0,0,1,0,.061l-.019-.031Z" transform="translate(-95.53 -131.076)" fill="#fff" stroke="#590e00" stroke-width="3"/>
        <path id="Trazado_825721" data-name="Trazado 825721" d="M145.554,205.381c0,.035.006.07.009.1a.438.438,0,0,1-.027-.071c0-.009.012-.022.019-.033" transform="translate(-95.507 -134.78)" fill="#fff" stroke="#590e00" stroke-width="3"/>
        <path id="Trazado_825722" data-name="Trazado 825722" d="M194.822,165.357a3.4,3.4,0,0,1,.838-2.288,2.474,2.474,0,0,1,1.653-.8,2.988,2.988,0,0,1,3.495,2.466,2.262,2.262,0,0,1,.044.594c0,3.612.009,7.224-.008,10.836a.966.966,0,0,0,.418.86q3.218,2.47,6.421,4.958c.316.244.639.479.947.733a2.973,2.973,0,0,1,1.026,3.374,3.059,3.059,0,0,1-3.743,1.851,10.421,10.421,0,0,1-1.348-.808c-.722-.427-1.206-1.132-1.973-1.5a5.486,5.486,0,0,1-1.043-.851c-.416-.349-.883-.626-1.288-.995-.581-.53-1.245-.963-1.865-1.446-.528-.411-1.022-.872-1.59-1.235a4.471,4.471,0,0,1-1.556-1.548,4.991,4.991,0,0,1-.431-2.583.869.869,0,0,0,.015-.166q-.007-5.7-.015-11.392a.042.042,0,0,0,0-.064" transform="translate(-127.826 -106.468)" fill="#fff" stroke="#590e00" stroke-width="3"/>
        <path id="Trazado_825723" data-name="Trazado 825723" d="M194.852,171.311a.042.042,0,0,1,0,.064.333.333,0,0,1-.02-.047s.015-.011.023-.016" transform="translate(-127.855 -112.422)" fill="#fff" stroke="#590e00" stroke-width="3"/>
      </g>
    </g>
  </g>
</svg>
