<svg xmlns="http://www.w3.org/2000/svg" xmlns:xlink="http://www.w3.org/1999/xlink" width="142" height="142" viewBox="0 0 142 142">
  <defs>
    <clipPath id="clip-path">
      <rect id="Rectángulo_378524" data-name="Rectángulo 378524" width="86.675" height="86.334" fill="#fff"/>
    </clipPath>
  </defs>
  <g id="Grupo_1071495" data-name="Grupo 1071495" transform="translate(-269.001 -958.001)">
    <circle id="Elipse_5614" data-name="Elipse 5614" cx="71" cy="71" r="71" transform="translate(269.001 958.001)" fill="#590e00"/>
    <g id="Grupo_1074448" data-name="Grupo 1074448" transform="translate(300.328 982.995)">
      <g id="Grupo_1074447" data-name="Grupo 1074447" clip-path="url(#clip-path)">
        <path id="Trazado_825724" data-name="Trazado 825724" d="M.013,55.379Q.013,43.292,0,31.205a6.573,6.573,0,0,1,.549-2.384c.629-1.667,1.362-3.291,1.958-4.972.305-.861.68-1.7,1.017-2.558.855-2.169,1.7-4.343,2.544-6.515q.895-2.289,1.8-4.575a2.553,2.553,0,0,0,.179-.979C8.036,8.2,8,7.187,8.021,6.168A5.973,5.973,0,0,1,11,.976,6.016,6.016,0,0,1,13.909.059c.679-.042,1.356-.052,2.032-.053Q29.885,0,43.83.013a7.054,7.054,0,0,1,3.7.85,6.207,6.207,0,0,1,2.779,3.288,7.953,7.953,0,0,1,.458,2.872c-.007.361.029.725-.007,1.082a7.6,7.6,0,0,0,.7,3.722c1.132,2.749,2.184,5.531,3.266,8.3.547,1.4,1.1,2.8,1.63,4.2.486,1.277,1,2.541,1.47,3.826a21.154,21.154,0,0,1,.777,2.09,3.642,3.642,0,0,1,.1.83c.015,1.353.049,2.707-.021,4.06-.015.3.159.4.376.509a3.665,3.665,0,0,1,1.929,2.105,3.024,3.024,0,0,1,.206,1.457c-.038.256.234.54-.058.785.1.066.129.231.286.234.077,0,.155,0,.232,0,2.849,0,5.7-.005,8.548.007.3,0,.389-.077.373-.377a5.05,5.05,0,0,1,.3-2.181,3.824,3.824,0,0,1,3.48-2.4,3.751,3.751,0,0,1,3.724,3.031,6.15,6.15,0,0,1,.129,1.6c-.009.219.025.325.285.319.7-.014,1.407.023,2.111.053a6.583,6.583,0,0,1,5.621,4.172,7.112,7.112,0,0,1,.361,2.1c.166,8.863.034,17.727.06,26.591a6.3,6.3,0,0,1-3.527,6.059,5.234,5.234,0,0,1-2.41.632q-10.829.038-21.658-.011c-.283,0-.381.055-.4.382a6.274,6.274,0,0,1-4.339,5.743,7.789,7.789,0,0,1-2.4.364q-22.879.02-45.758,0a5.979,5.979,0,0,1-3.915-1.561,7.078,7.078,0,0,1-1.251-1.4,6.241,6.241,0,0,1-.487-1,6.932,6.932,0,0,1-.492-2.886q.01-12.048,0-24.1M48.239,8.522c.009-.682.046-1.364.02-2.045a4.511,4.511,0,0,0-.443-1.89,3.856,3.856,0,0,0-3.681-2.1c-3.05-.053-6.1-.021-9.153-.024-.229-.122-.453.019-.681.018q-9.612-.016-19.224-.012a6.108,6.108,0,0,0-2.134.3A3.666,3.666,0,0,0,11.2,4.1a3.423,3.423,0,0,0-.678,2.228,15.471,15.471,0,0,1-.036,2.16c-.034.333.052.377.317.376,1.237-.007,2.475-.015,3.712-.015q6.594,0,13.188.007a1.422,1.422,0,0,1,1.587,1.309,1.633,1.633,0,0,1-.8,1.127,9.436,9.436,0,0,1-1.185.077q-7.557-.007-15.115,0c-.546,0-1.1.029-1.641.034-.43,0-.593.031-.713.464-.322,1.166-.86,2.257-1.281,3.39-.3.8-.668,1.574-.95,2.379-.4,1.14-.875,2.25-1.3,3.378-.255.671-.534,1.334-.794,2-.468,1.208-.907,2.427-1.4,3.624A18.959,18.959,0,0,1,3.1,29.063a12.419,12.419,0,0,0,1.457.03q8.7-.011,17.4-.006c.141,0,.283-.008.424-.013.09,0,.18.011.27.011H54.939a1.51,1.51,0,0,0,.155,0c.357-.038.435-.155.31-.474-.288-.736-.58-1.47-.868-2.206q-1.162-2.97-2.321-5.941-1.729-4.422-3.453-8.846a.328.328,0,0,0-.364-.25c-.7.008-1.392,0-2.088,0-4.048,0-8.1-.007-12.144.005-1.012,0-1.306-.357-1.518-1.229A1.286,1.286,0,0,1,33.9,8.883c.281-.027.566-.029.848-.029q5.831,0,11.662,0c.437,0,.874-.011,1.311-.016l.081,0,.187.008a.173.173,0,0,0,.214-.029c.1-.023.072-.092.055-.156l-.019-.14M65.6,51.678a1.364,1.364,0,0,1,1.541-1.239h16.55c.09,0,.181-.007.27,0,.164.016.229-.04.223-.214a37.354,37.354,0,0,0-.082-4,3.715,3.715,0,0,0-2.554-3.194,9.155,9.155,0,0,0-3.113-.23c-.21,0-.2.138-.212.288a14.4,14.4,0,0,1-.062,1.454,3.719,3.719,0,0,1-1.72,2.713,3.443,3.443,0,0,1-3.157.45,3.9,3.9,0,0,1-2.576-2.744,6.275,6.275,0,0,1-.136-1.832c.006-.279-.1-.315-.349-.347a10.877,10.877,0,0,0-1.4.014c-2.41,0-4.821,0-7.231-.016-.263,0-.327.078-.315.324a6.855,6.855,0,0,1-.113,1.8,3.567,3.567,0,0,1-1.895,2.5,3.372,3.372,0,0,1-2.973.286,3.934,3.934,0,0,1-2.464-2.517,6.137,6.137,0,0,1-.212-2.062c0-.226-.058-.318-.307-.311-.579.017-1.162-.033-1.739,0a3.858,3.858,0,0,0-3.883,3.7c-.127,1.211-.02,2.446-.028,3.671,0,.195.041.28.254.265.256-.018.515,0,.773,0q6.052,0,12.1,0a1.283,1.283,0,0,1,1.434,1.236,1.3,1.3,0,0,1-1.483,1.245c-4.227-.005-8.454,0-12.681-.013-.358,0-.407.105-.407.425q.014,10.013,0,20.025a4.19,4.19,0,0,0,.688,2.328,3.227,3.227,0,0,0,2.7,1.658c6.894.037,13.788.018,20.683.017.154,0,.308-.012.462-.018q4.33.008,8.661.011a2.155,2.155,0,0,0,.625-.122,3.681,3.681,0,0,0,2.673-3.692c.056-6.766.022-13.533.027-20.3,0-.222-.026-.311-.294-.346a4.02,4.02,0,0,0-.578.031q-8.2-.016-16.4-.008A1.346,1.346,0,0,1,65.6,51.678M51.306,79.862a5.661,5.661,0,0,1-1.856-.315,6.834,6.834,0,0,1-2.612-1.733,6.153,6.153,0,0,1-1.626-4.036c-.028-8.934-.017-17.869-.018-26.8a10.136,10.136,0,0,1,.064-1.07,6.363,6.363,0,0,1,4.326-5.28,9.633,9.633,0,0,1,3.633-.391c.327.02.483-.048.431-.412a3.411,3.411,0,0,1,0-.656A3.8,3.8,0,0,1,55.926,35.6a.416.416,0,0,0,.256-.459c-.007-.993-.008-1.986-.011-2.978,0-.506,0-.505-.5-.505H22.488c-.167,0-.334.013-.5.02-.1-.007-.2-.022-.307-.022q-9.206,0-18.412.008c-.257,0-.6-.078-.746.054-.127.115-.034.476-.034.728q0,23.786.007,47.573a3.652,3.652,0,0,0,.477,1.747,3.976,3.976,0,0,0,3.771,2.084q18.3.01,36.591.01c.222,0,.427-.121.638-.078a11.529,11.529,0,0,0,2.148.059c1.735,0,3.47.014,5.205.009a9.982,9.982,0,0,0,1.415-.061,3.837,3.837,0,0,0,3.419-3.5c.014-.133.111-.315-.107-.4l-.1-.024-.24,0a.055.055,0,0,0-.072,0l-3.954.007a.045.045,0,0,0-.067,0l-.239-.006a.055.055,0,0,0-.072,0m21.73-38.273c0,.76.019,1.521-.007,2.28a1.554,1.554,0,0,0,.552,1.215.994.994,0,0,0,.977.284,1.275,1.275,0,0,0,1.116-1.429c-.012-1.7.038-3.392-.054-5.087A1.317,1.317,0,0,0,74.175,37.8a1.346,1.346,0,0,0-1.137,1.395c-.008.8,0,1.6,0,2.4M56.214,41.55h.021c0,.926-.025,1.854.009,2.779a1.309,1.309,0,0,0,1.328,1.081,1.54,1.54,0,0,0,1.234-1.472q.02-2.356,0-4.712a1.453,1.453,0,0,0-.531-1.157,1.141,1.141,0,0,0-1.284-.2A1.2,1.2,0,0,0,56.213,39c0,.85,0,1.7,0,2.549" transform="translate(0 0)" fill="#fff"/>
        <path id="Trazado_825725" data-name="Trazado 825725" d="M154.613,28.441l.214-.029a.174.174,0,0,1-.214.029" transform="translate(-106.624 -19.593)" fill="#fff"/>
        <path id="Trazado_825726" data-name="Trazado 825726" d="M155.379,27.6a.089.089,0,0,1-.018-.14c.006.047.012.093.018.14" transform="translate(-107.122 -18.935)" fill="#fff"/>
        <path id="Trazado_825727" data-name="Trazado 825727" d="M165.373,257.279l-.072,0a.055.055,0,0,1,.072,0" transform="translate(-113.995 -177.414)" fill="#fff"/>
        <path id="Trazado_825728" data-name="Trazado 825728" d="M166.371,257.308l-.067,0a.045.045,0,0,1,.067,0" transform="translate(-114.686 -177.432)" fill="#fff"/>
        <path id="Trazado_825729" data-name="Trazado 825729" d="M179.332,257.294h-.072a.056.056,0,0,1,.072,0" transform="translate(-123.621 -177.425)" fill="#fff"/>
        <path id="Trazado_825730" data-name="Trazado 825730" d="M153.752,28.464l.081,0-.081,0" transform="translate(-106.03 -19.629)" fill="#fff"/>
        <path id="Trazado_825731" data-name="Trazado 825731" d="M180.368,257.363l-.1-.024.1.024" transform="translate(-124.315 -177.466)" fill="#fff"/>
        <path id="Trazado_825732" data-name="Trazado 825732" d="M65.54,141.393a7.134,7.134,0,0,0,5.177-.691,11.346,11.346,0,0,0,5.127-6.266,26.837,26.837,0,0,0,.787-2.89c.22-.891.5-1.329,1.47-1.283a1.148,1.148,0,0,1,1.057,1.058,7.94,7.94,0,0,1-.41,2.317,15.92,15.92,0,0,1-3.16,6.231,11.52,11.52,0,0,1-5.012,3.639,8.845,8.845,0,0,1-3.255.616c-4.56-.029-7.571-2.545-9.869-6.175a15.642,15.642,0,0,1-1.966-4.811c-.134-.567-.229-1.139-.334-1.71a16.778,16.778,0,0,1-.279-3.744c.015-.355.1-.707.142-1.062a19.6,19.6,0,0,1,.715-3.712,16.143,16.143,0,0,1,3.361-6.04c.146-.161.285-.331.426-.5a12.534,12.534,0,0,1,3.336-2.45,9.66,9.66,0,0,1,2.727-.841,9.272,9.272,0,0,1,3.644.106A11.517,11.517,0,0,1,76.2,118a16.051,16.051,0,0,1,1.9,3.512,18.724,18.724,0,0,1,1.05,3.784,1.216,1.216,0,0,1-2.278.83,7.6,7.6,0,0,1-.387-1.4,13.985,13.985,0,0,0-2.075-4.929,9.813,9.813,0,0,0-4.009-3.584,7.721,7.721,0,0,0-2.54-.672,7.287,7.287,0,0,0-3.264.386,10.352,10.352,0,0,0-5.184,4.794,11.41,11.41,0,0,0-1.157,2.617,16.606,16.606,0,0,0-.805,4.774,18.4,18.4,0,0,0,.3,3.751,14.294,14.294,0,0,0,1.144,3.532,11.453,11.453,0,0,0,3.928,4.835,6.743,6.743,0,0,0,2.718,1.162" transform="translate(-37.832 -77.893)" fill="#fff"/>
        <path id="Trazado_825733" data-name="Trazado 825733" d="M37.832,242.9q4.543,0,9.086,0a1.328,1.328,0,0,1,1.355.726,1.156,1.156,0,0,1-.311,1.47,1.942,1.942,0,0,1-1.148.391q-8.972-.008-17.943-.007a1.514,1.514,0,0,1-1.5-.949,1.158,1.158,0,0,1,.99-1.6c.552-.037,1.108-.031,1.662-.032q3.905,0,7.81,0v.008" transform="translate(-18.81 -167.5)" fill="#fff"/>
        <path id="Trazado_825734" data-name="Trazado 825734" d="M34.378,221.308c1.934,0,3.868.016,5.8-.007a1.288,1.288,0,0,1,1.437,1.264,1.08,1.08,0,0,1-.547.926,1.788,1.788,0,0,1-.978.293q-5.725,0-11.45,0a1.475,1.475,0,0,1-1.456-1.152,1.278,1.278,0,0,1,1.157-1.319c1.947-.005,3.894,0,5.841,0h.193" transform="translate(-18.738 -152.613)" fill="#fff"/>
        <path id="Trazado_825735" data-name="Trazado 825735" d="M31.157,121.1c.837,0,1.674-.009,2.511,0a1.216,1.216,0,0,1,1.242.991,1.246,1.246,0,0,1-1.015,1.486,2.353,2.353,0,0,1-.5.059c-1.507,0-3.013.008-4.519,0a1.407,1.407,0,0,1-1.369-.762,1.216,1.216,0,0,1,1.022-1.766c.875-.028,1.751-.006,2.626-.006V121.1" transform="translate(-18.878 -83.513)" fill="#fff"/>
        <path id="Trazado_825736" data-name="Trazado 825736" d="M188.146,180.468a12.158,12.158,0,0,1,2.656,2.306c.141.133.274.273.411.409.318.316.407.253.727-.058a12.966,12.966,0,0,1,2.743-2.491,4.184,4.184,0,0,1,5.91,2.331,4,4,0,0,1-1,4.3,18.757,18.757,0,0,1-1.738,1.793c-.328.274-.376.382-.028.687.6.53,1.11,1.165,1.71,1.707a3.994,3.994,0,0,1,1.277,2.441,3.889,3.889,0,0,1-.392,2.373,4.4,4.4,0,0,1-1.673,1.805,4.042,4.042,0,0,1-1.744.522,6.848,6.848,0,0,1-1.571-.091,1.5,1.5,0,0,1-.538-.231,11.384,11.384,0,0,1-2.524-2.13,6.091,6.091,0,0,1-.606-.6c-.165-.192-.279-.151-.435.006-.627.63-1.268,1.247-1.894,1.877a5.322,5.322,0,0,1-1.476.969.392.392,0,0,1-.11.035,5.185,5.185,0,0,1-2.5.092,4.3,4.3,0,0,1-2.692-2.357,3.575,3.575,0,0,1-.457-1.917,4.36,4.36,0,0,1,1.065-2.486,23.969,23.969,0,0,1,2.229-2.192c.222-.184.044-.255-.052-.35-.558-.552-1.111-1.111-1.686-1.647a5.268,5.268,0,0,1-1.54-2.764,2.929,2.929,0,0,1,.206-1.677,4.314,4.314,0,0,1,1.373-2.1,4.258,4.258,0,0,1,4.2-.588.774.774,0,0,0,.149.025m-1.693,2.25a1.755,1.755,0,0,0-.681.067,1.682,1.682,0,0,0-.752,2.426,3.549,3.549,0,0,0,.456.518c.885.883,1.767,1.769,2.667,2.637a1.3,1.3,0,0,1,.032,1.972c-.174.153-.33.326-.494.491-.79.8-1.583,1.588-2.367,2.391a1.812,1.812,0,0,0-.562,1.151,1.581,1.581,0,0,0,.823,1.5,1.6,1.6,0,0,0,1.865-.058,4.289,4.289,0,0,0,.583-.506c.833-.825,1.655-1.663,2.492-2.484a1.246,1.246,0,0,1,2.065,0c.91.893,1.807,1.8,2.712,2.7a1.824,1.824,0,0,0,1.872.519,1.683,1.683,0,0,0,.692-2.752q-1.375-1.414-2.772-2.8a1.314,1.314,0,0,1-.02-2.2c.836-.835,1.672-1.671,2.48-2.533a1.94,1.94,0,0,0,.747-1.58,1.652,1.652,0,0,0-1.841-1.489,2.114,2.114,0,0,0-1.311.724c-.848.829-1.674,1.68-2.517,2.513a1.3,1.3,0,0,1-2.146,0c-.863-.86-1.722-1.724-2.6-2.573a1.592,1.592,0,0,0-1.426-.627" transform="translate(-125.623 -124.224)" fill="#fff"/>
      </g>
    </g>
  </g>
</svg>
