<svg xmlns="http://www.w3.org/2000/svg" xmlns:xlink="http://www.w3.org/1999/xlink" width="190" height="145" viewBox="0 0 190 145">
  <defs>
    <clipPath id="clip-path">
      <rect id="Rect치ngulo_378532" data-name="Rect치ngulo 378532" width="144.379" height="143.905" fill="none"/>
    </clipPath>
  </defs>
  <g id="Grupo_1074527" data-name="Grupo 1074527" transform="translate(-285 -6398)">
    <rect id="Rect치ngulo_378420" data-name="Rect치ngulo 378420" width="190" height="144" transform="translate(285 6398)" fill="none"/>
    <g id="Grupo_1074529" data-name="Grupo 1074529" transform="translate(315.288 6399.095)">
      <g id="Grupo_1074528" data-name="Grupo 1074528" clip-path="url(#clip-path)">
        <path id="Trazado_825738" data-name="Trazado 825738" d="M135.252,76.627a5.444,5.444,0,0,0,1.174,1.342c.3.3.332.487.015.781a28.16,28.16,0,0,1-4.543,3.421,21.811,21.811,0,0,1-5.824,2.546,23.872,23.872,0,0,1-3.993.821,31.451,31.451,0,0,1-4.711.208,22.056,22.056,0,0,1-5.513-.913,1.068,1.068,0,0,0-.089.607c0,7.693.014,15.386-.005,23.079,0,.628.327.569.724.569q8.379-.006,16.759-.008c1.209,0,1.235.014,1.247,1.237.014,1.418,0,2.837,0,4.255,0,1.826.031,3.654-.012,5.479a13.454,13.454,0,0,1-1.17,5.381,16.287,16.287,0,0,1-1.616,2.5,11.076,11.076,0,0,1-4.271,3.312,9.059,9.059,0,0,1-3.552.92c-5.746.354-11.5.142-17.248.149q-34.647.041-69.293.009c-.192,0-.383.022-.575.033-.062-.037-.082,0-.088.053-.243.077-.148.283-.148.434.014,3.5.029,7,.065,10.5,0,.459-.157.562-.6.562q-15.727-.018-31.453,0c-.438,0-.517-.133-.517-.536q.018-11.087,0-22.175c0-.437.132-.521.536-.517,1.869.021,3.738,0,5.607.014.42,0,.622.032.5-.575-.272-1.354-.4-2.738-.545-4.115-.137-1.326-.311-2.643-.524-3.958-.2-1.249-.259-2.52-.41-3.777q-.18-1.5-.444-2.993a3.219,3.219,0,0,1-.058-.564c0-7.2-.016-14.4.016-21.594a14.186,14.186,0,0,1,.4-2.606,10.727,10.727,0,0,0,.216-2.075c0-.879.22-1.719.3-2.581.09-.965.233-1.926.362-2.887.184-1.376.377-2.751.566-4.127a25.774,25.774,0,0,1,.441-2.857,9.1,9.1,0,0,1,1.893-3.643c3.193-3.824,6.137-7.845,9.247-11.734a2.167,2.167,0,0,0,.488-1.446q-.034-8.025,0-16.05c0-.5-.126-.626-.627-.625-5.8.019-11.6.006-17.4.023-.454,0-.56-.11-.559-.561C.034,25-.06,18.063.067,11.125A11.448,11.448,0,0,1,7.35.915,13,13,0,0,1,12.436,0q43.538,0,87.077,0a12.2,12.2,0,0,1,1.732.045,11.933,11.933,0,0,1,8.2,4.682,12.18,12.18,0,0,1,2.341,7.427q-.016,11.119-.005,22.239c0,1.42.009,1.445,1.391,1.108a23.53,23.53,0,0,1,7.737-.555,26.23,26.23,0,0,1,6.934,1.562A25.935,25.935,0,0,1,141.16,48.049a21.23,21.23,0,0,1,2.191,5.275,32.5,32.5,0,0,1,.964,5.492,25.369,25.369,0,0,1-3.786,14.942c-.238.4-.432.494-.837.155a12.231,12.231,0,0,0-1.4-.9c-.453-.282-.9-.574-1.363-.844a.714.714,0,0,1-.281-1.109,14.387,14.387,0,0,0,1.9-3.7,17.748,17.748,0,0,0,1.078-4.652,20.589,20.589,0,0,0,.075-3.687,20.627,20.627,0,0,0-9.983-16.481,20.895,20.895,0,0,0-12.836-2.957c-.926.14-1.873.186-2.781.4a20.627,20.627,0,0,0-6.714,2.836,20.963,20.963,0,0,0-7.965,9.54,19.134,19.134,0,0,0-1.508,7.692,20.378,20.378,0,0,0,.141,3.662,21.769,21.769,0,0,0,3.02,7.727,20.648,20.648,0,0,0,12.888,9.211,20.354,20.354,0,0,0,6.925.448,20.846,20.846,0,0,0,7.272-2.079,20.264,20.264,0,0,0,4.918-3.378c.468-.441.793-.446,1.213.05a3.061,3.061,0,0,0,.964.931M20.995,93.016c.882-.275.878-.273.455-1.12-.5-1-.971-2.005-1.487-2.992A11.317,11.317,0,0,1,18.63,83.94c-.1-4.466-.032-8.936-.039-13.4a12.962,12.962,0,0,1,.456-3.312A12.342,12.342,0,0,1,21.1,63.2c2.861-3.967,5.692-7.956,8.556-11.92A3.617,3.617,0,0,0,30.1,47.9a1.931,1.931,0,0,0-1.709-1.354c-.825-.1-1.638-.054-2.079.866a6.8,6.8,0,0,1-.891,1.172q-4.354,5.56-8.693,11.132c-1.468,1.876-2.953,3.739-4.433,5.605a3,3,0,0,0-.752,1.323,34.651,34.651,0,0,0-.676,4.9,6.516,6.516,0,0,1-.261,1.954,11.72,11.72,0,0,0-.37,2.832C10.165,78,9.63,79.6,9.616,81.261c-.007.879-.291,1.723-.293,2.6q-.016,8.959-.008,17.917a19.355,19.355,0,0,0,.135,3.642,26.7,26.7,0,0,1,.3,2.774c.1,1.139.4,2.246.5,3.393a14.63,14.63,0,0,0,.389,3.141,7.221,7.221,0,0,1,.2,2.2,3.519,3.519,0,0,0,.089.939,13.9,13.9,0,0,1,.426,2.293c.035.481.191.539.6.538,3.609-.013,7.218-.018,10.826.008.527,0,.584-.2.582-.639-.014-3.179-.007-6.359-.007-9.539a2.011,2.011,0,0,0-.02-.447,2.64,2.64,0,0,1,.791-2.789c4.07-3.946,8.061-7.974,12.061-11.992,1.742-1.749,3.574-3.411,5.212-5.26a2.42,2.42,0,0,0,.1-2.924,2.889,2.889,0,0,0-4.31-.277c-3.3,3.409-6.7,6.726-10.045,10.09a1.756,1.756,0,0,1-1.362.56c-1.4-.023-2.794-.032-4.189,0-.508.013-.612-.175-.606-.629.014-1.266-.01-2.533-.019-3.8l.036-.007Zm11.619,28.326a49.286,49.286,0,0,0,.012,5.282c-.141.124-.237.248,0,.367.188.256.392.114.6.034a6.287,6.287,0,0,0,2.4-1.789,5.314,5.314,0,0,0,1.524-3.573c.016-3.932.019-7.863-.018-11.794-.006-.649.151-.8.8-.8q23.552.033,47.1.021,10.761,0,21.523-.013c.415,0,.694.032.691-.58-.026-4.64.007-9.28,0-13.919,0-2.082.1-4.167-.077-6.247.164-1.386-.024-2.785.115-4.166a1.527,1.527,0,0,0-.966-1.656,25.5,25.5,0,0,1-10.805-11.7,28.9,28.9,0,0,1-1.776-5.166,39.526,39.526,0,0,1-.652-5.8c-.009-.394.162-.743.147-1.129a14.462,14.462,0,0,1,.446-3.554A23.912,23.912,0,0,1,95.686,49.5,26.144,26.144,0,0,1,106.71,37.967a1.019,1.019,0,0,0,.589-1.059q-.027-11.86-.022-23.72A13.986,13.986,0,0,0,106.8,9.41a6.681,6.681,0,0,0-6.211-4.75q-39.189-.037-78.377-.014c-.258,0-.516-.011-.773,0-.138.007-.314-.083-.4.094s.066.269.146.388A12.828,12.828,0,0,1,22.557,7.7a14.354,14.354,0,0,1,.745,5.214q-.021,13.859,0,27.718a27.636,27.636,0,0,0-.025,3.041c.75-.325,1.227-.991,1.971-1.274a6.162,6.162,0,0,1,3.473-.532,7.755,7.755,0,0,1,3.86,1.755,8.065,8.065,0,0,1,1.882,2.659,8.877,8.877,0,0,1,.309,1.452,7.056,7.056,0,0,1-.662,4.963,13.478,13.478,0,0,1-1.3,1.933c-2.347,3.412-4.792,6.754-7.229,10.1-1.256,1.725-2.352,3.462-2.353,5.682a.707.707,0,0,0,.019.869c.088,3.932.067,7.863.016,11.795a7.392,7.392,0,0,0,.235,2.47,47.381,47.381,0,0,0,2.577,5.374c.235.491.477.137.679-.066,1.6-1.6,3.184-3.219,4.791-4.813,1.154-1.146,2.264-2.351,3.52-3.377a6.86,6.86,0,0,1,5.046-1.31,6.231,6.231,0,0,1,3.678,1.424,7.11,7.11,0,0,1,2.684,6,6.4,6.4,0,0,1-1.7,4.338q-8.335,8.386-16.746,16.7a.509.509,0,0,0-.148.376,5.874,5.874,0,0,0-.068,1.129c.161,1.9.03,3.8.058,5.7a14.667,14.667,0,0,1-.118,3.264c-.08.378.145.4.439.4,1.308-.01,2.616,0,3.924-.006.239,0,.489-.036.515.309-.357.1-.212.225-.012.348m51.148-7.6v.008H57.141c-4.791,0-9.582.006-14.373-.012-.61,0-.856.125-.842.817.044,2.255.06,4.514-.019,6.768a11.43,11.43,0,0,1-1.505,5.1c-.209.382-.774.747-.552,1.131.169.293.8.071,1.22.071q32.194.007,64.388,0,6.7,0,13.406-.032a6.68,6.68,0,0,0,6-3.573,8.291,8.291,0,0,0,.981-4.127c.058-1.738.014-3.48.014-5.221,0-.934,0-.935-.972-.935H83.761M16.315,125.328q-5.539,0-11.078,0c-.283,0-.58-.1-.577.41q.039,6.537.023,13.075c0,.352.121.439.445.426.558-.021,1.116-.006,1.674-.006,6.805,0,13.611-.007,20.416.014.544,0,.647-.14.664-.669.034-1.056-.022-2.109-.022-3.162,0-3.156,0-6.312.029-9.468,0-.5-.113-.637-.625-.634-3.65.024-7.3.013-10.948.013M4.67,19.037h0c0,2.728.012,5.456-.011,8.184,0,.488.1.644.623.641q6.346-.036,12.693,0c.525,0,.623-.157.621-.642-.016-5.134-.008-10.268-.006-15.4a7.674,7.674,0,0,0-.227-1.977,6.75,6.75,0,0,0-5.374-5.055A6.542,6.542,0,0,0,6.623,6.827a6.073,6.073,0,0,0-1.916,3.965c-.131,2.743-.037,5.5-.037,8.246" transform="translate(0 0)"/>
        <path id="Trazado_825739" data-name="Trazado 825739" d="M226.626,113.447a3.052,3.052,0,0,1-.964-.931c-.42-.5-.745-.491-1.213-.05a20.272,20.272,0,0,1-4.917,3.378,20.859,20.859,0,0,1-7.273,2.078,20.351,20.351,0,0,1-6.925-.448,20.648,20.648,0,0,1-12.888-9.211,21.767,21.767,0,0,1-3.021-7.727,20.386,20.386,0,0,1-.141-3.663,19.13,19.13,0,0,1,1.508-7.691,20.958,20.958,0,0,1,7.965-9.54,20.624,20.624,0,0,1,6.714-2.835c.908-.214,1.855-.26,2.781-.4a20.895,20.895,0,0,1,12.836,2.957,20.64,20.64,0,0,1,9.24,12.078,20.875,20.875,0,0,1,.743,4.4A20.645,20.645,0,0,1,231,99.532a17.754,17.754,0,0,1-1.079,4.652,14.355,14.355,0,0,1-1.9,3.7.713.713,0,0,0,.281,1.108c.461.271.91.562,1.364.845a14.969,14.969,0,0,1-3.036,3.612m-18.682-2.56h-.012c0,.687.022,1.376-.009,2.062-.017.368.088.488.46.481,1.16-.021,2.32-.035,3.479,0,.532.016.653-.184.638-.678-.04-1.31-.023-2.621-.046-3.931a.654.654,0,0,1,.456-.732,6.808,6.808,0,0,0,2.756-10.512,7.269,7.269,0,0,0-5.6-2.733,2.235,2.235,0,0,1-2.015-1.512,2.194,2.194,0,0,1,2.221-3.025,2.152,2.152,0,0,1,2.178,1.831c.073.385.272.413.582.41,1.1-.013,2.191-.012,3.286-.01.843,0,.9-.041.768-.854a6.732,6.732,0,0,0-3.892-5.31,1.1,1.1,0,0,1-.731-1.175c.034-1.245,0-2.492.028-3.738.008-.4-.129-.535-.518-.527-1.181.024-2.362.042-3.543.029-.415,0-.487.162-.494.536-.023,1.184.062,2.365.027,3.551a1.364,1.364,0,0,1-.895,1.363A6.774,6.774,0,0,0,203.2,91.9a7.191,7.191,0,0,0,4.076,6.945,10.215,10.215,0,0,0,3.412.74,1.974,1.974,0,0,1,1.7,1.489,2.212,2.212,0,0,1-.558,2.377,2.6,2.6,0,0,1-1.453.579,2.008,2.008,0,0,1-2.418-1.805c-.022-.356-.142-.421-.457-.417-1.181.014-2.363,0-3.544.006-.768,0-.954.2-.764.919a7.423,7.423,0,0,0,4.311,5.415.629.629,0,0,1,.449.682c-.025.686-.007,1.375-.007,2.062M193.89,97.164h0c0,.6.023,1.2-.008,1.8-.021.387.088.537.494.531,1.244-.019,2.489-.011,3.734,0,.362,0,.551-.091.546-.506-.016-1.223-.006-2.446.009-3.669,0-.36-.132-.491-.492-.487-1.287.014-2.575.017-3.863,0-.356,0-.432.145-.423.462.018.622.006,1.244.006,1.867m30.287-2.322v.008h-1.931c-.216,0-.513,0-.478.28.163,1.322,0,2.644.034,3.965.008.317.148.4.436.4,1.266-.007,2.532,0,3.8,0,.3,0,.481-.087.477-.438q-.016-1.9,0-3.8c0-.354-.157-.431-.471-.423-.622.017-1.245.005-1.867.005" transform="translate(-91.373 -36.821)" fill="#fda72e"/>
        <path id="Trazado_825740" data-name="Trazado 825740" d="M63.162,255.928c.005-.057.026-.09.087-.053,0,.07-.029.083-.087.053" transform="translate(-30.492 -123.519)" fill="#91e0c0"/>
        <path id="Trazado_825741" data-name="Trazado 825741" d="M52.238,130.947a49.412,49.412,0,0,1-.011-5.281.35.35,0,0,0,.012-.349c-.027-.346-.276-.31-.515-.309-1.308,0-2.616,0-3.924.006-.294,0-.518-.02-.439-.4a14.636,14.636,0,0,0,.118-3.264c-.028-1.9.1-3.8-.058-5.7a5.916,5.916,0,0,1,.067-1.129.51.51,0,0,1,.148-.376q8.39-8.331,16.746-16.7a6.4,6.4,0,0,0,1.7-4.338,7.111,7.111,0,0,0-2.684-6,6.231,6.231,0,0,0-3.678-1.424,6.861,6.861,0,0,0-5.047,1.31c-1.255,1.026-2.365,2.231-3.52,3.377-1.606,1.595-3.192,3.21-4.791,4.813-.2.2-.444.557-.679.066a47.473,47.473,0,0,1-2.577-5.374,7.392,7.392,0,0,1-.235-2.47c.051-3.932.072-7.863-.016-11.794a.706.706,0,0,0-.019-.869c0-2.219,1.1-3.957,2.353-5.682,2.437-3.347,4.882-6.688,7.229-10.1a13.536,13.536,0,0,0,1.3-1.933,7.059,7.059,0,0,0,.662-4.963,8.836,8.836,0,0,0-.309-1.452,8.05,8.05,0,0,0-1.882-2.659,7.752,7.752,0,0,0-3.86-1.755,6.161,6.161,0,0,0-3.472.532c-.744.283-1.221.949-1.971,1.274a27.776,27.776,0,0,1,.025-3.041q0-13.859,0-27.718a14.354,14.354,0,0,0-.745-5.214A12.88,12.88,0,0,0,40.8,9.454c-.08-.119-.235-.216-.146-.388s.267-.087.4-.094c.257-.014.516,0,.773,0q39.189,0,78.377.014a6.68,6.68,0,0,1,6.211,4.75,13.987,13.987,0,0,1,.473,3.778q0,11.86.022,23.72a1.019,1.019,0,0,1-.59,1.059A26.147,26.147,0,0,0,115.3,53.827a23.936,23.936,0,0,0-1.995,5.658,14.487,14.487,0,0,0-.446,3.554c.016.386-.156.736-.147,1.129a39.527,39.527,0,0,0,.652,5.8c-.514.109-.491.517-.5.9a20.98,20.98,0,0,0,.385,5.1,21.894,21.894,0,0,0,1.768,5.538,23.206,23.206,0,0,0,5.832,7.566A16.986,16.986,0,0,0,126.8,92.65c.174,2.08.072,4.165.077,6.247.009,4.64-.024,9.28,0,13.919,0,.612-.276.58-.691.58q-10.761,0-21.522.013-23.553,0-47.1-.021c-.65,0-.807.154-.8.8.036,3.931.033,7.863.018,11.794a5.314,5.314,0,0,1-1.524,3.573,6.291,6.291,0,0,1-2.4,1.789c-.212.08-.415.221-.6-.034a.453.453,0,0,0-.005-.368M66.11,62.234c-.1-.018-.176.033-.152.124.04.152.169.142.294.107.254-.247.572-.124.856-.125q6.218-.017,12.435,0c.5,0,.7-.137.681-.65-.031-1.095-.042-2.191-.016-3.285.013-.539-.178-.683-.709-.681-3.93.019-7.86.006-11.79,0-.387,0-.773-.01-1.16,0-.337.006-.462.145-.452.523.033,1.329.013,2.66.013,3.99M84.884,13.609H61.235c-3.544,0-7.089.011-10.633-.012-.517,0-.669.147-.653.653.029.9-.011,1.8-.011,2.705q-.006,13.018-.022,26.036c0,.545.007.793.684.791q21.523-.036,43.046-.023,12.5,0,25,0c1.287,0,1.031.073,1.032-1.018q.009-14.211.018-28.421c0-.585-.144-.725-.726-.724q-17.044.028-34.089.014m.021,62.68H62.42c-.777,0-1.159.453-.963,1.208a7.744,7.744,0,0,1,.085,2.477c-.061.946-.145.937.808.936q15.655-.016,31.309-.029,6.926,0,13.851.034c.4,0,.536-.035.6-.526.152-1.136-.016-2.265.073-3.391.047-.583-.176-.72-.732-.718q-11.275.025-22.55.01M101.111,99.48v.011q9.018,0,18.036.01c.413,0,.56-.083.548-.521-.031-1.116-.047-2.234,0-3.349.029-.632-.2-.795-.8-.794q-16.007.023-32.014.016c-1.267,0-2.534.014-3.8-.008-.424-.007-.554.13-.544.555.028,1.116.043,2.234,0,3.349-.024.58.124.749.727.746,5.948-.024,11.9-.014,17.843-.014M73.149,71.621v-.006c2.146,0,4.291-.006,6.437.006.368,0,.641-.035.636-.492q-.022-1.835-.027-3.669c0-.318-.129-.454-.464-.454q-6.6,0-13.2-.02c-.34,0-.448.119-.442.452.025,1.221.055,2.443.028,3.664-.009.437.1.535.528.531,2.167-.022,4.333-.01,6.5-.01m16.363,37.152v.006c2.145,0,4.291-.014,6.436.012.436.005.546-.121.538-.534-.022-1.223-.019-2.446,0-3.669.005-.372-.136-.473-.491-.472q-6.468.018-12.937.007c-.4,0-.517.124-.51.517.022,1.223.028,2.447,0,3.669-.011.439.172.473.531.471,2.146-.015,4.291-.007,6.437-.007m23.223-4.652v-.012c-2.147,0-4.294.01-6.441-.008-.416,0-.553.112-.543.539.029,1.2.03,2.4.008,3.606-.008.434.145.538.562.537q6.44-.019,12.881.009c.422,0,.5-.128.491-.508-.022-1.2-.027-2.405,0-3.607.011-.458-.132-.573-.583-.567-2.125.025-4.251.011-6.376.011m-16.3-32.5v-.008c2.123,0,4.247-.013,6.37.01.465.005.662-.105.65-.6-.03-1.158-.031-2.317-.018-3.475.005-.416-.134-.551-.56-.549q-6.371.024-12.742.008c-.434,0-.614.119-.6.584q.04,1.736,0,3.474c-.009.456.147.572.6.566,2.1-.025,4.2-.011,6.306-.011m.042-9.286v-.008c2.126,0,4.253-.009,6.379.008.4,0,.6-.081.594-.522-.02-1.2-.022-2.406-.016-3.609,0-.358-.13-.483-.495-.482q-6.444.018-12.888.007c-.4,0-.522.154-.517.538q.026,1.771,0,3.544c-.005.415.125.542.562.536,2.126-.027,4.253-.012,6.379-.012" transform="translate(-19.612 -4.323)" fill="#ecebec"/>
        <path id="Trazado_825742" data-name="Trazado 825742" d="M120.907,219.9h41.121c.972,0,.972,0,.972.935,0,1.741.044,3.482-.014,5.221a8.292,8.292,0,0,1-.981,4.128,6.681,6.681,0,0,1-6,3.573q-6.7.039-13.406.031-32.194.005-64.388,0c-.422,0-1.05.222-1.22-.071-.221-.383.343-.749.552-1.131a11.431,11.431,0,0,0,1.505-5.1c.08-2.254.064-4.512.02-6.767-.014-.692.231-.819.842-.817,4.791.019,9.582.012,14.373.012h26.62Z" transform="translate(-37.146 -106.155)" fill="#fda72e"/>
        <path id="Trazado_825743" data-name="Trazado 825743" d="M29.651,136.472c.009,1.267.033,2.533.018,3.8-.005.454.1.642.607.629,1.395-.036,2.792-.027,4.188,0a1.755,1.755,0,0,0,1.362-.56c3.349-3.364,6.744-6.681,10.046-10.09a2.888,2.888,0,0,1,4.31.277,2.418,2.418,0,0,1-.1,2.924c-1.638,1.85-3.47,3.511-5.212,5.26-4,4.018-7.991,8.046-12.062,11.992a2.641,2.641,0,0,0-.791,2.789,2.011,2.011,0,0,1,.021.447c0,3.18-.007,6.359.007,9.539,0,.438-.055.643-.582.639-3.609-.026-7.218-.022-10.826-.008-.414,0-.569-.057-.605-.538a13.951,13.951,0,0,0-.425-2.293,3.5,3.5,0,0,1-.089-.939,7.237,7.237,0,0,0-.2-2.2A14.6,14.6,0,0,1,18.921,155c-.1-1.147-.4-2.254-.5-3.393a26.557,26.557,0,0,0-.3-2.774,19.4,19.4,0,0,1-.134-3.642q-.01-8.958.007-17.917c0-.873.286-1.717.293-2.6.013-1.663.548-3.262.619-4.927a11.721,11.721,0,0,1,.371-2.832,6.532,6.532,0,0,0,.261-1.954,34.726,34.726,0,0,1,.676-4.9,3.007,3.007,0,0,1,.752-1.323c1.481-1.866,2.965-3.729,4.434-5.605Q29.759,97.568,34.1,92a6.822,6.822,0,0,0,.891-1.172c.441-.92,1.254-.968,2.079-.866a1.929,1.929,0,0,1,1.708,1.354,3.616,3.616,0,0,1-.447,3.381c-2.864,3.964-5.7,7.953-8.556,11.92a12.354,12.354,0,0,0-2.05,4.022,12.985,12.985,0,0,0-.456,3.312c.007,4.468-.066,8.938.039,13.4a11.31,11.31,0,0,0,1.333,4.963c.516.987.988,2,1.486,2.992.424.847.427.845-.455,1.119l-.035.012.013.034" transform="translate(-8.678 -43.411)" fill="#f8dfa5"/>
        <path id="Trazado_825744" data-name="Trazado 825744" d="M20.664,242.289c3.65,0,7.3.011,10.948-.013.512,0,.631.137.626.634-.029,3.156-.028,6.312-.029,9.468,0,1.054.056,2.106.022,3.163-.017.53-.119.67-.663.669q-10.208-.031-20.416-.014c-.558,0-1.117-.016-1.674.006-.325.012-.446-.074-.445-.426q.008-6.538-.023-13.075c0-.513.294-.41.577-.41H20.664" transform="translate(-4.35 -116.961)" fill="#91e0c0"/>
        <path id="Trazado_825745" data-name="Trazado 825745" d="M9,23.335c0-2.749-.094-5.5.037-8.246a6.073,6.073,0,0,1,1.916-3.965,6.542,6.542,0,0,1,6.371-2.041A6.75,6.75,0,0,1,22.7,14.139a7.674,7.674,0,0,1,.227,1.977c0,5.134-.01,10.268.006,15.4,0,.485-.1.646-.621.642q-6.346-.036-12.693,0c-.522,0-.627-.153-.623-.641C9.015,28.791,9,26.063,9,23.335Z" transform="translate(-4.328 -4.298)" fill="#fda72e"/>
        <path id="Trazado_825746" data-name="Trazado 825746" d="M194.2,149.6a16.98,16.98,0,0,1-5.949-3.576,23.19,23.19,0,0,1-5.831-7.565,21.879,21.879,0,0,1-1.768-5.538,20.978,20.978,0,0,1-.385-5.1c.009-.387-.013-.8.5-.9a28.9,28.9,0,0,0,1.776,5.166,25.5,25.5,0,0,0,10.805,11.7,1.526,1.526,0,0,1,.966,1.656c-.139,1.381.05,2.78-.114,4.166" transform="translate(-87.022 -61.268)" fill="#91e0c0"/>
        <path id="Trazado_825747" data-name="Trazado 825747" d="M44.768,136.139a.706.706,0,0,1,.019.869.708.708,0,0,1-.019-.869" transform="translate(-21.545 -65.723)" fill="#91e0c0"/>
        <path id="Trazado_825748" data-name="Trazado 825748" d="M62.874,233.923a.351.351,0,0,1-.012.349c-.2-.124-.346-.245.012-.349" transform="translate(-30.248 -112.929)" fill="#91e0c0"/>
        <path id="Trazado_825749" data-name="Trazado 825749" d="M62.943,244.807a.454.454,0,0,1,.005.367c-.242-.119-.145-.243-.005-.367" transform="translate(-30.318 -118.183)" fill="#91e0c0"/>
        <path id="Trazado_825750" data-name="Trazado 825750" d="M40.537,179.877l-.013-.034.035-.012.014.039Z" transform="translate(-19.563 -86.815)" fill="#fda72e"/>
        <path id="Trazado_825751" data-name="Trazado 825751" d="M220.871,115.237c0-.687-.018-1.375.007-2.062a.628.628,0,0,0-.449-.681,7.423,7.423,0,0,1-4.311-5.416c-.19-.718,0-.916.764-.919,1.182,0,2.363.008,3.545-.007.315,0,.436.061.457.417a2.007,2.007,0,0,0,2.418,1.805,2.594,2.594,0,0,0,1.453-.579,2.212,2.212,0,0,0,.558-2.377,1.974,1.974,0,0,0-1.7-1.489,10.246,10.246,0,0,1-3.412-.74,7.193,7.193,0,0,1-4.075-6.945A6.775,6.775,0,0,1,220,90.761a1.363,1.363,0,0,0,.894-1.363c.036-1.186-.05-2.367-.027-3.551.007-.374.08-.54.495-.535,1.181.012,2.362-.006,3.543-.03.389-.008.526.129.518.527-.025,1.246.006,2.493-.027,3.738a1.1,1.1,0,0,0,.731,1.176,6.73,6.73,0,0,1,3.892,5.309c.134.813.076.856-.767.854-1.1,0-2.191,0-3.287.01-.31,0-.508-.025-.581-.41a2.153,2.153,0,0,0-2.178-1.831,2.2,2.2,0,0,0-2.222,3.025A2.235,2.235,0,0,0,223,99.193a7.271,7.271,0,0,1,5.6,2.733,6.808,6.808,0,0,1-2.756,10.512.654.654,0,0,0-.456.732c.023,1.31.005,2.621.046,3.931.015.494-.106.694-.638.678-1.159-.034-2.32-.02-3.48,0-.371.007-.476-.113-.459-.481.032-.686.009-1.374.009-2.062h.012" transform="translate(-104.3 -41.171)"/>
        <path id="Trazado_825752" data-name="Trazado 825752" d="M198.187,114.489c0-.622.013-1.245-.005-1.867-.009-.316.066-.466.423-.462q1.931.024,3.862,0c.361,0,.5.128.493.487-.016,1.223-.025,2.446-.009,3.669.005.415-.185.509-.546.506-1.244-.011-2.49-.019-3.734,0-.406.006-.514-.143-.494-.53.032-.6.008-1.2.008-1.8Z" transform="translate(-95.671 -54.146)"/>
        <path id="Trazado_825753" data-name="Trazado 825753" d="M254.5,112.17c.622,0,1.245.012,1.867-.005.313-.008.474.069.471.423q-.02,1.9,0,3.8c0,.351-.174.439-.477.438-1.266-.005-2.532-.009-3.8,0-.288,0-.428-.082-.436-.4-.032-1.321.13-2.643-.034-3.965-.034-.279.262-.28.478-.28H254.5v-.008" transform="translate(-121.7 -54.148)"/>
        <path id="Trazado_825754" data-name="Trazado 825754" d="M93.555,17.94q17.045,0,34.089-.013c.582,0,.727.139.726.724q-.03,14.211-.018,28.421c0,1.091.255,1.017-1.032,1.018q-12.5.011-25,0-21.522,0-43.046.023c-.677,0-.686-.246-.684-.792q.033-13.018.022-26.036c0-.9.041-1.8.011-2.705-.017-.505.136-.656.653-.653,3.544.023,7.088.012,10.632.012H93.555m.06,4.642q-14.82,0-29.641-.011c-.5,0-.654.126-.649.639.025,2.534.01,5.069.011,7.6,0,4.017.013,8.034-.006,12.051,0,.522.151.677.657.64.62-.045,1.244-.024,1.868-.024q28.642,0,57.284.012c.515,0,.694-.1.693-.661-.02-6.466-.011-12.932-.01-19.4,0-.852,0-.852-.822-.852H93.615" transform="translate(-28.283 -8.654)"/>
        <path id="Trazado_825755" data-name="Trazado 825755" d="M104.3,139.126q11.275,0,22.55-.011c.555,0,.778.135.732.718-.09,1.126.079,2.255-.073,3.391-.065.491-.2.528-.6.526q-6.925-.032-13.851-.034-15.654.006-31.309.029c-.954,0-.869.009-.809-.936a7.744,7.744,0,0,0-.084-2.477c-.2-.755.185-1.208.963-1.208l22.485,0" transform="translate(-39.008 -67.159)"/>
        <path id="Trazado_825756" data-name="Trazado 825756" d="M140.231,179.636c-5.948,0-11.9-.01-17.843.015-.6,0-.752-.167-.727-.747.047-1.115.032-2.233,0-3.349-.01-.425.121-.562.544-.555,1.266.022,2.533.008,3.8.008q16.008,0,32.014-.016c.6,0,.825.162.8.795-.051,1.114-.035,2.233,0,3.349.012.439-.135.522-.548.521q-9.018-.021-18.036-.009Z" transform="translate(-58.732 -84.479)"/>
        <path id="Trazado_825757" data-name="Trazado 825757" d="M89.883,107.746c0-1.33.019-2.661-.014-3.99-.009-.378.115-.517.452-.522.386-.007.773,0,1.16,0,3.931,0,7.86.015,11.791,0,.53,0,.722.141.709.681-.026,1.094-.015,2.191.017,3.285.014.514-.179.652-.681.65q-6.217-.025-12.435,0c-.284,0-.6-.122-.856.124l-.142-.23" transform="translate(-43.385 -49.836)"/>
        <path id="Trazado_825758" data-name="Trazado 825758" d="M96.917,125.783c-2.167,0-4.334-.012-6.5.01-.425,0-.537-.094-.528-.531.026-1.221,0-2.443-.028-3.664-.007-.332.1-.453.442-.452q6.6.022,13.2.02c.336,0,.463.136.464.454q.008,1.835.027,3.669c.005.458-.267.494-.635.493-2.146-.011-4.291-.006-6.437-.006v.006" transform="translate(-43.381 -58.486)"/>
        <path id="Trazado_825759" data-name="Trazado 825759" d="M128.635,197.59c-2.146,0-4.292-.007-6.437.007-.359,0-.543-.032-.531-.471.032-1.222.024-2.446,0-3.669-.007-.393.114-.517.51-.516q6.468.013,12.937-.008c.356,0,.5.1.491.472-.017,1.223-.021,2.447,0,3.669.008.414-.1.54-.537.534-2.146-.026-4.292-.012-6.437-.012Z" transform="translate(-58.736 -93.141)"/>
        <path id="Trazado_825760" data-name="Trazado 825760" d="M173.518,192.924c2.125,0,4.251.014,6.376-.011.451-.005.595.11.584.567-.029,1.2-.023,2.405,0,3.607.007.38-.07.51-.491.508q-6.44-.032-12.881-.009c-.416,0-.569-.1-.561-.536q.033-1.8-.008-3.607c-.01-.427.127-.543.543-.539,2.147.018,4.294.009,6.441.009Z" transform="translate(-80.396 -93.126)"/>
        <path id="Trazado_825761" data-name="Trazado 825761" d="M142.086,125.8c-2.1,0-4.2-.014-6.306.011-.448.006-.606-.11-.6-.566.024-1.158.026-2.317,0-3.475-.011-.464.169-.585.6-.584q6.371.014,12.742-.008c.426,0,.565.133.56.55-.013,1.158-.012,2.317.018,3.475.012.494-.185.605-.65.6-2.123-.023-4.247-.01-6.37-.01v.008" transform="translate(-65.261 -58.5)"/>
        <path id="Trazado_825762" data-name="Trazado 825762" d="M142.129,107.855c-2.126,0-4.253-.015-6.379.012-.437.006-.567-.122-.562-.536q.023-1.771,0-3.544c-.005-.384.122-.538.517-.538q6.444.009,12.888-.007c.365,0,.5.124.495.482-.006,1.2,0,2.406.016,3.609.008.441-.194.526-.594.522-2.126-.018-4.253-.008-6.379-.008Z" transform="translate(-65.262 -49.841)"/>
        <path id="Trazado_825763" data-name="Trazado 825763" d="M89.75,111.957l.142.23c-.125.036-.254.046-.294-.106-.024-.091.052-.142.152-.124" transform="translate(-43.252 -54.047)" fill="#91e0c0"/>
        <path id="Trazado_825764" data-name="Trazado 825764" d="M98.037,26.918H127.42c.822,0,.823,0,.822.852,0,6.466-.01,12.932.01,19.4,0,.56-.177.661-.693.661q-28.642-.02-57.284-.012c-.623,0-1.248-.021-1.868.024-.506.036-.659-.119-.657-.64.02-4.017.007-8.034.006-12.051,0-2.534.014-5.069-.011-7.6-.005-.513.144-.639.649-.639q14.82.022,29.641.011" transform="translate(-32.706 -12.99)" fill="#91e0c0"/>
      </g>
    </g>
  </g>
</svg>
