<svg xmlns="http://www.w3.org/2000/svg" xmlns:xlink="http://www.w3.org/1999/xlink" width="44.954" height="44.954" viewBox="0 0 44.954 44.954">
  <defs>
    <clipPath id="clip-path">
      <rect id="Rect치ngulo_377534" data-name="Rect치ngulo 377534" width="44.954" height="44.954" transform="translate(180 736)" fill="#fff" stroke="#707070" stroke-width="1"/>
    </clipPath>
    <clipPath id="clip-path-2">
      <rect id="Rect치ngulo_377533" data-name="Rect치ngulo 377533" width="42.361" height="40.853" fill="none"/>
    </clipPath>
  </defs>
  <g id="Enmascarar_grupo_71" data-name="Enmascarar grupo 71" transform="translate(-180 -736)" clip-path="url(#clip-path)">
    <g id="Grupo_1072951" data-name="Grupo 1072951" transform="translate(180 738.371)">
      <g id="Grupo_1072950" data-name="Grupo 1072950" clip-path="url(#clip-path-2)">
        <path id="Trazado_819318" data-name="Trazado 819318" d="M41.751,21.4c.386.007.579.287.6.715.01.163,0,.328,0,.491q0,4.037,0,8.074a3.642,3.642,0,0,1-.315,1.615,2.858,2.858,0,0,1-.691.9,8.345,8.345,0,0,1-1.739,1c-.833.435-1.674.855-2.512,1.281l-3.589,1.819q-1.786.906-3.571,1.812c-.981.5-1.958,1-2.948,1.481a2.537,2.537,0,0,1-1.8.186,7.23,7.23,0,0,1-1.357-.592c-.64-.316-1.276-.643-1.912-.966-.938-.477-1.875-.957-2.814-1.431-.892-.451-1.788-.894-2.679-1.346-.824-.419-1.642-.849-2.466-1.267-.633-.321-1.274-.626-1.905-.949-.462-.236-.919-.481-1.369-.74a2.818,2.818,0,0,1-.968-1,2.078,2.078,0,0,1-.288-.669,3.17,3.17,0,0,1-.112-.852.452.452,0,0,1,.022-.145c.138-.36.237-.436.619-.449a.578.578,0,0,1,.572.614,1.742,1.742,0,0,0,.86,1.512c.187.115.39.2.584.305,1.339.7,2.7,1.355,4.034,2.069.7.378,1.432.712,2.146,1.074,1.4.712,2.806,1.432,4.211,2.145.839.426,1.684.842,2.523,1.267.334.169.331.175.331-.2q0-8.2,0-16.41c0-.328,0-.655.01-.983a.183.183,0,0,0-.112-.2c-.06-.028-.125-.047-.183-.078q-1.163-.6-2.325-1.2-.773-.4-1.55-.788c-.194-.1-.2-.087-.2.131q0,2.363.007,4.726a.977.977,0,0,1-.135.518.944.944,0,0,1-.9.479.892.892,0,0,1-.785-.445c-.063-.094-.129-.186-.19-.282q-.513-.8-1.024-1.6a.252.252,0,0,0-.257-.146,1.46,1.46,0,0,0-.441.158,5.859,5.859,0,0,1-1.079.569.973.973,0,0,1-.9-.265,1.214,1.214,0,0,1-.293-.886c.009-1.72,0-3.441,0-5.161,0-.3,0-.592-.007-.888.014-.019,0-.021-.014-.024a.178.178,0,0,0-.105-.1c-.378-.148-.722-.363-1.086-.54-.595-.291-1.183-.6-1.773-.9q-.583-.3-1.164-.6c-.092-.047-.175-.063-.183.071-.011.192-.008.385-.008.577q0,4.026,0,8.052c0,.189,0,.378-.005.567,0,.054-.016.133.043.151a3.941,3.941,0,0,1,.659.348c.748.394,1.485.808,2.227,1.213.79.431,1.574.874,2.374,1.286a2.521,2.521,0,0,1,1.4,1.544,2.152,2.152,0,0,1-.116,1.553,2.242,2.242,0,0,1-1.5,1.256,1.875,1.875,0,0,1-1.381-.09c-.907-.449-1.78-.962-2.673-1.437-.519-.275-1.015-.593-1.558-.823a3.515,3.515,0,0,0-.736-.438q-2.937-1.609-5.882-3.2c-.732-.4-1.469-.787-2.192-1.2a2.243,2.243,0,0,1-.126-3.9,1.886,1.886,0,0,1,1.175-.335,2.631,2.631,0,0,1,1.206.327c.528.311,1.066.608,1.606.9.685.365,1.365.741,2.051,1.1.654.347,1.3.709,1.954,1.056.079.042.143.175.232.12s-.023-.161-.017-.253c.023-.343.027-.687.029-1.031,0-.212-.029-.424-.017-.634a.209.209,0,0,0-.138-.218q-1.335-.725-2.671-1.446c-.159-.086-.318-.17-.475-.259a.637.637,0,0,1-.351-.633.7.7,0,0,1,.539-.538.332.332,0,0,1,.219.035c.453.216.879.483,1.321.719s.9.489,1.355.717c.063.032.105.171.214.071.019,0,.027,0,.017-.021,0-.466-.012-.933-.007-1.4a1.057,1.057,0,0,1,.024-.507c.034-.072-.057-.283-.224-.375-.65-.356-1.291-.729-1.934-1.1-1.013-.579-2.026-1.157-3.036-1.742A2.326,2.326,0,0,1,3.113,13a1.805,1.805,0,0,1,.019-1.1,2.411,2.411,0,0,1,.912-1.308,2.214,2.214,0,0,1,1.914-.3,5.717,5.717,0,0,1,1.438.725c.613.356,1.26.653,1.85,1.051.234.158.493.278.74.417a.168.168,0,0,0,.226-.036,3.533,3.533,0,0,1,.85-.579q3.678-1.953,7.346-3.926c.375-.2.761-.384,1.143-.63-.2-.109-.376-.21-.557-.308-.4-.216-.809-.431-1.213-.646q-1.014-.54-2.027-1.08c-.712-.381-1.45-.721-2.124-1.166a2.078,2.078,0,0,1-.986-1.755A2.161,2.161,0,0,1,13.685.372,2.025,2.025,0,0,1,14.993.007a3.176,3.176,0,0,1,1.225.4q3.311,1.782,6.628,3.555.7.378,1.4.763a.121.121,0,0,0,.147,0A2.6,2.6,0,0,1,26,4.359a2.818,2.818,0,0,1,1.3.415,11.028,11.028,0,0,0,1.088.574c.546.288,1.084.591,1.635.869.255.129.5.282.755.4,0,.023.008.041.037.027l.3.164c.007.019.012.042.04.021l.04.014c0,.023.006.043.036.025.552.3,1.093.619,1.66.884.524.244,1.011.553,1.531.8.56.27,1.09.6,1.637.9.426.23.859.446,1.286.673.487.259.971.526,1.458.786s1,.51,1.484.783a4.017,4.017,0,0,1,1.354.99,3.286,3.286,0,0,1,.682,1.87c.069,1.365.013,2.73.031,4.094a1.643,1.643,0,0,1-.057.474.549.549,0,0,1-.545.382.541.541,0,0,1-.614-.576c.019-1.441.008-2.883.006-4.324a2.7,2.7,0,0,0-.026-.283c-.014-.127-.1-.141-.188-.094-.586.3-1.169.6-1.753.9a5,5,0,0,0-.663.333c-.768.39-1.547.757-2.3,1.172-.587.322-1.208.579-1.794.907-.316.177-.659.309-.979.477-.638.337-1.285.656-1.93.979-.913.457-1.813.941-2.723,1.406-.745.381-1.495.751-2.243,1.124a.181.181,0,0,0-.115.167,5.841,5.841,0,0,0,.037.636q0,7.95,0,15.9c0,.239,0,.478.005.718,0,.113-.007.226-.008.339,0,.221,0,.22.2.119l3.108-1.58c3.4-1.723,6.785-3.457,10.19-5.16a2.011,2.011,0,0,0,1.19-1.959q.01-4.413,0-8.826a.457.457,0,0,1,.219-.4.655.655,0,0,1,.387-.092M30.282,7.762c-.008-.06-.06-.077-.1-.1q-1.783-.949-3.566-1.9a1.741,1.741,0,0,0-1.741.087c-.275.161-.557.312-.841.458q-1.069.55-2.125,1.125c-.589.322-1.188.629-1.766.975-.268.161-.568.29-.85.438-.835.439-1.664.889-2.5,1.328-.132.07-.223.2-.352.252-.529.2-1,.512-1.513.75-.377.176-.738.388-1.105.585-.743.4-1.486.792-2.227,1.193-.1.052-.271.073-.271.168,0,.126.174.159.28.213q1.876.956,3.757,1.9a.2.2,0,0,0,.19.016c.309-.13.6-.292.9-.447.971-.505,1.95-.994,2.925-1.49.564-.287,1.127-.577,1.692-.861.533-.267,1.071-.525,1.6-.793q1.895-.957,3.786-1.92l3.717-1.885a.2.2,0,0,0,.111-.1M25.8,20.506a.5.5,0,0,0,.252-.069c.359-.182.717-.367,1.076-.549q1.684-.853,3.369-1.7,2.769-1.406,5.537-2.816,2.1-1.068,4.211-2.131c.044-.022.107-.032.109-.092s-.064-.07-.106-.093c-.593-.315-1.187-.628-1.779-.944q-.98-.523-1.958-1.05a.436.436,0,0,0-.415-.013c-.48.236-.957.477-1.433.719-.748.38-1.487.778-2.244,1.14-.613.293-1.2.626-1.809.93-1,.5-2,1.017-3,1.522-.609.307-1.236.581-1.829.917-.659.373-1.356.667-2.017,1.036-.629.351-1.288.648-1.934.971-.06.03-.151.057-.148.126s.094.094.154.125l3.787,1.911a.393.393,0,0,0,.176.064m9.126-10.273c-.014-.04-.05-.053-.083-.071l-.947-.506Q32.846,9.095,31.8,8.533a.238.238,0,0,0-.258-.022c-.156.086-.324.156-.478.243-.739.419-1.509.777-2.263,1.166-.7.363-1.421.7-2.124,1.067q-.842.435-1.686.867c-1.766.907-3.54,1.8-5.311,2.7q-1.41.714-2.827,1.428a.654.654,0,0,0,.092.07q1.586.8,3.171,1.6a.276.276,0,0,0,.282,0c.739-.38,1.48-.754,2.221-1.13l3.81-1.938q2.76-1.4,5.519-2.811,1.428-.727,2.86-1.448a.208.208,0,0,0,.115-.091M15,29.688a1.032,1.032,0,0,0,.51-1.955c-.327-.166-.647-.347-.97-.522L13.048,26.4,8.507,23.92l-.726-.4q-1.6-.876-3.21-1.752-.952-.517-1.911-1.022a1.037,1.037,0,0,0-1.193.244,1.5,1.5,0,0,0-.2.4.91.91,0,0,0,.328,1.087c.436.293.908.522,1.368.773q2.1,1.144,4.2,2.288c.7.38,1.389.764,2.084,1.144.553.3,1.108.6,1.661.9q.965.527,1.928,1.055.8.435,1.6.866a.928.928,0,0,0,.569.177M14.908,1.251a.944.944,0,0,0-.995.676.992.992,0,0,0,.41,1.2c.141.093.295.167.444.248q2.957,1.585,5.914,3.171a.293.293,0,0,0,.286.013q.944-.494,1.88-1c.075-.041.14-.107.008-.178-.171-.093-.333-.2-.5-.3Q18.977,3.269,15.6,1.463a1.123,1.123,0,0,0-.692-.212m4.73,22.266v-.59q0-1.957,0-3.913a.32.32,0,0,0-.2-.341c-.636-.308-1.264-.632-1.893-.953q-.631-.321-1.257-.649c-.175-.091-.187-.08-.2.12-.01.153.041.3.04.446q0,2.184,0,4.368c0,.059-.033.138.034.173s.1-.036.148-.062a2.514,2.514,0,0,1,1.311-.456,1.548,1.548,0,0,1,1.192.643c.1.124.163.276.252.41a6.234,6.234,0,0,0,.57.806M5.351,11.424a1,1,0,0,0-1.06,1.054,1.039,1.039,0,0,0,.568.871q1.586.911,3.174,1.817.573.328,1.144.657c.089.051.14.079.138-.073,0-.415,0-.831.016-1.246a2.187,2.187,0,0,1,.127-.821c.03-.067,0-.106-.053-.138-.1-.059-.2-.122-.309-.179-.946-.511-1.871-1.059-2.806-1.588-.3-.167-.566-.415-.939-.354" transform="translate(0 0)"/>
        <path id="Trazado_819319" data-name="Trazado 819319" d="M70.371,95.856c0,.3.007.592.007.888,0,1.72,0,3.441,0,5.161a1.213,1.213,0,0,0,.293.886.973.973,0,0,0,.9.265,5.858,5.858,0,0,0,1.079-.569,1.464,1.464,0,0,1,.441-.157.251.251,0,0,1,.257.146q.511.8,1.024,1.6c.061.1.127.187.19.282a.892.892,0,0,0,.785.445.944.944,0,0,0,.9-.479.976.976,0,0,0,.135-.518q-.006-2.363-.007-4.726c0-.218.005-.228.2-.131q.777.389,1.55.788,1.164.6,2.325,1.2c.059.03.123.05.183.078a.183.183,0,0,1,.112.2c-.01.327-.01.655-.01.983q0,8.2,0,16.409c0,.373,0,.368-.331.2-.84-.425-1.684-.841-2.523-1.267-1.4-.713-2.806-1.433-4.211-2.145-.713-.362-1.441-.7-2.146-1.073-1.333-.714-2.7-1.368-4.034-2.069-.195-.1-.4-.19-.584-.305a1.741,1.741,0,0,1-.86-1.512.578.578,0,0,0-.572-.614c-.053-.5,0-1.008-.033-1.511a.516.516,0,0,1,.076-.337c.543.229,1.039.547,1.558.822.893.475,1.766.988,2.673,1.437a1.876,1.876,0,0,0,1.381.09,2.242,2.242,0,0,0,1.5-1.256,2.151,2.151,0,0,0,.116-1.552,2.521,2.521,0,0,0-1.4-1.544c-.8-.412-1.584-.855-2.374-1.286-.742-.4-1.479-.819-2.227-1.213a3.93,3.93,0,0,0-.659-.348c-.059-.018-.043-.1-.043-.151,0-.189.005-.378.005-.567q0-4.026,0-8.052c0-.192,0-.385.009-.577.008-.134.091-.118.183-.071q.581.3,1.164.6c.59.3,1.178.6,1.773.9.363.178.708.393,1.086.54a.178.178,0,0,1,.105.1v.017Z" transform="translate(-55.501 -79.449)" fill="#d1b695"/>
        <path id="Trazado_819320" data-name="Trazado 819320" d="M189.646,100.815a.655.655,0,0,0-.387.092.457.457,0,0,0-.219.4q.005,4.413,0,8.826a2.011,2.011,0,0,1-1.19,1.959c-3.405,1.7-6.795,3.437-10.19,5.16l-3.108,1.58c-.2.1-.2.1-.2-.119,0-.113.005-.226.008-.339.1-.005.148-.09.222-.135.46-.283.958-.495,1.435-.746.734-.385,1.482-.742,2.221-1.118.622-.316,1.237-.647,1.86-.963.858-.436,1.72-.86,2.579-1.3q1.448-.734,2.891-1.48a3.324,3.324,0,0,0,.918-.618,2.464,2.464,0,0,0,.656-1.756q.015-7.241,0-14.483a3.617,3.617,0,0,0-.073-1.227c.584-.3,1.167-.6,1.753-.9.091-.046.174-.033.188.094a2.7,2.7,0,0,1,.026.283c0,1.441.013,2.883-.006,4.324a.541.541,0,0,0,.614.576c0,.458,0,.915,0,1.373a1.812,1.812,0,0,0,0,.518" transform="translate(-147.894 -79.415)" fill="#d1b695"/>
        <path id="Trazado_819321" data-name="Trazado 819321" d="M213.954,29.592a.641.641,0,0,1,.408.109c.665.37,1.334.733,2,1.1.517.283,1.039.558,1.551.85a.612.612,0,0,1,.285.7.673.673,0,0,1-.59.434.374.374,0,0,1-.176-.05c-.93-.47-1.831-.992-2.748-1.486-.356-.192-.721-.371-1.057-.593a.578.578,0,0,1,.05-1.028c.072-.043.182-.021.275-.029" transform="translate(-180.962 -25.097)"/>
        <path id="Trazado_819322" data-name="Trazado 819322" d="M202.847,43.649c-.029.014-.035,0-.037-.027l.037.027" transform="translate(-172.032 -37.002)" fill="#d4d9f2"/>
        <path id="Trazado_819323" data-name="Trazado 819323" d="M205.072,44.9c-.028.02-.033,0-.04-.022l.04.022" transform="translate(-173.916 -38.068)" fill="#d4d9f2"/>
        <path id="Trazado_819324" data-name="Trazado 819324" d="M205.6,45.138c-.031.018-.035,0-.036-.025l.036.025" transform="translate(-174.364 -38.267)" fill="#d4d9f2"/>
        <path id="Trazado_819325" data-name="Trazado 819325" d="M61.33,128.2c.01.02,0,.025-.017.021v-.016Z" transform="translate(-52.008 -108.745)" fill="#6b7ed7"/>
        <path id="Trazado_819326" data-name="Trazado 819326" d="M186.868,99.728a3.617,3.617,0,0,1,.073,1.227q.008,7.241,0,14.483a2.464,2.464,0,0,1-.656,1.756,3.323,3.323,0,0,1-.918.618q-1.442.746-2.891,1.48c-.858.435-1.721.86-2.579,1.3-.622.316-1.238.646-1.86.963-.739.376-1.487.732-2.221,1.118-.477.251-.974.462-1.435.746-.073.045-.124.13-.222.135,0-.239-.005-.478-.005-.718q0-7.95,0-15.9a5.847,5.847,0,0,1-.037-.636.181.181,0,0,1,.115-.167c.748-.373,1.5-.743,2.243-1.124.91-.465,1.81-.949,2.723-1.406.645-.323,1.292-.642,1.93-.979.319-.169.662-.3.979-.477.586-.328,1.207-.585,1.794-.907.756-.415,1.535-.782,2.3-1.172a5.012,5.012,0,0,1,.663-.333m-10.8,18.683a.582.582,0,0,0,.274-.05q1.02-.53,2.043-1.052c.481-.246.966-.484,1.446-.731.168-.086.357-.177.407-.372a.618.618,0,0,0-.163-.678.6.6,0,0,0-.718-.065q-1.075.545-2.148,1.094c-.486.249-.97.5-1.455.753a.571.571,0,0,0-.261.63.593.593,0,0,0,.575.471m4.181.131a.57.57,0,0,0-.825-.573c-.058.025-.113.054-.17.082q-1,.5-2,1.011c-.487.248-.97.5-1.456.75a.556.556,0,0,0-.312.59.59.59,0,0,0,.411.512.657.657,0,0,0,.554-.089l2.03-1.036c.481-.246.963-.487,1.44-.74.207-.11.383-.257.327-.508" transform="translate(-147.689 -84.593)" fill="#f8e1c3"/>
        <path id="Trazado_819327" data-name="Trazado 819327" d="M93.563,38.929a.2.2,0,0,1-.111.1L89.735,40.91q-1.893.96-3.786,1.92c-.532.269-1.071.526-1.6.793-.566.284-1.128.574-1.692.861-.976.5-1.955.984-2.925,1.49-.3.154-.588.317-.9.447a.2.2,0,0,1-.19-.016q-1.879-.951-3.757-1.9c-.106-.054-.28-.087-.28-.213,0-.1.174-.116.271-.168.74-.4,1.484-.8,2.227-1.193.368-.2.728-.409,1.105-.585.511-.238.984-.548,1.513-.75.129-.05.22-.182.352-.252.835-.438,1.665-.889,2.5-1.327.282-.148.581-.277.85-.438.578-.346,1.177-.653,1.766-.975q1.054-.576,2.125-1.125c.284-.146.566-.3.841-.458a1.741,1.741,0,0,1,1.741-.087q1.782.952,3.566,1.9c.043.023.095.04.1.1" transform="translate(-63.281 -31.167)" fill="#ecb062"/>
        <path id="Trazado_819328" data-name="Trazado 819328" d="M146.974,81.984a.388.388,0,0,1-.176-.063l-3.787-1.911c-.061-.031-.152-.056-.154-.125s.088-.1.148-.126c.645-.322,1.3-.62,1.933-.971.661-.368,1.358-.662,2.017-1.036.592-.336,1.22-.61,1.829-.917,1-.506,2-1.02,3-1.522.606-.3,1.2-.638,1.809-.93.757-.361,1.5-.759,2.244-1.139.477-.242.954-.483,1.433-.719a.436.436,0,0,1,.415.013q.978.526,1.958,1.05c.592.316,1.186.629,1.779.944.042.022.109.03.106.093s-.065.069-.109.092q-2.106,1.066-4.211,2.131-2.769,1.406-5.537,2.816-1.683.855-3.369,1.7c-.359.182-.717.367-1.076.549a.493.493,0,0,1-.252.069" transform="translate(-121.177 -61.478)" fill="#ecb062"/>
        <path id="Trazado_819329" data-name="Trazado 819329" d="M129.124,57.64a.21.21,0,0,1-.115.091q-1.43.723-2.86,1.448-2.76,1.4-5.519,2.811l-3.81,1.937c-.741.376-1.482.75-2.221,1.13a.276.276,0,0,1-.282,0q-1.584-.805-3.171-1.6a.656.656,0,0,1-.092-.07l2.827-1.428c1.771-.9,3.545-1.788,5.311-2.7q.843-.433,1.686-.867c.7-.363,1.42-.7,2.124-1.067.754-.389,1.524-.747,2.263-1.166.154-.087.322-.157.478-.243a.238.238,0,0,1,.258.022q1.047.56,2.093,1.124l.947.506c.033.018.07.031.084.071" transform="translate(-94.2 -47.407)" fill="#fccd32"/>
        <path id="Trazado_819330" data-name="Trazado 819330" d="M21.7,145.129a.928.928,0,0,1-.569-.177q-.8-.429-1.6-.866-.965-.526-1.928-1.055c-.554-.3-1.108-.6-1.661-.9-.7-.38-1.388-.764-2.084-1.144q-2.1-1.145-4.2-2.288c-.46-.251-.932-.48-1.368-.773a.91.91,0,0,1-.328-1.087,1.5,1.5,0,0,1,.2-.4,1.037,1.037,0,0,1,1.193-.244q.958.507,1.911,1.022,1.607.872,3.21,1.752l.726.4,4.54,2.477,1.493.814c.322.175.643.356.97.522a1.032,1.032,0,0,1-.51,1.955" transform="translate(-6.703 -115.441)" fill="#dbe5f3"/>
        <path id="Trazado_819331" data-name="Trazado 819331" d="M92.354,8.2a1.125,1.125,0,0,1,.692.212q3.377,1.808,6.753,3.617c.171.092.333.2.5.3.132.072.068.138-.008.178q-.937.506-1.88,1a.294.294,0,0,1-.286-.013q-2.956-1.588-5.914-3.171c-.149-.08-.3-.155-.444-.248a.991.991,0,0,1-.41-1.2.944.944,0,0,1,.995-.676" transform="translate(-77.446 -6.953)" fill="#dbe5f3"/>
        <path id="Trazado_819332" data-name="Trazado 819332" d="M109.592,118.618a6.209,6.209,0,0,1-.57-.806c-.089-.133-.152-.286-.252-.41a1.547,1.547,0,0,0-1.192-.643,2.51,2.51,0,0,0-1.311.456c-.049.025-.093.09-.148.062s-.034-.114-.034-.173q0-2.184,0-4.368c0-.15-.05-.293-.04-.446.013-.2.025-.211.2-.12q.628.327,1.257.649c.63.321,1.257.645,1.893.953a.32.32,0,0,1,.2.341c0,1.3,0,2.609,0,3.913v.59" transform="translate(-89.953 -95.101)" fill="#fccd32"/>
        <path id="Trazado_819333" data-name="Trazado 819333" d="M29.322,75.227c.373-.061.644.187.939.354.935.53,1.86,1.077,2.806,1.588.1.057.206.12.309.179.056.032.083.072.053.138a2.187,2.187,0,0,0-.127.821c-.018.415-.021.831-.016,1.246,0,.152-.049.125-.138.073Q32.577,79.3,32,78.97q-1.587-.909-3.174-1.817a1.039,1.039,0,0,1-.568-.871,1,1,0,0,1,1.06-1.054" transform="translate(-23.972 -63.803)" fill="#dbe5f3"/>
        <path id="Trazado_819334" data-name="Trazado 819334" d="M97.9,107.971l-.015-.007v-.017c.013,0,.028.005.015.024" transform="translate(-83.03 -91.565)" fill="#6b7ed7"/>
        <path id="Trazado_819335" data-name="Trazado 819335" d="M183.665,205.858a.592.592,0,0,1-.575-.47.571.571,0,0,1,.26-.63c.485-.251.969-.5,1.455-.753q1.073-.55,2.148-1.094a.6.6,0,0,1,.718.065.618.618,0,0,1,.163.678c-.049.195-.239.285-.407.372-.48.247-.965.485-1.446.731q-1.023.523-2.043,1.052a.576.576,0,0,1-.274.05" transform="translate(-155.289 -172.041)"/>
        <path id="Trazado_819336" data-name="Trazado 819336" d="M187.889,220.168c.056.251-.12.4-.327.508-.476.253-.959.495-1.44.74l-2.03,1.036a.657.657,0,0,1-.554.089.59.59,0,0,1-.411-.512.556.556,0,0,1,.312-.59c.486-.248.97-.5,1.456-.75q1-.508,2-1.011c.056-.028.112-.058.17-.082a.57.57,0,0,1,.825.573" transform="translate(-155.333 -186.22)"/>
      </g>
    </g>
  </g>
</svg>
