<svg xmlns="http://www.w3.org/2000/svg" xmlns:xlink="http://www.w3.org/1999/xlink" width="121.333" height="111.727" viewBox="0 0 121.333 111.727">
  <defs>
    <clipPath id="clip-path">
      <rect id="Rectángulo_377517" data-name="Rectángulo 377517" width="121.333" height="111.727" fill="#fccd32"/>
    </clipPath>
    <clipPath id="clip-path-2">
      <path id="Trazado_608638" data-name="Trazado 608638" d="M80.366,0h-39.4a21.078,21.078,0,0,0-18.3,10.621L2.779,45.4a21.09,21.09,0,0,0,0,20.929l19.883,34.778a21.078,21.078,0,0,0,18.3,10.621h39.4a21.085,21.085,0,0,0,18.307-10.621l19.881-34.778a21.09,21.09,0,0,0,0-20.929L98.673,10.621A21.085,21.085,0,0,0,80.366,0" fill="#fccd32"/>
    </clipPath>
    <clipPath id="clip-path-3">
      <rect id="Rectángulo_378372" data-name="Rectángulo 378372" width="85.334" height="81.052" fill="#590e00"/>
    </clipPath>
  </defs>
  <g id="Grupo_1071841" data-name="Grupo 1071841" transform="translate(-878.333 -412)">
    <g id="Grupo_1071837" data-name="Grupo 1071837" transform="translate(878.333 412)">
      <g id="Grupo_1071839" data-name="Grupo 1071839" clip-path="url(#clip-path)">
        <g id="Grupo_1071838" data-name="Grupo 1071838" transform="translate(0)">
          <g id="Grupo_1071837-2" data-name="Grupo 1071837" clip-path="url(#clip-path-2)">
            <rect id="Rectángulo_377516" data-name="Rectángulo 377516" width="163.489" height="165.679" transform="translate(-54.749 70.826) rotate(-52.768)" fill="#fccd32"/>
          </g>
        </g>
      </g>
    </g>
    <g id="Grupo_1074394" data-name="Grupo 1074394" transform="translate(896.332 427.338)">
      <g id="Grupo_1074393" data-name="Grupo 1074393" transform="translate(0 0)" clip-path="url(#clip-path-3)">
        <path id="Trazado_825646" data-name="Trazado 825646" d="M24.439,29.11l8.65,2.657,4.972,12.381a1.077,1.077,0,0,0-.248.413l-2.43,7.451a1.082,1.082,0,0,0,.027.743l6.765,16.592a8.54,8.54,0,1,0,16.407.375l15.425-6.58a1.081,1.081,0,1,0-.848-1.988L57.767,67.72a8.575,8.575,0,0,0-1.117-1.55L71.13,60.177a.771.771,0,0,0,.418-1.008L64.055,41.063a.772.772,0,0,0-1.009-.418l-1.526.632-5.3-12.8a.773.773,0,0,0-1.008-.418l-13.769,5.7a.771.771,0,0,0-.418,1.008l5.3,12.8-1.772.734a.772.772,0,0,0-.418,1.008l5.82,14.063a8.493,8.493,0,0,0-1.744.256L34.9,30.484a1.082,1.082,0,0,0-.686-.63l-9.142-2.809a1.08,1.08,0,0,0-.635,2.066m18.312,5.781,3.812-1.578,1.471,3.556,4.718-1.953-1.472-3.556,3.813-1.578,4.988,12.053L47.74,46.944Zm7.573,30.63c.179,0,.355.009.53.024a6.327,6.327,0,0,1,1.852.439l.175.074a6.379,6.379,0,1,1-5.867.391,6.356,6.356,0,0,1,3.309-.928M45.856,49.43l5.365-2.22,2.078,5.02,6.337-2.622-2.078-5.021,5.365-2.22,6.9,16.679L55.382,65.024a8.5,8.5,0,0,0-3.716-1.557ZM43.474,66.808l-2.468-6.052,2.986-1.838L46.2,64.424a8.6,8.6,0,0,0-2.729,2.384m-3.3-8.08L37.56,52.306l1.692-5.189,3.922,9.767Z" transform="translate(-7.699 -8.779)" fill="#590e00"/>
        <path id="Trazado_825647" data-name="Trazado 825647" d="M61.4,95.442a3.674,3.674,0,0,0,3.674-3.674c0-.074,0-.148-.007-.221A3.674,3.674,0,0,0,61.4,88.094c-.088,0-.175,0-.262.01a3.674,3.674,0,0,0,.262,7.338" transform="translate(-18.77 -28.647)" fill="#590e00"/>
        <path id="Trazado_825648" data-name="Trazado 825648" d="M85.095,69.95l-1.883-5.119-3.492,4.19-3.492,4.19,3.446.6A37.141,37.141,0,0,1,8.514,70.456H5.052a40.51,40.51,0,0,0,77.982,3.932l3.943.682Z" transform="translate(-1.643 -21.082)" fill="#590e00"/>
        <path id="Trazado_825649" data-name="Trazado 825649" d="M7.473,36.527l3.337-4.315L6.881,31.68a37.14,37.14,0,0,1,72.7,2.7h3.426a40.526,40.526,0,0,0-79.5-3.155L0,30.747l2.068,5.048,2.068,5.048Z" transform="translate(0 0)" fill="#590e00"/>
      </g>
    </g>
  </g>
</svg>
