<svg xmlns="http://www.w3.org/2000/svg" width="67" height="65.27" viewBox="0 0 67 65.27">
  <g id="Grupo_1071836" data-name="Grupo 1071836" transform="translate(-1168.333 -34.73)">
    <g id="Grupo_1071835" data-name="Grupo 1071835" transform="translate(-86 -106)">
      <g id="Group_44_" data-name="Group (44)" transform="translate(1248.996 132.69)">
        <path id="Trazado_598936" data-name="Trazado 598936" d="M12.641,12.591a3.7,3.7,0,1,0-4.452,2.752A3.7,3.7,0,0,0,12.641,12.591Z" transform="translate(0)" fill="#590e00"/>
        <path id="Trazado_598937" data-name="Trazado 598937" d="M151.814,15.188a3.7,3.7,0,1,0-4.835-2A3.7,3.7,0,0,0,151.814,15.188Z" transform="translate(-121.487 -0.024)" fill="#590e00"/>
        <path id="Trazado_598938" data-name="Trazado 598938" d="M293.087,15.2a3.7,3.7,0,1,0-4.835-2A3.7,3.7,0,0,0,293.087,15.2Z" transform="translate(-242.899 -0.032)" fill="#590e00"/>
        <path id="Trazado_598939" data-name="Trazado 598939" d="M434.382,15.184a3.7,3.7,0,1,0-4.835-2A3.7,3.7,0,0,0,434.382,15.184Z" transform="translate(-364.331 -0.021)" fill="#590e00"/>
        <path id="Trazado_598940" data-name="Trazado 598940" d="M9.122,156.769a3.7,3.7,0,1,0-3.7-3.7A3.7,3.7,0,0,0,9.122,156.769Z" transform="translate(-0.072 -121.46)" fill="#590e00"/>
        <path id="Trazado_598941" data-name="Trazado 598941" d="M150.393,156.769a3.7,3.7,0,1,0-3.7-3.7A3.7,3.7,0,0,0,150.393,156.769Z" transform="translate(-121.483 -121.46)" fill="#590e00"/>
        <path id="Trazado_598942" data-name="Trazado 598942" d="M291.686,156.769a3.7,3.7,0,1,0-3.7-3.7A3.7,3.7,0,0,0,291.686,156.769Z" transform="translate(-242.913 -121.46)" fill="#590e00"/>
        <path id="Trazado_598943" data-name="Trazado 598943" d="M432.98,156.769a3.7,3.7,0,1,0-3.7-3.7A3.7,3.7,0,0,0,432.98,156.769Z" transform="translate(-364.344 -121.46)" fill="#590e00"/>
      </g>
      <g id="Group_44_2" data-name="Group (44)" transform="translate(1248.996 170.69)">
        <path id="Trazado_598936-2" data-name="Trazado 598936" d="M12.641,12.591a3.7,3.7,0,1,0-4.452,2.752A3.7,3.7,0,0,0,12.641,12.591Z" transform="translate(0)" fill="#590e00"/>
        <path id="Trazado_598937-2" data-name="Trazado 598937" d="M151.814,15.188a3.7,3.7,0,1,0-4.835-2A3.7,3.7,0,0,0,151.814,15.188Z" transform="translate(-121.487 -0.024)" fill="#590e00"/>
        <path id="Trazado_598938-2" data-name="Trazado 598938" d="M293.087,15.2a3.7,3.7,0,1,0-4.835-2A3.7,3.7,0,0,0,293.087,15.2Z" transform="translate(-242.899 -0.032)" fill="#590e00"/>
        <path id="Trazado_598939-2" data-name="Trazado 598939" d="M434.382,15.184a3.7,3.7,0,1,0-4.835-2A3.7,3.7,0,0,0,434.382,15.184Z" transform="translate(-364.331 -0.021)" fill="#590e00"/>
        <path id="Trazado_598940-2" data-name="Trazado 598940" d="M9.122,156.769a3.7,3.7,0,1,0-3.7-3.7A3.7,3.7,0,0,0,9.122,156.769Z" transform="translate(-0.072 -121.46)" fill="#590e00"/>
        <path id="Trazado_598941-2" data-name="Trazado 598941" d="M150.393,156.769a3.7,3.7,0,1,0-3.7-3.7A3.7,3.7,0,0,0,150.393,156.769Z" transform="translate(-121.483 -121.46)" fill="#590e00"/>
        <path id="Trazado_598942-2" data-name="Trazado 598942" d="M291.686,156.769a3.7,3.7,0,1,0-3.7-3.7A3.7,3.7,0,0,0,291.686,156.769Z" transform="translate(-242.913 -121.46)" fill="#590e00"/>
        <path id="Trazado_598943-2" data-name="Trazado 598943" d="M432.98,156.769a3.7,3.7,0,1,0-3.7-3.7A3.7,3.7,0,0,0,432.98,156.769Z" transform="translate(-364.344 -121.46)" fill="#590e00"/>
      </g>
    </g>
  </g>
</svg>
