<svg id="Grupo_1074454" data-name="Grupo 1074454" xmlns="http://www.w3.org/2000/svg" xmlns:xlink="http://www.w3.org/1999/xlink" width="141" height="141" viewBox="0 0 141 141">
  <defs>
    <clipPath id="clip-path">
      <rect id="Rectángulo_378518" data-name="Rectángulo 378518" width="99.753" height="99.691" fill="none"/>
    </clipPath>
  </defs>
  <circle id="Elipse_5614" data-name="Elipse 5614" cx="70.5" cy="70.5" r="70.5" fill="#590e00"/>
  <g id="Grupo_1074459" data-name="Grupo 1074459" transform="translate(21.484 19.76)">
    <g id="Grupo_1074458" data-name="Grupo 1074458" clip-path="url(#clip-path)">
      <path id="Trazado_825817" data-name="Trazado 825817" d="M108.379,57.872c-1.444.825-2.6,1.482-3.759,2.148Q92.95,66.747,81.284,73.479a3.924,3.924,0,0,0-2.109,3.628q.015,11.54,0,23.08c0,.364.006.728,0,1.092-.022,1.025-.072,2.132-1.433,2.158-1.486.028-1.5-1.159-1.512-2.224-.018-2.183-.006-4.367-.006-6.55q0-8.811,0-17.622a3.606,3.606,0,0,0-1.795-3.332Q61.177,66,47.884,58.343c-.174-.1-.373-.157-.84-.348,0,1.135.028,2.135-.008,3.132-.034.941-.267,1.825-1.438,1.849-1.259.027-1.527-.856-1.533-1.892-.006-.976,0-1.951,0-3.023-1.256.291-2.525,1.681-3.41.015-.807-1.518.8-1.969,1.655-2.677-.042-.122-.045-.244-.1-.281-.917-.583-1.9-1.264-1.15-2.466.823-1.32,1.989-.648,2.824.027,1.163.939,2.042.756,3.273.029,9.61-5.674,19.284-11.241,28.905-16.9a2.825,2.825,0,0,1,3.275,0c9.71,5.71,19.465,11.344,29.178,17.046,1,.588,1.823.869,2.72-.038a.5.5,0,0,1,.127-.09c.989-.519,2.1-1.482,2.977-.076.805,1.285-.346,1.946-1.352,2.58.793.891,2.7,1.316,1.678,2.956-.9,1.452-2.1.257-3.342-.238v1.815q0,9.669,0,19.337c0,.467.129,1.047-.1,1.373a2.418,2.418,0,0,1-1.416,1.089c-.4.04-1.022-.567-1.261-1.033a3.9,3.9,0,0,1-.16-1.682q-.013-9.513-.005-19.025ZM106.887,55.3c-.293-.183-.418-.265-.548-.341Q93.1,47.246,79.846,39.547c-.262-.152-.789-.274-.933-.137-.988.943-1.859.634-2.648-.22L48.6,55.224a9.745,9.745,0,0,0,.821.611q13.667,7.91,27.327,15.833a1.824,1.824,0,0,0,2.116-.139Q89.092,65.6,99.339,59.7c2.46-1.422,4.91-2.86,7.548-4.4" transform="translate(-27.818 -24.28)" fill="#fff"/>
      <path id="Trazado_825818" data-name="Trazado 825818" d="M41.726,161.4c-.17-.661-.818-1.725-.521-2.307.8-1.565,2.016-.4,3.244.048.033-.621.086-1.157.086-1.693q.008-9.743.005-19.486c0-.467-.142-1.035.07-1.379.338-.551.914-1.315,1.4-1.319s1.1.735,1.426,1.286c.231.392.091,1.012.092,1.531,0,7.171.023,14.342-.021,21.513a2.164,2.164,0,0,0,1.256,2.194c9.234,5.278,18.435,10.614,27.393,15.788.75-.656,1.373-1.629,2.021-1.645.622-.016,1.27.957,2.057,1.622,7.447-4.295,15.222-8.778,23-13.264,1.528-.882,3.1-1.695,4.552-2.695a2.809,2.809,0,0,0,1.032-1.792c.159-1.332.027-2.7.065-4.047.027-.964.348-1.821,1.506-1.767,1.115.052,1.428.864,1.418,1.862-.011,1.036,0,2.072,0,3.206,1.212-.095,2.543-1.708,3.382.1.269.579-.343,1.568-.553,2.369l-.529-.038c.183.21.483.4.527.633.113.613.383,1.527.095,1.8-.4.385-1.535.633-1.866.356-1.614-1.35-2.864-.563-4.315.284-9.367,5.466-18.794,10.828-28.133,16.34a3.86,3.86,0,0,1-4.519-.045c-9.661-5.681-19.4-11.236-29.079-16.88a2.08,2.08,0,0,0-2.652-.007c-.773.587-1.845,1.027-2.464.042-.357-.568-.006-1.58.035-2.614" transform="translate(-28.297 -93.067)" fill="#fff"/>
      <path id="Trazado_825819" data-name="Trazado 825819" d="M220.6,189.082l3.1,3.095c-.5.486-.94,1.265-1.521,1.393-.98.216-3.248-1.634-3.047-2.374a9.014,9.014,0,0,1,1.463-2.114" transform="translate(-150.759 -130.092)" fill="#fff"/>
      <path id="Trazado_825820" data-name="Trazado 825820" d="M87.656,195.443c-.577-.48-1.147-.75-1.355-1.191a1.47,1.47,0,0,1,.173-1.374,10.3,10.3,0,0,1,2.629-1.551,1.525,1.525,0,0,1,1.292.569c.248.336.36,1.178.143,1.382a29.95,29.95,0,0,1-2.881,2.165" transform="translate(-59.312 -131.617)" fill="#fff"/>
      <path id="Trazado_825821" data-name="Trazado 825821" d="M291.023,77.578a16.934,16.934,0,0,1-2.488,1.85,2.5,2.5,0,0,1-1.961.119,1.967,1.967,0,0,1-.461-1.649,12.823,12.823,0,0,1,3.263-1.785c.27-.1.888.765,1.647,1.464" transform="translate(-196.81 -52.363)" fill="#fff"/>
      <path id="Trazado_825822" data-name="Trazado 825822" d="M68.678,205.656c-.068,1.213-2.94,2.828-3.889,2.089a2.3,2.3,0,0,1-.6-1.623,13.648,13.648,0,0,1,3.353-1.882c.412-.146,1.122.551,1.7.863l-.56.553" transform="translate(-44.141 -140.507)" fill="#fff"/>
      <path id="Trazado_825823" data-name="Trazado 825823" d="M287.249,200.673a4.226,4.226,0,0,1-.954-1.429c-.186-.821,2.032-2.513,3.095-2.282a2.166,2.166,0,0,1,1.347,1.318c.244.889-1.739,2.376-3.487,2.393" transform="translate(-196.968 -135.499)" fill="#fff"/>
      <path id="Trazado_825824" data-name="Trazado 825824" d="M197.987,178.577c1.706.023,3.821,1.522,3.58,2.331a2.308,2.308,0,0,1-1.454,1.384c-1.106.216-3.212-1.445-3.042-2.3a4.048,4.048,0,0,1,.915-1.417" transform="translate(-135.582 -122.864)" fill="#fff"/>
      <path id="Trazado_825825" data-name="Trazado 825825" d="M111.86,178.613a3.985,3.985,0,0,1,.88,1.362c.18.869-1.894,2.558-3.017,2.34a2.3,2.3,0,0,1-1.437-1.413c-.226-.807,1.995-2.335,3.574-2.289" transform="translate(-74.491 -122.888)" fill="#fff"/>
      <path id="Trazado_825826" data-name="Trazado 825826" d="M244.6,208.6c-1.327-1.242-2.309-2.118-3.177-3.1A3.48,3.48,0,0,1,242.8,204.1c.947-.264,3.207,1.5,3.062,2.289A9.175,9.175,0,0,1,244.6,208.6" transform="translate(-166.104 -140.403)" fill="#fff"/>
      <path id="Trazado_825827" data-name="Trazado 825827" d="M287.143,227.471l3.262,3.017c-.476.5-.878,1.292-1.444,1.436-1.032.261-3.229-1.392-3.091-2.232a8.776,8.776,0,0,1,1.273-2.221" transform="translate(-196.68 -156.504)" fill="#fff"/>
      <path id="Trazado_825828" data-name="Trazado 825828" d="M117.3,14.789c-1.777-.2-3.595-1.678-3.289-2.485a2.27,2.27,0,0,1,1.543-1.293c1.248-.089,3.214,1.7,2.907,2.491-.229.591-.9,1.011-1.161,1.287" transform="translate(-78.421 -7.574)" fill="#fff"/>
      <path id="Trazado_825829" data-name="Trazado 825829" d="M178.484,169.5c-1.605.059-3.748-1.432-3.558-2.3a2.167,2.167,0,0,1,1.266-1.407c1.127-.29,3.373,1.422,3.189,2.353-.113.572-.687,1.052-.9,1.351" transform="translate(-120.344 -114.045)" fill="#fff"/>
      <path id="Trazado_825830" data-name="Trazado 825830" d="M174.885,286.782c-.579.355-1.126.926-1.743,1.016-1.045.152-3.179-1.489-2.962-2.234a2.4,2.4,0,0,1,1.394-1.476c1-.249,3.089,1.51,3.311,2.694" transform="translate(-117.076 -195.441)" fill="#fff"/>
      <path id="Trazado_825831" data-name="Trazado 825831" d="M22.589,200.676c-1.734-.011-3.763-1.516-3.512-2.387a2.206,2.206,0,0,1,1.374-1.319c1.064-.233,3.305,1.46,3.116,2.276a4.211,4.211,0,0,1-.977,1.43" transform="translate(-13.11 -135.504)" fill="#fff"/>
      <path id="Trazado_825832" data-name="Trazado 825832" d="M23.62,112.662c-.058,1.17-2.814,2.81-3.747,2.128a2.507,2.507,0,0,1-.713-1.587,13.882,13.882,0,0,1,3.31-1.959c.421-.158,1.157.522,1.75.819l-.6.6" transform="translate(-13.169 -76.522)" fill="#fff"/>
      <path id="Trazado_825833" data-name="Trazado 825833" d="M291.064,113.7c-.555.407-1.063,1.04-1.677,1.17-.977.207-3.273-1.67-3.031-2.415a2.43,2.43,0,0,1,1.359-1.412c.889-.27,3.087,1.537,3.349,2.656" transform="translate(-197.006 -76.38)" fill="#fff"/>
      <path id="Trazado_825834" data-name="Trazado 825834" d="M175.561,25.1a14.2,14.2,0,0,1-2.224,1.774,3.231,3.231,0,0,1-2.1.318c-.332-.092-.719-1.473-.564-1.59a13.029,13.029,0,0,1,3.182-1.814c.285-.109.909.675,1.709,1.313" transform="translate(-117.4 -16.361)" fill="#fff"/>
      <path id="Trazado_825835" data-name="Trazado 825835" d="M24.268,78.792c-.571.351-1.115.934-1.719,1-1.109.128-3.241-1.648-2.967-2.417a2.308,2.308,0,0,1,1.49-1.355c1.161-.144,3,1.527,3.2,2.769" transform="translate(-13.456 -52.3)" fill="#fff"/>
      <path id="Trazado_825836" data-name="Trazado 825836" d="M136.573,23.51c1.728.022,3.766,1.545,3.5,2.386a2.282,2.282,0,0,1-1.48,1.335c-1.036.174-3.043-1.484-2.883-2.27a4.454,4.454,0,0,1,.866-1.451" transform="translate(-93.363 -16.175)" fill="#fff"/>
      <path id="Trazado_825837" data-name="Trazado 825837" d="M138.352,281.711a9.065,9.065,0,0,1,1.3,2.263c.136.8-1.962,2.289-3.011,2.246-.9-.037-1.787-.71-1.384-1.4.631-1.082,1.8-1.852,3.1-3.107" transform="translate(-92.987 -193.822)" fill="#fff"/>
      <path id="Trazado_825838" data-name="Trazado 825838" d="M197.131,12.469a11.633,11.633,0,0,1-2.107,1.709,8.135,8.135,0,0,1-2.28.377.153.153,0,0,1-.122-.085c-.113-.566-.48-1.5-.28-1.64a13.867,13.867,0,0,1,3.263-1.751c.241-.09.82.726,1.527,1.391" transform="translate(-132.294 -7.617)" fill="#fff"/>
      <path id="Trazado_825839" data-name="Trazado 825839" d="M131.557,169.562a4.113,4.113,0,0,1-.925-1.417c-.185-.881,1.878-2.531,3.017-2.335a2.17,2.17,0,0,1,1.391,1.278c.271.855-1.713,2.4-3.483,2.473" transform="translate(-89.869 -114.069)" fill="#fff"/>
      <path id="Trazado_825840" data-name="Trazado 825840" d="M24.73,231.227a10.009,10.009,0,0,1-1.879,1.682,5.092,5.092,0,0,1-2.416.51c-.24-.014-.729-1.483-.574-1.6a13.457,13.457,0,0,1,3.21-1.886c.273-.109.909.689,1.659,1.3" transform="translate(-13.644 -158.189)" fill="#fff"/>
      <path id="Trazado_825841" data-name="Trazado 825841" d="M117.343,296.6a4.008,4.008,0,0,1,.915,1.333c.207.861-1.792,2.577-2.925,2.392a2.22,2.22,0,0,1-1.408-1.376c-.241-.852,1.808-2.361,3.418-2.349" transform="translate(-78.369 -204.063)" fill="#fff"/>
      <path id="Trazado_825842" data-name="Trazado 825842" d="M192.891,296.539c1.678.1,3.579,1.559,3.317,2.385a2.229,2.229,0,0,1-1.464,1.352c-1.251.133-3.131-1.587-2.862-2.485.167-.557.778-.98,1.01-1.252" transform="translate(-131.999 -204.024)" fill="#fff"/>
      <path id="Trazado_825843" data-name="Trazado 825843" d="M98.67,2.42c-.369.212-1.146.97-1.512.807a9.614,9.614,0,0,1-2.177-1.835C95.482.913,95.923.14,96.5.022c.988-.2,2.241,1.07,2.172,2.4" transform="translate(-65.349 0)" fill="#fff"/>
      <path id="Trazado_825844" data-name="Trazado 825844" d="M1.664,62.482a18.675,18.675,0,0,1,2.16,2.7c.082.151-1.176,1.39-1.4,1.28A5.809,5.809,0,0,1,.29,64.606c-.142-.207.673-1.073,1.374-2.124" transform="translate(-0.188 -42.989)" fill="#fff"/>
      <path id="Trazado_825845" data-name="Trazado 825845" d="M217.554,1.8a10.3,10.3,0,0,1-2.433,1.5c-.839.241-1.491-.406-1.467-1.364.033-1.33,1.107-1.78,2.111-1.86.555-.044,1.169.661,1.756,1.028q.016.349.032.7" transform="translate(-146.998 -0.052)" fill="#fff"/>
      <path id="Trazado_825846" data-name="Trazado 825846" d="M3.893,188.343c-.371.222-1,.914-1.541.851C1.364,189.08.2,188.585.29,187.335a2.141,2.141,0,0,1,1.44-1.388c.991-.2,2.233,1.07,2.163,2.4" transform="translate(-0.196 -127.92)" fill="#fff"/>
      <path id="Trazado_825847" data-name="Trazado 825847" d="M310.239,183.578c.68,1.048,1.493,1.924,1.345,2.141a5.688,5.688,0,0,1-2.155,1.848c-.226.109-1.485-1.162-1.4-1.306a19.176,19.176,0,0,1,2.213-2.682" transform="translate(-211.925 -126.305)" fill="#fff"/>
      <path id="Trazado_825848" data-name="Trazado 825848" d="M309.483,121.544a17.231,17.231,0,0,1,2.067,2.63c.078.15-.964,1.27-1.473,1.257-1.025-.026-2.138-.576-2.094-1.832.019-.553.756-1.08,1.5-2.056" transform="translate(-211.896 -83.624)" fill="#fff"/>
      <path id="Trazado_825849" data-name="Trazado 825849" d="M2.723,123.8a4.1,4.1,0,0,1,.918,1.363c.193.819-1.316,2.107-2.255,1.853A2.274,2.274,0,0,1,.027,125.66c-.239-.848,1.178-1.918,2.7-1.862" transform="translate(0 -85.174)" fill="#fff"/>
      <path id="Trazado_825850" data-name="Trazado 825850" d="M309.352,68.859c-.724-1.02-1.316-1.532-1.471-2.153-.2-.791,1.307-2.068,2.243-1.835.55.136,1.433,1.1,1.35,1.256a19.964,19.964,0,0,1-2.122,2.732" transform="translate(-211.815 -44.613)" fill="#fff"/>
      <path id="Trazado_825851" data-name="Trazado 825851" d="M98.494,309.926c.063,1.272-1.282,2.568-2.226,2.364a2.28,2.28,0,0,1-1.416-1.266c-.29-.8,1.043-2.108,2.078-1.983.625.076,1.189.66,1.563.885" transform="translate(-65.232 -212.62)" fill="#fff"/>
      <path id="Trazado_825852" data-name="Trazado 825852" d="M217.095,311.139c-.565.38-1.315,1.2-1.658,1.053a10.08,10.08,0,0,1-2.259-1.783c.442-.5.8-1.25,1.345-1.432.893-.3,2.3.938,2.572,2.162" transform="translate(-146.67 -212.55)" fill="#fff"/>
      <path id="Trazado_825853" data-name="Trazado 825853" d="M4.19,244.478a9.166,9.166,0,0,1-2.446,1.392c-.377.086-1.4-.845-1.414-1.332-.029-1.221,1.052-1.793,2.113-1.808.569-.008,1.148.656,1.722,1.017l.024.731" transform="translate(-0.227 -167.002)" fill="#fff"/>
      <path id="Trazado_825854" data-name="Trazado 825854" d="M311.592,244.824a4.228,4.228,0,0,1-1.371.982c-.941.244-2.511-.988-2.306-1.8a2.277,2.277,0,0,1,1.306-1.4c.949-.285,2.325.907,2.37,2.217" transform="translate(-211.839 -166.888)" fill="#fff"/>
      <path id="Trazado_825855" data-name="Trazado 825855" d="M158.164,137.481c-.063.434.024,1.022-.23,1.316-.383.442-1.059,1.014-1.515.941-1.481-.239-1.22-1.546-1.242-2.6-.02-.975.11-2.019,1.318-2.069.487-.02,1.105.568,1.469,1.032.243.31.143.89.2,1.383" transform="translate(-106.761 -92.927)" fill="#fff"/>
      <path id="Trazado_825856" data-name="Trazado 825856" d="M158.053,62.877c-.192.673-.183,1.571-.6,1.863a2.241,2.241,0,0,1-1.983.089c-.791-.436-.807-3.373-.016-3.841a2.23,2.23,0,0,1,1.985.046c.418.281.419,1.184.613,1.844" transform="translate(-106.553 -41.815)" fill="#fff"/>
      <path id="Trazado_825857" data-name="Trazado 825857" d="M158.07,87.69a2.526,2.526,0,0,1-.217,1.087,1.8,1.8,0,0,1-1.128.887c-1.208.1-1.535-.765-1.6-1.8-.13-1.94.328-2.977,1.412-2.962,1.221.018,1.507.883,1.536,1.908,0,.155,0,.31,0,.883" transform="translate(-106.711 -58.412)" fill="#fff"/>
      <path id="Trazado_825858" data-name="Trazado 825858" d="M158.121,112.812c-.26.7-.332,1.57-.8,1.932a2.032,2.032,0,0,1-1.866-.054c-.779-.493-.76-3.382.025-3.856a2.045,2.045,0,0,1,1.876-.021c.46.376.509,1.256.763,2" transform="translate(-106.562 -76.092)" fill="#fff"/>
    </g>
  </g>
</svg>
