<svg xmlns="http://www.w3.org/2000/svg" xmlns:xlink="http://www.w3.org/1999/xlink" width="141" height="141" viewBox="0 0 141 141">
  <defs>
    <clipPath id="clip-path">
      <rect id="Rectángulo_378533" data-name="Rectángulo 378533" width="90.903" height="90.719" fill="none"/>
    </clipPath>
  </defs>
  <g id="Grupo_1074507" data-name="Grupo 1074507" transform="translate(-269 -958)">
    <circle id="Elipse_5614" data-name="Elipse 5614" cx="70.5" cy="70.5" r="70.5" transform="translate(269 958)" fill="#590e00"/>
    <g id="Grupo_1074514" data-name="Grupo 1074514" transform="translate(294.049 985.141)">
      <g id="Grupo_1074513" data-name="Grupo 1074513" clip-path="url(#clip-path)">
        <path id="Trazado_825915" data-name="Trazado 825915" d="M71.937,47.072a60.292,60.292,0,0,1,7.926.058A12.736,12.736,0,0,1,90.807,59.367c.14,6.579.081,13.164.022,19.746a5.734,5.734,0,0,1-5.775,5.77c-1.851.055-3.706-.02-5.557.046a1.477,1.477,0,0,0-1.091.619c-1.734,3.411-4.476,5.269-8.3,5.16-3.766-.107-6.377-2.1-7.906-5.525a1.444,1.444,0,0,0-.2-.252H37.718c-1.543,3.519-4.146,5.657-8.048,5.781a8.225,8.225,0,0,1-7.978-4.676,1.856,1.856,0,0,0-2-1.156c-2.569.056-5.139.019-7.777.019V67.369h2.872c0-3.633-.072-7.086.025-10.535a4.242,4.242,0,0,1,4.313-4.108c1.487-.053,2.977-.01,4.78-.01-.714-.829-1.209-1.4-1.7-1.978a29.728,29.728,0,0,1-6.216-11.622c-.192-.7-.388-1.093-1.231-1.067a3.989,3.989,0,0,1-3.549-1.956c-2.949-4.415-6.033-8.749-8.786-13.283-3.3-5.443-3.261-11.092.34-16.372C6.353,1.172,11.567-.771,17.8.374a14.308,14.308,0,0,1,8.985,5.911q18.688-12.553,37.408,0A15.114,15.114,0,0,1,72.128.643,14.694,14.694,0,0,1,90.738,16.9,15.864,15.864,0,0,1,88.192,23.5c-2.714,4.045-5.434,8.086-8.1,12.16A4.667,4.667,0,0,1,76.029,38.1a1.126,1.126,0,0,0-.861.533c-1.068,2.691-2.079,5.4-3.232,8.444M61.589,67.356c0-3.32-.007-6.433,0-9.545.009-3.423,1.687-5.095,5.126-5.1,5.507-.008,11.015,0,16.522-.006.4,0,.808-.055,1.431-.1a9.944,9.944,0,0,0-6.933-2.8c-3.655-.037-7.311-.016-10.966-.011-5.126.006-8.1,2.953-8.1,8.047q-.01,11.331,0,22.663v1.41h2.786c1.107-5.656,4.144-8.651,8.786-8.706A8.6,8.6,0,0,1,75.8,75.08a9.153,9.153,0,0,1,3.41,6.877c2.032,0,3.977.054,5.918-.017a2.7,2.7,0,0,0,2.737-2.546c.086-3.977.03-7.957.03-12.039Zm-5.924,3.02H14.851V81.9h5.693c.767-5.211,3.755-8.358,8.207-8.674a8.611,8.611,0,0,1,5.662,1.55,9.115,9.115,0,0,1,3.834,7.193c5.7,0,11.248,0,16.8,0a5.32,5.32,0,0,0,.615-.078ZM3.071,14.884a11.9,11.9,0,0,0,2.021,6.748c2.732,4.09,5.446,8.192,8.183,12.279,1.074,1.6,1.912,1.623,2.959.061,2.765-4.126,5.585-8.22,8.217-12.43a13.726,13.726,0,0,0,1.815-4.706A11.7,11.7,0,1,0,3.071,14.884m84.854.063c.03-5.717-3.978-10.775-9.284-11.712-5.13-.906-9.329.733-12.161,5.054-2.814,4.292-2.741,8.864.006,13.216,2.651,4.2,5.476,8.288,8.24,12.416,1.07,1.6,1.909,1.612,2.959.044q4.147-6.19,8.261-12.4a11.808,11.808,0,0,0,1.978-6.615M52.5,57.456c2.764-.45,3.112-.652,3.352-1.734,1.312-5.922,4.91-8.826,11.054-8.845a1.785,1.785,0,0,0,1.88-1q1.39-2.881,2.821-5.742c1.238-2.485,1.212-4.744-.818-6.909a2.457,2.457,0,0,0-2.036-1.008c-3.262.048-6.525.019-9.787.019H57.316c-.253,2.954-.431,5.718-.739,8.467A49.718,49.718,0,0,1,53.289,54.1a22.755,22.755,0,0,0-.788,3.351m34.387-1.809c-6.92,0-13.877-.027-20.833.057a1.966,1.966,0,0,0-1.44,1.26c-.145,2.452-.068,4.917-.068,7.335H87.938c-.123-2.955.4-5.86-1.05-8.652M54.4,29.237c-.371-3.975-.725-7.773-1.08-11.587H37.679c-.355,3.842-.707,7.669-1.069,11.587ZM53.324,43.874l1.068-11.537H36.744c.11,1.94.214,3.77.3,5.306,1.886.486,3.723.65,5.243,1.432,1.773.912,1.807,2.936,1.806,4.8Zm-23.946-2.8c-2.534-.122-2.893.2-2.9,2.436,0,2.386-.013,4.772,0,7.158.011,1.564.453,2.031,1.974,2.039q5.332.028,10.664,0c1.52-.008,1.966-.477,1.977-2.037.017-2.386.007-4.772,0-7.158,0-2.3-.469-2.69-2.947-2.336v5.587h-8.78ZM20.65,55.738c-2.563-.217-2.943.124-2.945,2.466,0,2.386.021,4.772-.008,7.158-.016,1.329.544,1.988,1.909,1.981q5.405-.028,10.811,0c1.36.007,1.935-.64,1.919-1.973-.028-2.434,0-4.87-.008-7.3,0-2.247-.593-2.708-2.991-2.2v5.546H20.65Zm17.5.051c-2.431-.338-2.89.048-2.893,2.35,0,2.338-.008,4.675,0,7.012.008,1.745.422,2.176,2.126,2.182q5.187.018,10.373,0c1.7-.006,2.112-.44,2.12-2.19.011-2.338.005-4.675,0-7.012,0-2.3-.475-2.69-2.95-2.326v5.581h-8.78ZM34.115,38.078c-.117-2.029-.224-3.889-.337-5.846-3.492,0-6.85.14-10.188-.053-2-.116-3.307.429-4.165,2.251-.461.979-1.288,1.712-.9,3.04a30.373,30.373,0,0,0,4.245,9.213,6.526,6.526,0,0,0,.782.745c0-1.656-.011-3.066,0-4.476.028-3.128,1.757-4.848,4.9-4.872,1.835-.014,3.67,0,5.661,0m4-23.512H52.537a16.5,16.5,0,0,0-.56-2.071,50.869,50.869,0,0,0-3.109-7.037c-2.055-3.362-4.567-3.252-6.826,0a3.566,3.566,0,0,0-.379.624C40.5,8.842,39.351,11.6,38.111,14.566M29.37,76.128a5.843,5.843,0,1,0,5.878,5.807,5.859,5.859,0,0,0-5.878-5.807m46.843,5.831a5.843,5.843,0,1,0-5.831,5.855,5.857,5.857,0,0,0,5.831-5.855M23.033,29.189H33.668c.355-3.912.7-7.706,1.044-11.515H29.166c-.755,4.5-3.94,7.659-6.133,11.515M56.28,17.66c.354,3.893.7,7.732,1.052,11.566H67.978c-2.18-3.887-5.411-7.061-6.156-11.566ZM28.444,8.914,29.6,14.585h5.554L39.263,3.718a27.063,27.063,0,0,0-10.819,5.2m27.164,5.651H61.4l1.15-5.671A26.493,26.493,0,0,0,51.5,3.724c.866,1.888,1.747,3.563,2.409,5.322.678,1.8,1.141,3.683,1.7,5.52m-2.99,32.4H44.007v5.85h6.68l1.931-5.85m.166,13.7v6.593h2.891V59.79l-2.891.876m-17.6-19.556H32.446v2.748h2.742ZM23.63,58.473h2.746V55.7H23.63Zm20.3-2.714H41.192V58.5h2.735Z" transform="translate(0 0)" fill="#fff"/>
        <path id="Trazado_825916" data-name="Trazado 825916" d="M29.294,37.718a8.769,8.769,0,1,1,8.772-8.694,8.773,8.773,0,0,1-8.772,8.694m-5.84-8.792A5.843,5.843,0,1,0,29.319,23.1a5.864,5.864,0,0,0-5.865,5.821" transform="translate(-14.522 -14.276)" fill="#fff"/>
        <path id="Trazado_825917" data-name="Trazado 825917" d="M248.1,28.938a8.769,8.769,0,1,1-8.705-8.76,8.769,8.769,0,0,1,8.705,8.76m-8.71-5.834a5.843,5.843,0,1,0,5.783,5.9,5.86,5.86,0,0,0-5.783-5.9" transform="translate(-163.113 -14.275)" fill="#fff"/>
      </g>
    </g>
  </g>
</svg>
