<svg xmlns="http://www.w3.org/2000/svg" xmlns:xlink="http://www.w3.org/1999/xlink" width="141" height="141" viewBox="0 0 141 141">
  <defs>
    <clipPath id="clip-path">
      <rect id="Rectángulo_378517" data-name="Rectángulo 378517" width="96.788" height="89.623" fill="none"/>
    </clipPath>
  </defs>
  <g id="Grupo_1074455" data-name="Grupo 1074455" transform="translate(0)">
    <circle id="Elipse_5614" data-name="Elipse 5614" cx="70.5" cy="70.5" r="70.5" transform="translate(0)" fill="#590e00"/>
    <g id="Grupo_1074457" data-name="Grupo 1074457" transform="translate(22 21.338)">
      <g id="Grupo_1074456" data-name="Grupo 1074456" clip-path="url(#clip-path)">
        <path id="Trazado_825811" data-name="Trazado 825811" d="M86.305,83.17c0-.793-.032-1.489.006-2.182a2.889,2.889,0,0,1,3.145-3.064,2.921,2.921,0,0,1,3.272,2.953c.087,2.427.1,4.864-.033,7.286-.028.489-.824,1.016-1.369,1.363-.3.189-.808.041-1.223.041H5.825c-2.678,0-2.68,0-2.68-2.656,0-5.572.054-11.145-.017-16.715C3.066,65.268,4.3,60.833,7.623,57.09a9.247,9.247,0,0,0,.536-.8c-2.363,0-4.468.033-6.571-.023C1.05,56.25.254,56.1.061,55.75S.156,54.61.475,54.2q9-11.457,18.107-22.836c.33-.413,1.133-.446,1.717-.655-.128.613-.065,1.375-.411,1.817C14.6,39.3,9.257,46.022,3.929,52.759c-.36.455-.7.928-1.185,1.584,2.024.224,3.467.289,4.882-1.543Q24.41,31.072,41.482,9.568a6.789,6.789,0,0,0,1.324-5.893c-2.447,3.084-4.742,5.973-7.035,8.863-2.724,3.434-5.423,6.889-8.2,10.279-.346.422-1.1.508-1.668.749.08-.606-.052-1.379.273-1.794Q34.334,11.344,42.611,1.011A6.065,6.065,0,0,1,44.122,0a6.077,6.077,0,0,1,.647,1.823c.055,4.542.03,9.084.03,14,2.073-1.3,3.851-2.423,5.636-3.535C53.5,10.379,56.358,7.743,59.7,6.778s7.185-.038,10.773-.344a16.384,16.384,0,0,1,11.4,3.236c4.336,3.078,8.955,5.762,13.493,8.547a2.594,2.594,0,0,1,1.4,2.579c-.076,2.9-.119,5.813.011,8.711.079,1.756-.406,2.387-2.264,2.342-5.035-.124-10.075-.042-15.112-.042H77.182v2.18q0,21.962,0,43.923c0,2.476,0,2.479-2.419,2.48-4.563,0-9.128-.06-13.69.032-1.654.034-2.133-.526-2.127-2.153.052-14.819.031-29.638.031-44.457V31.931H44.886c-.029.634-.082,1.26-.083,1.887-.006,6.817-.041,13.634.025,20.45.015,1.543-.456,2.131-2.031,2.046-2.045-.111-4.1-.027-6.572-.027A18.619,18.619,0,0,1,41.508,69.64c.67.037,1.191.068,1.711.093,1.956.094,2.937,1.047,2.973,2.973.034,1.837.021,3.675.006,5.513-.018,2.318-.913,3.238-3.178,3.3-.412.011-.825,0-1.4,0-.055.542-.1,1.033-.167,1.652Zm-46.84,4.449c0-7.01.355-13.833-.1-20.6-.449-6.658-4.442-11.178-10.785-13.107a26.922,26.922,0,0,0-8.6-.753,14.939,14.939,0,0,0-14.7,13.715c-.49,6.772-.181,13.6-.215,20.407,0,.09.137.181.263.339ZM66.643,8.409V78.452H75.2V74.6a7.554,7.554,0,0,1-1.9-.038c-.418-.119-.739-.581-1.1-.891.373-.309.7-.765,1.131-.892a8.133,8.133,0,0,1,1.87-.134v-4.21a7.971,7.971,0,0,1-1.9-.036c-.415-.111-.743-.551-1.11-.844.369-.3.7-.754,1.119-.874a8.42,8.42,0,0,1,1.893-.124V62.363a7.828,7.828,0,0,1-1.9-.037c-.419-.114-.748-.559-1.117-.857.364-.3.689-.759,1.1-.861a8.462,8.462,0,0,1,1.95-.038V56.242a8.206,8.206,0,0,1-2.012-.042c-.4-.108-.69-.618-1.029-.947.333-.268.635-.7,1.005-.77a10.976,10.976,0,0,1,2.047-.036V50.229a5.182,5.182,0,0,1-1.462-.116,10.513,10.513,0,0,1-1.591-.953,8.92,8.92,0,0,1,1.511-.83,6.587,6.587,0,0,1,1.539-.142v-4.07a8.625,8.625,0,0,1-2.016-.142c-.406-.126-.7-.627-1.039-.961.335-.275.633-.7,1.012-.793a11.025,11.025,0,0,1,1.988-.156V37.824a7.84,7.84,0,0,1-1.907-.037c-.414-.114-.735-.565-1.1-.867.378-.3.715-.746,1.144-.868a8.422,8.422,0,0,1,1.884-.121V31.719a6.642,6.642,0,0,1-1.7-.032,5.593,5.593,0,0,1-1.322-.821,4.9,4.9,0,0,1,1.247-.9,7.2,7.2,0,0,1,1.791-.113v-4.2a8.075,8.075,0,0,1-2.038-.044c-.39-.11-.662-.643-.986-.987.344-.25.66-.643,1.038-.718a10.871,10.871,0,0,1,2-.033V19.528a6.434,6.434,0,0,1-1.8-.038,4.573,4.573,0,0,1-1.244-.952,4.278,4.278,0,0,1,1.169-.845,8.312,8.312,0,0,1,1.819-.146v-4.22a6.344,6.344,0,0,1-1.734-.034,5.041,5.041,0,0,1-1.26-.883,5.816,5.816,0,0,1,1.333-.866,7.25,7.25,0,0,1,1.729-.131v-3ZM42.974,11.1l-.352-.122-33.84,43.2.276.47a16.7,16.7,0,0,0,2.494-.841c6.573-3.406,13.422-3.742,19.986-.618,3.878,1.846,7.561.833,11.3,1.3V31.877c-.427-.029-.716-.059-1.006-.068-2.315-.064-2.318-.062-2.322-2.415,0-2.547.124-5.1-.042-7.639-.124-1.9.408-3.151,2.177-3.953a2.312,2.312,0,0,0,1.269-1.459c.161-1.735.06-3.5.06-5.245M64.526,8.443H60.879v70.01h3.647ZM41.6,24.164H58.85V9.223c-.672.4-1.177.675-1.665.982q-6.619,4.163-13.234,8.334c-2.931,1.846-2.991,1.985-2.356,5.626M77.5,9.179V24.2h17.21c.628-2.617.366-4.736-2.475-5.75a7.562,7.562,0,0,1-1.342-.855c-4.391-2.76-8.783-5.519-13.393-8.414M86.212,85.2H41.573v2.376H86.212ZM41.534,29.873H58.88V26.228H41.534Zm53.235.039V26.279H77.531v3.69c5.469,0,10.8,0,16.123,0,.345,0,.691-.034,1.116-.056M41.59,71.727v7.846c2.746.309,2.808.258,2.813-2.21q0-1.687,0-3.375c0-2.555-.131-2.66-2.813-2.26M88.124,87.6h2.808c0-2.262.089-4.434-.071-6.587-.034-.462-.933-1.107-1.5-1.191-.341-.05-1.147.806-1.177,1.291-.133,2.1-.057,4.219-.057,6.487" transform="translate(0)" fill="#fff"/>
        <path id="Trazado_825812" data-name="Trazado 825812" d="M64.094,71.919l-2.548,2.725c-.335-.383-1.028-.983-.948-1.113a11.55,11.55,0,0,1,1.937-2.45c.218-.2.933.129,1.42.217l.139.622" transform="translate(-39.043 -45.761)" fill="#fff"/>
        <path id="Trazado_825813" data-name="Trazado 825813" d="M41.332,188.367a11.833,11.833,0,0,1-.061-23.666,11.833,11.833,0,1,1,.061,23.666M31.391,176.55a9.981,9.981,0,1,0,10.017-9.963,9.876,9.876,0,0,0-10.017,9.963" transform="translate(-19.047 -106.128)" fill="#fff"/>
        <path id="Trazado_825814" data-name="Trazado 825814" d="M96.926,232.586c-.7.458-1.475,1.354-2.086,1.254a2.59,2.59,0,0,1-1.592-1.812c-.076-.418,1.026-1.456,1.631-1.483.669-.03,1.375.776,2.065,1.217q-.009.412-.018.824" transform="translate(-60.084 -148.556)" fill="#fff"/>
        <path id="Trazado_825815" data-name="Trazado 825815" d="M26.5,232.335c-.678.505-1.341,1.374-2.038,1.4-.561.022-1.476-.88-1.672-1.54a1.359,1.359,0,0,1,1.525-1.809c.756.091,1.439.786,2.155,1.21q.015.369.03.737" transform="translate(-14.641 -148.447)" fill="#fff"/>
        <path id="Trazado_825816" data-name="Trazado 825816" d="M70.291,85.3c0,2.784-.047,5.569.02,8.352.033,1.35-.4,1.926-1.824,1.905-4.323-.062-8.647,0-12.97-.048-.523-.005-1.324-.233-1.485-.589s.174-1.111.5-1.526q6.687-8.524,13.457-16.982a6.741,6.741,0,0,1,1.637-1.11,7.554,7.554,0,0,1,.635,2c.074,2.664.031,5.33.03,8M56.7,93.58H68.346V78.87L56.7,93.58" transform="translate(-34.789 -48.524)" fill="#fff"/>
      </g>
    </g>
  </g>
</svg>
