<svg xmlns="http://www.w3.org/2000/svg" xmlns:xlink="http://www.w3.org/1999/xlink" width="141" height="141" viewBox="0 0 141 141">
  <defs>
    <clipPath id="clip-path">
      <rect id="Rectángulo_378532" data-name="Rectángulo 378532" width="103.713" height="87.682" fill="none"/>
    </clipPath>
  </defs>
  <g id="Grupo_1074506" data-name="Grupo 1074506" transform="translate(-269 -958)">
    <circle id="Elipse_5614" data-name="Elipse 5614" cx="70.5" cy="70.5" r="70.5" transform="translate(269 958)" fill="#590e00"/>
    <g id="Grupo_1074512" data-name="Grupo 1074512" transform="translate(287.644 982.659)">
      <g id="Grupo_1074511" data-name="Grupo 1074511" clip-path="url(#clip-path)">
        <path id="Trazado_825910" data-name="Trazado 825910" d="M60.059,82.08H43.72c-.405,2.469-.354,2.535,1.875,2.538.972,0,1.944.012,2.916,0,1.005-.012,1.736.385,1.764,1.448.031,1.169-.755,1.567-1.818,1.564-1.35,0-2.7.019-4.05,0-2.595-.043-3.83-1.3-3.879-3.926-.009-.483,0-.967,0-1.586H27.215c0,.657.032,1.338-.006,2.014A3.456,3.456,0,0,1,23.69,87.61q-7.855.072-15.712,0a3.336,3.336,0,0,1-3.422-3.524c-.018-.635,0-1.27,0-2.106-.836,0-1.52.008-2.2,0C.424,81.947.021,81.531.007,79.554,0,78.366,0,77.178.008,75.99.038,73.28,1.179,72.075,3.9,71.852c.366-.03.729-.092,1.242-.159v-1.8q0-9.962,0-19.923c0-2.347.858-3.188,3.227-3.2s4.742,0,7.377,0c0-.838,0-1.568,0-2.3,0-3.024-.032-6.048.016-9.071.033-2.1.891-2.927,2.994-2.936,4.69-.021,9.381-.006,14.307-.006,0-.668,0-1.237,0-1.807,0-5.076.008-10.151-.006-15.227,0-1.114.1-2.161,1.54-2.137,1.36.023,1.414,1.051,1.412,2.086-.009,5.609,0,11.219,0,16.955H67.57V3.161h-10.8c0,1.665.011,3.369,0,5.074-.02,2.543-1,3.558-3.491,3.612-1.133.024-2.271.045-3.4-.027A2.86,2.86,0,0,1,46.958,8.8c-.041-.916-.011-1.836-.012-2.753s0-1.828,0-2.884H36.011c0,1.613-.013,3.263,0,4.912.011,1.063-.139,2.035-1.483,2.02s-1.481-.986-1.468-2.048c.019-1.566-.017-3.132.011-4.7.036-2.062,1.15-3.316,3.16-3.322Q51.866-.026,67.5.028c2.046.007,3.135,1.3,3.138,3.505q.017,13.364.005,26.727v2.2c1.763,0,3.468.022,5.17-.008,1.152-.021,2.179.252,2.157,1.579-.02,1.244-1.02,1.486-2.106,1.429-.688-.036-1.38-.007-2.282-.007,0,1.475.018,2.806,0,4.136-.035,2.053-.913,2.96-2.946,3.018-1.133.032-2.27.042-3.4-.03a2.393,2.393,0,0,1-2.436-2.488c-.049-.753-.016-1.511-.017-2.267,0-.7,0-1.4,0-2.231H53.509V46.65H84.817V35.444a6.23,6.23,0,0,1-2.1-.05c-.636-.249-1.466-.814-1.59-1.378-.218-1,.576-1.528,1.593-1.553.7-.017,1.4-.016,2.106-.006,2.278.031,3.1.823,3.121,3.148.033,3.077.009,6.155.01,9.233v1.929c1.459,0,2.74.018,4.02,0,6.971-.114,6.636-.069,6.594,6.654-.038,6.044-.008,12.088-.008,18.253.476.068.881.146,1.29.18,2.689.223,3.821,1.446,3.847,4.188.012,1.242.016,2.484,0,3.725-.025,1.73-.476,2.171-2.231,2.208-.695.015-1.39,0-2.313,0,0,.743.012,1.369,0,2a3.387,3.387,0,0,1-3.64,3.645q-7.613.058-15.226,0c-2.4-.015-3.744-1.433-3.8-3.868-.011-.526,0-1.053,0-1.676H63.181c0,.651.026,1.327,0,2a3.4,3.4,0,0,1-3.44,3.536,28.184,28.184,0,0,1-4.688-.053,2.262,2.262,0,0,1-1.556-1.4c-.215-1,.571-1.528,1.6-1.535.971-.007,1.943,0,2.915,0,2.3,0,2.3,0,2.055-2.539M38.38,49.966v21.75H65.329V49.967h-9.17c0,1.964.033,3.839-.009,5.713-.044,1.96-.829,2.741-2.759,2.812-.97.036-1.942.029-2.913,0-2.124-.054-2.887-.822-2.921-2.982-.029-1.82-.006-3.641-.006-5.549ZM95.467,71.75V50.016H86.292v3.032c0,5.479-.136,5.611-5.63,5.453-2.106-.061-2.943-.87-2.974-2.951-.028-1.823-.006-3.646-.006-5.566H68.5V71.75ZM8.261,49.972V71.745H35.207V49.955H26.029c0,1.952.028,3.827-.008,5.7-.037,1.923-.866,2.762-2.755,2.835-.97.037-1.944.029-2.916.006-2.153-.052-2.891-.79-2.924-2.963-.027-1.822-.006-3.645-.006-5.562Zm92.247,28.811c.663-3.748.56-3.879-2.967-3.879H5.4a4.756,4.756,0,0,0-1.446.04c-.364.122-.855.516-.892.836a25.716,25.716,0,0,0-.042,3ZM50.21,46.706V35.575H39.1a2,2,0,0,0-.135.425c-.015,1.24,0,2.48-.033,3.719-.048,1.978-.885,2.819-2.883,2.884-1.023.033-2.05.037-3.073,0-1.919-.076-2.8-1-2.837-2.956-.026-1.334-.005-2.669-.005-4.088H18.907v11.15ZM23.992,82.1H7.689c-.323,2.5-.309,2.52,1.958,2.521q6.145,0,12.29,0c2.26,0,2.26,0,2.055-2.521M79.7,84.618c4.941,0,9.674,0,14.408,0,2.22,0,2.273-.07,1.877-2.539H79.7ZM50.039,8.731h3.627V3.118H50.039ZM20.517,55.373H22.9V49.96H20.517Zm32.541-5.36H50.683v5.41h2.375Zm27.735,5.352h2.423V50.014H80.792Zm-47.5-15.82H35.8V35.513H33.294Zm37.117-4H67.905v4.035h2.505Z" transform="translate(0 0)" fill="#fff"/>
        <path id="Trazado_825911" data-name="Trazado 825911" d="M180.529,72.531c.019,1.187-.24,2.425-1.488,2.288-.748-.082-1.381-1.214-1.906-2.044-.586-.522-1.59-1-1.644-1.575a2.911,2.911,0,0,1,1.219-1.979c2.158-1.689,3.7-1.439,5.442.7.939,1.156.349,2.179-1.623,2.609" transform="translate(-118.623 -46.043)" fill="#fff"/>
        <path id="Trazado_825912" data-name="Trazado 825912" d="M175.995,200.193c-.662.667-1.249,1.778-2,1.9-1.364.228-1.422-1.125-1.5-1.7-.871-.823-1.945-1.386-1.951-1.962-.008-.692.771-1.548,1.423-2.062a3.536,3.536,0,0,1,5.406,1.028c.69,1.1.043,2.024-1.715,2.45l.335.343" transform="translate(-115.283 -132.169)" fill="#fff"/>
        <path id="Trazado_825913" data-name="Trazado 825913" d="M265.019,199.94c-.9-.807-1.821-1.247-1.894-1.8a2.634,2.634,0,0,1,1.032-1.911c2.328-1.855,3.392-1.752,5.444.447a1.811,1.811,0,0,1,.448,1.551c-.292.567-1,.919-1.413,1.477-.709.694-1.346,1.856-2.143,1.978-1.3.2-1.464-1.106-1.474-1.741" transform="translate(-177.857 -131.762)" fill="#fff"/>
        <path id="Trazado_825914" data-name="Trazado 825914" d="M81.724,199.63c-.026,1.166-.146,2.289-1.52,2.308a1.494,1.494,0,0,1-1.59-1.769c-.9-.864-1.9-1.391-1.971-2.021-.066-.6.734-1.448,1.354-1.929,2.083-1.613,3.774-1.309,5.413.825.881,1.148.286,2.12-1.685,2.585" transform="translate(-51.805 -131.944)" fill="#fff"/>
      </g>
    </g>
  </g>
</svg>
