<svg xmlns="http://www.w3.org/2000/svg" xmlns:xlink="http://www.w3.org/1999/xlink" width="141" height="141" viewBox="0 0 141 141">
  <defs>
    <clipPath id="clip-path">
      <rect id="Rectángulo_378512" data-name="Rectángulo 378512" width="102.248" height="115" fill="none"/>
    </clipPath>
  </defs>
  <g id="Grupo_1071492" data-name="Grupo 1071492" transform="translate(-269 -958)">
    <circle id="Elipse_5614" data-name="Elipse 5614" cx="70.5" cy="70.5" r="70.5" transform="translate(269 958)" fill="#590e00"/>
    <g id="Grupo_1074429" data-name="Grupo 1074429" transform="translate(288.376 971)">
      <g id="Grupo_1074428" data-name="Grupo 1074428" clip-path="url(#clip-path)">
        <path id="Trazado_825804" data-name="Trazado 825804" d="M42.856,111.569c0-4.8.057-9.243-.063-13.679A2.85,2.85,0,0,0,41.432,96Q26.7,87.4,11.893,78.918c-3.068-1.768-6.14-3.528-9.515-5.466,0,4.955-.031,9.554.048,14.151.008.46.608,1.016,1.066,1.34.966.684,2.087,1.162,3,1.9a1.627,1.627,0,0,1,.4,1.531,1.66,1.66,0,0,1-1.55.478A28.858,28.858,0,0,1,.762,90.314a2.729,2.729,0,0,1-.7-1.975C.008,82.959.075,77.577,0,72.2a2.488,2.488,0,0,1,1.526-2.479c3.762-2.108,7.433-4.384,11.248-6.388a3.342,3.342,0,0,0,1.967-3.52c-.07-10.636-.012-21.274-.064-31.91a2.887,2.887,0,0,1,1.654-2.952Q37.477,12.834,58.526.548A3,3,0,0,1,61.964.534q12.36,7.087,24.8,14.024a3.134,3.134,0,0,1,1.785,3.149c-.049,11.825-.007,23.651-.056,35.476a2.588,2.588,0,0,0,1.519,2.643c3.616,1.982,7.15,4.11,10.746,6.128a2.527,2.527,0,0,1,1.484,2.523c-.069,5.255-.019,10.511-.035,15.767-.006,2.059-.727,2.505-2.528,1.522-2.414-1.317-4.758-2.766-7.2-4.021a2.634,2.634,0,0,0-2.152-.009q-7.74,4.4-15.354,9.025a2.878,2.878,0,0,0-1.146,2.031c-.131,2.81-.038,5.629-.06,8.444-.018,2.346-.515,2.66-2.531,1.557-2.576-1.41-5.1-2.922-7.7-4.276a2.431,2.431,0,0,0-1.984-.005q-7.605,4.259-15.1,8.712a2.416,2.416,0,0,0-.946,1.733c-.1,2.561-.039,5.129-.046,7.694-.007,2.589-.57,2.908-2.887,1.586q-9.85-5.622-19.684-11.271c-2.169-1.242-4.353-2.459-6.5-3.731-.805-.476-2.128-.849-1.378-2.167.727-1.28,1.72-.467,2.575.027q11.691,6.746,23.38,13.495c.522.3,1.071.556,1.891.978M17.107,52.145c0,6.711.037,12.951-.032,19.189a2.471,2.471,0,0,0,1.452,2.5c7.006,3.973,13.976,8.01,20.962,12.018.407.233.854.4,1.471.678,0-6.409-.042-12.589.033-18.767a2.6,2.6,0,0,0-1.536-2.62C32.8,61.312,26.193,57.4,19.566,53.519c-.686-.4-1.388-.777-2.459-1.375m.005-23.58c0,6.917-.031,13.349.057,19.78.007.541.708,1.249,1.264,1.578,6.939,4.1,13.911,8.142,20.877,12.194.464.27.953.494,1.646.851,0-6.724.032-13.21-.059-19.694-.007-.525-.75-1.2-1.313-1.533C32.973,37.824,26.331,33.961,19.7,30.084c-.739-.432-1.476-.868-2.584-1.52M3.766,71.469c.446.316.678.511.936.66Q23.776,83.146,42.838,94.181a2.191,2.191,0,0,0,2.554-.12Q70.815,79.233,96.261,64.443c.512-.3.981-.67,1.684-1.156L87.974,57.6c0,1.738-.082,3.1.023,4.457a2.675,2.675,0,0,1-1.613,2.819q-21.29,12.239-42.512,24.6a2.827,2.827,0,0,1-3.261.022Q28.5,82.354,16.3,75.353a2.749,2.749,0,0,1-1.628-2.821c.1-2.386.029-4.78.029-7.471L3.766,71.469m39.8,15.2A5.7,5.7,0,0,0,44.4,86.4c6.058-3.5,12.129-6.972,18.14-10.547a2.642,2.642,0,0,0,.934-1.945c.09-3.624.043-7.252.043-10.879V54.985c-4.629,1.789-4.883,2.143-4.882,6.566a8.909,8.909,0,0,1-.03,1.869,2.146,2.146,0,0,1-.77,1.3c-1.927,1.155-3.891,2.256-5.89,3.28-1.262.647-2.071.159-2.158-1.247-.075-1.221-.016-2.45-.016-4.086-2.183,1.256-4.014,2.282-5.8,3.374a1.281,1.281,0,0,0-.383.959c-.022,6.493-.017,12.985-.017,19.665m27.436-36.3c-1.485.872-2.564,1.619-3.736,2.163A2.583,2.583,0,0,0,65.638,55.3c.081,5.435.033,10.873.033,16.31v2.152c.359.02.506.075.593.026,6.167-3.547,12.341-7.084,18.469-10.7a2.261,2.261,0,0,0,.827-1.652c.083-2.5.022-5,.02-7.5,0-3.8,0-7.59,0-11.506-.548.124-.727.142-.89.2-3.672,1.429-6.1,3.586-5.124,8.054a2.856,2.856,0,0,1-1.185,2.2,47.879,47.879,0,0,1-5,2.944c-1.595.87-2.329.44-2.373-1.34-.03-1.238-.006-2.477-.006-4.126M43.283,63.024c.793-.4,1.348-.644,1.87-.946q6.169-3.563,12.325-7.148c1.884-1.1,4.456-1.839,5.406-3.494s.3-4.257.305-6.443c.016-4.548,0-9.1,0-13.963a30.793,30.793,0,0,1-3.156,1.738c-2.058.831-2.725,2.164-2.636,4.445.212,5.405.068,5.411-4.809,8.009-1.767.941-2.569.49-2.6-1.5-.027-1.578-.006-3.157-.006-5.053-2.109,1.2-3.9,2.094-5.533,3.21a2.918,2.918,0,0,0-1.117,2.016c-.116,3.312-.052,6.63-.052,9.947v9.183m22.493-12.8a2.666,2.666,0,0,0,.684-.127c6.068-3.482,12.147-6.945,18.166-10.509a2.608,2.608,0,0,0,.918-1.957c.015-4.877-.091-9.755-.149-14.633-.017-1.4,0-2.8,0-4.564a27.763,27.763,0,0,1-3.405,1.992c-2.251.9-2.843,2.415-2.753,4.792.2,5.345.064,5.35-4.832,7.78-1.653.821-2.523.339-2.567-1.472-.039-1.6-.008-3.2-.008-5.1-1.73.991-3.135,1.905-4.635,2.618a2.468,2.468,0,0,0-1.55,2.631c.069,5.565.026,11.131.034,16.7,0,.595.062,1.19.1,1.848m33.234,15.3c-.747.41-1.4.749-2.03,1.118q-24.7,14.36-49.39,28.726c-2.711,1.577-2.757,1.685-2.13,5.275.632-.349,1.215-.658,1.785-.989,16.4-9.553,32.772-19.17,49.249-28.6,2.347-1.343,3.333-2.732,2.516-5.534M18.319,26.6c7.883,4.62,15.453,9.067,23.046,13.476a1.619,1.619,0,0,0,1.34.059c1.958-1.041,3.868-2.173,5.878-3.323a3.49,3.49,0,0,0-.5-.526Q36.955,29.751,25.807,23.253a1.787,1.787,0,0,0-1.476-.042c-1.924,1.008-3.791,2.124-6.012,3.392m22.357-12.97c7.836,4.586,15.376,9.007,22.934,13.4a1.671,1.671,0,0,0,1.33.2c1.846-.974,3.636-2.056,5.395-3.072-.086-.279-.085-.366-.123-.389Q58.922,17.1,47.608,10.474a1.821,1.821,0,0,0-1.5.05c-1.761.932-3.466,1.97-5.432,3.109M54.4,5.792c.212.3.258.434.349.488Q66.007,12.835,77.282,19.36a1.671,1.671,0,0,0,1.351.17c1.794-.982,3.526-2.075,5.511-3.268C76.291,11.664,68.7,7.205,61.083,2.8a1.866,1.866,0,0,0-1.53.056c-1.71.9-3.361,1.9-5.151,2.937m7.279,23.135c-7.75-4.532-15.331-8.971-22.927-13.384a1.509,1.509,0,0,0-1.2-.18c-1.791.941-3.535,1.974-5.5,3.1,6.582,3.811,12.893,7.458,19.2,11.116,5.194,3.013,5.191,3.018,10.431-.648m-34-7.552c.674.423,1.185.766,1.717,1.075q10.2,5.921,20.4,11.833c1.953,1.133,2.16,1.1,3.922-.64-.485-.3-.946-.608-1.423-.885C45.44,28.78,38.551,24.863,31.755,20.791c-1.595-.956-2.715-.78-4.078.584M49.636,8.758C56.866,13,64.017,17.1,71.062,21.385c1.715,1.042,2.986,1.088,4.413-.387-.494-.31-.953-.62-1.432-.9C67.235,16.146,60.4,12.236,53.635,8.213c-1.521-.9-2.7-1.06-4,.545M64.713,92.211l6.193,3.541v-7.12l-6.193,3.58M99.119,72.239l-5.793,3.393L98.982,78.9a9.839,9.839,0,0,0,.133-.987c.008-1.748,0-3.5,0-5.678M55.917,59.1c-4.716,2.336-4.223,1.594-3.776,5.851,3.968-1.552,4.1-1.757,3.776-5.851m17.628-6.575C77.681,50.146,77.368,51.1,77,46.722c-3.636,1.326-4.052,2-3.453,5.806m-20.929-10.3c2.648-1.151,3.1-2.543,2.158-6.324-2.73.915-2.95,1.535-2.158,6.324M76.839,23.283c-2.73,1.031-3.213,2.485-2.236,6.315,2.716-.991,2.716-.991,2.236-6.315" transform="translate(0 0)" fill="#fff"/>
        <path id="Trazado_825805" data-name="Trazado 825805" d="M25.18,251.3c-1.36-.932-2.7-1.8-3.96-2.771a1.221,1.221,0,0,1,.056-1.179,1.476,1.476,0,0,1,1.273-.431,26.609,26.609,0,0,1,3.637,2.215c.25.181.269.926.13,1.318-.112.315-.624.487-1.136.848" transform="translate(-13.175 -154.205)" fill="#fff"/>
      </g>
    </g>
  </g>
</svg>
