<svg xmlns="http://www.w3.org/2000/svg" width="1240" height="170.566" viewBox="0 0 1240 170.566">
  <g id="Grupo_1074933" data-name="Grupo 1074933" transform="translate(-180 -10024.597)">
    <path id="Background" d="M16,0H1224a16,16,0,0,1,16,16V154.567a16,16,0,0,1-16,16H16a16,16,0,0,1-16-16V16A16,16,0,0,1,16,0Z" transform="translate(180 10024.597)" fill="#dbe5f3"/>
    <path id="Trazado_826546" data-name="Trazado 826546" d="M73.726,23h-10.6l.387-2.492,5.564-5.167.763-.763a4.436,4.436,0,0,0,1.644-3.405,1.228,1.228,0,0,0-1.289-1.278,1.7,1.7,0,0,0-1.4.671,3.436,3.436,0,0,0-.714,1.81l-3.513.021a5.364,5.364,0,0,1,.892-2.691A5.554,5.554,0,0,1,67.608,7.8a6.14,6.14,0,0,1,2.874-.677,5.08,5.08,0,0,1,3.545,1.241,3.816,3.816,0,0,1,1.1,3.239,5.285,5.285,0,0,1-.79,2.342,12.07,12.07,0,0,1-2.014,2.4l-1.633,1.5-2.428,2.342,5.908.021Zm2.353-1.633a1.7,1.7,0,0,1,.559-1.354,2.086,2.086,0,0,1,2.739-.048,1.677,1.677,0,0,1,.58,1.273,1.719,1.719,0,0,1-.548,1.348,2.1,2.1,0,0,1-2.761.048A1.7,1.7,0,0,1,76.079,21.367Zm7.444-6.059,2.17-7.949h8.916l-.451,2.814H88.174L87.218,13.3a4.048,4.048,0,0,1,2.159-.58,3.785,3.785,0,0,1,3.174,1.429,5.176,5.176,0,0,1,.918,3.738,5.663,5.663,0,0,1-5.887,5.339,5.489,5.489,0,0,1-2.519-.645,4.438,4.438,0,0,1-1.756-1.67,4.505,4.505,0,0,1-.612-2.369h3.523a2.206,2.206,0,0,0,.419,1.343,1.4,1.4,0,0,0,1.117.526,1.736,1.736,0,0,0,1.461-.661,3.961,3.961,0,0,0,.741-2.111,2.722,2.722,0,0,0-.322-1.81,1.522,1.522,0,0,0-1.343-.618,2.463,2.463,0,0,0-1.9.795Zm21.839,3.405-1.289,1.117L103.525,23H99.991l2.868-16.511h3.534L104.76,15.3l.43-.516,3.212-3.405h4.479l-4.941,4.941,3,6.682h-3.878ZM115.47,23h-3.545l2.02-11.623h3.545ZM114.256,8.444a1.639,1.639,0,0,1,.553-1.311,1.986,1.986,0,0,1,1.391-.526,2.051,2.051,0,0,1,1.38.473,1.611,1.611,0,0,1,.575,1.235,1.642,1.642,0,0,1-.548,1.316,1.993,1.993,0,0,1-1.4.521,2.076,2.076,0,0,1-1.37-.467A1.592,1.592,0,0,1,114.256,8.444ZM121.443,23H117.9l2.857-16.5H124.3Zm9.023-11.838a4.881,4.881,0,0,1,2.7.779,4.388,4.388,0,0,1,1.67,2.111,6.514,6.514,0,0,1,.381,3.008l-.021.236a6.888,6.888,0,0,1-1.987,4.318,5.592,5.592,0,0,1-4.168,1.6,4.861,4.861,0,0,1-2.675-.768,4.415,4.415,0,0,1-1.67-2.089,6.33,6.33,0,0,1-.392-2.986,7.165,7.165,0,0,1,1.96-4.555A5.557,5.557,0,0,1,130.466,11.162Zm-2.632,6.214-.032.633q-.15,2.391,1.461,2.434,2.084.064,2.417-3.378l.043-.976a2.634,2.634,0,0,0-.36-1.539,1.311,1.311,0,0,0-1.123-.6,1.848,1.848,0,0,0-1.606.8A5.228,5.228,0,0,0,127.834,17.376Zm8.551-.209A8.831,8.831,0,0,1,137.347,14a5.579,5.579,0,0,1,1.9-2.143,4.565,4.565,0,0,1,2.578-.7,3.174,3.174,0,0,1,2.643,1.257l.376-1.042,3.266.011-1.9,11.172a5.46,5.46,0,0,1-2.073,3.728,6.6,6.6,0,0,1-4.361,1.3,6.227,6.227,0,0,1-2.245-.462,4.837,4.837,0,0,1-1.858-1.332l1.676-2.084a3.042,3.042,0,0,0,2.428,1.214,2.841,2.841,0,0,0,2.986-2.5l.086-.354a3.634,3.634,0,0,1-2.653,1.16,3.584,3.584,0,0,1-1.966-.564,3.708,3.708,0,0,1-1.332-1.6,6.2,6.2,0,0,1-.548-2.32A10.087,10.087,0,0,1,136.385,17.167Zm3.491,1.149a2.819,2.819,0,0,0,.354,1.536,1.2,1.2,0,0,0,1.031.569,2.362,2.362,0,0,0,1.815-.773l.913-4.931a1.566,1.566,0,0,0-1.439-.773,2.057,2.057,0,0,0-1.729.875,4.72,4.72,0,0,0-.881,2.358Q139.876,17.854,139.876,18.316Zm16.683-3.663a10.112,10.112,0,0,0-1.1-.107,2.729,2.729,0,0,0-2.428,1.1L151.725,23h-3.534l2.02-11.623,3.3-.011-.269,1.525a3.227,3.227,0,0,1,2.686-1.762,5.064,5.064,0,0,1,1.1.15ZM162.6,23a3.151,3.151,0,0,1-.15-1.053,3.585,3.585,0,0,1-2.847,1.268,3.5,3.5,0,0,1-2.514-1.01,3.035,3.035,0,0,1-.935-2.4A3.41,3.41,0,0,1,157.73,16.9a7.445,7.445,0,0,1,4.168-1.015l1.182.021.129-.655.043-.569a.923.923,0,0,0-.978-1.01,1.358,1.358,0,0,0-1.429,1.278l-3.545.011a3.367,3.367,0,0,1,.763-2.036,4.52,4.52,0,0,1,1.928-1.332,6.737,6.737,0,0,1,2.594-.435,5.2,5.2,0,0,1,2.315.553,3.446,3.446,0,0,1,1.488,1.45,3.7,3.7,0,0,1,.376,2.143l-.87,5.468-.054.666a2.936,2.936,0,0,0,.2,1.354l-.011.2Zm-2.02-2.342a2.28,2.28,0,0,0,1.9-.956l.354-1.869-.913-.011a2.406,2.406,0,0,0-1.461.5,1.894,1.894,0,0,0-.72,1.305.951.951,0,0,0,.167.725A.85.85,0,0,0,160.577,20.658ZM172.8,11.366l-.236,1.4a4.173,4.173,0,0,1,3.395-1.6,3.066,3.066,0,0,1,1.729.494,2.252,2.252,0,0,1,.9,1.257,4.424,4.424,0,0,1,3.534-1.751,2.739,2.739,0,0,1,2.39,1.208,5.032,5.032,0,0,1,.564,3.314L183.866,23h-3.545l1.235-7.317.043-.633q0-1.062-1-1.094a2.288,2.288,0,0,0-1.74.955L177.453,23h-3.545l1.225-7.3.043-.644q0-1.105-1-1.105a2.273,2.273,0,0,0-1.719.955L171.029,23h-3.534l2.02-11.623Zm19.938-.2a4.881,4.881,0,0,1,2.7.779,4.388,4.388,0,0,1,1.67,2.111,6.514,6.514,0,0,1,.381,3.008l-.021.236a6.888,6.888,0,0,1-1.987,4.318,5.592,5.592,0,0,1-4.168,1.6,4.861,4.861,0,0,1-2.675-.768,4.415,4.415,0,0,1-1.67-2.089,6.33,6.33,0,0,1-.392-2.986,7.165,7.165,0,0,1,1.96-4.555A5.557,5.557,0,0,1,192.739,11.162Zm-2.632,6.214-.032.633q-.15,2.391,1.461,2.434,2.084.064,2.417-3.378l.043-.976a2.634,2.634,0,0,0-.36-1.539,1.311,1.311,0,0,0-1.123-.6,1.848,1.848,0,0,0-1.606.8A5.228,5.228,0,0,0,190.107,17.376Zm14.5,2.294q.14-.709-1.1-1.063l-.763-.193a5.873,5.873,0,0,1-2.739-1.386,2.743,2.743,0,0,1-.816-2.116,3.371,3.371,0,0,1,1.488-2.723,5.662,5.662,0,0,1,3.5-1.026A5.246,5.246,0,0,1,207.5,12.2a3.4,3.4,0,0,1,1.294,2.75l-3.523-.011q.043-1.375-1.214-1.375a1.731,1.731,0,0,0-1,.317,1.231,1.231,0,0,0-.548.843q-.183.87,1.536,1.192a8.927,8.927,0,0,1,2.31.822,3.448,3.448,0,0,1,1.246,1.155,2.872,2.872,0,0,1,.4,1.654,3.106,3.106,0,0,1-.687,1.88,4.452,4.452,0,0,1-1.9,1.321,6.791,6.791,0,0,1-2.691.462,5.462,5.462,0,0,1-2.336-.526,4.166,4.166,0,0,1-1.687-1.4,3.641,3.641,0,0,1-.628-2.036l3.287.021a1.358,1.358,0,0,0,1.547,1.525,2.03,2.03,0,0,0,1.117-.3A1.278,1.278,0,0,0,204.609,19.67Zm18.1-13.943.548,1.826a10.205,10.205,0,0,0-3.244,4.286,23.275,23.275,0,0,0-1.525,7.176l-.054,1.053q-.161,4.394,1.891,5.983l-.773,1.783A5.867,5.867,0,0,1,217.36,25.9a8.6,8.6,0,0,1-1.289-3.131,15.8,15.8,0,0,1-.333-3.846,21.132,21.132,0,0,1,.988-5.769,14.7,14.7,0,0,1,2.417-4.716A8.369,8.369,0,0,1,222.709,5.727Zm4.834,14.7A1.521,1.521,0,0,0,228.736,20a2.1,2.1,0,0,0,.548-1.147l3.309-.011a4.35,4.35,0,0,1-.757,2.288,4.577,4.577,0,0,1-1.869,1.563,5.526,5.526,0,0,1-2.519.521,4.364,4.364,0,0,1-3.577-1.67,5.777,5.777,0,0,1-1.021-4.206l.032-.258a7.787,7.787,0,0,1,.988-3.121,5.654,5.654,0,0,1,2.089-2.1,5.419,5.419,0,0,1,2.9-.7,4.322,4.322,0,0,1,3.207,1.294,4.59,4.59,0,0,1,1.133,3.378l-3.309-.011q.054-1.837-1.321-1.869-1.869-.064-2.148,3.137l-.1,1.092-.011.407Q226.308,20.39,227.543,20.422ZM239.908,23a3.151,3.151,0,0,1-.15-1.053,3.585,3.585,0,0,1-2.847,1.268,3.5,3.5,0,0,1-2.514-1.01,3.035,3.035,0,0,1-.935-2.4,3.41,3.41,0,0,1,1.579-2.906,7.445,7.445,0,0,1,4.168-1.015l1.182.021.129-.655.043-.569a.923.923,0,0,0-.978-1.01,1.358,1.358,0,0,0-1.429,1.278l-3.545.011a3.367,3.367,0,0,1,.763-2.036A4.52,4.52,0,0,1,237.3,11.6a6.737,6.737,0,0,1,2.594-.435,5.2,5.2,0,0,1,2.315.553,3.446,3.446,0,0,1,1.488,1.45,3.7,3.7,0,0,1,.376,2.143l-.87,5.468-.054.666a2.936,2.936,0,0,0,.2,1.354l-.011.2Zm-2.02-2.342a2.28,2.28,0,0,0,1.9-.956l.354-1.869-.913-.011a2.406,2.406,0,0,0-1.461.5,1.894,1.894,0,0,0-.72,1.305.951.951,0,0,0,.167.725A.85.85,0,0,0,237.888,20.658Zm12.139-9.292-.247,1.4a4.131,4.131,0,0,1,3.362-1.611,2.775,2.775,0,0,1,2.4,1.2,5.013,5.013,0,0,1,.575,3.335L254.893,23h-3.545l1.235-7.346a3.8,3.8,0,0,0,.021-.688q-.075-1.022-1.2-1.022a2.209,2.209,0,0,0-1.708.828L248.244,23h-3.534l2.02-11.623Zm13.524-2.879-.5,2.89H264.9l-.44,2.514h-1.858l-.9,5.339a1.423,1.423,0,0,0,.07.827q.145.279.725.3a8.4,8.4,0,0,0,.924-.054l-.258,2.621a5.712,5.712,0,0,1-1.9.269,3.132,3.132,0,0,1-2.46-.967,3.3,3.3,0,0,1-.666-2.567l.945-5.769h-1.439l.43-2.514h1.439l.5-2.89ZM268.084,23H264.54l2.02-11.623H270.1ZM266.871,8.444a1.639,1.639,0,0,1,.553-1.311,1.986,1.986,0,0,1,1.391-.526,2.051,2.051,0,0,1,1.38.473,1.611,1.611,0,0,1,.575,1.235,1.642,1.642,0,0,1-.548,1.316,1.993,1.993,0,0,1-1.4.521,2.076,2.076,0,0,1-1.37-.467A1.592,1.592,0,0,1,266.871,8.444Zm4.039,8.723a8.454,8.454,0,0,1,1.676-4.4,4.153,4.153,0,0,1,3.5-1.6,3.168,3.168,0,0,1,2.46,1.246L279.675,6.5h3.545L280.363,23h-3.147l.15-1.257a3.627,3.627,0,0,1-2.89,1.482,3.2,3.2,0,0,1-2.626-1.241,5.471,5.471,0,0,1-1.015-3.271,10.062,10.062,0,0,1,.043-1.321Zm3.523.247a8.436,8.436,0,0,0-.075,1.2q0,1.783,1.2,1.815a2.254,2.254,0,0,0,1.858-1l.795-4.458a1.431,1.431,0,0,0-1.418-1.021,1.807,1.807,0,0,0-1.6.854A5.508,5.508,0,0,0,274.433,17.414ZM288.989,23a3.152,3.152,0,0,1-.15-1.053,3.585,3.585,0,0,1-2.847,1.268,3.5,3.5,0,0,1-2.514-1.01,3.035,3.035,0,0,1-.935-2.4,3.409,3.409,0,0,1,1.579-2.906,7.445,7.445,0,0,1,4.168-1.015l1.182.021.129-.655.043-.569a.923.923,0,0,0-.978-1.01,1.358,1.358,0,0,0-1.429,1.278l-3.545.011a3.366,3.366,0,0,1,.763-2.036,4.52,4.52,0,0,1,1.928-1.332,6.738,6.738,0,0,1,2.594-.435,5.2,5.2,0,0,1,2.315.553,3.446,3.446,0,0,1,1.488,1.45,3.7,3.7,0,0,1,.376,2.143l-.87,5.468-.054.666a2.936,2.936,0,0,0,.2,1.354l-.011.2Zm-2.02-2.342a2.28,2.28,0,0,0,1.9-.956l.354-1.869-.913-.011a2.406,2.406,0,0,0-1.461.5,1.894,1.894,0,0,0-.72,1.305.951.951,0,0,0,.167.725A.85.85,0,0,0,286.969,20.658Zm7.477-3.491a8.454,8.454,0,0,1,1.676-4.4,4.153,4.153,0,0,1,3.5-1.6,3.168,3.168,0,0,1,2.46,1.246L303.211,6.5h3.545L303.9,23h-3.147l.15-1.257a3.627,3.627,0,0,1-2.89,1.482,3.2,3.2,0,0,1-2.626-1.241,5.471,5.471,0,0,1-1.015-3.271,10.062,10.062,0,0,1,.043-1.321Zm3.523.247a8.436,8.436,0,0,0-.075,1.2q0,1.783,1.2,1.815a2.254,2.254,0,0,0,1.858-1l.795-4.458a1.431,1.431,0,0,0-1.418-1.021,1.807,1.807,0,0,0-1.6.854A5.508,5.508,0,0,0,297.969,17.414ZM322.88,17.2a9.655,9.655,0,0,1-.956,3.25,5.314,5.314,0,0,1-1.81,2.116,4.176,4.176,0,0,1-2.412.661,3.158,3.158,0,0,1-2.471-1.2l-1.053,5.446h-3.534l2.793-16.092,3.266-.011-.183,1.106a3.416,3.416,0,0,1,2.761-1.311,3.253,3.253,0,0,1,2.648,1.214,5.363,5.363,0,0,1,1.015,3.255A12.561,12.561,0,0,1,322.88,17.2Zm-3.437-1.439q-.054-1.772-1.2-1.8a2.083,2.083,0,0,0-1.858.913l-.827,4.608a1.434,1.434,0,0,0,1.482.956q1.88.032,2.31-3.233Q319.443,16.168,319.443,15.76ZM330.067,23a3.152,3.152,0,0,1-.15-1.053,3.585,3.585,0,0,1-2.847,1.268,3.5,3.5,0,0,1-2.514-1.01,3.035,3.035,0,0,1-.935-2.4A3.409,3.409,0,0,1,325.2,16.9a7.445,7.445,0,0,1,4.168-1.015l1.182.021.129-.655.043-.569a.923.923,0,0,0-.978-1.01,1.358,1.358,0,0,0-1.429,1.278l-3.545.011a3.366,3.366,0,0,1,.763-2.036,4.52,4.52,0,0,1,1.928-1.332,6.738,6.738,0,0,1,2.594-.435,5.2,5.2,0,0,1,2.315.553,3.446,3.446,0,0,1,1.488,1.45,3.7,3.7,0,0,1,.376,2.143l-.87,5.468-.054.666a2.936,2.936,0,0,0,.2,1.354l-.011.2Zm-2.02-2.342a2.28,2.28,0,0,0,1.9-.956l.354-1.869-.913-.011a2.406,2.406,0,0,0-1.461.5,1.894,1.894,0,0,0-.72,1.305.951.951,0,0,0,.167.725A.85.85,0,0,0,328.047,20.658Zm15.286-6a10.111,10.111,0,0,0-1.1-.107,2.729,2.729,0,0,0-2.428,1.1L338.5,23h-3.534l2.02-11.623,3.3-.011-.269,1.525A3.227,3.227,0,0,1,342.7,11.13a5.065,5.065,0,0,1,1.1.15ZM349.371,23a3.152,3.152,0,0,1-.15-1.053,3.585,3.585,0,0,1-2.847,1.268,3.5,3.5,0,0,1-2.514-1.01,3.035,3.035,0,0,1-.935-2.4A3.409,3.409,0,0,1,344.5,16.9a7.445,7.445,0,0,1,4.168-1.015l1.182.021.129-.655.043-.569a.923.923,0,0,0-.978-1.01,1.358,1.358,0,0,0-1.429,1.278l-3.545.011a3.366,3.366,0,0,1,.763-2.036,4.52,4.52,0,0,1,1.928-1.332,6.738,6.738,0,0,1,2.594-.435,5.2,5.2,0,0,1,2.315.553,3.446,3.446,0,0,1,1.488,1.45,3.7,3.7,0,0,1,.376,2.143l-.87,5.468-.054.666a2.936,2.936,0,0,0,.2,1.354l-.011.2Zm-2.02-2.342a2.28,2.28,0,0,0,1.9-.956l.354-1.869-.913-.011a2.406,2.406,0,0,0-1.461.5,1.894,1.894,0,0,0-.72,1.305.951.951,0,0,0,.167.725A.85.85,0,0,0,347.351,20.658Zm17.7-.236A1.521,1.521,0,0,0,366.247,20a2.1,2.1,0,0,0,.548-1.147l3.309-.011a4.35,4.35,0,0,1-.757,2.288,4.577,4.577,0,0,1-1.869,1.563,5.526,5.526,0,0,1-2.519.521,4.364,4.364,0,0,1-3.577-1.67,5.776,5.776,0,0,1-1.021-4.206l.032-.258a7.787,7.787,0,0,1,.988-3.121,5.654,5.654,0,0,1,2.089-2.1,5.419,5.419,0,0,1,2.9-.7,4.322,4.322,0,0,1,3.207,1.294,4.59,4.59,0,0,1,1.133,3.378l-3.309-.011q.054-1.837-1.321-1.869-1.869-.064-2.148,3.137l-.1,1.092-.011.407Q363.819,20.39,365.054,20.422Zm12.59-9.26a4.881,4.881,0,0,1,2.7.779,4.387,4.387,0,0,1,1.67,2.111,6.514,6.514,0,0,1,.381,3.008l-.021.236a6.888,6.888,0,0,1-1.987,4.318,5.592,5.592,0,0,1-4.168,1.6,4.861,4.861,0,0,1-2.675-.768,4.415,4.415,0,0,1-1.67-2.089,6.33,6.33,0,0,1-.392-2.986,7.165,7.165,0,0,1,1.96-4.555A5.557,5.557,0,0,1,377.644,11.162Zm-2.632,6.214-.032.633q-.15,2.391,1.461,2.434,2.084.064,2.417-3.378l.043-.976a2.634,2.634,0,0,0-.36-1.539,1.311,1.311,0,0,0-1.123-.6,1.848,1.848,0,0,0-1.606.8A5.229,5.229,0,0,0,375.012,17.376Zm13.191-6.01-.247,1.4a4.131,4.131,0,0,1,3.362-1.611,2.775,2.775,0,0,1,2.4,1.2,5.013,5.013,0,0,1,.575,3.335L393.07,23h-3.545l1.235-7.346a3.8,3.8,0,0,0,.021-.688q-.075-1.022-1.2-1.022a2.209,2.209,0,0,0-1.708.828L386.42,23h-3.534l2.02-11.623Zm12.149,7.283,2.911-7.272h3.813L401.578,23h-3.6l-1.858-11.623h3.631Zm11.655,4.565a5.4,5.4,0,0,1-2.777-.736,4.636,4.636,0,0,1-1.842-2.02,5.426,5.426,0,0,1-.494-2.852l.032-.3a7.125,7.125,0,0,1,1.993-4.539,5.512,5.512,0,0,1,4.173-1.606,4.5,4.5,0,0,1,2.557.758,4.238,4.238,0,0,1,1.558,2.033,6.227,6.227,0,0,1,.322,2.91l-.2,1.474h-6.918a2.266,2.266,0,0,0,.516,1.482,1.894,1.894,0,0,0,1.439.6,3.658,3.658,0,0,0,2.761-1.182l1.482,1.96a4.373,4.373,0,0,1-1.832,1.462,6.432,6.432,0,0,1-2.573.552Zm.859-9.26a1.818,1.818,0,0,0-1.305.47,3.946,3.946,0,0,0-.961,1.646h3.534l.064-.31a2.357,2.357,0,0,0,.021-.705A1.244,1.244,0,0,0,412.868,13.955Zm13.481.7a10.111,10.111,0,0,0-1.1-.107,2.729,2.729,0,0,0-2.428,1.1L421.515,23h-3.534L420,11.377l3.3-.011-.269,1.525a3.227,3.227,0,0,1,2.686-1.762,5.065,5.065,0,0,1,1.1.15Zm6.972-6.166-.5,2.89h1.858l-.44,2.514h-1.858l-.9,5.339a1.423,1.423,0,0,0,.07.827q.145.279.725.3a8.4,8.4,0,0,0,.924-.054l-.258,2.621a5.712,5.712,0,0,1-1.9.269,3.132,3.132,0,0,1-2.46-.967,3.3,3.3,0,0,1-.666-2.567l.945-5.769h-1.439l.43-2.514h1.439l.5-2.89ZM437.854,23h-3.545l2.02-11.623h3.545ZM436.64,8.444a1.639,1.639,0,0,1,.553-1.311,1.986,1.986,0,0,1,1.391-.526,2.051,2.051,0,0,1,1.38.473,1.611,1.611,0,0,1,.575,1.235,1.642,1.642,0,0,1-.548,1.316,1.993,1.993,0,0,1-1.4.521,2.076,2.076,0,0,1-1.37-.467A1.592,1.592,0,0,1,436.64,8.444Zm11.849,6.209a10.111,10.111,0,0,0-1.1-.107,2.729,2.729,0,0,0-2.428,1.1L443.655,23h-3.534l2.02-11.623,3.3-.011-.269,1.525a3.227,3.227,0,0,1,2.686-1.762,5.065,5.065,0,0,1,1.1.15Zm6.424,2.234a18.309,18.309,0,0,1-1.348,4.893,13.368,13.368,0,0,1-2.46,3.867,8.444,8.444,0,0,1-3.217,2.208l-.548-1.826a10.573,10.573,0,0,0,3.25-4.329,22.9,22.9,0,0,0,1.52-7.144l.064-1.053q.107-4.415-1.9-5.973l.784-1.783a6.282,6.282,0,0,1,2.9,3.045,12.637,12.637,0,0,1,1.117,5.172l.011.677a18.111,18.111,0,0,1-.14,1.944ZM478.1,14.557l2.138-3.18h3.824L480.1,17.2,482.23,23h-3.523l-1.225-3.416L475.215,23h-3.867l4.168-6.123-2.03-5.5h3.556ZM501.867,23h-3.545l2-11.494-3.642,1.031.494-2.868,6.918-2.31.4-.011Zm10.13.215a4.659,4.659,0,0,1-2.326-.628,3.888,3.888,0,0,1-1.531-1.751,6.627,6.627,0,0,1-.58-2.626,10.01,10.01,0,0,1,.064-1.6l.408-2.729a9.25,9.25,0,0,1,2.116-5.043,5.234,5.234,0,0,1,4.136-1.692,4.129,4.129,0,0,1,3.2,1.375,5.7,5.7,0,0,1,1.241,3.631,10.934,10.934,0,0,1-.075,1.6l-.43,2.782a9.166,9.166,0,0,1-2.132,5.038A5.236,5.236,0,0,1,512,23.215Zm3.19-9.947a12.341,12.341,0,0,0,.107-1.321q0-1.966-1.246-2.03-1.912-.1-2.374,3.276L511.1,17.06A12.229,12.229,0,0,0,511,18.381q-.054,1.987,1.235,2.063,1.944.1,2.4-3.362Zm9.271,9.947a4.659,4.659,0,0,1-2.326-.628,3.889,3.889,0,0,1-1.531-1.751,6.626,6.626,0,0,1-.58-2.626,10.01,10.01,0,0,1,.064-1.6l.408-2.729a9.25,9.25,0,0,1,2.116-5.043,5.234,5.234,0,0,1,4.136-1.692,4.129,4.129,0,0,1,3.2,1.375,5.7,5.7,0,0,1,1.241,3.631,10.934,10.934,0,0,1-.075,1.6l-.43,2.782a9.166,9.166,0,0,1-2.132,5.038A5.236,5.236,0,0,1,524.458,23.215Zm3.19-9.947a12.341,12.341,0,0,0,.107-1.321q0-1.966-1.246-2.03-1.912-.1-2.374,3.276l-.569,3.867a12.237,12.237,0,0,0-.107,1.321q-.054,1.987,1.235,2.063,1.944.1,2.4-3.362Zm9.271,9.947a4.659,4.659,0,0,1-2.326-.628,3.889,3.889,0,0,1-1.531-1.751,6.626,6.626,0,0,1-.58-2.626,10.01,10.01,0,0,1,.064-1.6l.408-2.729a9.25,9.25,0,0,1,2.116-5.043,5.234,5.234,0,0,1,4.136-1.692,4.129,4.129,0,0,1,3.2,1.375,5.7,5.7,0,0,1,1.241,3.631,10.934,10.934,0,0,1-.075,1.6l-.43,2.782a9.166,9.166,0,0,1-2.132,5.038A5.236,5.236,0,0,1,536.918,23.215Zm3.19-9.947a12.341,12.341,0,0,0,.107-1.321q0-1.966-1.246-2.03-1.912-.1-2.374,3.276l-.569,3.867a12.237,12.237,0,0,0-.107,1.321q-.054,1.987,1.235,2.063,1.944.1,2.4-3.362Zm9.883,3.9A8.831,8.831,0,0,1,550.953,14a5.579,5.579,0,0,1,1.9-2.143,4.565,4.565,0,0,1,2.578-.7,3.174,3.174,0,0,1,2.643,1.257l.376-1.042,3.266.011-1.9,11.172a5.46,5.46,0,0,1-2.073,3.728,6.6,6.6,0,0,1-4.361,1.3,6.227,6.227,0,0,1-2.245-.462,4.837,4.837,0,0,1-1.858-1.332l1.676-2.084a3.042,3.042,0,0,0,2.428,1.214,2.841,2.841,0,0,0,2.986-2.5l.086-.354a3.634,3.634,0,0,1-2.653,1.16,3.584,3.584,0,0,1-1.966-.564,3.708,3.708,0,0,1-1.332-1.6,6.2,6.2,0,0,1-.548-2.32A10.087,10.087,0,0,1,549.992,17.167Zm3.491,1.149a2.819,2.819,0,0,0,.354,1.536,1.2,1.2,0,0,0,1.031.569,2.362,2.362,0,0,0,1.815-.773l.913-4.931a1.566,1.566,0,0,0-1.439-.773,2.057,2.057,0,0,0-1.729.875,4.72,4.72,0,0,0-.881,2.358Q553.483,17.854,553.483,18.316Zm16.683-3.663a10.112,10.112,0,0,0-1.1-.107,2.729,2.729,0,0,0-2.428,1.1L565.332,23H561.8l2.02-11.623,3.3-.011-.269,1.525a3.227,3.227,0,0,1,2.686-1.762,5.064,5.064,0,0,1,1.1.15ZM576.2,23a3.151,3.151,0,0,1-.15-1.053,3.585,3.585,0,0,1-2.847,1.268,3.5,3.5,0,0,1-2.514-1.01,3.035,3.035,0,0,1-.935-2.4,3.41,3.41,0,0,1,1.579-2.906,7.445,7.445,0,0,1,4.168-1.015l1.182.021.129-.655.043-.569a.923.923,0,0,0-.978-1.01,1.358,1.358,0,0,0-1.429,1.278l-3.545.011a3.367,3.367,0,0,1,.763-2.036A4.521,4.521,0,0,1,573.6,11.6a6.737,6.737,0,0,1,2.594-.435,5.2,5.2,0,0,1,2.315.553,3.446,3.446,0,0,1,1.488,1.45,3.7,3.7,0,0,1,.376,2.143l-.87,5.468-.054.666a2.936,2.936,0,0,0,.2,1.354l-.011.2Zm-2.02-2.342a2.279,2.279,0,0,0,1.9-.956l.354-1.869-.913-.011a2.406,2.406,0,0,0-1.461.5,1.894,1.894,0,0,0-.72,1.305.951.951,0,0,0,.167.725A.85.85,0,0,0,574.183,20.658Zm12.225-9.292-.236,1.4a4.173,4.173,0,0,1,3.395-1.6,3.066,3.066,0,0,1,1.729.494,2.252,2.252,0,0,1,.9,1.257,4.424,4.424,0,0,1,3.534-1.751,2.739,2.739,0,0,1,2.39,1.208,5.032,5.032,0,0,1,.564,3.314L597.472,23h-3.545l1.235-7.317.043-.633q0-1.062-1-1.094a2.288,2.288,0,0,0-1.74.955L591.059,23h-3.545l1.225-7.3.043-.644q0-1.105-1-1.105a2.273,2.273,0,0,0-1.719.955L584.635,23H581.1l2.02-11.623Zm19.938-.2a4.881,4.881,0,0,1,2.7.779,4.388,4.388,0,0,1,1.67,2.111,6.514,6.514,0,0,1,.381,3.008l-.021.236a6.888,6.888,0,0,1-1.987,4.318,5.592,5.592,0,0,1-4.168,1.6,4.861,4.861,0,0,1-2.675-.768,4.415,4.415,0,0,1-1.67-2.089,6.33,6.33,0,0,1-.392-2.986,7.165,7.165,0,0,1,1.96-4.555A5.557,5.557,0,0,1,606.345,11.162Zm-2.632,6.214-.032.633q-.15,2.391,1.461,2.434,2.084.064,2.417-3.378l.043-.976a2.634,2.634,0,0,0-.36-1.539,1.311,1.311,0,0,0-1.123-.6,1.848,1.848,0,0,0-1.606.8A5.228,5.228,0,0,0,603.713,17.376Zm14.5,2.294q.14-.709-1.1-1.063l-.763-.193a5.873,5.873,0,0,1-2.739-1.386,2.743,2.743,0,0,1-.816-2.116,3.371,3.371,0,0,1,1.488-2.723,5.662,5.662,0,0,1,3.5-1.026A5.245,5.245,0,0,1,621.11,12.2a3.4,3.4,0,0,1,1.294,2.75l-3.523-.011q.043-1.375-1.214-1.375a1.731,1.731,0,0,0-1,.317,1.231,1.231,0,0,0-.548.843q-.183.87,1.536,1.192a8.927,8.927,0,0,1,2.31.822,3.448,3.448,0,0,1,1.246,1.155,2.872,2.872,0,0,1,.4,1.654,3.106,3.106,0,0,1-.687,1.88,4.452,4.452,0,0,1-1.9,1.321,6.791,6.791,0,0,1-2.691.462A5.462,5.462,0,0,1,614,22.688a4.166,4.166,0,0,1-1.687-1.4,3.641,3.641,0,0,1-.628-2.036l3.287.021a1.358,1.358,0,0,0,1.547,1.525,2.03,2.03,0,0,0,1.117-.3A1.278,1.278,0,0,0,618.215,19.67Zm18.1-13.943.548,1.826a10.205,10.205,0,0,0-3.244,4.286,23.276,23.276,0,0,0-1.525,7.176l-.054,1.053q-.161,4.394,1.891,5.983l-.773,1.783a5.867,5.867,0,0,1-2.191-1.939,8.6,8.6,0,0,1-1.289-3.131,15.8,15.8,0,0,1-.333-3.846,21.132,21.132,0,0,1,.988-5.769,14.7,14.7,0,0,1,2.417-4.716A8.369,8.369,0,0,1,636.316,5.727Zm5.231,17.488a5.4,5.4,0,0,1-2.777-.736,4.636,4.636,0,0,1-1.842-2.02,5.427,5.427,0,0,1-.494-2.852l.032-.3a7.125,7.125,0,0,1,1.993-4.539,5.512,5.512,0,0,1,4.173-1.606,4.5,4.5,0,0,1,2.557.758,4.238,4.238,0,0,1,1.558,2.033,6.228,6.228,0,0,1,.322,2.91l-.2,1.474h-6.918a2.266,2.266,0,0,0,.516,1.482,1.894,1.894,0,0,0,1.439.6,3.658,3.658,0,0,0,2.761-1.182l1.482,1.96a4.373,4.373,0,0,1-1.832,1.462,6.433,6.433,0,0,1-2.573.552Zm.859-9.26a1.818,1.818,0,0,0-1.305.47,3.946,3.946,0,0,0-.961,1.646h3.534l.064-.31a2.358,2.358,0,0,0,.021-.705A1.244,1.244,0,0,0,642.407,13.955Zm5.672,3.18A9.755,9.755,0,0,1,649,13.928a5.125,5.125,0,0,1,1.789-2.111,4.278,4.278,0,0,1,2.455-.655,3.023,3.023,0,0,1,2.643,1.482l.548-1.278,3.1.011-2.793,16.092H653.2l1.085-5.457a3.415,3.415,0,0,1-2.653,1.2,3.189,3.189,0,0,1-2.6-1.235,5.477,5.477,0,0,1-1.021-3.3A12.523,12.523,0,0,1,648.079,17.135Zm3.459,1.117a2.93,2.93,0,0,0,.226,1.552,1.052,1.052,0,0,0,.967.618,2.159,2.159,0,0,0,1.848-.935l.827-4.63a1.419,1.419,0,0,0-1.429-.924q-1.944-.032-2.353,3.2Zm15.243,3.48a3.847,3.847,0,0,1-3.137,1.493,3.045,3.045,0,0,1-2.573-1.192A4.4,4.4,0,0,1,660.4,18.9l1.257-7.52h3.534l-1.278,7.572a2.523,2.523,0,0,0,0,.57.936.936,0,0,0,1.042.914,2.283,2.283,0,0,0,1.9-.882l1.439-8.174h3.556L669.832,23h-3.287ZM675.46,23h-3.545l2.02-11.623h3.545ZM674.247,8.444a1.639,1.639,0,0,1,.553-1.311,1.986,1.986,0,0,1,1.391-.526,2.051,2.051,0,0,1,1.38.473,1.611,1.611,0,0,1,.575,1.235,1.642,1.642,0,0,1-.548,1.316,1.993,1.993,0,0,1-1.4.521,2.076,2.076,0,0,1-1.37-.467A1.592,1.592,0,0,1,674.247,8.444Zm8.712,10.205,2.911-7.272h3.813L684.183,23h-3.6l-1.858-11.623h3.631ZM695.226,23a3.151,3.151,0,0,1-.15-1.053,3.585,3.585,0,0,1-2.847,1.268,3.5,3.5,0,0,1-2.514-1.01,3.035,3.035,0,0,1-.935-2.4A3.41,3.41,0,0,1,690.36,16.9a7.445,7.445,0,0,1,4.168-1.015l1.182.021.129-.655.043-.569a.923.923,0,0,0-.978-1.01,1.358,1.358,0,0,0-1.429,1.278l-3.545.011a3.367,3.367,0,0,1,.763-2.036,4.521,4.521,0,0,1,1.928-1.332,6.737,6.737,0,0,1,2.594-.435,5.2,5.2,0,0,1,2.315.553,3.446,3.446,0,0,1,1.488,1.45,3.7,3.7,0,0,1,.376,2.143l-.87,5.468-.054.666a2.936,2.936,0,0,0,.2,1.354l-.011.2Zm-2.02-2.342a2.279,2.279,0,0,0,1.9-.956l.354-1.869-.913-.011a2.406,2.406,0,0,0-1.461.5,1.894,1.894,0,0,0-.72,1.305.951.951,0,0,0,.167.725A.85.85,0,0,0,693.207,20.658ZM703.831,23h-3.545l2.857-16.5h3.545Zm8.024.215a5.4,5.4,0,0,1-2.777-.736,4.636,4.636,0,0,1-1.842-2.02,5.427,5.427,0,0,1-.494-2.852l.032-.3a7.125,7.125,0,0,1,1.993-4.539,5.512,5.512,0,0,1,4.173-1.606,4.5,4.5,0,0,1,2.557.758,4.238,4.238,0,0,1,1.558,2.033,6.228,6.228,0,0,1,.322,2.91l-.2,1.474h-6.918a2.266,2.266,0,0,0,.516,1.482,1.894,1.894,0,0,0,1.439.6,3.658,3.658,0,0,0,2.761-1.182l1.482,1.96a4.373,4.373,0,0,1-1.832,1.462,6.433,6.433,0,0,1-2.573.552Zm.859-9.26a1.818,1.818,0,0,0-1.305.47,3.946,3.946,0,0,0-.961,1.646h3.534l.064-.31a2.358,2.358,0,0,0,.021-.705A1.244,1.244,0,0,0,712.714,13.955Zm10.334-2.589-.247,1.4a4.131,4.131,0,0,1,3.362-1.611,2.775,2.775,0,0,1,2.4,1.2,5.013,5.013,0,0,1,.575,3.335L727.915,23H724.37l1.235-7.346a3.8,3.8,0,0,0,.021-.688q-.075-1.022-1.2-1.022a2.209,2.209,0,0,0-1.708.828L721.265,23h-3.534l2.02-11.623Zm13.524-2.879-.5,2.89h1.858l-.44,2.514h-1.858l-.9,5.339a1.423,1.423,0,0,0,.07.827q.145.279.725.3a8.4,8.4,0,0,0,.924-.054l-.258,2.621a5.712,5.712,0,0,1-1.9.269,3.132,3.132,0,0,1-2.46-.967,3.3,3.3,0,0,1-.666-2.567l.945-5.769h-1.439l.43-2.514h1.439l.5-2.89Zm6.585,14.728a5.4,5.4,0,0,1-2.777-.736,4.636,4.636,0,0,1-1.842-2.02,5.427,5.427,0,0,1-.494-2.852l.032-.3a7.125,7.125,0,0,1,1.993-4.539,5.512,5.512,0,0,1,4.173-1.606,4.5,4.5,0,0,1,2.557.758,4.238,4.238,0,0,1,1.558,2.033,6.228,6.228,0,0,1,.322,2.91l-.2,1.474h-6.918a2.266,2.266,0,0,0,.516,1.482,1.894,1.894,0,0,0,1.439.6,3.658,3.658,0,0,0,2.761-1.182l1.482,1.96a4.373,4.373,0,0,1-1.832,1.462,6.433,6.433,0,0,1-2.573.552Zm.859-9.26a1.818,1.818,0,0,0-1.305.47,3.946,3.946,0,0,0-.961,1.646h3.534l.064-.31a2.358,2.358,0,0,0,.021-.705A1.244,1.244,0,0,0,744.017,13.955Zm11.1,3.212a8.453,8.453,0,0,1,1.676-4.4,4.153,4.153,0,0,1,3.5-1.6,3.167,3.167,0,0,1,2.46,1.246L763.879,6.5h3.545L764.567,23h-3.147l.15-1.257a3.627,3.627,0,0,1-2.89,1.482,3.2,3.2,0,0,1-2.626-1.241,5.471,5.471,0,0,1-1.015-3.271,10.057,10.057,0,0,1,.043-1.321Zm3.523.247a8.436,8.436,0,0,0-.075,1.2q0,1.783,1.2,1.815a2.254,2.254,0,0,0,1.858-1l.795-4.458A1.431,1.431,0,0,0,761,13.955a1.807,1.807,0,0,0-1.6.854A5.508,5.508,0,0,0,758.637,17.414Zm13.782,5.8a5.4,5.4,0,0,1-2.777-.736,4.636,4.636,0,0,1-1.842-2.02,5.427,5.427,0,0,1-.494-2.852l.032-.3a7.125,7.125,0,0,1,1.993-4.539,5.512,5.512,0,0,1,4.173-1.606,4.5,4.5,0,0,1,2.557.758,4.238,4.238,0,0,1,1.558,2.033,6.228,6.228,0,0,1,.322,2.91l-.2,1.474h-6.918a2.266,2.266,0,0,0,.516,1.482,1.894,1.894,0,0,0,1.439.6,3.658,3.658,0,0,0,2.761-1.182l1.482,1.96a4.373,4.373,0,0,1-1.832,1.462,6.433,6.433,0,0,1-2.573.552Zm.859-9.26a1.818,1.818,0,0,0-1.305.47,3.946,3.946,0,0,0-.961,1.646h3.534l.064-.31a2.358,2.358,0,0,0,.021-.705A1.244,1.244,0,0,0,773.279,13.955ZM787.523,23h-3.545l2.857-16.5h3.545Zm8.8,0a3.151,3.151,0,0,1-.15-1.053,3.585,3.585,0,0,1-2.847,1.268,3.5,3.5,0,0,1-2.514-1.01,3.035,3.035,0,0,1-.935-2.4,3.41,3.41,0,0,1,1.579-2.906,7.445,7.445,0,0,1,4.168-1.015l1.182.021.129-.655.043-.569a.923.923,0,0,0-.978-1.01,1.358,1.358,0,0,0-1.429,1.278l-3.545.011a3.367,3.367,0,0,1,.763-2.036,4.521,4.521,0,0,1,1.928-1.332,6.737,6.737,0,0,1,2.594-.435,5.2,5.2,0,0,1,2.315.553,3.446,3.446,0,0,1,1.488,1.45,3.7,3.7,0,0,1,.376,2.143l-.87,5.468-.054.666a2.936,2.936,0,0,0,.2,1.354l-.011.2Zm-2.02-2.342a2.279,2.279,0,0,0,1.9-.956l.354-1.869-.913-.011a2.406,2.406,0,0,0-1.461.5,1.894,1.894,0,0,0-.72,1.305.951.951,0,0,0,.167.725A.85.85,0,0,0,794.3,20.658Zm19.508,1.074a3.847,3.847,0,0,1-3.137,1.493,3.045,3.045,0,0,1-2.573-1.192,4.4,4.4,0,0,1-.671-3.137l1.257-7.52h3.534l-1.278,7.572a2.523,2.523,0,0,0,0,.57.936.936,0,0,0,1.042.914,2.283,2.283,0,0,0,1.9-.882l1.439-8.174h3.556L816.86,23h-3.287ZM824,11.366l-.247,1.4a4.131,4.131,0,0,1,3.362-1.611,2.775,2.775,0,0,1,2.4,1.2,5.013,5.013,0,0,1,.575,3.335L828.87,23h-3.545l1.235-7.346a3.8,3.8,0,0,0,.021-.688q-.075-1.022-1.2-1.022a2.209,2.209,0,0,0-1.708.828L822.22,23h-3.534l2.02-11.623ZM834.627,23h-3.545l2.02-11.623h3.545ZM833.414,8.444a1.639,1.639,0,0,1,.553-1.311,1.986,1.986,0,0,1,1.391-.526,2.051,2.051,0,0,1,1.38.473,1.611,1.611,0,0,1,.575,1.235,1.642,1.642,0,0,1-.548,1.316,1.993,1.993,0,0,1-1.4.521A2.076,2.076,0,0,1,834,9.685,1.592,1.592,0,0,1,833.414,8.444Zm4.039,8.723a8.453,8.453,0,0,1,1.676-4.4,4.153,4.153,0,0,1,3.5-1.6,3.167,3.167,0,0,1,2.46,1.246L846.218,6.5h3.545L846.906,23h-3.147l.15-1.257a3.627,3.627,0,0,1-2.89,1.482,3.2,3.2,0,0,1-2.626-1.241,5.471,5.471,0,0,1-1.015-3.271,10.057,10.057,0,0,1,.043-1.321Zm3.523.247a8.436,8.436,0,0,0-.075,1.2q0,1.783,1.2,1.815a2.254,2.254,0,0,0,1.858-1l.795-4.458a1.431,1.431,0,0,0-1.418-1.021,1.807,1.807,0,0,0-1.6.854A5.508,5.508,0,0,0,840.976,17.414ZM855.532,23a3.151,3.151,0,0,1-.15-1.053,3.585,3.585,0,0,1-2.847,1.268,3.5,3.5,0,0,1-2.514-1.01,3.035,3.035,0,0,1-.935-2.4,3.41,3.41,0,0,1,1.579-2.906,7.445,7.445,0,0,1,4.168-1.015l1.182.021.129-.655.043-.569a.923.923,0,0,0-.978-1.01,1.358,1.358,0,0,0-1.429,1.278l-3.545.011A3.367,3.367,0,0,1,851,12.929a4.521,4.521,0,0,1,1.928-1.332,6.737,6.737,0,0,1,2.594-.435,5.2,5.2,0,0,1,2.315.553,3.446,3.446,0,0,1,1.488,1.45,3.7,3.7,0,0,1,.376,2.143l-.87,5.468-.054.666a2.936,2.936,0,0,0,.2,1.354l-.011.2Zm-2.02-2.342a2.279,2.279,0,0,0,1.9-.956l.354-1.869-.913-.011a2.406,2.406,0,0,0-1.461.5,1.894,1.894,0,0,0-.72,1.305.951.951,0,0,0,.167.725A.85.85,0,0,0,853.512,20.658Zm7.477-3.491a8.453,8.453,0,0,1,1.676-4.4,4.153,4.153,0,0,1,3.5-1.6,3.167,3.167,0,0,1,2.46,1.246L869.754,6.5H873.3L870.442,23h-3.147l.15-1.257a3.627,3.627,0,0,1-2.89,1.482,3.2,3.2,0,0,1-2.626-1.241,5.471,5.471,0,0,1-1.015-3.271,10.057,10.057,0,0,1,.043-1.321Zm3.523.247a8.436,8.436,0,0,0-.075,1.2q0,1.783,1.2,1.815a2.254,2.254,0,0,0,1.858-1l.795-4.458a1.431,1.431,0,0,0-1.418-1.021,1.807,1.807,0,0,0-1.6.854A5.508,5.508,0,0,0,864.512,17.414Zm14.008-.247a8.453,8.453,0,0,1,1.676-4.4,4.153,4.153,0,0,1,3.5-1.6,3.167,3.167,0,0,1,2.46,1.246L887.286,6.5h3.545L887.973,23h-3.147l.15-1.257a3.627,3.627,0,0,1-2.89,1.482,3.2,3.2,0,0,1-2.626-1.241,5.471,5.471,0,0,1-1.015-3.271,10.057,10.057,0,0,1,.043-1.321Zm3.523.247a8.436,8.436,0,0,0-.075,1.2q0,1.783,1.2,1.815a2.254,2.254,0,0,0,1.858-1l.795-4.458a1.431,1.431,0,0,0-1.418-1.021,1.807,1.807,0,0,0-1.6.854A5.508,5.508,0,0,0,882.043,17.414Zm13.782,5.8a5.4,5.4,0,0,1-2.777-.736,4.636,4.636,0,0,1-1.842-2.02,5.427,5.427,0,0,1-.494-2.852l.032-.3a7.125,7.125,0,0,1,1.993-4.539,5.512,5.512,0,0,1,4.173-1.606,4.5,4.5,0,0,1,2.557.758,4.238,4.238,0,0,1,1.558,2.033,6.228,6.228,0,0,1,.322,2.91l-.2,1.474h-6.918a2.266,2.266,0,0,0,.516,1.482,1.894,1.894,0,0,0,1.439.6,3.658,3.658,0,0,0,2.761-1.182l1.482,1.96a4.373,4.373,0,0,1-1.832,1.462,6.433,6.433,0,0,1-2.573.552Zm.859-9.26a1.818,1.818,0,0,0-1.305.47,3.946,3.946,0,0,0-.961,1.646h3.534l.064-.31a2.358,2.358,0,0,0,.021-.705A1.244,1.244,0,0,0,896.685,13.955Zm15.845-2.589-.236,1.4a4.173,4.173,0,0,1,3.395-1.6,3.066,3.066,0,0,1,1.729.494,2.252,2.252,0,0,1,.9,1.257,4.424,4.424,0,0,1,3.534-1.751,2.739,2.739,0,0,1,2.39,1.208,5.032,5.032,0,0,1,.564,3.314L923.594,23h-3.545l1.235-7.317.043-.633q0-1.062-1-1.094a2.288,2.288,0,0,0-1.74.955L917.181,23h-3.545l1.225-7.3.043-.644q0-1.105-1-1.105a2.273,2.273,0,0,0-1.719.955L910.757,23h-3.534l2.02-11.623Zm18.938,11.849a5.4,5.4,0,0,1-2.777-.736,4.636,4.636,0,0,1-1.842-2.02,5.427,5.427,0,0,1-.494-2.852l.032-.3a7.125,7.125,0,0,1,1.993-4.539,5.512,5.512,0,0,1,4.173-1.606,4.5,4.5,0,0,1,2.557.758,4.238,4.238,0,0,1,1.558,2.033,6.228,6.228,0,0,1,.322,2.91l-.2,1.474h-6.918a2.266,2.266,0,0,0,.516,1.482,1.894,1.894,0,0,0,1.439.6,3.658,3.658,0,0,0,2.761-1.182l1.482,1.96a4.373,4.373,0,0,1-1.832,1.462,6.433,6.433,0,0,1-2.573.552Zm.859-9.26a1.818,1.818,0,0,0-1.305.47,3.946,3.946,0,0,0-.961,1.646H933.6l.064-.31a2.358,2.358,0,0,0,.021-.705A1.244,1.244,0,0,0,932.328,13.955ZM938,17.167a8.453,8.453,0,0,1,1.676-4.4,4.153,4.153,0,0,1,3.5-1.6,3.167,3.167,0,0,1,2.46,1.246L946.765,6.5h3.545L947.453,23h-3.147l.15-1.257a3.627,3.627,0,0,1-2.89,1.482,3.2,3.2,0,0,1-2.626-1.241,5.471,5.471,0,0,1-1.015-3.271,10.057,10.057,0,0,1,.043-1.321Zm3.523.247a8.436,8.436,0,0,0-.075,1.2q0,1.783,1.2,1.815a2.254,2.254,0,0,0,1.858-1l.795-4.458a1.431,1.431,0,0,0-1.418-1.021,1.807,1.807,0,0,0-1.6.854A5.508,5.508,0,0,0,941.523,17.414ZM953.253,23h-3.545l2.02-11.623h3.545ZM952.04,8.444a1.639,1.639,0,0,1,.553-1.311,1.986,1.986,0,0,1,1.391-.526,2.051,2.051,0,0,1,1.38.473,1.611,1.611,0,0,1,.575,1.235,1.642,1.642,0,0,1-.548,1.316,1.993,1.993,0,0,1-1.4.521,2.076,2.076,0,0,1-1.37-.467A1.592,1.592,0,0,1,952.04,8.444Zm4.039,8.723a8.453,8.453,0,0,1,1.676-4.4,4.153,4.153,0,0,1,3.5-1.6,3.167,3.167,0,0,1,2.46,1.246L964.844,6.5h3.545L965.532,23h-3.147l.15-1.257a3.627,3.627,0,0,1-2.89,1.482,3.2,3.2,0,0,1-2.626-1.241A5.471,5.471,0,0,1,956,18.714a10.057,10.057,0,0,1,.043-1.321Zm3.523.247a8.436,8.436,0,0,0-.075,1.2q0,1.783,1.2,1.815a2.254,2.254,0,0,0,1.858-1l.795-4.458a1.431,1.431,0,0,0-1.418-1.021,1.807,1.807,0,0,0-1.6.854A5.508,5.508,0,0,0,959.6,17.414ZM974.158,23a3.151,3.151,0,0,1-.15-1.053,3.585,3.585,0,0,1-2.847,1.268,3.5,3.5,0,0,1-2.514-1.01,3.035,3.035,0,0,1-.935-2.4,3.41,3.41,0,0,1,1.579-2.906,7.445,7.445,0,0,1,4.168-1.015l1.182.021.129-.655.043-.569a.923.923,0,0,0-.978-1.01,1.358,1.358,0,0,0-1.429,1.278l-3.545.011a3.367,3.367,0,0,1,.763-2.036,4.521,4.521,0,0,1,1.928-1.332,6.737,6.737,0,0,1,2.594-.435,5.2,5.2,0,0,1,2.315.553,3.446,3.446,0,0,1,1.488,1.45,3.7,3.7,0,0,1,.376,2.143l-.87,5.468-.054.666a2.936,2.936,0,0,0,.2,1.354l-.011.2Zm-2.02-2.342a2.279,2.279,0,0,0,1.9-.956l.354-1.869-.913-.011a2.406,2.406,0,0,0-1.461.5,1.894,1.894,0,0,0-.72,1.305.951.951,0,0,0,.167.725A.85.85,0,0,0,972.138,20.658Zm13.514-3.771a18.309,18.309,0,0,1-1.348,4.893,13.368,13.368,0,0,1-2.46,3.867,8.444,8.444,0,0,1-3.217,2.208l-.548-1.826a10.573,10.573,0,0,0,3.25-4.329,22.9,22.9,0,0,0,1.52-7.144l.064-1.053q.107-4.415-1.9-5.973l.784-1.783a6.282,6.282,0,0,1,2.9,3.045,12.637,12.637,0,0,1,1.117,5.172l.011.677a18.111,18.111,0,0,1-.14,1.944Z" transform="translate(191 10068.31)" fill="#12263f"/>
    <path id="Trazado_826547" data-name="Trazado 826547" d="M194.7,23h-3.545l2-11.494-3.642,1.031.494-2.868,6.918-2.31.4-.011Zm15.533-4.286-1.289,1.117L208.4,23h-3.534l2.868-16.511h3.534L209.633,15.3l.43-.516,3.212-3.405h4.479l-4.941,4.941,3,6.682h-3.878ZM220.343,23H216.8l2.02-11.623h3.545ZM219.129,8.444a1.639,1.639,0,0,1,.553-1.311,1.986,1.986,0,0,1,1.391-.526,2.051,2.051,0,0,1,1.38.473,1.611,1.611,0,0,1,.575,1.235,1.642,1.642,0,0,1-.548,1.316,1.993,1.993,0,0,1-1.4.521,2.076,2.076,0,0,1-1.37-.467A1.592,1.592,0,0,1,219.129,8.444ZM226.315,23h-3.545l2.857-16.5h3.545Zm9.023-11.838a4.881,4.881,0,0,1,2.7.779,4.388,4.388,0,0,1,1.67,2.111,6.514,6.514,0,0,1,.381,3.008l-.021.236a6.888,6.888,0,0,1-1.987,4.318,5.592,5.592,0,0,1-4.168,1.6,4.861,4.861,0,0,1-2.675-.768,4.415,4.415,0,0,1-1.67-2.089,6.33,6.33,0,0,1-.392-2.986,7.165,7.165,0,0,1,1.96-4.555A5.557,5.557,0,0,1,235.339,11.162Zm-2.632,6.214-.032.633q-.15,2.391,1.461,2.434,2.084.064,2.417-3.378l.043-.976a2.634,2.634,0,0,0-.36-1.539,1.311,1.311,0,0,0-1.123-.6,1.848,1.848,0,0,0-1.606.8A5.228,5.228,0,0,0,232.707,17.376Zm8.551-.209A8.831,8.831,0,0,1,242.219,14a5.579,5.579,0,0,1,1.9-2.143,4.565,4.565,0,0,1,2.578-.7,3.174,3.174,0,0,1,2.643,1.257l.376-1.042,3.266.011-1.9,11.172A5.46,5.46,0,0,1,249,26.276a6.6,6.6,0,0,1-4.361,1.3,6.227,6.227,0,0,1-2.245-.462,4.837,4.837,0,0,1-1.858-1.332l1.676-2.084a3.042,3.042,0,0,0,2.428,1.214,2.841,2.841,0,0,0,2.986-2.5l.086-.354a3.634,3.634,0,0,1-2.653,1.16,3.584,3.584,0,0,1-1.966-.564,3.708,3.708,0,0,1-1.332-1.6,6.2,6.2,0,0,1-.548-2.32A10.087,10.087,0,0,1,241.258,17.167Zm3.491,1.149a2.819,2.819,0,0,0,.354,1.536,1.2,1.2,0,0,0,1.031.569,2.362,2.362,0,0,0,1.815-.773l.913-4.931a1.566,1.566,0,0,0-1.439-.773,2.057,2.057,0,0,0-1.729.875,4.72,4.72,0,0,0-.881,2.358Q244.749,17.854,244.749,18.316Zm16.683-3.663a10.111,10.111,0,0,0-1.1-.107,2.729,2.729,0,0,0-2.428,1.1L256.6,23h-3.534l2.02-11.623,3.3-.011-.269,1.525A3.227,3.227,0,0,1,260.8,11.13a5.065,5.065,0,0,1,1.1.15ZM267.469,23a3.152,3.152,0,0,1-.15-1.053,3.585,3.585,0,0,1-2.847,1.268,3.5,3.5,0,0,1-2.514-1.01,3.035,3.035,0,0,1-.935-2.4A3.409,3.409,0,0,1,262.6,16.9a7.445,7.445,0,0,1,4.168-1.015l1.182.021.129-.655.043-.569a.923.923,0,0,0-.978-1.01,1.358,1.358,0,0,0-1.429,1.278l-3.545.011a3.366,3.366,0,0,1,.763-2.036,4.52,4.52,0,0,1,1.928-1.332,6.738,6.738,0,0,1,2.594-.435,5.2,5.2,0,0,1,2.315.553,3.446,3.446,0,0,1,1.488,1.45,3.7,3.7,0,0,1,.376,2.143l-.87,5.468-.054.666a2.936,2.936,0,0,0,.2,1.354l-.011.2Zm-2.02-2.342a2.28,2.28,0,0,0,1.9-.956l.354-1.869-.913-.011a2.406,2.406,0,0,0-1.461.5,1.894,1.894,0,0,0-.72,1.305.951.951,0,0,0,.167.725A.85.85,0,0,0,265.449,20.658Zm12.225-9.292-.236,1.4a4.173,4.173,0,0,1,3.395-1.6,3.066,3.066,0,0,1,1.729.494,2.252,2.252,0,0,1,.9,1.257A4.424,4.424,0,0,1,287,11.162a2.739,2.739,0,0,1,2.39,1.208,5.032,5.032,0,0,1,.564,3.314L288.738,23h-3.545l1.235-7.317.043-.633q0-1.062-1-1.094a2.288,2.288,0,0,0-1.74.955L282.325,23H278.78L280,15.7l.043-.644q0-1.105-1-1.105a2.273,2.273,0,0,0-1.719.955L275.9,23h-3.534l2.02-11.623Zm19.938-.2a4.881,4.881,0,0,1,2.7.779,4.387,4.387,0,0,1,1.67,2.111,6.514,6.514,0,0,1,.381,3.008l-.021.236a6.888,6.888,0,0,1-1.987,4.318,5.592,5.592,0,0,1-4.168,1.6,4.861,4.861,0,0,1-2.675-.768,4.415,4.415,0,0,1-1.67-2.089,6.33,6.33,0,0,1-.392-2.986,7.165,7.165,0,0,1,1.96-4.555A5.557,5.557,0,0,1,297.611,11.162Zm-2.632,6.214-.032.633q-.15,2.391,1.461,2.434,2.084.064,2.417-3.378l.043-.976a2.634,2.634,0,0,0-.36-1.539,1.311,1.311,0,0,0-1.123-.6,1.848,1.848,0,0,0-1.606.8A5.229,5.229,0,0,0,294.979,17.376Zm21.56-11.65.548,1.826a10.205,10.205,0,0,0-3.244,4.286,23.275,23.275,0,0,0-1.525,7.176l-.054,1.053q-.161,4.394,1.891,5.983l-.773,1.783a5.867,5.867,0,0,1-2.191-1.939,8.6,8.6,0,0,1-1.289-3.131,15.8,15.8,0,0,1-.333-3.846,21.133,21.133,0,0,1,.988-5.769,14.7,14.7,0,0,1,2.417-4.716A8.369,8.369,0,0,1,316.539,5.727Zm6.639,16.006a3.847,3.847,0,0,1-3.137,1.493,3.045,3.045,0,0,1-2.573-1.192A4.4,4.4,0,0,1,316.8,18.9l1.257-7.52h3.534l-1.278,7.572a2.523,2.523,0,0,0,0,.57.936.936,0,0,0,1.042.914,2.284,2.284,0,0,0,1.9-.882l1.439-8.174h3.556L326.229,23h-3.287Zm10.194-10.366-.247,1.4a4.131,4.131,0,0,1,3.362-1.611,2.775,2.775,0,0,1,2.4,1.2,5.013,5.013,0,0,1,.575,3.335L338.238,23h-3.545l1.235-7.346a3.8,3.8,0,0,0,.021-.688q-.075-1.022-1.2-1.022a2.209,2.209,0,0,0-1.708.828L331.589,23h-3.534l2.02-11.623ZM344,23h-3.545l2.02-11.623h3.545ZM342.782,8.444a1.639,1.639,0,0,1,.553-1.311,1.986,1.986,0,0,1,1.391-.526,2.051,2.051,0,0,1,1.38.473,1.611,1.611,0,0,1,.575,1.235,1.642,1.642,0,0,1-.548,1.316,1.993,1.993,0,0,1-1.4.521,2.076,2.076,0,0,1-1.37-.467A1.592,1.592,0,0,1,342.782,8.444Zm4.039,8.723a8.454,8.454,0,0,1,1.676-4.4,4.153,4.153,0,0,1,3.5-1.6,3.168,3.168,0,0,1,2.46,1.246L355.587,6.5h3.545L356.274,23h-3.147l.15-1.257a3.627,3.627,0,0,1-2.89,1.482,3.2,3.2,0,0,1-2.626-1.241,5.471,5.471,0,0,1-1.015-3.271,10.062,10.062,0,0,1,.043-1.321Zm3.523.247a8.436,8.436,0,0,0-.075,1.2q0,1.783,1.2,1.815a2.254,2.254,0,0,0,1.858-1l.795-4.458a1.431,1.431,0,0,0-1.418-1.021,1.807,1.807,0,0,0-1.6.854A5.508,5.508,0,0,0,350.345,17.414ZM364.9,23a3.152,3.152,0,0,1-.15-1.053,3.585,3.585,0,0,1-2.847,1.268,3.5,3.5,0,0,1-2.514-1.01,3.035,3.035,0,0,1-.935-2.4,3.409,3.409,0,0,1,1.579-2.906,7.445,7.445,0,0,1,4.168-1.015l1.182.021.129-.655.043-.569a.923.923,0,0,0-.978-1.01,1.358,1.358,0,0,0-1.429,1.278l-3.545.011a3.366,3.366,0,0,1,.763-2.036A4.52,4.52,0,0,1,362.3,11.6a6.738,6.738,0,0,1,2.594-.435,5.2,5.2,0,0,1,2.315.553,3.446,3.446,0,0,1,1.488,1.45,3.7,3.7,0,0,1,.376,2.143l-.87,5.468-.054.666a2.936,2.936,0,0,0,.2,1.354l-.011.2Zm-2.02-2.342a2.28,2.28,0,0,0,1.9-.956l.354-1.869-.913-.011a2.406,2.406,0,0,0-1.461.5,1.894,1.894,0,0,0-.72,1.305.951.951,0,0,0,.167.725A.85.85,0,0,0,362.881,20.658Zm7.477-3.491a8.454,8.454,0,0,1,1.676-4.4,4.153,4.153,0,0,1,3.5-1.6A3.168,3.168,0,0,1,378,12.408L379.123,6.5h3.545L379.811,23h-3.147l.15-1.257a3.627,3.627,0,0,1-2.89,1.482,3.2,3.2,0,0,1-2.626-1.241,5.471,5.471,0,0,1-1.015-3.271,10.062,10.062,0,0,1,.043-1.321Zm3.523.247a8.436,8.436,0,0,0-.075,1.2q0,1.783,1.2,1.815a2.254,2.254,0,0,0,1.858-1l.795-4.458a1.431,1.431,0,0,0-1.418-1.021,1.807,1.807,0,0,0-1.6.854A5.508,5.508,0,0,0,373.881,17.414Zm14.008-.247a8.454,8.454,0,0,1,1.676-4.4,4.153,4.153,0,0,1,3.5-1.6,3.168,3.168,0,0,1,2.46,1.246L396.654,6.5H400.2L397.342,23h-3.147l.15-1.257a3.627,3.627,0,0,1-2.89,1.482,3.2,3.2,0,0,1-2.626-1.241,5.471,5.471,0,0,1-1.015-3.271,10.062,10.062,0,0,1,.043-1.321Zm3.523.247a8.436,8.436,0,0,0-.075,1.2q0,1.783,1.2,1.815a2.254,2.254,0,0,0,1.858-1l.795-4.458a1.431,1.431,0,0,0-1.418-1.021,1.807,1.807,0,0,0-1.6.854A5.508,5.508,0,0,0,391.412,17.414Zm13.782,5.8a5.4,5.4,0,0,1-2.777-.736,4.636,4.636,0,0,1-1.842-2.02,5.426,5.426,0,0,1-.494-2.852l.032-.3a7.125,7.125,0,0,1,1.993-4.539,5.512,5.512,0,0,1,4.173-1.606,4.5,4.5,0,0,1,2.557.758,4.238,4.238,0,0,1,1.558,2.033,6.227,6.227,0,0,1,.322,2.91l-.2,1.474h-6.918a2.266,2.266,0,0,0,.516,1.482,1.894,1.894,0,0,0,1.439.6,3.658,3.658,0,0,0,2.761-1.182l1.482,1.96a4.373,4.373,0,0,1-1.832,1.462,6.432,6.432,0,0,1-2.573.552Zm.859-9.26a1.818,1.818,0,0,0-1.305.47,3.946,3.946,0,0,0-.961,1.646h3.534l.064-.31a2.357,2.357,0,0,0,.021-.705A1.244,1.244,0,0,0,406.054,13.955ZM421.9,11.366l-.236,1.4a4.173,4.173,0,0,1,3.395-1.6,3.066,3.066,0,0,1,1.729.494,2.252,2.252,0,0,1,.9,1.257,4.424,4.424,0,0,1,3.534-1.751,2.739,2.739,0,0,1,2.39,1.208,5.032,5.032,0,0,1,.564,3.314L432.963,23h-3.545l1.235-7.317.043-.633q0-1.062-1-1.094a2.288,2.288,0,0,0-1.74.955L426.55,23H423l1.225-7.3.043-.644q0-1.105-1-1.105a2.273,2.273,0,0,0-1.719.955L420.126,23h-3.534l2.02-11.623Zm18.938,11.849a5.4,5.4,0,0,1-2.777-.736,4.636,4.636,0,0,1-1.842-2.02,5.426,5.426,0,0,1-.494-2.852l.032-.3a7.125,7.125,0,0,1,1.993-4.539,5.512,5.512,0,0,1,4.173-1.606,4.5,4.5,0,0,1,2.557.758,4.238,4.238,0,0,1,1.558,2.033,6.227,6.227,0,0,1,.322,2.91l-.2,1.474h-6.918a2.266,2.266,0,0,0,.516,1.482,1.894,1.894,0,0,0,1.439.6,3.658,3.658,0,0,0,2.761-1.182l1.482,1.96a4.373,4.373,0,0,1-1.832,1.462,6.432,6.432,0,0,1-2.573.552Zm.859-9.26a1.818,1.818,0,0,0-1.305.47,3.946,3.946,0,0,0-.961,1.646h3.534l.064-.31a2.357,2.357,0,0,0,.021-.705A1.244,1.244,0,0,0,441.7,13.955Zm5.672,3.212a8.454,8.454,0,0,1,1.676-4.4,4.153,4.153,0,0,1,3.5-1.6,3.168,3.168,0,0,1,2.46,1.246L456.134,6.5h3.545L456.821,23h-3.147l.15-1.257a3.627,3.627,0,0,1-2.89,1.482,3.2,3.2,0,0,1-2.626-1.241,5.471,5.471,0,0,1-1.015-3.271,10.062,10.062,0,0,1,.043-1.321Zm3.523.247a8.436,8.436,0,0,0-.075,1.2q0,1.783,1.2,1.815a2.254,2.254,0,0,0,1.858-1l.795-4.458a1.431,1.431,0,0,0-1.418-1.021,1.807,1.807,0,0,0-1.6.854A5.508,5.508,0,0,0,450.892,17.414ZM462.622,23h-3.545l2.02-11.623h3.545ZM461.408,8.444a1.639,1.639,0,0,1,.553-1.311,1.986,1.986,0,0,1,1.391-.526,2.051,2.051,0,0,1,1.38.473,1.611,1.611,0,0,1,.575,1.235,1.642,1.642,0,0,1-.548,1.316,1.993,1.993,0,0,1-1.4.521,2.076,2.076,0,0,1-1.37-.467A1.592,1.592,0,0,1,461.408,8.444Zm4.039,8.723a8.454,8.454,0,0,1,1.676-4.4,4.153,4.153,0,0,1,3.5-1.6,3.168,3.168,0,0,1,2.46,1.246L474.213,6.5h3.545L474.9,23h-3.147l.15-1.257a3.627,3.627,0,0,1-2.89,1.482,3.2,3.2,0,0,1-2.626-1.241,5.471,5.471,0,0,1-1.015-3.271,10.062,10.062,0,0,1,.043-1.321Zm3.523.247a8.436,8.436,0,0,0-.075,1.2q0,1.783,1.2,1.815a2.254,2.254,0,0,0,1.858-1l.795-4.458a1.431,1.431,0,0,0-1.418-1.021,1.807,1.807,0,0,0-1.6.854A5.508,5.508,0,0,0,468.971,17.414ZM483.526,23a3.152,3.152,0,0,1-.15-1.053,3.585,3.585,0,0,1-2.847,1.268,3.5,3.5,0,0,1-2.514-1.01,3.035,3.035,0,0,1-.935-2.4A3.409,3.409,0,0,1,478.66,16.9a7.445,7.445,0,0,1,4.168-1.015l1.182.021.129-.655.043-.569a.923.923,0,0,0-.978-1.01,1.358,1.358,0,0,0-1.429,1.278l-3.545.011a3.366,3.366,0,0,1,.763-2.036,4.52,4.52,0,0,1,1.928-1.332,6.738,6.738,0,0,1,2.594-.435,5.2,5.2,0,0,1,2.315.553,3.446,3.446,0,0,1,1.488,1.45,3.7,3.7,0,0,1,.376,2.143l-.87,5.468-.054.666a2.936,2.936,0,0,0,.2,1.354l-.011.2Zm-2.02-2.342a2.28,2.28,0,0,0,1.9-.956l.354-1.869-.913-.011a2.406,2.406,0,0,0-1.461.5,1.894,1.894,0,0,0-.72,1.305.951.951,0,0,0,.167.725A.85.85,0,0,0,481.507,20.658ZM505.3,17.21a8.423,8.423,0,0,1-1.665,4.447,4.166,4.166,0,0,1-3.5,1.568,3.082,3.082,0,0,1-2.643-1.439L497.051,23h-3.2l2.868-16.5h3.534L499.1,12.333a3.508,3.508,0,0,1,2.61-1.171,3.274,3.274,0,0,1,2.664,1.219,5.317,5.317,0,0,1,1.01,3.26,11.821,11.821,0,0,1-.054,1.343ZM501.788,17a11.131,11.131,0,0,0,.1-1.244q0-1.727-1.235-1.8a2.117,2.117,0,0,0-1.837.933l-.838,4.633a1.421,1.421,0,0,0,1.461.912q1.729.054,2.181-2.252l.15-.954Zm10.71,6a3.151,3.151,0,0,1-.15-1.053,3.585,3.585,0,0,1-2.847,1.268,3.5,3.5,0,0,1-2.514-1.01,3.035,3.035,0,0,1-.935-2.4,3.409,3.409,0,0,1,1.579-2.906,7.445,7.445,0,0,1,4.168-1.015l1.182.021.129-.655.043-.569a.923.923,0,0,0-.978-1.01,1.358,1.358,0,0,0-1.429,1.278l-3.545.011a3.366,3.366,0,0,1,.763-2.036,4.52,4.52,0,0,1,1.928-1.332,6.738,6.738,0,0,1,2.594-.435,5.2,5.2,0,0,1,2.315.553,3.446,3.446,0,0,1,1.488,1.45,3.7,3.7,0,0,1,.376,2.143l-.87,5.468-.054.666a2.936,2.936,0,0,0,.2,1.354l-.011.2Zm-2.02-2.342a2.28,2.28,0,0,0,1.9-.956l.354-1.869-.913-.011a2.406,2.406,0,0,0-1.461.5,1.894,1.894,0,0,0-.72,1.305.951.951,0,0,0,.167.725A.85.85,0,0,0,510.479,20.658Zm13.449-.988q.14-.709-1.1-1.063l-.763-.193a5.873,5.873,0,0,1-2.739-1.386,2.743,2.743,0,0,1-.816-2.116A3.371,3.371,0,0,1,520,12.188a5.662,5.662,0,0,1,3.5-1.026,5.245,5.245,0,0,1,3.325,1.042,3.4,3.4,0,0,1,1.294,2.75l-3.523-.011q.043-1.375-1.214-1.375a1.731,1.731,0,0,0-1,.317,1.231,1.231,0,0,0-.548.843q-.183.87,1.536,1.192a8.927,8.927,0,0,1,2.31.822,3.448,3.448,0,0,1,1.246,1.155,2.872,2.872,0,0,1,.4,1.654,3.106,3.106,0,0,1-.687,1.88,4.452,4.452,0,0,1-1.9,1.321,6.791,6.791,0,0,1-2.691.462,5.462,5.462,0,0,1-2.336-.526,4.166,4.166,0,0,1-1.687-1.4,3.641,3.641,0,0,1-.628-2.036l3.287.021A1.358,1.358,0,0,0,522.23,20.8a2.03,2.03,0,0,0,1.117-.3A1.278,1.278,0,0,0,523.928,19.67Zm10.27,3.545a5.4,5.4,0,0,1-2.777-.736,4.636,4.636,0,0,1-1.842-2.02,5.427,5.427,0,0,1-.494-2.852l.032-.3a7.125,7.125,0,0,1,1.993-4.539,5.512,5.512,0,0,1,4.173-1.606,4.5,4.5,0,0,1,2.557.758,4.238,4.238,0,0,1,1.558,2.033,6.228,6.228,0,0,1,.322,2.91l-.2,1.474H532.6a2.266,2.266,0,0,0,.516,1.482,1.894,1.894,0,0,0,1.439.6,3.658,3.658,0,0,0,2.761-1.182l1.482,1.96a4.373,4.373,0,0,1-1.832,1.462,6.433,6.433,0,0,1-2.573.552Zm.859-9.26a1.818,1.818,0,0,0-1.305.47,3.946,3.946,0,0,0-.961,1.646h3.534l.064-.31a2.358,2.358,0,0,0,.021-.705A1.244,1.244,0,0,0,535.057,13.955Zm11.709,2.933a18.309,18.309,0,0,1-1.348,4.893,13.368,13.368,0,0,1-2.46,3.867,8.444,8.444,0,0,1-3.217,2.208l-.548-1.826a10.573,10.573,0,0,0,3.25-4.329,22.9,22.9,0,0,0,1.52-7.144l.064-1.053q.107-4.415-1.9-5.973l.784-1.783a6.282,6.282,0,0,1,2.9,3.045,12.637,12.637,0,0,1,1.117,5.172l.011.677a18.111,18.111,0,0,1-.14,1.944Z" transform="translate(373 10121.884)" fill="#12263f"/>
    <path id="Trazado_826548" data-name="Trazado 826548" d="M12.246,16.539H1.688l.539-3.047H12.773Zm-.891,5.145H.8l.539-3.047H11.883ZM31.137,25H19.57l.422-2.719,6.07-5.637.832-.832q1.957-1.969,1.793-3.715A1.339,1.339,0,0,0,27.281,10.7a1.851,1.851,0,0,0-1.529.732,3.749,3.749,0,0,0-.779,1.975l-3.832.023a5.852,5.852,0,0,1,.973-2.936,6.059,6.059,0,0,1,2.35-2.08A6.7,6.7,0,0,1,27.6,7.68a5.542,5.542,0,0,1,3.867,1.354,4.163,4.163,0,0,1,1.2,3.533,5.765,5.765,0,0,1-.861,2.555,13.168,13.168,0,0,1-2.2,2.613L27.82,19.375,25.172,21.93l6.445.023Zm3.539-8.391,2.367-8.672H46.77l-.492,3.07H39.75l-1.043,3.41a4.416,4.416,0,0,1,2.355-.633,4.129,4.129,0,0,1,3.463,1.559,5.646,5.646,0,0,1,1,4.078,6.178,6.178,0,0,1-6.422,5.824,5.988,5.988,0,0,1-2.748-.7,4.841,4.841,0,0,1-1.916-1.822,4.915,4.915,0,0,1-.668-2.584h3.844a2.406,2.406,0,0,0,.457,1.465,1.524,1.524,0,0,0,1.219.574,1.894,1.894,0,0,0,1.594-.721,4.321,4.321,0,0,0,.809-2.3,2.969,2.969,0,0,0-.352-1.975,1.66,1.66,0,0,0-1.465-.674,2.686,2.686,0,0,0-2.074.867Zm17.93,8.625a5.083,5.083,0,0,1-2.537-.686,4.242,4.242,0,0,1-1.67-1.91,7.229,7.229,0,0,1-.633-2.865,10.921,10.921,0,0,1,.07-1.746l.445-2.977a10.091,10.091,0,0,1,2.309-5.5A5.709,5.709,0,0,1,55.1,7.7a4.5,4.5,0,0,1,3.486,1.5,6.214,6.214,0,0,1,1.354,3.961,11.932,11.932,0,0,1-.082,1.746l-.469,3.035a10,10,0,0,1-2.326,5.5A5.712,5.712,0,0,1,52.605,25.234Zm3.48-10.852a13.469,13.469,0,0,0,.117-1.441q0-2.145-1.359-2.215-2.086-.105-2.59,3.574l-.621,4.219a13.344,13.344,0,0,0-.117,1.441q-.059,2.168,1.348,2.25,2.121.105,2.613-3.668ZM66.2,25.234a5.083,5.083,0,0,1-2.537-.686,4.242,4.242,0,0,1-1.67-1.91,7.229,7.229,0,0,1-.633-2.865,10.921,10.921,0,0,1,.07-1.746l.445-2.977a10.091,10.091,0,0,1,2.309-5.5A5.709,5.709,0,0,1,68.7,7.7a4.5,4.5,0,0,1,3.486,1.5,6.214,6.214,0,0,1,1.354,3.961,11.932,11.932,0,0,1-.082,1.746l-.469,3.035a10,10,0,0,1-2.326,5.5A5.712,5.712,0,0,1,66.2,25.234Zm3.48-10.852a13.469,13.469,0,0,0,.117-1.441q0-2.145-1.359-2.215-2.086-.105-2.59,3.574l-.621,4.219a13.344,13.344,0,0,0-.117,1.441q-.059,2.168,1.348,2.25,2.121.105,2.613-3.668Zm10.781,4.254A9.634,9.634,0,0,1,81.51,15.18a6.086,6.086,0,0,1,2.068-2.338,4.98,4.98,0,0,1,2.813-.768,3.462,3.462,0,0,1,2.883,1.371l.41-1.137,3.563.012L91.172,24.508a5.956,5.956,0,0,1-2.262,4.066,7.2,7.2,0,0,1-4.758,1.418,6.793,6.793,0,0,1-2.449-.5,5.277,5.277,0,0,1-2.027-1.453L81.5,25.762a3.319,3.319,0,0,0,2.648,1.324q2.566.047,3.258-2.73l.094-.387a3.965,3.965,0,0,1-2.895,1.266,3.91,3.91,0,0,1-2.145-.615,4.045,4.045,0,0,1-1.453-1.74,6.768,6.768,0,0,1-.6-2.531A11,11,0,0,1,80.461,18.637Zm3.809,1.254a3.075,3.075,0,0,0,.387,1.676,1.312,1.312,0,0,0,1.125.621,2.577,2.577,0,0,0,1.98-.844l1-5.379a1.708,1.708,0,0,0-1.57-.844,2.244,2.244,0,0,0-1.887.955,5.149,5.149,0,0,0-.961,2.572Q84.27,19.387,84.27,19.891Zm18.2-4a11.03,11.03,0,0,0-1.2-.117,2.977,2.977,0,0,0-2.648,1.2L97.2,25H93.34l2.2-12.68,3.6-.012-.293,1.664a3.52,3.52,0,0,1,2.93-1.922,5.525,5.525,0,0,1,1.2.164ZM109.055,25a3.438,3.438,0,0,1-.164-1.148,3.911,3.911,0,0,1-3.105,1.383,3.821,3.821,0,0,1-2.742-1.1,3.311,3.311,0,0,1-1.02-2.613,3.719,3.719,0,0,1,1.723-3.17,8.122,8.122,0,0,1,4.547-1.107l1.289.023.141-.715.047-.621a1.007,1.007,0,0,0-1.066-1.1,1.482,1.482,0,0,0-1.559,1.395l-3.867.012a3.673,3.673,0,0,1,.832-2.221,4.931,4.931,0,0,1,2.1-1.453,7.35,7.35,0,0,1,2.83-.475,5.668,5.668,0,0,1,2.525.6,3.76,3.76,0,0,1,1.623,1.582,4.042,4.042,0,0,1,.41,2.338l-.949,5.965-.059.727a3.2,3.2,0,0,0,.223,1.477L112.8,25Zm-2.2-2.555a2.487,2.487,0,0,0,2.074-1.043l.387-2.039-1-.012a2.625,2.625,0,0,0-1.594.545,2.067,2.067,0,0,0-.785,1.424,1.038,1.038,0,0,0,.182.791A.928.928,0,0,0,106.852,22.445Zm13.336-10.137-.258,1.523a4.552,4.552,0,0,1,3.7-1.746,3.345,3.345,0,0,1,1.887.539A2.457,2.457,0,0,1,126.5,14a4.826,4.826,0,0,1,3.855-1.91,2.988,2.988,0,0,1,2.607,1.318,5.49,5.49,0,0,1,.615,3.615L132.258,25h-3.867l1.348-7.983.047-.691q0-1.159-1.09-1.194a2.5,2.5,0,0,0-1.9,1.042L125.262,25h-3.867l1.336-7.959.047-.7q0-1.206-1.09-1.206a2.48,2.48,0,0,0-1.875,1.042L118.254,25H114.4l2.2-12.68Zm21.75-.223a5.325,5.325,0,0,1,2.941.85,4.786,4.786,0,0,1,1.822,2.3,7.106,7.106,0,0,1,.416,3.281l-.023.258a7.514,7.514,0,0,1-2.168,4.711,6.1,6.1,0,0,1-4.547,1.746,5.3,5.3,0,0,1-2.918-.838,4.817,4.817,0,0,1-1.822-2.279,6.906,6.906,0,0,1-.428-3.258,7.817,7.817,0,0,1,2.139-4.969A6.062,6.062,0,0,1,141.938,12.086Zm-2.871,6.779-.035.69q-.164,2.609,1.594,2.656,2.273.07,2.637-3.685l.047-1.065a2.873,2.873,0,0,0-.393-1.679,1.43,1.43,0,0,0-1.225-.649,2.016,2.016,0,0,0-1.752.872A5.7,5.7,0,0,0,139.066,18.865Zm15.82,2.5q.152-.773-1.2-1.16L152.859,20a6.407,6.407,0,0,1-2.988-1.512,2.992,2.992,0,0,1-.891-2.309,3.677,3.677,0,0,1,1.623-2.971,6.177,6.177,0,0,1,3.814-1.119,5.722,5.722,0,0,1,3.627,1.137,3.708,3.708,0,0,1,1.412,3l-3.844-.012q.047-1.5-1.324-1.5a1.889,1.889,0,0,0-1.09.346,1.343,1.343,0,0,0-.6.92q-.2.949,1.676,1.3a9.739,9.739,0,0,1,2.52.9,3.762,3.762,0,0,1,1.359,1.26,3.133,3.133,0,0,1,.434,1.8,3.388,3.388,0,0,1-.75,2.051,4.856,4.856,0,0,1-2.068,1.441,7.409,7.409,0,0,1-2.936.5,5.958,5.958,0,0,1-2.549-.574,4.545,4.545,0,0,1-1.84-1.529,3.972,3.972,0,0,1-.686-2.221l3.586.023a1.481,1.481,0,0,0,1.688,1.664,2.215,2.215,0,0,0,1.219-.322A1.394,1.394,0,0,0,154.887,21.367Z" transform="translate(1231 10090.31)" fill="#12263f"/>
    <path id="Trazado_826549" data-name="Trazado 826549" d="M1001,0H0" transform="translate(212.5 10111.097)" fill="none" stroke="#590e00" stroke-linecap="round" stroke-width="3"/>
  </g>
</svg>
