<svg xmlns="http://www.w3.org/2000/svg" xmlns:xlink="http://www.w3.org/1999/xlink" width="190" height="131" viewBox="0 0 190 131">
  <defs>
    <linearGradient id="linear-gradient" x1="0.5" x2="0.5" y2="1" gradientUnits="objectBoundingBox">
      <stop offset="0" stop-color="#f8e1c3"/>
      <stop offset="1" stop-color="#fff"/>
    </linearGradient>
    <clipPath id="clip-path">
      <rect id="Rect치ngulo_378521" data-name="Rect치ngulo 378521" width="109.069" height="106.323" fill="none"/>
    </clipPath>
  </defs>
  <g id="Grupo_1074769" data-name="Grupo 1074769" transform="translate(-180 -7938)">
    <rect id="Rect치ngulo_378847" data-name="Rect치ngulo 378847" width="190" height="131" transform="translate(180 7938)" fill="url(#linear-gradient)"/>
    <g id="Grupo_1074475" data-name="Grupo 1074475" transform="translate(227.465 7953.123)">
      <g id="Grupo_1074474" data-name="Grupo 1074474" clip-path="url(#clip-path)">
        <path id="Trazado_825884" data-name="Trazado 825884" d="M102.789,44.914c0,6.867-.032,13.735.026,20.6a3.207,3.207,0,0,1-1.8,3.15Q83.129,78.926,65.287,89.272a3.2,3.2,0,0,1-3.616-.017Q43.835,78.9,25.937,68.649a3.241,3.241,0,0,1-1.831-3.138q.051-20.6,0-41.2a3.244,3.244,0,0,1,1.831-3.139Q43.824,10.907,61.667.566A3.228,3.228,0,0,1,65.293.548Q83.137,10.89,101.026,21.154a3.217,3.217,0,0,1,1.79,3.158c-.06,6.867-.027,13.735-.027,20.6m-74.231-17.7c-.039.4-.076.608-.076.812,0,12.036.009,24.072-.027,36.109A1.712,1.712,0,0,0,29.56,65.8q15.171,8.739,30.316,17.524c1.12.651,1.494.626,1.489-.822q-.059-17.544,0-35.087a1.978,1.978,0,0,0-1.2-1.984c-2.283-1.254-4.519-2.593-6.771-3.9-1.815-1.057-2.323-2.1-1.635-3.325.738-1.314,1.88-1.419,3.813-.313,2.261,1.294,4.531,2.576,6.755,3.931a1.984,1.984,0,0,0,2.308.006Q79.849,32.988,95.1,24.229c1.187-.68,1.049-.952-.024-1.568Q79.821,13.9,64.612,5.061a1.985,1.985,0,0,0-2.3.048Q47.1,13.941,31.853,22.724c-.359.208-.882.282-.936.917,2.145,1.237,4.3,2.475,6.454,3.726,1.623.944,2.124,2.085,1.47,3.3S36.957,32.04,35.3,31.1c-2.2-1.253-4.39-2.525-6.744-3.88M65.609,84.053c.457-.213.71-.31.942-.443Q82.023,74.686,97.5,65.772a1.9,1.9,0,0,0,1.024-1.923q-.034-17.462.009-34.924c.006-1.536-.386-1.6-1.594-.894Q82.014,36.71,67.034,45.294a2.472,2.472,0,0,0-1.455,2.51c.051,11.471.03,22.942.03,34.412v1.836" transform="translate(-15.887 0)" fill="#050405"/>
        <path id="Trazado_825885" data-name="Trazado 825885" d="M280.213,102.42V70.251l-.386-.309a12.8,12.8,0,0,1-1.331,1.682,1.987,1.987,0,0,1-3.024,0,1.91,1.91,0,0,1-.038-2.889c1.834-1.934,3.691-3.854,5.654-5.655a2.069,2.069,0,0,1,3.056.21q2.6,2.576,5.18,5.172a2.072,2.072,0,0,1,.207,3.158c-.886.987-2.11.912-3.272-.222a10.264,10.264,0,0,1-1.07-1.48l-.409.316v31.944c.663-.626,1.185-1.177,1.767-1.655a2,2,0,0,1,2.908,0,1.963,1.963,0,0,1,.049,3.022c-1.8,1.889-3.632,3.752-5.532,5.539a2.043,2.043,0,0,1-3.051-.086c-1.791-1.74-3.547-3.515-5.3-5.295-.981-1-1.161-2.123-.117-3.146s2.158-.8,3.15.169c.447.434.847.917,1.557,1.694" transform="translate(-181.121 -41.194)" fill="#050505"/>
        <path id="Trazado_825886" data-name="Trazado 825886" d="M35.6,245.019c-.144-.6-.333-1.2-.422-1.812a2.018,2.018,0,0,1,1.389-2.414,1.846,1.846,0,0,1,2.558,1.039c.857,2.746,1.607,5.531,2.249,8.335a1.789,1.789,0,0,1-1.336,2.118c-2.549.737-5.11,1.441-7.69,2.06a1.94,1.94,0,0,1-2.624-1.487,2.005,2.005,0,0,1,1.749-2.608c.651-.145,1.275-.41,2.2-.716l-28-16.167c.208,1.066.41,1.86.509,2.667a1.912,1.912,0,0,1-1.579,2.4,1.993,1.993,0,0,1-2.513-1.474c-.739-2.49-1.39-5.008-2-7.532A2.028,2.028,0,0,1,1.625,226.8c2.438-.716,4.891-1.39,7.36-1.991A2.116,2.116,0,1,1,10.05,228.9c-.708.191-1.4.432-2.367.734l27.6,15.825.4.119-.081-.56" transform="translate(0 -148.112)" fill="#060606"/>
        <path id="Trazado_825887" data-name="Trazado 825887" d="M165.439,249.548c1.055.316,1.819.507,2.554.773a2,2,0,0,1,1.43,2.53,1.812,1.812,0,0,1-2.287,1.511c-2.748-.635-5.488-1.333-8.181-2.165a1.92,1.92,0,0,1-1.158-2.53c.628-2.4,1.345-4.783,1.97-7.187a2.026,2.026,0,0,1,2.624-1.728c1.47.335,1.669,1.505,1.478,2.8a4.934,4.934,0,0,0-.33,2.162l27.843-16.07c-.993-.324-1.758-.567-2.519-.823a1.949,1.949,0,0,1-1.422-2.517,1.906,1.906,0,0,1,2.455-1.529q3.954.941,7.852,2.116a1.971,1.971,0,0,1,1.268,2.623c-.615,2.463-1.3,4.909-1.979,7.356a1.961,1.961,0,0,1-2.756,1.48,2.025,2.025,0,0,1-1.312-2.735,5.943,5.943,0,0,0,.4-2.186l-27.926,16.114" transform="translate(-103.941 -148.109)" fill="#050505"/>
        <path id="Trazado_825888" data-name="Trazado 825888" d="M36.971,36.335c2.354,1.356,4.544,2.627,6.744,3.881,1.654.943,2.88.781,3.538-.436s.153-2.352-1.469-3.3c-2.151-1.251-4.309-2.488-6.454-3.726.054-.635.577-.709.936-.917q15.227-8.81,30.457-17.615a1.985,1.985,0,0,1,2.3-.048q15.206,8.848,30.469,17.6c1.073.616,1.21.888.024,1.568Q88.254,42.094,73.049,50.943a1.985,1.985,0,0,1-2.308-.006c-2.225-1.356-4.494-2.637-6.756-3.931-1.932-1.106-3.075-1-3.813.313-.688,1.225-.18,2.268,1.635,3.325,2.251,1.312,4.488,2.651,6.771,3.9a1.978,1.978,0,0,1,1.2,1.984q-.053,17.543,0,35.086c0,1.449-.368,1.473-1.489.822q-15.138-8.8-30.316-17.524a1.711,1.711,0,0,1-1.105-1.661c.037-12.036.025-24.072.027-36.108,0-.2.037-.407.076-.812m18.875,7.236a2.108,2.108,0,0,0-2.289-2.111,1.977,1.977,0,0,0-1.945,2.148,2.006,2.006,0,0,0,2.271,1.97,1.959,1.959,0,0,0,1.963-2.007" transform="translate(-24.3 -9.118)" fill="#fabc5f"/>
        <path id="Trazado_825889" data-name="Trazado 825889" d="M145.8,137.419v-1.836c0-11.471.021-22.942-.03-34.412a2.472,2.472,0,0,1,1.455-2.51Q162.22,90.1,177.134,81.4c1.208-.7,1.6-.642,1.594.894q-.065,17.462-.009,34.924a1.9,1.9,0,0,1-1.024,1.923q-15.492,8.889-30.95,17.838c-.232.134-.485.23-.942.443" transform="translate(-96.082 -53.365)" fill="#e59e47"/>
        <path id="Trazado_825890" data-name="Trazado 825890" d="M103.813,284.282l.081.56-.4-.119.319-.441" transform="translate(-68.215 -187.375)" fill="#f7f9fa"/>
        <path id="Trazado_825891" data-name="Trazado 825891" d="M84.355,96.971a1.959,1.959,0,0,1-1.963,2.007,2.006,2.006,0,0,1-2.271-1.97,1.977,1.977,0,0,1,1.945-2.148,2.108,2.108,0,0,1,2.289,2.111" transform="translate(-52.809 -62.518)" fill="#060606"/>
      </g>
    </g>
  </g>
</svg>
