<svg xmlns="http://www.w3.org/2000/svg" xmlns:xlink="http://www.w3.org/1999/xlink" width="190" height="131" viewBox="0 0 190 131">
  <defs>
    <linearGradient id="linear-gradient" x1="0.5" x2="0.5" y2="1" gradientUnits="objectBoundingBox">
      <stop offset="0" stop-color="#f8e1c3"/>
      <stop offset="1" stop-color="#fff"/>
    </linearGradient>
    <clipPath id="clip-path">
      <rect id="Rect치ngulo_378520" data-name="Rect치ngulo 378520" width="135.796" height="85.684" fill="none"/>
    </clipPath>
  </defs>
  <g id="Grupo_1074770" data-name="Grupo 1074770" transform="translate(-180 -7239)">
    <rect id="Rect치ngulo_378846" data-name="Rect치ngulo 378846" width="190" height="131" transform="translate(180 7239)" fill="url(#linear-gradient)"/>
    <g id="Grupo_1074468" data-name="Grupo 1074468" transform="translate(207.102 7255.094)">
      <g id="Grupo_1074467" data-name="Grupo 1074467" clip-path="url(#clip-path)">
        <path id="Trazado_825872" data-name="Trazado 825872" d="M53.34,81.667c-.4,1-.78,2.01-2.15,1.962-5.921-.207-11.883.571-17.755-.756C17.327,79.234,6.42,69.622,1.757,53.816-4.728,31.829,7.275,9.672,28.963,2.6A33.43,33.43,0,0,1,39.136.79C44.864.755,50.591.764,56.319.708a5.232,5.232,0,0,1,4.47,1.983c.912,1.194,1.6,1.219,2.608.144A10.223,10.223,0,0,1,65.883.888a6.935,6.935,0,0,1,8.672,1.57c3.363,3.626,6.667,7.309,9.954,11,1.76,1.98,1.636,3.7-.279,5.534-.408.39-.856.738-1.274,1.118-1.046.95-2.59,1.734-2.993,2.907-.453,1.318,1.411,2.15,2.08,3.322a9.144,9.144,0,0,1,.927,4.72c0,7.425.045,14.849-.035,22.273-.016,1.505.423,1.856,1.883,1.85,15.841-.052,31.68-.034,47.521-.032,3.236,0,3.443.214,3.445,3.531q0,11.773,0,23.547a9.481,9.481,0,0,1-.045,1.693,1.865,1.865,0,0,1-2.024,1.755,1.762,1.762,0,0,1-1.832-1.9c-.028-1.838-.077-3.679,0-5.514.052-1.218-.222-1.748-1.607-1.744q-22.912.069-45.824,0c-1.291,0-1.559.5-1.5,1.621a9.91,9.91,0,0,1-.128,2.531,3.248,3.248,0,0,1-3.343,2.94c-6.293.029-12.588-.005-18.881.033-1.425.008-2-.8-2.327-1.984a2.544,2.544,0,0,1,2.862-1.906c4.22.045,8.441-.023,12.662-.046a25.76,25.76,0,0,1,2.963.09c1.83.257,2.2-.528,2.188-2.241q-.1-23.44-.017-46.88a4.666,4.666,0,0,0-1.266-3.426c-6-6.58-12.031-13.136-17.851-19.873-1.926-2.23-3.961-3.211-6.791-2.645-6.069-.06-12.19-.627-18.181.491C15.135,8.9,2.17,26.535,4.213,46.6,5.753,61.735,17.764,75.226,32.534,78.639c5.865,1.355,11.781,1.121,17.7,1.113,1.53,0,2.612.394,3.106,1.915m48.213-9.089c5.583,0,11.166-.046,16.748.031,1.434.02,2-.3,1.931-1.848-.111-2.608.011-5.227.017-7.841.01-3.922,0-3.851-4.018-3.949-1.605-.039-2.5.148-2.328,2.087a1.983,1.983,0,1,1-3.937-.109c.258-1.892-.731-1.987-2.189-1.967-4.152.057-4.173.011-4.207,4.162-.011,1.383-.152,2.666-1.89,2.708-1.88.046-2.039-1.312-2.056-2.772-.048-4.08-.067-4.021-4.061-4.1-1.542-.032-2.568.034-2.333,2.044a1.824,1.824,0,0,1-1.978,2.2,1.743,1.743,0,0,1-1.907-2.042c.227-2.04-.735-2.391-2.429-2.192a12.125,12.125,0,0,1-2.541,0c-1.157-.11-1.431.411-1.41,1.47.066,3.461.122,6.925.04,10.385-.034,1.419.439,1.777,1.8,1.76,5.583-.068,11.166-.028,16.749-.028m-33-68.5c-.918-.094-1.659,1.076-2.673,1.8-1.049.751-1.061,1.306-.154,2.27,3.378,3.588,6.654,7.271,9.985,10.9.318.348.547.852,1.111.9a26.7,26.7,0,0,0,4.4-3.854c.109-.446-.3-.575-.5-.806-2.954-3.307-5.933-6.594-8.876-9.911a3.851,3.851,0,0,0-3.294-1.307M131.869,65.8c0-.282.018-.565,0-.845-.143-1.942.878-4.673-.409-5.623-1.335-.986-3.911-.274-5.944-.343-.808-.028-1.3.062-1.282,1.1.073,3.8.08,7.6.066,11.4,0,.829.3,1.017,1.1,1.088,6.459.585,6.474.589,6.474-5.723V65.8" transform="translate(0 0)" fill="#060504"/>
        <path id="Trazado_825873" data-name="Trazado 825873" d="M58.761,87.815c-.494-1.52-1.575-1.916-3.106-1.914-5.92.008-11.835.241-17.7-1.114-14.77-3.413-26.78-16.9-28.321-32.036C7.591,32.683,20.555,15.05,40.263,11.373c5.992-1.118,12.113-.551,18.181-.491C64.1,17.164,69.825,23.39,75.378,29.764c1.6,1.833,3.9,3.272,3.887,6.261-.061,16.611-.039,33.222-.046,49.833-4.221.023-8.442.09-12.662.046a2.544,2.544,0,0,0-2.862,1.906l-4.934,0M34,26l-4.292,3.162c-1.109-2.33-2.381-2.574-4.115-.67-6.391,7.021-8.97,15.261-7.423,24.631A29.087,29.087,0,0,0,75.929,47.1c-.749-20.421-22.654-34.014-41.137-25.273-2.335,1.1-2.545,2.21-.793,4.17" transform="translate(-5.422 -6.148)" fill="#d94854"/>
        <path id="Trazado_825874" data-name="Trazado 825874" d="M213.97,152.444c-5.583,0-11.167-.039-16.749.028-1.361.017-1.833-.341-1.8-1.76.082-3.459.026-6.924-.04-10.385-.02-1.06.253-1.58,1.41-1.47a12.1,12.1,0,0,0,2.541,0c1.693-.2,2.655.152,2.428,2.192a1.743,1.743,0,0,0,1.907,2.042,1.824,1.824,0,0,0,1.978-2.2c-.235-2.01.792-2.076,2.333-2.044,3.994.082,4.013.023,4.061,4.1.017,1.46.177,2.818,2.056,2.772,1.738-.043,1.879-1.326,1.89-2.708.034-4.151.055-4.105,4.207-4.163,1.458-.02,2.446.075,2.189,1.967a1.983,1.983,0,1,0,3.937.109c-.168-1.939.722-2.126,2.327-2.087,4.02.1,4.028.027,4.019,3.949-.006,2.614-.129,5.233-.017,7.841.066,1.545-.5,1.868-1.931,1.848-5.582-.077-11.166-.031-16.749-.031" transform="translate(-112.418 -79.866)" fill="#e5a12b"/>
        <path id="Trazado_825875" data-name="Trazado 825875" d="M145.646,85.912c.007-16.611-.015-33.222.046-49.833.011-2.989-2.291-4.428-3.887-6.261-5.552-6.374-11.275-12.6-16.933-18.882,2.831-.566,4.865.416,6.792,2.645,5.82,6.737,11.851,13.292,17.851,19.873a4.668,4.668,0,0,1,1.266,3.426q-.051,23.44.017,46.88c.007,1.713-.358,2.5-2.188,2.241a25.759,25.759,0,0,0-2.963-.09" transform="translate(-71.848 -6.202)" fill="#c2232f"/>
        <path id="Trazado_825876" data-name="Trazado 825876" d="M156.73,9.6a3.855,3.855,0,0,1,3.294,1.308c2.943,3.318,5.922,6.6,8.876,9.912.206.231.612.36.5.806a26.739,26.739,0,0,1-4.4,3.854c-.564-.052-.792-.557-1.111-.9-3.331-3.632-6.607-7.315-9.985-10.9-.907-.964-.9-1.518.154-2.27,1.014-.726,1.755-1.9,2.673-1.8" transform="translate(-88.174 -5.522)" fill="#e9e2de"/>
        <path id="Trazado_825877" data-name="Trazado 825877" d="M300.206,145.492v1.056c0,6.312-.015,6.309-6.474,5.723-.794-.072-1.1-.259-1.1-1.088.014-3.8.007-7.6-.066-11.4-.02-1.035.474-1.125,1.282-1.1,2.033.069,4.61-.643,5.944.343,1.287.95.265,3.681.409,5.623.021.28,0,.563,0,.845" transform="translate(-168.337 -79.688)" fill="#e9e2de"/>
        <path id="Trazado_825878" data-name="Trazado 825878" d="M45.259,37.45c-1.752-1.96-1.542-3.066.793-4.17,18.484-8.742,40.388,4.852,41.137,25.273A29.087,29.087,0,0,1,29.43,64.573c-1.547-9.371,1.032-17.61,7.423-24.631,1.733-1.9,3.006-1.66,4.115.67a4.193,4.193,0,0,1-1.312,2.122c-6.172,6.915-8,14.917-5.69,23.814,3.21,12.366,16.3,20.562,28.523,17.994,13.644-2.866,22.432-15.011,20.4-28.194C80.29,39.478,63.32,30.092,47.684,36.89a4.241,4.241,0,0,1-2.425.56" transform="translate(-16.681 -17.597)" fill="#060504"/>
        <path id="Trazado_825879" data-name="Trazado 825879" d="M50.694,42.974a4.244,4.244,0,0,0,2.425-.561C68.756,35.616,85.725,45,88.325,61.871c2.031,13.183-6.756,25.327-20.4,28.194C55.7,92.632,42.611,84.436,39.4,72.071c-2.31-8.9-.482-16.9,5.69-23.814A4.2,4.2,0,0,0,46.4,46.135l4.292-3.161m12.954,1.243a21.087,21.087,0,1,0,21.12,21.167,21.091,21.091,0,0,0-21.12-21.167" transform="translate(-22.117 -23.121)" fill="#e9e2de"/>
        <path id="Trazado_825880" data-name="Trazado 825880" d="M69.049,49.681A21.086,21.086,0,1,1,47.826,70.489,21.226,21.226,0,0,1,69.049,49.681M86.031,70.792A17.116,17.116,0,1,0,51.8,70.64a17.117,17.117,0,1,0,34.232.152" transform="translate(-27.518 -28.585)" fill="#060504"/>
        <path id="Trazado_825881" data-name="Trazado 825881" d="M91.415,76.1A17.116,17.116,0,1,1,74.393,58.9,17.256,17.256,0,0,1,91.415,76.1M74.237,83.557c1.907,0,3.814.023,5.721-.006,2.479-.038,3.845-1.283,3.926-3.718.082-2.469.073-4.945.006-7.414-.068-2.486-1.368-3.781-3.828-3.812q-5.72-.071-11.442,0a3.534,3.534,0,0,0-3.856,3.811c-.078,2.469-.087,4.946.006,7.414.09,2.4,1.513,3.678,3.957,3.716,1.836.029,3.673.006,5.509.006" transform="translate(-32.902 -33.888)" fill="#e5a12b"/>
        <path id="Trazado_825882" data-name="Trazado 825882" d="M84.428,96.667c-1.836,0-3.673.023-5.509-.006-2.444-.039-3.867-1.317-3.957-3.716-.093-2.468-.084-4.945-.006-7.414a3.534,3.534,0,0,1,3.856-3.811q5.72-.075,11.442,0c2.46.031,3.76,1.326,3.828,3.812.067,2.47.076,4.945-.006,7.414-.081,2.435-1.447,3.68-3.926,3.718-1.907.029-3.814.005-5.721.005m.008-3.849c6.04,0,6.021,0,5.678-5.91-.049-.845-.169-1.28-1.158-1.267-2.966.039-5.934,0-8.9-.037-.742-.009-1.09.149-1.2,1.021-.724,5.954-.541,6.192,5.365,6.192Z" transform="translate(-43.093 -46.998)" fill="#060504"/>
        <path id="Trazado_825883" data-name="Trazado 825883" d="M89.406,98.132h-.212c-5.905,0-6.088-.239-5.365-6.192.106-.872.454-1.03,1.2-1.021,2.967.037,5.935.076,8.9.037.989-.013,1.109.421,1.158,1.267.343,5.911.362,5.91-5.678,5.91" transform="translate(-48.062 -52.312)" fill="#e9e2de"/>
      </g>
    </g>
  </g>
</svg>
