<svg xmlns="http://www.w3.org/2000/svg" xmlns:xlink="http://www.w3.org/1999/xlink" width="125" height="125" viewBox="0 0 125 125">
  <defs>
    <clipPath id="clip-path">
      <rect id="Rectángulo_378836" data-name="Rectángulo 378836" width="82.132" height="100.057" fill="none"/>
    </clipPath>
  </defs>
  <g id="Grupo_1074692" data-name="Grupo 1074692" transform="translate(-738 -2146)">
    <path id="Trazado_608386" data-name="Trazado 608386" d="M62.5,0A62.5,62.5,0,1,1,0,62.5,62.5,62.5,0,0,1,62.5,0Z" transform="translate(738 2146)" fill="#fff"/>
    <g id="Grupo_1074704" data-name="Grupo 1074704" transform="translate(759.868 2159)">
      <g id="Grupo_1074703" data-name="Grupo 1074703" clip-path="url(#clip-path)">
        <path id="Trazado_826331" data-name="Trazado 826331" d="M26.808,128.224a11.95,11.95,0,0,0,3.56-.532c.935-.229,1.886-.351,2.824-.555a8.756,8.756,0,0,1,3.925.166,12.018,12.018,0,0,1,3.272,1.224.389.389,0,0,0,.427-.048,11.867,11.867,0,0,1,6.919-1.856,14.579,14.579,0,0,1,3.969.849c1.5.513,2.925,1.264,4.468,1.644a3.85,3.85,0,0,0,3.218-.433,14.635,14.635,0,0,1,1.5-.833c.18-.094.215-.146.14-.367-.214-.627-.448-1.247-.654-1.874a3.47,3.47,0,0,1,.272-2.526,4.444,4.444,0,0,1,2.815-2.277c1.24-.46,2.484-.911,3.706-1.416a4.03,4.03,0,0,1,2.224-.36,3.886,3.886,0,0,1,2.893,2.128c.508,1.027.849,2.122,1.275,3.182.78,1.939,1.479,3.911,2.264,5.847.349.862.687,1.729,1.031,2.593.559,1.4,1.086,2.82,1.625,4.231.328.859.619,1.734.984,2.577.844,1.95,1.567,3.948,2.326,5.93a3.858,3.858,0,0,1-2.417,5.334c-1.52.572-2.995,1.275-4.56,1.711a3.776,3.776,0,0,1-4.924-2.516c-.21-.548-.186-.532-.737-.289q-1.245.549-2.515,1.04a.467.467,0,0,0-.339.558,4.788,4.788,0,0,1-1.456,3.874,4.545,4.545,0,0,1-1.477.951c-.61.275-.576.306-.522.979a5.016,5.016,0,0,1-2.12,4.851A5.482,5.482,0,0,1,57.7,163c-.2.009-.275.03-.306.268a5.56,5.56,0,0,1-1.491,3.269,5.879,5.879,0,0,1-2.591,1.516,4.106,4.106,0,0,1-1.515.06c-.254-.016-.363.016-.418.318a4.925,4.925,0,0,1-1.139,2.736,5.931,5.931,0,0,1-2.558,1.669,5.369,5.369,0,0,1-2.662.149A6.429,6.429,0,0,1,43,172.029c-.262-.164-.388-.131-.6.081a5.928,5.928,0,0,1-4.15,1.8,5.762,5.762,0,0,1-2.237-.676,4.457,4.457,0,0,1-1.987-1.819c-.3-.445-.483-.716-1.176-.5a4.266,4.266,0,0,1-3.253-.366,5.189,5.189,0,0,1-2.192-1.919.451.451,0,0,0-.614-.236,4.858,4.858,0,0,1-5.232-.806,4.911,4.911,0,0,1-1.988-4.154c0-.42-.114-.53-.536-.538A4.529,4.529,0,0,1,15.5,160.75a4.925,4.925,0,0,1-.91-4.19,5.26,5.26,0,0,1,.495-1.217,14.833,14.833,0,0,1,1.158-2.124.4.4,0,0,0,.063-.433,10.737,10.737,0,0,1-.773-3.032c-.145-.68-.564-.894-1.064-1.136-.607-.295-1.263-.48-1.846-.83-.176-.105-.227.024-.273.176a4.066,4.066,0,0,1-2.52,2.78,3.35,3.35,0,0,1-2.615-.014c-1.466-.65-2.921-1.329-4.411-1.919a4.621,4.621,0,0,1-2.652-2.667,2.9,2.9,0,0,1-.06-1.657,24.065,24.065,0,0,1,1.59-3.862c.6-1.466,1.244-2.917,1.888-4.366.69-1.552,1.417-3.088,2.106-4.641.638-1.436,1.214-2.9,1.879-4.322.578-1.235,1.131-2.481,1.678-3.73.556-1.27,1.106-2.544,1.671-3.81a3.772,3.772,0,0,1,4.5-2.152,21.29,21.29,0,0,1,2.844,1.168,22.982,22.982,0,0,1,2.894,1.343A3.994,3.994,0,0,1,23,123.09a4.323,4.323,0,0,1-.581,2.274c-.028.07-.063.137-.1.2-.523,1-.36.9.447,1.273.709.329,1.418.657,2.123.993a3.439,3.439,0,0,0,1.918.39m10.87,2.526a7.8,7.8,0,0,0-1.567-.337,8.666,8.666,0,0,0-2.8-.035c-1.487.219-2.945.622-4.422.915a9.049,9.049,0,0,1-3.644.01,10.424,10.424,0,0,1-2.085-.817c-.673-.3-1.335-.628-2.017-.905-.5-.2-.619-.116-.772.379a5.458,5.458,0,0,1-.22.557c-.6,1.369-1.281,2.7-1.864,4.073-1.145,2.7-2.378,5.362-3.539,8.056-.263.611-.543,1.214-.79,1.831-.11.274-.09.553.262.664a12.823,12.823,0,0,1,2.343,1.027,3.863,3.863,0,0,1,1.992,2.808c.066.359.165.444.476.224a4.957,4.957,0,0,1,4.29-.817,5,5,0,0,1,3.722,3.422c.242.728.2.747.97.742a4.981,4.981,0,0,1,4.708,2.928.642.642,0,0,0,.739.405,5.884,5.884,0,0,1,2.438.238,5.347,5.347,0,0,1,3.123,2.628c.333.617.372.666,1.042.552a4.393,4.393,0,0,1,3.728,1.008,16.594,16.594,0,0,0,3,1.972c1.554.843,3.041,1.81,4.643,2.564A1.912,1.912,0,0,0,53.876,164a2.117,2.117,0,0,0-.528-2.567c-.406-.249-.806-.51-1.22-.745-2.7-1.529-5.4-3.046-8.1-4.58a1.555,1.555,0,0,1-.707-2.125,1.531,1.531,0,0,1,2.215-.607c.954.432,1.848,1,2.765,1.513,2,1.119,3.991,2.251,6,3.356a23.026,23.026,0,0,0,2.792,1.518,1.91,1.91,0,0,0,2.553-1.626,1.967,1.967,0,0,0-1.059-2.085c-.2-.112-.4-.238-.6-.351q-3.838-2.154-7.679-4.3a1.984,1.984,0,0,1-.669-.552,1.338,1.338,0,0,1-.208-1.568,1.523,1.523,0,0,1,1.379-.907,3,3,0,0,1,1.534.546c2.68,1.508,5.338,3.057,8.051,4.5a1.976,1.976,0,0,0,2.676-2.442,2.683,2.683,0,0,0-1.4-1.44q-4.925-2.816-9.862-5.609c-.774-.439-1.54-.9-2.34-1.286a5.341,5.341,0,0,0-3.98-.033c-2.143.644-4.185,1.589-6.292,2.347a16.321,16.321,0,0,1-4.01.91A8.72,8.72,0,0,1,30,144.615a9.464,9.464,0,0,1-3.169-2.952,1.83,1.83,0,0,1,.317-2.734,14.658,14.658,0,0,1,1.7-1.08c1.129-.736,2.259-1.468,3.327-2.3.686-.532,1.328-1.122,2.024-1.631,1.26-.921,2.246-2.116,3.477-3.171m30.855,15.727c-.019-.042-.036-.085-.055-.127-.7-1.537-1.242-3.135-1.857-4.7-.867-2.214-1.723-4.433-2.583-6.649q-.743-1.912-1.485-3.824c-.107-.278-.233-.459-.567-.266-.359.208-.742.375-1.1.588a6.438,6.438,0,0,1-3.482,1.045,11.113,11.113,0,0,1-3.655-.9,23.038,23.038,0,0,0-5.41-1.7,8.815,8.815,0,0,0-3.782.3,14.669,14.669,0,0,0-5.686,3.72,51.87,51.87,0,0,1-5.536,4.727c-.9.652-1.846,1.227-2.76,1.852-.226.155-.29.3-.061.505a5.581,5.581,0,0,0,3.957,1.585,10.546,10.546,0,0,0,2.946-.487c1.2-.373,2.37-.808,3.543-1.241a32.49,32.49,0,0,1,4.618-1.551A9.461,9.461,0,0,1,49,139.209a8.67,8.67,0,0,1,2.932,1.157c3.367,1.92,6.747,3.817,10.112,5.743a10.236,10.236,0,0,1,2.755,1.82c.115.128.2.056.319.019,1.1-.351,2.143-.845,3.217-1.26.088-.034.223-.055.2-.21m10.347.779a1.933,1.933,0,0,0-.039-.61,33.561,33.561,0,0,1-1.237-3.16c-.692-1.863-1.441-3.7-2.135-5.565-.535-1.436-1.159-2.84-1.685-4.28-.674-1.848-1.431-3.663-2.141-5.5-.389-1-.756-2.014-1.164-3.01-.354-.866-.638-1.759-1.067-2.6a.511.511,0,0,0-.736-.307q-2.382.9-4.76,1.819c-.4.155-.471.44-.366.849a19.513,19.513,0,0,0,.79,2.113q1.425,3.707,2.864,7.409,1.663,4.288,3.334,8.572,1.184,3.025,2.394,6.041a.812.812,0,0,0,1.2.5c1.413-.551,2.821-1.117,4.236-1.663.348-.134.631-.276.511-.614m-75.59-2.181a.462.462,0,0,0,.232.541c.278.161.562.317.854.451,1.267.578,2.575,1.062,3.811,1.712a.569.569,0,0,0,.785-.246,7.64,7.64,0,0,0,.523-.9q3-6.791,6.016-13.573,2.073-4.681,4.129-9.368a.721.721,0,0,0-.405-1.082c-1.372-.611-2.748-1.216-4.131-1.8-.748-.317-1.1-.162-1.428.57-1.633,3.659-3.288,7.308-4.889,10.981q-2.659,6.106-5.394,12.177a.94.94,0,0,0-.1.536M27.9,155.695a1.469,1.469,0,0,0-1.495.847c-.738,1.365-1.564,2.682-2.332,4.032a10.788,10.788,0,0,0-1.236,2.515,2.076,2.076,0,0,0,3.935,1.262c1.008-1.918,2.008-3.84,2.978-5.777a1.913,1.913,0,0,0-1.851-2.878m4.073,12.1c.857.1,1.364-.477,1.75-1.209.823-1.564,1.623-3.139,2.455-4.7a1.682,1.682,0,0,0,.02-1.633,2,2,0,0,0-1.822-1.21,1.843,1.843,0,0,0-1.832,1.124c-.888,1.806-1.838,3.582-2.768,5.366a.651.651,0,0,0-.123.518c.363.99.8,1.853,2.32,1.741M22.04,151.438a1.941,1.941,0,0,0-1.9,1.221q-1.169,2.039-2.224,4.143a2.072,2.072,0,0,0,1.749,3.032,1.387,1.387,0,0,0,1.459-.564c.941-1.622,1.91-3.229,2.785-4.886a2.033,2.033,0,0,0-1.871-2.945m20.651,13.2A1.939,1.939,0,0,0,41.2,162.5a1.85,1.85,0,0,0-2.368,1.181q-1.074,2.092-2.171,4.172a1.676,1.676,0,0,0,.207,2.081,2.017,2.017,0,0,0,2.071.674,2.573,2.573,0,0,0,1.5-1.268c.684-1.238,1.34-2.492,2.012-3.736a1.656,1.656,0,0,0,.241-.967m3.5,5.414a1.178,1.178,0,0,0,.568-.161,2.082,2.082,0,0,0,1.447-1.926,1.932,1.932,0,0,0-1.03-1.816,9,9,0,0,1-.977-.6c-.306-.226-.387-.075-.44.2a4.435,4.435,0,0,1-.42,1.2c-.316.614-.639,1.224-.962,1.834-.065.124-.17.257-.013.365a5.753,5.753,0,0,0,1.828.911" transform="translate(0 -73.858)"/>
        <path id="Trazado_826332" data-name="Trazado 826332" d="M96.948,17.209a6.93,6.93,0,0,1-1.3,3.845,5.276,5.276,0,0,0-.6,3.655,8.347,8.347,0,0,1,.016,3.6,4.666,4.666,0,0,1-2.139,2.935c-.22.124-.419.3-.634.443-.187.126-.3.255-.134.586.486.96.84,1.986,1.292,2.965.378.819.772,1.639,1.1,2.47.426,1.067.967,2.085,1.326,3.175a1.648,1.648,0,0,1-1.952,1.97,13.144,13.144,0,0,1-1.715-.376c-.964-.312-1.972-.329-2.936-.59a.387.387,0,0,0-.514.216c-.75,1.253-1.516,2.5-2.311,3.72a1.839,1.839,0,0,1-1.839,1.049,1.405,1.405,0,0,1-1.134-.756c-.774-1.662-1.449-3.371-2.168-5.059-.39-.915-.8-1.823-1.191-2.737A.577.577,0,0,0,79.75,38a8.354,8.354,0,0,0-3.327-.416c-.3.007-.388.166-.489.383q-1.649,3.535-3.306,7.067c-.407.872-.822,1.74-1.208,2.622a1.766,1.766,0,0,1-1.761,1.173,1.111,1.111,0,0,1-.886-.421,27.268,27.268,0,0,1-2.046-3.428,6.569,6.569,0,0,1-.715-1.151c-.036-.122-.14-.137-.26-.13a10.773,10.773,0,0,0-2.067.235,9.26,9.26,0,0,1-2.211.321c-.109,0-.152.1-.23.131a1.209,1.209,0,0,1-1.007.157c-1.4-.535-1.678-1.439-.955-2.852.687-1.341,1.286-2.721,1.91-4.091s1.289-2.71,1.932-4.065c.163-.345.31-.7.464-1.046.1-.231.1-.363-.2-.472a5.256,5.256,0,0,1-2.362-1.461,5.529,5.529,0,0,1-1.372-2.89,17.912,17.912,0,0,1,.093-2.892,7.048,7.048,0,0,0,.02-2.468,12.812,12.812,0,0,0-.954-1.9c-.29-.569-.55-1.155-.844-1.722a3.083,3.083,0,0,1-.143-1.012,9.073,9.073,0,0,0-.068-1.409c-.049-.192.234-.264.291-.485a5.242,5.242,0,0,1,1.145-2.09,20.248,20.248,0,0,1,2.018-1.908A4.485,4.485,0,0,0,62.46,9.5a20.31,20.31,0,0,1,.778-2.919,5.226,5.226,0,0,1,3.4-2.994,13.4,13.4,0,0,1,2.79-.313,2.419,2.419,0,0,0,.934-.131c.235-.121.44.036.65,0A3.116,3.116,0,0,0,72.147,2.6C72.91,2.1,73.568,1.46,74.329.975a5.242,5.242,0,0,1,5.733-.23,19.336,19.336,0,0,1,2.23,1.607A4.617,4.617,0,0,0,85,3.288a15.342,15.342,0,0,1,3.152.333A5.17,5.17,0,0,1,91.323,6.09a8.518,8.518,0,0,1,.651,1.8,22.946,22.946,0,0,0,.711,2.707A4.31,4.31,0,0,0,93.8,11.977a12.564,12.564,0,0,1,2.359,2.379,4.605,4.605,0,0,1,.793,2.854M69.463,6.507c-.384-.071-.854.109-1.319.074a2.059,2.059,0,0,0-1.995,1.36,15.555,15.555,0,0,0-.54,2.047,6.593,6.593,0,0,1-2,3.915c-.658.6-1.295,1.232-1.934,1.857a1.968,1.968,0,0,0-.483,2.227,6.906,6.906,0,0,0,.566,1.107A7.8,7.8,0,0,1,62.987,24.7c-.107.528-.035,1.057-.153,1.587a2.136,2.136,0,0,0,1.328,2.641c.623.3,1.269.548,1.914.8a6.937,6.937,0,0,1,3.51,3c.365.606.751,1.2,1.166,1.774a1.972,1.972,0,0,0,1.58.875c.995.036,1.826-.549,2.774-.709a10.128,10.128,0,0,1,2.51-.4,17.469,17.469,0,0,1,3.869.948,2.122,2.122,0,0,0,2.693-.833c.386-.537.751-1.091,1.1-1.654a7,7,0,0,1,3.342-2.931,21.283,21.283,0,0,0,2.447-1.074,1.83,1.83,0,0,0,.917-1.922,10.651,10.651,0,0,1-.13-1.358,6.708,6.708,0,0,0-.1-1.552,4.6,4.6,0,0,1,.317-2.625,24.946,24.946,0,0,1,1.42-2.949,2.313,2.313,0,0,0-.181-2.385,11.282,11.282,0,0,0-1.757-1.769c-1.852-1.5-2.289-3.666-2.714-5.816A2.208,2.208,0,0,0,86.967,6.6c-.815.012-1.624-.078-2.434-.115A6,6,0,0,1,81.341,5.5c-.8-.549-1.594-1.1-2.363-1.7a2.384,2.384,0,0,0-3.09-.023c-.45.35-.919.676-1.358,1.039a7.593,7.593,0,0,1-5.066,1.692m.254,37.151c.1-.124.275-.179.3-.375a1.5,1.5,0,0,1,.11-.44c.531-1.142,1.071-2.281,1.609-3.42.338-.713.346-.739-.411-.919-2.257-.535-3.382-2.3-4.454-4.1-.091-.154-.177-.29-.313-.323-.156-.038-.214.149-.269.271-.56,1.244-1.2,2.449-1.73,3.709-.323.771-.713,1.515-1.08,2.268-.054.111-.156.214-.088.338s.222.085.334.068c.819-.121,1.642-.224,2.453-.387a1.643,1.643,0,0,1,2.037.957c.392.728.842,1.424,1.267,2.135a.436.436,0,0,0,.233.223m21.251-4.689c.61.032.661-.045.453-.5s-.418-.891-.613-1.342q-.776-1.8-1.536-3.6c-.051-.122-.019-.3-.181-.342s-.229.133-.318.228a17.584,17.584,0,0,0-1.707,2.464,5.54,5.54,0,0,1-2.975,2.432c-.408.13-.388.283-.261.582.355.834.765,1.644,1.061,2.5.045.13.1.3.248.311s.216-.151.287-.265c.431-.692.847-1.395,1.287-2.081a1.7,1.7,0,0,1,2.08-.867c.764.159,1.525.335,2.173.479" transform="translate(-36.311 0)"/>
        <path id="Trazado_826333" data-name="Trazado 826333" d="M61.221,151.1c-1.231,1.055-2.217,2.251-3.477,3.171-.7.509-1.338,1.1-2.024,1.631-1.068.828-2.2,1.56-3.327,2.3a14.607,14.607,0,0,0-1.7,1.08,1.83,1.83,0,0,0-.317,2.734,9.465,9.465,0,0,0,3.169,2.952,8.716,8.716,0,0,0,5.182,1.249,16.336,16.336,0,0,0,4.01-.91c2.107-.758,4.149-1.7,6.292-2.348a5.343,5.343,0,0,1,3.98.033c.8.388,1.566.846,2.34,1.286q4.934,2.8,9.862,5.609a2.68,2.68,0,0,1,1.4,1.44,1.976,1.976,0,0,1-2.676,2.442c-2.713-1.448-5.371-3-8.051-4.5a3,3,0,0,0-1.534-.546,1.523,1.523,0,0,0-1.379.907,1.338,1.338,0,0,0,.208,1.568,1.985,1.985,0,0,0,.669.552q3.842,2.147,7.679,4.3c.2.113.395.239.6.351a1.967,1.967,0,0,1,1.059,2.085,1.91,1.91,0,0,1-2.553,1.626,22.967,22.967,0,0,1-2.792-1.518c-2.007-1.105-4-2.237-6-3.356-.917-.513-1.811-1.081-2.765-1.513a1.531,1.531,0,0,0-2.215.607,1.555,1.555,0,0,0,.707,2.125c2.7,1.534,5.4,3.051,8.1,4.58.414.235.814.5,1.22.745a2.117,2.117,0,0,1,.528,2.567,1.912,1.912,0,0,1-2.444.848c-1.6-.754-3.089-1.721-4.643-2.564a16.571,16.571,0,0,1-3-1.972,4.395,4.395,0,0,0-3.728-1.008c-.671.113-.709.065-1.042-.552a5.347,5.347,0,0,0-3.123-2.628,5.877,5.877,0,0,0-2.438-.238.643.643,0,0,1-.739-.405,4.981,4.981,0,0,0-4.708-2.928c-.774.005-.729-.014-.97-.742a5.249,5.249,0,0,0-8.012-2.6c-.311.221-.41.135-.476-.224a3.863,3.863,0,0,0-1.992-2.808,12.8,12.8,0,0,0-2.343-1.027c-.352-.111-.371-.389-.262-.664.247-.617.527-1.22.79-1.831,1.16-2.694,2.393-5.355,3.539-8.056.582-1.373,1.266-2.7,1.864-4.073a5.46,5.46,0,0,0,.22-.557c.153-.5.274-.582.772-.379.682.277,1.344.6,2.017.905a10.422,10.422,0,0,0,2.085.817,9.042,9.042,0,0,0,3.644-.01c1.477-.293,2.935-.7,4.422-.915a8.666,8.666,0,0,1,2.8.035,7.8,7.8,0,0,1,1.567.337" transform="translate(-23.543 -94.208)" fill="#f8e1c3"/>
        <path id="Trazado_826334" data-name="Trazado 826334" d="M119.972,167.468c.022.154-.114.175-.2.209-1.074.416-2.117.91-3.217,1.26-.117.037-.2.109-.319-.019a10.232,10.232,0,0,0-2.755-1.82c-3.364-1.926-6.744-3.823-10.111-5.743a8.677,8.677,0,0,0-2.933-1.157,9.459,9.459,0,0,0-3.418.139,32.49,32.49,0,0,0-4.618,1.551c-1.173.433-2.344.868-3.543,1.241a10.516,10.516,0,0,1-2.946.487,5.581,5.581,0,0,1-3.956-1.585c-.229-.209-.166-.35.061-.505.915-.626,1.862-1.2,2.76-1.852a51.878,51.878,0,0,0,5.537-4.727A14.664,14.664,0,0,1,96,151.228a8.809,8.809,0,0,1,3.782-.3,23.056,23.056,0,0,1,5.41,1.7,11.108,11.108,0,0,0,3.655.9,6.437,6.437,0,0,0,3.482-1.045c.355-.213.738-.381,1.1-.588.334-.193.46-.013.567.266q.738,1.913,1.485,3.824c.861,2.216,1.716,4.435,2.583,6.649.615,1.57,1.157,3.168,1.857,4.7.019.042.037.085.054.128" transform="translate(-51.44 -94.849)" fill="#d6b3a7"/>
        <path id="Trazado_826335" data-name="Trazado 826335" d="M186.443,155.232c.12.338-.162.48-.51.614-1.416.546-2.823,1.111-4.237,1.663a.812.812,0,0,1-1.2-.5Q179.288,154,178.1,150.97q-1.676-4.282-3.334-8.571-1.437-3.7-2.864-7.41a19.538,19.538,0,0,1-.789-2.113c-.105-.409-.037-.694.366-.849q2.378-.915,4.76-1.819a.511.511,0,0,1,.736.307c.43.838.713,1.731,1.068,2.6.407,1,.775,2.007,1.163,3.01.711,1.833,1.468,3.648,2.142,5.5.525,1.44,1.15,2.843,1.685,4.28.693,1.862,1.442,3.7,2.135,5.565a33.405,33.405,0,0,0,1.237,3.16,1.948,1.948,0,0,1,.039.61M173.475,134a1.488,1.488,0,0,0,2.972.156,1.439,1.439,0,0,0-1.491-1.58c-.773-.016-1.629.589-1.481,1.424" transform="translate(-107.564 -81.835)" fill="#d0d0d5"/>
        <path id="Trazado_826336" data-name="Trazado 826336" d="M8.832,150.477a.939.939,0,0,1,.1-.536q2.721-6.078,5.394-12.178c1.6-3.673,3.256-7.322,4.889-10.981.327-.732.68-.887,1.428-.569,1.383.587,2.759,1.191,4.131,1.8a.722.722,0,0,1,.405,1.083q-2.058,4.687-4.129,9.368-3.006,6.788-6.016,13.574a7.638,7.638,0,0,1-.523.9.569.569,0,0,1-.785.246c-1.235-.65-2.544-1.134-3.811-1.712-.293-.134-.576-.289-.854-.451a.463.463,0,0,1-.232-.542m13.962-20.515a1.487,1.487,0,0,0-1.476-1.544,1.788,1.788,0,0,0-1.577,1.541,1.847,1.847,0,0,0,1.5,1.521c1.039-.039,1.679-.715,1.554-1.518" transform="translate(-5.543 -79.261)" fill="#d0d0d5"/>
        <path id="Trazado_826337" data-name="Trazado 826337" d="M66.489,220.444a1.913,1.913,0,0,1,1.851,2.878c-.97,1.937-1.97,3.859-2.978,5.777a2.076,2.076,0,0,1-3.936-1.263,10.8,10.8,0,0,1,1.237-2.515c.768-1.349,1.594-2.666,2.332-4.032a1.47,1.47,0,0,1,1.5-.847" transform="translate(-38.587 -138.607)" fill="#d6b3a7"/>
        <path id="Trazado_826338" data-name="Trazado 826338" d="M82.167,238.21c-1.519.112-1.957-.751-2.32-1.741a.65.65,0,0,1,.123-.518c.93-1.785,1.88-3.561,2.768-5.367a1.843,1.843,0,0,1,1.832-1.124,2,2,0,0,1,1.822,1.21,1.682,1.682,0,0,1-.02,1.632c-.832,1.559-1.632,3.135-2.455,4.7-.386.732-.893,1.305-1.75,1.209" transform="translate(-50.192 -144.278)" fill="#d6b3a7"/>
        <path id="Trazado_826339" data-name="Trazado 826339" d="M52,208.965a2.032,2.032,0,0,1,1.871,2.945c-.875,1.657-1.844,3.265-2.785,4.886a1.387,1.387,0,0,1-1.459.564,2.072,2.072,0,0,1-1.749-3.032q1.051-2.1,2.224-4.143a1.94,1.94,0,0,1,1.9-1.221" transform="translate(-29.962 -131.386)" fill="#d6b3a7"/>
        <path id="Trazado_826340" data-name="Trazado 826340" d="M104.333,240.742a1.653,1.653,0,0,1-.241.967c-.672,1.244-1.328,2.5-2.012,3.736a2.573,2.573,0,0,1-1.5,1.268,2.017,2.017,0,0,1-2.071-.674,1.676,1.676,0,0,1-.207-2.081q1.094-2.081,2.171-4.172a1.85,1.85,0,0,1,2.368-1.181,1.939,1.939,0,0,1,1.49,2.136" transform="translate(-61.642 -149.966)" fill="#d6b3a7"/>
        <path id="Trazado_826341" data-name="Trazado 826341" d="M121.192,251.3a5.754,5.754,0,0,1-1.828-.911c-.158-.108-.053-.241.013-.365.323-.61.646-1.22.962-1.834a4.435,4.435,0,0,0,.42-1.2c.053-.275.134-.427.44-.2a9,9,0,0,0,.977.6,1.932,1.932,0,0,1,1.03,1.816,2.082,2.082,0,0,1-1.447,1.926,1.177,1.177,0,0,1-.568.161" transform="translate(-75.001 -155.105)" fill="#f6dbcd"/>
        <path id="Trazado_826342" data-name="Trazado 826342" d="M75.028,11.958a7.593,7.593,0,0,0,5.067-1.692c.44-.362.908-.688,1.358-1.039a2.385,2.385,0,0,1,3.091.022c.768.593,1.563,1.147,2.363,1.7a5.994,5.994,0,0,0,3.192.987c.81.037,1.619.127,2.434.115a2.208,2.208,0,0,1,1.871,1.76c.425,2.151.863,4.312,2.715,5.816a11.3,11.3,0,0,1,1.757,1.77,2.313,2.313,0,0,1,.181,2.385,24.942,24.942,0,0,0-1.42,2.949,4.6,4.6,0,0,0-.317,2.625,6.684,6.684,0,0,1,.1,1.551,10.711,10.711,0,0,0,.13,1.358,1.83,1.83,0,0,1-.917,1.922,21.22,21.22,0,0,1-2.447,1.074,7,7,0,0,0-3.342,2.931c-.347.563-.712,1.117-1.1,1.653a2.122,2.122,0,0,1-2.693.833,17.471,17.471,0,0,0-3.869-.948,10.094,10.094,0,0,0-2.51.4c-.948.16-1.779.745-2.774.709a1.973,1.973,0,0,1-1.58-.875c-.415-.572-.8-1.168-1.165-1.774a6.939,6.939,0,0,0-3.51-3c-.644-.25-1.29-.5-1.914-.8A2.136,2.136,0,0,1,68.4,31.742c.118-.53.045-1.059.153-1.587a7.8,7.8,0,0,0-1.233-5.611,6.894,6.894,0,0,1-.567-1.108,1.968,1.968,0,0,1,.483-2.226c.64-.624,1.276-1.252,1.934-1.857a6.593,6.593,0,0,0,2-3.915,15.574,15.574,0,0,1,.54-2.047,2.058,2.058,0,0,1,2-1.359c.464.035.934-.146,1.318-.075M83.8,36.878a8.335,8.335,0,0,0,3.032-.587,11.594,11.594,0,0,0,4.711-2.881,12.487,12.487,0,0,0,2.881-4.471,13.849,13.849,0,0,0,.751-3.116,10.948,10.948,0,0,0-.915-5.714,11.953,11.953,0,0,0-8.781-7.259,11.48,11.48,0,0,0-7.125.636,12,12,0,0,0-5.991,5.269,12.228,12.228,0,0,0-1.555,4.594,11.39,11.39,0,0,0,.811,5.757,12.319,12.319,0,0,0,8.866,7.566,16.835,16.835,0,0,0,2.364.245.186.186,0,0,0,.2,0l.713-.036.022.028Z" transform="translate(-41.876 -5.451)" fill="#fccd32"/>
        <path id="Trazado_826343" data-name="Trazado 826343" d="M79.235,101.366a.432.432,0,0,1-.233-.223c-.425-.709-.875-1.407-1.267-2.134a1.643,1.643,0,0,0-2.037-.957c-.811.163-1.635.267-2.453.387-.112.017-.261.066-.334-.068s.034-.227.088-.338c.366-.754.756-1.5,1.08-2.269.528-1.26,1.17-2.465,1.73-3.708.055-.122.113-.31.269-.271.135.033.222.169.313.323,1.072,1.808,2.2,3.57,4.453,4.105.757.179.749.2.411.918-.539,1.139-1.078,2.277-1.609,3.419a1.5,1.5,0,0,0-.11.44c-.025.2-.2.252-.3.375" transform="translate(-45.83 -57.709)" fill="#134f9d"/>
        <path id="Trazado_826344" data-name="Trazado 826344" d="M135.006,95.16c-.648-.143-1.409-.32-2.173-.479a1.7,1.7,0,0,0-2.08.867c-.44.687-.856,1.389-1.287,2.081-.071.113-.139.281-.287.265s-.2-.181-.248-.311c-.3-.859-.706-1.669-1.061-2.5-.128-.3-.148-.453.261-.582a5.54,5.54,0,0,0,2.975-2.432,17.58,17.58,0,0,1,1.707-2.464c.088-.1.153-.268.318-.228s.13.22.181.342q.761,1.8,1.536,3.6c.195.451.408.894.613,1.342s.157.532-.453.5" transform="translate(-80.349 -56.192)" fill="#134f9d"/>
        <path id="Trazado_826345" data-name="Trazado 826345" d="M177.52,138.1c-.148-.835.708-1.44,1.481-1.424a1.439,1.439,0,0,1,1.491,1.58,1.488,1.488,0,0,1-2.972-.156" transform="translate(-111.609 -85.938)"/>
        <path id="Trazado_826346" data-name="Trazado 826346" d="M41.3,133.961c.125.8-.515,1.479-1.554,1.518a1.847,1.847,0,0,1-1.5-1.521,1.788,1.788,0,0,1,1.577-1.541,1.487,1.487,0,0,1,1.476,1.544" transform="translate(-24.05 -83.261)"/>
        <path id="Trazado_826347" data-name="Trazado 826347" d="M89.844,43.495a16.839,16.839,0,0,1-2.364-.245,12.318,12.318,0,0,1-8.866-7.566,11.388,11.388,0,0,1-.811-5.757,12.224,12.224,0,0,1,1.556-4.595,12,12,0,0,1,5.991-5.268,11.48,11.48,0,0,1,7.125-.636,11.953,11.953,0,0,1,8.781,7.259,10.945,10.945,0,0,1,.915,5.714,13.891,13.891,0,0,1-.751,3.117,12.5,12.5,0,0,1-2.882,4.471,11.589,11.589,0,0,1-4.711,2.881,8.325,8.325,0,0,1-3.032.587l-.022-.014-.02.016-.713.036c0-.071-.022-.12-.1-.12s-.1.049-.1.12m9.118-12.226a9.006,9.006,0,0,0-9.071-8.923,8.563,8.563,0,0,0-6.9,3.25,9.009,9.009,0,1,0,15.971,5.673" transform="translate(-48.871 -12.028)"/>
        <path id="Trazado_826348" data-name="Trazado 826348" d="M110.373,84.56c0-.07.021-.12.1-.119s.1.049.1.119a.186.186,0,0,1-.2,0" transform="translate(-69.399 -53.094)" fill="#d6b3a7"/>
        <path id="Trazado_826349" data-name="Trazado 826349" d="M112.826,84.637l.02-.016.022.014-.02.031Z" transform="translate(-70.942 -53.207)" fill="#d6b3a7"/>
        <path id="Trazado_826350" data-name="Trazado 826350" d="M104.434,36.714a9.009,9.009,0,1,1-15.97-5.673,8.563,8.563,0,0,1,6.9-3.25,9.006,9.006,0,0,1,9.071,8.923M89.761,35.523a1.563,1.563,0,0,0-1.4,2.323,2.666,2.666,0,0,0,.368.472c1.019,1.029,2.028,2.07,3.074,3.071a1.6,1.6,0,0,0,2.567,0q3.583-3.255,7.163-6.515a3.977,3.977,0,0,0,.726-.785c.192-.3.5-.524.507-.917a1.573,1.573,0,0,0-2.127-1.549,5.135,5.135,0,0,0-1.89,1.509c-.4.4-.817.784-1.244,1.136-.9.745-1.714,1.586-2.6,2.343-.495.421-.959.88-1.423,1.336-.274.268-.471.232-.722-.049-.616-.69-1.279-1.334-1.958-1.962a1.627,1.627,0,0,0-1.039-.418" transform="translate(-54.342 -17.474)" fill="#f8f9fb"/>
        <path id="Trazado_826351" data-name="Trazado 826351" d="M92.68,41.863a1.627,1.627,0,0,1,1.039.418c.679.628,1.342,1.272,1.958,1.962.251.281.448.317.722.049.464-.456.928-.915,1.423-1.336.889-.757,1.7-1.6,2.6-2.343.427-.352.846-.738,1.244-1.136a5.135,5.135,0,0,1,1.89-1.509,1.573,1.573,0,0,1,2.127,1.549c-.01.392-.315.62-.507.917a3.977,3.977,0,0,1-.726.785q-3.577,3.263-7.163,6.515a1.6,1.6,0,0,1-2.567,0c-1.046-1-2.055-2.042-3.074-3.071a2.666,2.666,0,0,1-.368-.472,1.563,1.563,0,0,1,1.4-2.323" transform="translate(-57.261 -23.814)"/>
      </g>
    </g>
  </g>
</svg>
