<svg xmlns="http://www.w3.org/2000/svg" xmlns:xlink="http://www.w3.org/1999/xlink" width="125" height="125" viewBox="0 0 125 125">
  <defs>
    <clipPath id="clip-path">
      <rect id="Rectángulo_378835" data-name="Rectángulo 378835" width="82.612" height="82.201" fill="none"/>
    </clipPath>
  </defs>
  <g id="Grupo_1074693" data-name="Grupo 1074693" transform="translate(-1089 -2146)">
    <path id="Trazado_608387" data-name="Trazado 608387" d="M62.5,0A62.5,62.5,0,1,1,0,62.5,62.5,62.5,0,0,1,62.5,0Z" transform="translate(1089 2146)" fill="#fff"/>
    <g id="Grupo_1074702" data-name="Grupo 1074702" transform="translate(1112.42 2167.798)">
      <g id="Grupo_1074701" data-name="Grupo 1074701" clip-path="url(#clip-path)">
        <path id="Trazado_826262" data-name="Trazado 826262" d="M45.651,70.1q-20.536,0-41.072.013A4.55,4.55,0,0,1,1.9,69.267,4.129,4.129,0,0,1,.074,66.162C0,65.223.01,64.287.01,63.35Q0,38.353,0,13.356a16.819,16.819,0,0,1,.12-2.55A3.681,3.681,0,0,1,1.152,8.841a5.035,5.035,0,0,1,3.885-1.5c.641.006,1.283-.019,1.922.009.312.014.362-.095.355-.373C7.3,6.224,7.331,5.464,7.3,4.706A4.657,4.657,0,0,1,8.712,1.288,8.877,8.877,0,0,1,10.068.334a1.316,1.316,0,0,1,.907-.208C21.157-.116,31.342.072,41.525.029a8.669,8.669,0,0,1,1.788.083,1.221,1.221,0,0,1,.635.346c1.655,1.6,3.265,3.242,4.87,4.891.848.871,1.72,1.719,2.578,2.58a4.4,4.4,0,0,1,.408.465c.479.64,1.167,1.074,1.671,1.683.572.69,1.281,1.238,1.866,1.911a9.041,9.041,0,0,0,1.406,1.3,3.3,3.3,0,0,1,.726.752,1.316,1.316,0,0,1,.244.8q-.01,9.241-.011,18.483c0,.318-.016.543.427.6a1.28,1.28,0,0,1,.983,1.252,3.2,3.2,0,0,1,0,.392c-.019.362-.038.721.486.709a.058.058,0,0,1,.035.017c.544.466.954.141,1.4-.2a1.424,1.424,0,0,1,2.279.158c.547.544,1.107,1.075,1.659,1.614a3.56,3.56,0,0,1,.349.371,1.047,1.047,0,0,1,.122,1.3,11.9,11.9,0,0,1-.79,1.12.433.433,0,0,0-.055.458c.165.57.453.92,1.1.891a2.026,2.026,0,0,1,.627.174,1.137,1.137,0,0,1,.952,1.269q.01,1.334,0,2.668a1.294,1.294,0,0,1-1.068,1.354,1.772,1.772,0,0,1-.676.078c-.3-.038-.644.049-.72.335-.1.367-.528.749-.034,1.173a3.167,3.167,0,0,1,.584.782A1.2,1.2,0,0,1,65.2,51.5c-.722.756-1.471,1.487-2.226,2.212a1.271,1.271,0,0,1-1.517.037,5.655,5.655,0,0,1-.737-.518c-.431-.38-.866-.171-1.274-.008-.336.135-.3.506-.331.808-.094.928-.324,1.369-.949,1.6a1.269,1.269,0,0,1-.262.066.288.288,0,0,0-.286.361,15.84,15.84,0,0,1,.087,2.024,4.9,4.9,0,0,1-1.277,3.408,4.246,4.246,0,0,1-3.053,1.425c-.9.017-1.805,0-2.708.007-.129,0-.3-.076-.374.116l-.016.006.015.009c-.016.862,0,1.726-.053,2.586a4.408,4.408,0,0,1-2.773,4.1,1.946,1.946,0,0,1-1.435.27c-.14-.02-.288-.072-.383.094M10.369,59.45a1.861,1.861,0,0,0,1.364.79q20.679.017,41.358.015a2.172,2.172,0,0,0,1.951-1.963,16.976,16.976,0,0,1,0-1.843c.024-.423-.043-.726-.531-.761-.074-.005-.112-.054-.166-.085a2.1,2.1,0,0,1-.88-1.806c-.014-.114.03-.236-.053-.34a1.4,1.4,0,0,0-1.512-.169c-.231.17-.465.339-.711.487a1.234,1.234,0,0,1-1.48-.073c-.763-.767-1.524-1.538-2.261-2.331a1.176,1.176,0,0,1-.152-1.528,7.9,7.9,0,0,1,.569-.72c.1-.143.305-.284.248-.466a3.208,3.208,0,0,0-.434-.945c-.151-.2-.479-.151-.725-.168A1.544,1.544,0,0,1,45.3,45.811c.022-.784,0-1.569,0-2.354a.4.4,0,0,0,.068-.314,1.327,1.327,0,0,1,1.021-.984c.268-.06.531-.143.8-.216.064.012.126.019.159-.056l.388-.026c.079,0,.077-.044.058-.1a1.8,1.8,0,0,1,.133-.561c.249-.4,0-.648-.189-.931-.118-.18-.247-.352-.359-.536a1.07,1.07,0,0,1,.1-1.564c.593-.661,1.239-1.275,1.863-1.907.82-.83,1.36-.885,2.277-.175.494.382.953.719,1.546.184.084-.076.272-.031.3-.2a5.075,5.075,0,0,0,.09-.726,1.481,1.481,0,0,1,1.14-1.44c.352-.044.344-.2.344-.45q-.005-8.457.007-16.913c0-.37-.119-.412-.437-.411-2.8.012-5.6,0-8.4.012a4.832,4.832,0,0,1-1.489-.189A4.511,4.511,0,0,1,41.472,11.7c-.064-2.85-.021-5.7,0-8.553,0-.372-.105-.445-.453-.445Q27.107,2.72,13.2,2.717c-.458,0-.915,0-1.373,0a1.788,1.788,0,0,0-1.769,1.825q0,8.162-.009,16.324,0,18.364,0,36.729a3.732,3.732,0,0,0,.266,1.791c-.016.054.005.072.058.06M2.642,39.265h0q0,12.616,0,25.232c0,.34.015.68.007,1.02a1.894,1.894,0,0,0,2.074,1.955c1.987,0,3.975-.014,5.962-.013q17.011.005,34.022.013a6.525,6.525,0,0,0,1.473-.081,1.726,1.726,0,0,0,1.329-1.368c.089-.869.043-1.741.086-2.61.019-.385-.069-.5-.484-.5q-17.678.02-35.357.025a4.183,4.183,0,0,1-2.84-1.087,4.432,4.432,0,0,1-1.61-3.418q.007-23.858,0-47.716c0-.157-.007-.314,0-.471s-.05-.231-.224-.23c-.9.008-1.805-.014-2.707.017a1.708,1.708,0,0,0-1.057.351,2.291,2.291,0,0,0-.638,1.1,4.569,4.569,0,0,0-.047,1.34q.008,13.224,0,26.448m59.834-.03a.537.537,0,0,0-.812-.4c-.215.123-.415.273-.629.4a1.14,1.14,0,0,1-1.23.023,7.551,7.551,0,0,0-2.116-.789,1.058,1.058,0,0,1-.785-.79c-.1-.338-.214-.669-.317-1.006-.054-.177-.183-.2-.339-.187a.244.244,0,0,0-.258.238c-.021.194-.061.386-.087.58a1.322,1.322,0,0,1-1.052,1.212,6.575,6.575,0,0,0-1.608.6,1.681,1.681,0,0,1-2.153-.251.43.43,0,0,0-.677-.014c-.243.22-.214.408-.006.624.1.1.164.237.255.347a1.314,1.314,0,0,1,.081,1.637,4.8,4.8,0,0,0-.654,1.7,1.371,1.371,0,0,1-1.038,1.154c-.261.077-.535.116-.8.175-.135.029-.252.092-.267.245a.308.308,0,0,0,.227.33,3.287,3.287,0,0,0,.634.176,1.338,1.338,0,0,1,1.249,1.1,5.357,5.357,0,0,0,.527,1.428,1.824,1.824,0,0,1-.22,2.267c-.165.2-.264.381-.038.613s.432.306.7.078a5.412,5.412,0,0,1,.546-.381,1.187,1.187,0,0,1,1.349-.023,4.948,4.948,0,0,0,1.7.658,1.406,1.406,0,0,1,1.229,1.2c.033.206.064.413.117.615.04.151.1.324.282.341s.255-.149.306-.3c.089-.273.185-.544.259-.821a1.281,1.281,0,0,1,.976-.97,10.2,10.2,0,0,0,2.034-.8,1.136,1.136,0,0,1,1.157.057,6.843,6.843,0,0,1,.648.439.416.416,0,0,0,.618-.031.388.388,0,0,0,.037-.611,3.323,3.323,0,0,1-.3-.414,1.353,1.353,0,0,1-.2-1.381,21.17,21.17,0,0,0,.849-2.185,1.254,1.254,0,0,1,1.108-.873c.23-.028.456-.089.685-.131.156-.029.2-.122.21-.276.027-.377-.243-.38-.488-.41a1.605,1.605,0,0,1-1.642-1.432,5.011,5.011,0,0,0-.487-1.19,1.736,1.736,0,0,1,.221-2.272,1.183,1.183,0,0,0,.126-.15.968.968,0,0,0,.068-.143m-9.42-25.687a1.173,1.173,0,0,0-.33-.433c-.967-.844-1.823-1.8-2.723-2.713-1.808-1.832-3.579-3.7-5.369-5.553a1.232,1.232,0,0,0-.587-.4c0,.155,0,.27,0,.386q.013,3.256.027,6.512a3.375,3.375,0,0,0,.022.352,2.094,2.094,0,0,0,2.042,1.851c2.288.006,4.576,0,6.919,0" transform="translate(0 0)"/>
        <path id="Trazado_826263" data-name="Trazado 826263" d="M198.134,40.366l0-.17c0-.1,0-.2-.006-.3l-.016-.807c0-.044,0-.088,0-.132,0-.06.006-.121.009-.181.015-.209.1-.421-.033-.622.026-.186.125-.367.036-.587a2.136,2.136,0,0,0-.764.476,1.337,1.337,0,0,1-2.106-.46c-.1-.162-.054-.325-.1-.483l0-.006c-.1-2.257-.042-4.516-.056-6.774a.839.839,0,0,1,.214-.523c.908-1.21,1.8-2.434,2.692-3.654.194-.264-.017-.589.13-.861l-.021-.142q0-.559,0-1.117l.016-.032-.02-.029c0-.061,0-.122,0-.183s.012-.141.019-.211c.056-.186-.059-.227-.205-.244a11.243,11.243,0,0,1-6.148-2.965,11.473,11.473,0,0,1-3.569-6.039,9.143,9.143,0,0,1-.323-2.99,13.766,13.766,0,0,1,.485-2.5,11.626,11.626,0,0,1,4.072-6.088A11.982,11.982,0,0,1,197.66.392,16.544,16.544,0,0,1,200.28.3l.078,0a11.643,11.643,0,0,1,9.335,5.676,6.047,6.047,0,0,1,.734,1.673c.1.352.3.669.4,1.035a14.06,14.06,0,0,1,.441,2.441,11.39,11.39,0,0,1-1.913,7.081,11.215,11.215,0,0,1-3.52,3.552,18.553,18.553,0,0,1-2.609,1.186c-.781.33-1.63.289-2.4.609-.008.006-.021.011-.021.018a.236.236,0,0,0,.006.051,21.044,21.044,0,0,0-.048,2.188c-.005.106.111.227.189.327.867,1.113,1.719,2.237,2.616,3.324a1.6,1.6,0,0,1,.315,1.082c.023,1.895.015,3.79,0,5.685,0,.387-.04.777-.079,1.161a1.239,1.239,0,0,1-1.885.773c-.261-.147-.5-.332-.749-.5-.113-.074-.2-.265-.355-.177-.138.079-.062.265-.063.4-.008.993.006,1.987-.01,2.98a1.224,1.224,0,0,1-1,1.3,1.251,1.251,0,0,1-1.581-1.157c0-.169-.014-.339-.021-.508l0-.146m2.637-27.1q.01,1.107.021,2.215c-.006.011-.019.025-.016.033a.446.446,0,0,0,.035.064c.03.226.15.118.25.065a4,4,0,0,0,2.307-4.867,3.7,3.7,0,0,0-2.736-2.8,3.921,3.921,0,0,0-3.065.272,3.984,3.984,0,0,0-2.129,4.581,4.323,4.323,0,0,0,2.4,2.834c.146.074.243.082.24-.132a1.322,1.322,0,0,1,.059-.609.065.065,0,0,0-.012-.071q-.01-.753-.021-1.505l.019-.031-.02-.03.015-.33a.066.066,0,0,0,.016-.069,2.03,2.03,0,0,1-.048-.881,1.51,1.51,0,0,1,.463-1.059,1.387,1.387,0,0,1,1.383-.288,1.043,1.043,0,0,1,.751.891c.012.106-.082.242.086.3l-.01.8a.5.5,0,0,0,.008.613M199.623,2.9a8.97,8.97,0,0,0-7.25,3.576,9.694,9.694,0,0,0-1.779,4.663,7.58,7.58,0,0,0,.463,3.685,9.181,9.181,0,0,0,3.2,4.169,9.849,9.849,0,0,0,3.529,1.64c.265.065.382.024.37-.289-.021-.509-.015-1.021.012-1.53a.358.358,0,0,0-.335-.427,5.759,5.759,0,0,1-1.359-.494,6.619,6.619,0,0,1-3.585-4.432,6.481,6.481,0,0,1,.26-3.963,6.726,6.726,0,0,1,9.16-3.694,6.45,6.45,0,0,1,3.772,5.09,6.12,6.12,0,0,1-.227,3.036,6.655,6.655,0,0,1-4.827,4.45c-.185.048-.295.116-.289.34.014.588.006,1.177,0,1.766,0,.231.07.329.328.284a8.436,8.436,0,0,0,4.116-1.783,8.775,8.775,0,0,0,3.419-7.957,8.859,8.859,0,0,0-2.44-5.4A8.608,8.608,0,0,0,199.623,2.9m-1.852,29.755h0c0,.379-.012.759,0,1.137.009.226-.134.552.066.651s.389-.2.577-.328a1.626,1.626,0,0,1,2.124.035c.136.1.272.2.4.314a.271.271,0,0,0,.289.064c.106-.043.064-.157.065-.241,0-.823.012-1.647-.009-2.47a2.27,2.27,0,0,0-.568-1.639,10.579,10.579,0,0,1-.966-1.281c-.239-.339-.309-.36-.553-.015a16.567,16.567,0,0,1-1.023,1.385,1.483,1.483,0,0,0-.415,1.211,10.3,10.3,0,0,1,.009,1.176" transform="translate(-128.682 -0.202)"/>
        <path id="Trazado_826264" data-name="Trazado 826264" d="M46.693,237.651c-.274-.006-.548-.016-.823-.016l-31.149.007c-1.036,0-2.079.068-3.106-.031a5.528,5.528,0,0,1-4.77-3.633,4,4,0,0,1-.332-1.81,5.753,5.753,0,0,1,1.019-2.817,5.616,5.616,0,0,1,4.308-2.329,21.456,21.456,0,0,1,2.86,0h0a10.348,10.348,0,0,0,1.621.134l.143,0,.248,0,.034.013.034-.014c.483-.008.966-.025,1.449-.025q12.788,0,25.576,0c.876,0,1.752.01,2.627,0a2.172,2.172,0,0,1,.973.232q3.381,1.633,6.753,3.288c.378.185.757.368,1.126.567a1.245,1.245,0,0,1,.622.869A1.208,1.208,0,0,1,55.3,233.4a16.107,16.107,0,0,1-2.477,1.327c-.53.25-1.039.544-1.563.808a12.13,12.13,0,0,0-1.109.531c-.829.53-1.788.8-2.605,1.347a1.55,1.55,0,0,1-.776.232.062.062,0,0,0-.073,0m-1.84-6.683c.021.034.043.033.065,0,.115-.019.248.039.285-.167.155-.869.04-1.019-.828-1.022-.091,0-.181-.005-.272-.008-.143-.137-.32-.066-.478-.066q-12.989-.006-25.979,0c-.183,0-.366.009-.548.014-.052-.005-.1-.014-.156-.014-1.07,0-.865-.093-.883.9-.005.287.09.383.386.382q7.142-.012,14.283-.006,7.063,0,14.126-.007m-28.761,3.989c.189.16.4.055.606.057.052,0,.1.011.156.011q13.357,0,26.714,0a5.782,5.782,0,0,1,1.118.066c.161.031.472-.019.5-.239a2.389,2.389,0,0,0-.037-1.081c-.062-.176-.455-.038-.7-.063a4.367,4.367,0,0,0-.467-.029H17.275q-.471,0-.942-.005c-.186,0-.287.056-.275.273a7.027,7.027,0,0,0,.034,1.013M13.326,232.4h0c0-.5.009-.994,0-1.491-.01-.388.167-.89-.072-1.135s-.745-.048-1.132-.08a2.536,2.536,0,0,0-2.107.791,2.673,2.673,0,0,0-.828,1.724,2.82,2.82,0,0,0,2.558,2.737c.416.037.834.043,1.25.084.254.025.347-.049.341-.316-.015-.771-.005-1.543-.005-2.315m34.551-1.873a3.291,3.291,0,0,0,.157,1.548.569.569,0,0,1,0,.529,2.3,2.3,0,0,0-.164,1.109c0,.519.085.57.56.331q1.414-.709,2.825-1.424c.108-.055.284-.063.295-.219s-.157-.2-.266-.254c-1.114-.536-2.231-1.063-3.405-1.62" transform="translate(-4.451 -155.476)"/>
        <path id="Trazado_826265" data-name="Trazado 826265" d="M200.907,210.119c-.968-.008-1.935-.012-2.9-.024a1.256,1.256,0,0,1-1.412-1.068,3.41,3.41,0,0,1-.161-1.2c.011-.2-.09-.244-.253-.352-.871-.575-1.531-.217-2.214.36a1.283,1.283,0,0,1-1.955-.1c-.686-.789-1.5-1.453-2.141-2.284a1.238,1.238,0,0,1-.015-1.683c.21-.267.427-.53.646-.789a.347.347,0,0,0,.041-.458c-.131-.22-.221-.464-.33-.7s-.294-.253-.513-.293a3.068,3.068,0,0,1-1.4-.317,1.346,1.346,0,0,1-.672-1.223c.039-.914.045-1.832,0-2.746-.059-1.256.609-1.538,1.461-1.666l.039,0c1.095-.155,1.166-.215,1.476-1.257a.491.491,0,0,0-.117-.468q-.406-.527-.776-1.082a1.043,1.043,0,0,1,.026-1.252,5.9,5.9,0,0,1,.835-.934c.451-.436.908-.867,1.35-1.312a1.391,1.391,0,0,1,1.846-.208,2.061,2.061,0,0,1,.463.36c.354.418.723.332,1.191.186.557-.174.665-.532.695-1.018a1.666,1.666,0,0,1,1.917-1.8q1.158,0,2.315,0a1.63,1.63,0,0,1,1.737,1.743c0,.266-.111.589.137.775a3.1,3.1,0,0,0,1.188.531c.177.039.333-.116.481-.221.276-.2.543-.41.831-.589a1.258,1.258,0,0,1,1.621.14c.733.651,1.439,1.334,2.184,1.971a1.367,1.367,0,0,1,.207,1.822c-.221.338-.47.66-.723.977a.341.341,0,0,0-.039.457,1.959,1.959,0,0,1,.246.685.544.544,0,0,0,.521.42c.369.063.742.1,1.111.158a1.12,1.12,0,0,1,1.029,1.111,30.361,30.361,0,0,1-.018,3.584c.019.5-.408.885-1.023,1.025a9.32,9.32,0,0,1-.991.163c-.221.026-.434-.005-.531.284-.11.328-.223.637.02.949.257.329.518.653.77.985a1.243,1.243,0,0,1-.105,1.726c-.728.733-1.451,1.471-2.191,2.192a1.291,1.291,0,0,1-1.914.152q-.4-.281-.785-.586a.39.39,0,0,0-.355-.12,4.071,4.071,0,0,0-1.145.426c-.266.191-.187.621-.2.947a1.631,1.631,0,0,1-1.012,1.559c-.143.052-.284.015-.417.065a.063.063,0,0,0-.073,0m-7.836-18.167a.943.943,0,0,0-.15.03c-.309.114-.344.343-.1.651.944,1.2.954,1.494.166,2.742a2.777,2.777,0,0,0-.4,1,1.651,1.651,0,0,1-1.58,1.559,5.648,5.648,0,0,1-.614.086c-.19.011-.235.105-.247.276-.04.581.1.806.751.8a1.562,1.562,0,0,1,1.659,1.307,6.486,6.486,0,0,0,.745,1.628,1.4,1.4,0,0,1-.04,1.653c-.151.213-.315.417-.484.616-.072.084-.136.153-.091.273a.65.65,0,0,0,.934.323c.324-.2.642-.4.978-.576a1.022,1.022,0,0,1,.9,0,21.711,21.711,0,0,0,2.36.985,1.147,1.147,0,0,1,.875.9c.083.352.147.706.215,1.06.025.128.05.215.2.246.457.1.671-.032.766-.476.022-.1.032-.207.062-.306.163-.53.275-1.128.881-1.328a21.3,21.3,0,0,0,2.548-1.1,1.055,1.055,0,0,1,.873,0,4.264,4.264,0,0,1,1.026.641.452.452,0,0,0,.685-.04c.4-.41.416-.4.077-.854-.117-.157-.236-.313-.344-.476a1.536,1.536,0,0,1-.326-1.1,12.788,12.788,0,0,1,.748-2.41,1.364,1.364,0,0,1,1.333-.956c.774-.038.868-.168.817-.843-.012-.162-.065-.26-.224-.249a3.408,3.408,0,0,1-.837-.162,1.306,1.306,0,0,1-1.085-.959,9.227,9.227,0,0,0-1.007-2.3.863.863,0,0,1-.032-.908,7.561,7.561,0,0,1,.64-.982c.129-.181.2-.378,0-.557s-.375-.387-.673-.176c-.245.174-.5.336-.745.508a1.305,1.305,0,0,1-1.583.046,3.31,3.31,0,0,0-1.213-.6,2.028,2.028,0,0,1-1.915-1.936c-.067-.586-.179-.594-.786-.535-.156.015-.186.071-.2.213a5.191,5.191,0,0,1-.272,1.133,1.234,1.234,0,0,1-.944.874,5.91,5.91,0,0,0-2.055.914,1.089,1.089,0,0,1-.594.17,1.781,1.781,0,0,1-1.217-.551c-.14-.108-.255-.276-.473-.252" transform="translate(-128.522 -127.946)"/>
        <path id="Trazado_826266" data-name="Trazado 826266" d="M144.919,222.292c.1-.166.243-.114.383-.094-.1.134-.205.266-.383.094" transform="translate(-99.268 -152.187)" fill="#29aaf4"/>
        <path id="Trazado_826267" data-name="Trazado 826267" d="M37.821,227.457l-.143,0a.08.08,0,0,1,.143,0" transform="translate(-25.809 -155.775)" fill="#d6e7ff"/>
        <path id="Trazado_826268" data-name="Trazado 826268" d="M229.787,260.829a.062.062,0,0,1,.073,0c-.023.036-.047.04-.073,0" transform="translate(-157.402 -178.657)" fill="#d6e7ff"/>
        <path id="Trazado_826269" data-name="Trazado 826269" d="M159.632,200.141l-.015-.01.016-.006.013.009Z" transform="translate(-109.336 -137.084)" fill="#29aaf4"/>
        <path id="Trazado_826270" data-name="Trazado 826270" d="M32.532,227.088h0v-.016Z" transform="translate(-22.284 -155.542)" fill="#29aaf4"/>
        <path id="Trazado_826271" data-name="Trazado 826271" d="M38.986,227.5l-.034.014-.034-.013c.022-.035.045-.036.068,0" transform="translate(-26.658 -155.821)" fill="#d6e7ff"/>
        <path id="Trazado_826272" data-name="Trazado 826272" d="M134.1,260.836a.063.063,0,0,1,.073,0c-.023.037-.047.039-.073,0" transform="translate(-91.857 -178.661)" fill="#d6e7ff"/>
        <path id="Trazado_826273" data-name="Trazado 826273" d="M69.573,47.738l-.388.027-.158.056c-.266.072-.529.156-.8.215a1.327,1.327,0,0,0-1.02.984c-.1.088-.064.205-.068.314,0,.785.018,1.57,0,2.354A1.545,1.545,0,0,0,68.8,53.422c.246.017.574-.035.725.168a3.213,3.213,0,0,1,.434.945c.058.182-.143.323-.248.466a7.79,7.79,0,0,0-.569.72,1.176,1.176,0,0,0,.152,1.528c.736.793,1.5,1.563,2.261,2.331a1.234,1.234,0,0,0,1.48.073c.245-.149.479-.317.711-.487a1.4,1.4,0,0,1,1.512.169c.083.1.038.226.053.34a2.1,2.1,0,0,0,.88,1.807c.054.032.092.08.166.085.488.035.554.338.531.761a16.977,16.977,0,0,0,0,1.843,2.172,2.172,0,0,1-1.951,1.963q-20.679-.014-41.358-.015a1.86,1.86,0,0,1-1.364-.791l-.058-.06a3.73,3.73,0,0,1-.266-1.791q0-18.365,0-36.729,0-8.162.009-16.324A1.788,1.788,0,0,1,33.662,8.6c.458,0,.916,0,1.373,0q13.911,0,27.822-.014c.348,0,.456.072.453.445-.02,2.851-.063,5.7,0,8.553a4.511,4.511,0,0,0,3.249,4.255,4.821,4.821,0,0,0,1.489.189c2.8-.012,5.6,0,8.4-.012.318,0,.438.04.437.411q-.022,8.456-.007,16.912c0,.251.008.407-.344.45a1.481,1.481,0,0,0-1.14,1.44,5.078,5.078,0,0,1-.09.726c-.027.167-.214.122-.3.2-.594.535-1.053.2-1.547-.184-.917-.71-1.456-.656-2.276.174-.625.633-1.271,1.246-1.863,1.908a1.07,1.07,0,0,0-.1,1.564c.112.183.241.356.359.536.185.282.438.529.189.931a1.816,1.816,0,0,0-.134.561l-.057.1m-5.131,4.905-.16.019c-.118-.006-.235-.016-.353-.016q-6.219,0-12.438.007a10.08,10.08,0,0,0-1.018.05,1.4,1.4,0,0,0-1.228,1.35,1.435,1.435,0,0,0,1.37,1.242q6.926,0,13.851,0l.16-.058a1.3,1.3,0,0,0,.944-1.428c-.016-.529-.356-.9-1.023-1.124l-.106-.044m3.4,9.338A1.381,1.381,0,0,0,68.862,60.1l-.064-.095a1.375,1.375,0,0,0-1.323-.639c-.808.05-1.621.021-2.432.007a1.187,1.187,0,0,0-1.024.429,1.3,1.3,0,0,0,.88,2.16c.956.014,1.913.016,2.869.023.029.038.054.032.078-.006m-15.308-46.8c.091,0,.183-.008.274-.008,2.183,0,4.367.009,6.55.009.961,0,1.407-.311,1.612-1.1a1.171,1.171,0,0,0-1.03-1.486c-.454-.04-.914-.033-1.371-.034q-3.589-.006-7.177-.005a.086.086,0,0,0-.063-.139c-.079,0-.123.077-.148.153l-.14-.007c-.028-.033-.053-.027-.074.008a2.078,2.078,0,0,0-.7.318,1.241,1.241,0,0,0-.42,1.285c.3.7.526,1.015,1.441.959.021.036.044.039.07,0a.9.9,0,0,1,.406.019l.028.021.031-.017.268.008.449.011M46.645,12.6l-.737-.026c.008-.023.041-.05-.011-.063,0,.021.005.042.007.063q-4.412-.01-8.825-.019c-.457,0-.914.012-1.372.019l0-.015-.006.014-.2,0c-.055-.06-.105-.055-.152.01-.859.189-1.243.626-1.185,1.376.061.79.54,1.234,1.517,1.223,3.519-.037,7.039.083,10.558-.059a1.411,1.411,0,0,0,1.325-.772,1.177,1.177,0,0,0-.2-1.292A.1.1,0,0,0,47.328,13l-.52-.337a.167.167,0,0,0-.163-.06M61.49,26.166c-.147.107-.3.2-.44.324a1.143,1.143,0,0,0-.26,1.359,1.228,1.228,0,0,0,1.231.776c3.672-.033,7.344-.016,11.016-.016.144,0,.288,0,.431,0a1.325,1.325,0,0,0,1.062-1.528A1.3,1.3,0,0,0,73.2,26.053c-.469-.031-.941-.02-1.411-.015-3.394.031-6.788-.109-10.181.075l-.12.054m-1.882-6.993c-.091,0-.183.012-.274.012l-13.572,0c-.405,0-.811,0-1.216.01a1.216,1.216,0,0,0-1.03,1.044c-.1,1.21.482,1.573,1.519,1.588.078,0,.157,0,.235,0l12.317-.007c.732,0,1.464.008,2.2,0a1.083,1.083,0,0,0,.857-.309A1.427,1.427,0,0,0,60.932,20a1.4,1.4,0,0,0-1.1-.822.139.139,0,0,0-.228,0m-1.73,7.475a1.638,1.638,0,0,0-.783-.523c-.247-.083-.521,0-.747-.157a.129.129,0,0,0-.162.005c-.148.126-.327.066-.49.066q-9.378,0-18.757-.011a11.25,11.25,0,0,0-1.637.061,1.177,1.177,0,0,0-1.123.962,1.211,1.211,0,0,0,1.2,1.554q10.752.009,21.5,0a1.184,1.184,0,0,0,1.078-.992,6.233,6.233,0,0,0,0-.826.154.154,0,0,0-.083-.141m1.807,35.344c.026.038.05.035.074,0a1.279,1.279,0,0,0,1.255-1.159,1.263,1.263,0,0,0-1.2-1.471c-7.649.031-15.3.018-22.947.018-.536,0-1.074-.023-1.608.008a1.169,1.169,0,0,0-1.006.81,1.085,1.085,0,0,0,.133,1.165,1.82,1.82,0,0,0,1.608.617q11.238-.009,22.476,0c.405,0,.81.01,1.215.015m1.448-13.352v.017l0-.017a3.385,3.385,0,0,0,.617-.076,1.242,1.242,0,0,0,.991-1.308,1.191,1.191,0,0,0-.9-1.137,3.681,3.681,0,0,0-1-.1l-23.191-.006c-.654,0-1.308.014-1.962.015a2.035,2.035,0,0,0-.725.144,1.2,1.2,0,0,0-.8,1.281,1.228,1.228,0,0,0,.9,1.094,5.6,5.6,0,0,0,1.442.111q9.2,0,18.391,0c2.078,0,4.156-.013,6.234-.019m2.125-15.949q-5,0-10,0a1.545,1.545,0,0,0-1.315.949,1.429,1.429,0,0,0,.49,1.4,1.8,1.8,0,0,0,1.29.292q9.689.008,19.379,0a2.745,2.745,0,0,0,.545-.049,1.283,1.283,0,0,0,.9-1.5,1.364,1.364,0,0,0-1.443-1.089H63.259M40.648,55.3v0H42.14c1.243,0,2.485.009,3.728,0a1.364,1.364,0,0,0,1.415-1.138,1.31,1.31,0,0,0-1.3-1.475,5.216,5.216,0,0,0-.587-.03q-4.474,0-8.947,0c-.379,0-.758.026-1.136.052a1.388,1.388,0,0,0-1.149,1.478A1.438,1.438,0,0,0,35.468,55.3h5.18M53.036,39.363v.008c-1.425,0-2.851-.011-4.276.007a1.555,1.555,0,0,0-1.133.314,1.312,1.312,0,0,0-.393,1.382,1.517,1.517,0,0,0,1.314.957q4.276.006,8.552,0a1.837,1.837,0,0,0,1.162-.384,1.346,1.346,0,0,0-.061-2.07,1.663,1.663,0,0,0-.966-.212c-1.4-.008-2.8,0-4.2,0m-13.937,0v.01c-1.137,0-2.273-.01-3.41.005a1.422,1.422,0,0,0-1.179.413,1.231,1.231,0,0,0-.283,1.3,1.39,1.39,0,0,0,1.323.93c2.273.018,4.547.01,6.82.007a1.744,1.744,0,0,0,1.151-.405,1.343,1.343,0,0,0-.154-2.081,1.816,1.816,0,0,0-.9-.18q-1.685,0-3.371,0m25.884,0v0c-.888,0-1.777-.018-2.665.009a1.548,1.548,0,0,0-1.13.29,1.242,1.242,0,0,0-.467,1.251,1.392,1.392,0,0,0,1.054,1.05,7.261,7.261,0,0,0,1.551.064c1.372.011,2.744.015,4.116,0a1.438,1.438,0,0,0,1.5-1.413c-.016-.77-.611-1.253-1.532-1.25-.81,0-1.62,0-2.43,0M37.444,21.837v-.013c.327,0,.653,0,.979,0s.679.016,1.018.01a3.321,3.321,0,0,0,.66-.057.986.986,0,0,0,.8-.77A1.393,1.393,0,0,0,39.75,19.2q-2.212-.049-4.426,0a1.321,1.321,0,0,0-1.04,1.88c.213.335.44.727.9.746.753.031,1.509.008,2.263.008m7.891,13.51v-.041c.732,0,1.466.033,2.2-.009a1.3,1.3,0,0,0-.127-2.6c-1.321-.021-2.643-.012-3.964,0a1.458,1.458,0,0,0-1.412,1.387,1.4,1.4,0,0,0,1.384,1.262c.641.012,1.282,0,1.923,0m-8.457-2.654c-.484,0-.967,0-1.451,0a1.457,1.457,0,0,0-1.26,1.12,1.347,1.347,0,0,0,1.1,1.476,21.89,21.89,0,0,0,3.093.02c.685-.027,1.217-.555,1.152-1.508a1.3,1.3,0,0,0-1.3-1.109c-.444,0-.889,0-1.333,0" transform="translate(-21.839 -5.879)" fill="#fefeff"/>
        <path id="Trazado_826274" data-name="Trazado 826274" d="M8.321,61.04q0-13.224,0-26.448a4.578,4.578,0,0,1,.047-1.339A2.289,2.289,0,0,1,9,32.155a1.706,1.706,0,0,1,1.057-.351c.9-.031,1.8-.009,2.707-.017.174,0,.233.064.224.23s0,.314,0,.471q0,23.858,0,47.717a4.431,4.431,0,0,0,1.61,3.418,4.186,4.186,0,0,0,2.84,1.087q17.678-.035,35.357-.025c.415,0,.5.118.484.5-.042.869,0,1.741-.086,2.61a1.726,1.726,0,0,1-1.329,1.367,6.545,6.545,0,0,1-1.473.081l-34.021-.013c-1.988,0-3.975.013-5.962.013a1.894,1.894,0,0,1-2.074-1.955c.008-.34-.007-.68-.007-1.02q0-12.616,0-25.232Z" transform="translate(-5.678 -21.774)" fill="#d6e7ff"/>
        <path id="Trazado_826275" data-name="Trazado 826275" d="M166.811,118.555a.992.992,0,0,1-.068.143,1.213,1.213,0,0,1-.126.15,1.736,1.736,0,0,0-.221,2.272,5.011,5.011,0,0,1,.487,1.19,1.606,1.606,0,0,0,1.642,1.432c.245.03.515.033.488.41-.011.154-.054.247-.21.276-.229.043-.455.1-.685.131a1.254,1.254,0,0,0-1.108.873,21.19,21.19,0,0,1-.849,2.185,1.353,1.353,0,0,0,.2,1.381,3.3,3.3,0,0,0,.3.414.388.388,0,0,1-.037.611.416.416,0,0,1-.618.031,6.844,6.844,0,0,0-.648-.439,1.136,1.136,0,0,0-1.157-.057,10.216,10.216,0,0,1-2.034.8,1.28,1.28,0,0,0-.976.97c-.074.277-.17.548-.259.821-.05.153-.116.321-.306.3s-.243-.19-.282-.341c-.053-.2-.083-.409-.117-.615A1.405,1.405,0,0,0,159,130.3a4.955,4.955,0,0,1-1.7-.658,1.187,1.187,0,0,0-1.349.023,5.413,5.413,0,0,0-.546.381c-.272.228-.48.152-.7-.078s-.128-.417.038-.613a1.824,1.824,0,0,0,.219-2.266,5.359,5.359,0,0,1-.527-1.428,1.337,1.337,0,0,0-1.249-1.1,3.317,3.317,0,0,1-.634-.176.308.308,0,0,1-.227-.33c.015-.152.132-.215.267-.245.267-.058.541-.1.8-.175a1.37,1.37,0,0,0,1.038-1.154,4.8,4.8,0,0,1,.654-1.7,1.314,1.314,0,0,0-.081-1.637c-.091-.111-.157-.244-.255-.347-.208-.216-.237-.4.006-.624a.43.43,0,0,1,.677.014,1.682,1.682,0,0,0,2.153.251,6.563,6.563,0,0,1,1.608-.6,1.322,1.322,0,0,0,1.052-1.212c.026-.194.066-.386.087-.58a.244.244,0,0,1,.258-.238c.155-.013.284.01.339.187.1.336.219.668.317,1.006a1.058,1.058,0,0,0,.784.79,7.558,7.558,0,0,1,2.116.789,1.14,1.14,0,0,0,1.23-.023c.214-.125.414-.274.629-.4a.537.537,0,0,1,.812.4m-6.206,9.825a4.248,4.248,0,0,0,4.388-4.225,4.2,4.2,0,0,0-3.987-4.3,4.269,4.269,0,1,0-.4,8.523" transform="translate(-104.334 -79.319)" fill="#fdc208"/>
        <path id="Trazado_826276" data-name="Trazado 826276" d="M148.838,23.214c-2.342,0-4.63,0-6.919,0a2.094,2.094,0,0,1-2.042-1.851,3.377,3.377,0,0,1-.022-.352q-.015-3.256-.027-6.512c0-.116,0-.231,0-.386a1.231,1.231,0,0,1,.587.4c1.79,1.851,3.56,3.721,5.369,5.553.9.912,1.756,1.869,2.723,2.713a1.172,1.172,0,0,1,.33.433" transform="translate(-95.781 -9.666)" fill="#d6e7ff"/>
        <path id="Trazado_826277" data-name="Trazado 826277" d="M143.8,137.271c0-.109-.033-.226.068-.314a.4.4,0,0,1-.068.314" transform="translate(-98.502 -93.814)" fill="#f8f9fb"/>
        <path id="Trazado_826278" data-name="Trazado 826278" d="M149.8,133.025l.158-.056c-.033.076-.095.068-.158.056" transform="translate(-102.61 -91.083)" fill="#f8f9fb"/>
        <path id="Trazado_826279" data-name="Trazado 826279" d="M32.72,188.536l.058.06c-.053.013-.074-.006-.058-.06" transform="translate(-22.409 -129.145)" fill="#f8f9fb"/>
        <path id="Trazado_826280" data-name="Trazado 826280" d="M151.532,132.667l.057-.1c.02.056.021.1-.057.1" transform="translate(-103.798 -90.807)" fill="#f8f9fb"/>
        <path id="Trazado_826281" data-name="Trazado 826281" d="M205.445,8.563a8.611,8.611,0,0,1,6.536,2.729,8.86,8.86,0,0,1,2.44,5.4A8.775,8.775,0,0,1,211,24.649a8.439,8.439,0,0,1-4.116,1.783c-.258.045-.329-.053-.328-.284,0-.588.012-1.177,0-1.766-.005-.224.1-.292.29-.34a6.655,6.655,0,0,0,4.827-4.45,6.12,6.12,0,0,0,.227-3.036,6.45,6.45,0,0,0-3.772-5.09,6.726,6.726,0,0,0-9.16,3.694,6.476,6.476,0,0,0-.261,3.963,6.619,6.619,0,0,0,3.585,4.432,5.787,5.787,0,0,0,1.359.494.358.358,0,0,1,.335.427c-.026.509-.032,1.021-.011,1.53.013.312-.105.354-.37.289a9.85,9.85,0,0,1-3.529-1.64,9.184,9.184,0,0,1-3.2-4.168,7.581,7.581,0,0,1-.463-3.685,9.69,9.69,0,0,1,1.779-4.663,8.97,8.97,0,0,1,7.249-3.576" transform="translate(-134.505 -5.862)" fill="#f8e1c3"/>
        <path id="Trazado_826282" data-name="Trazado 826282" d="M219.239,94.287a10.3,10.3,0,0,0-.009-1.176,1.483,1.483,0,0,1,.415-1.211,16.567,16.567,0,0,0,1.023-1.385c.244-.345.313-.324.553.015a10.578,10.578,0,0,0,.966,1.281,2.27,2.27,0,0,1,.568,1.639c.021.823.01,1.647.009,2.47,0,.083.041.2-.065.241a.271.271,0,0,1-.289-.064c-.129-.11-.265-.212-.4-.314a1.626,1.626,0,0,0-2.124-.035c-.188.128-.384.424-.577.328s-.057-.426-.066-.651c-.016-.378,0-.758,0-1.137Z" transform="translate(-150.15 -61.831)" fill="#fdc208"/>
        <path id="Trazado_826283" data-name="Trazado 826283" d="M36.88,249.515a6.982,6.982,0,0,1-.034-1.013c-.013-.217.089-.275.275-.273q.471,0,.941.005H64.776a4.461,4.461,0,0,1,.467.029c.242.026.634-.113.7.064a2.385,2.385,0,0,1,.037,1.081c-.031.22-.341.27-.5.239a5.778,5.778,0,0,0-1.118-.066q-13.357,0-26.713,0c-.052,0-.1-.007-.156-.011-.193-.113-.4-.029-.606-.057" transform="translate(-25.238 -170.035)" fill="#fefeff"/>
        <path id="Trazado_826284" data-name="Trazado 826284" d="M64.881,235.694c.091,0,.181.008.272.008.868,0,.983.153.828,1.022-.037.206-.169.148-.284.168a.047.047,0,0,0-.065,0q-7.063,0-14.126.007-7.142,0-14.283.005c-.3,0-.391-.1-.386-.382.018-.989-.186-.9.883-.9.052,0,.1.009.156.014.113.361.416.3.682.3q12.85,0,25.7,0a2.6,2.6,0,0,0,.314-.005c.146-.018.287-.056.312-.239" transform="translate(-25.229 -161.399)" fill="#fefeff"/>
        <path id="Trazado_826285" data-name="Trazado 826285" d="M19.156,238.209c0,.771-.01,1.543.005,2.315.005.266-.087.341-.341.316-.415-.041-.834-.046-1.25-.084a2.82,2.82,0,0,1-2.558-2.737,2.673,2.673,0,0,1,.828-1.725,2.536,2.536,0,0,1,2.107-.79c.387.032.891-.167,1.132.08s.062.746.072,1.135c.012.5,0,.994,0,1.491Z" transform="translate(-10.28 -161.286)" fill="#f8e1c3"/>
        <path id="Trazado_826286" data-name="Trazado 826286" d="M67.151,235.665c-.025.183-.165.221-.312.239a2.6,2.6,0,0,1-.314.005q-12.849,0-25.7,0c-.266,0-.569.063-.682-.3.183-.005.366-.014.548-.014q12.99,0,25.979,0c.158,0,.335-.07.478.066" transform="translate(-27.499 -161.371)" fill="#f8f9fb"/>
        <path id="Trazado_826287" data-name="Trazado 826287" d="M137.824,238.247c1.174.557,2.292,1.084,3.405,1.62.109.052.277.093.266.254s-.186.164-.295.219q-1.41.719-2.825,1.424c-.475.238-.556.188-.56-.331a2.3,2.3,0,0,1,.164-1.109.569.569,0,0,0,0-.529,3.291,3.291,0,0,1-.157-1.548" transform="translate(-94.398 -163.197)" fill="#f8e1c3"/>
        <path id="Trazado_826288" data-name="Trazado 826288" d="M36.958,252.3c.2.028.413-.056.606.057-.2,0-.417.1-.606-.057" transform="translate(-25.316 -172.823)" fill="#d6e7ff"/>
        <path id="Trazado_826289" data-name="Trazado 826289" d="M128.259,239.622a.047.047,0,0,1,.065,0c-.022.033-.044.034-.065,0" transform="translate(-87.856 -164.13)" fill="#29aaf4"/>
        <path id="Trazado_826290" data-name="Trazado 826290" d="M198.541,197.7c.218-.024.333.144.473.252a1.78,1.78,0,0,0,1.217.551,1.088,1.088,0,0,0,.595-.17,5.906,5.906,0,0,1,2.055-.914,1.234,1.234,0,0,0,.944-.874,5.192,5.192,0,0,0,.272-1.133c.013-.142.043-.2.2-.214.607-.059.719-.051.786.535A2.028,2.028,0,0,0,207,197.665a3.313,3.313,0,0,1,1.213.6,1.3,1.3,0,0,0,1.583-.046c.246-.172.5-.335.745-.508.3-.211.482.005.673.176s.131.375,0,.557a7.532,7.532,0,0,0-.64.982.862.862,0,0,0,.032.908,9.227,9.227,0,0,1,1.006,2.3,1.306,1.306,0,0,0,1.085.959,3.422,3.422,0,0,0,.837.162c.159-.011.212.088.224.249.051.675-.043.8-.817.843a1.365,1.365,0,0,0-1.333.956,12.788,12.788,0,0,0-.748,2.41,1.535,1.535,0,0,0,.327,1.1c.108.163.227.319.344.476.339.457.326.444-.077.854a.452.452,0,0,1-.685.04,4.254,4.254,0,0,0-1.026-.641,1.053,1.053,0,0,0-.873,0,21.323,21.323,0,0,1-2.548,1.1c-.607.2-.718.8-.881,1.328-.031.1-.04.2-.062.306-.1.444-.309.572-.766.476-.146-.031-.172-.117-.2-.246-.068-.354-.132-.708-.214-1.06a1.148,1.148,0,0,0-.876-.9,21.741,21.741,0,0,1-2.36-.985,1.021,1.021,0,0,0-.9,0c-.337.172-.655.38-.979.576a.65.65,0,0,1-.934-.323c-.045-.121.02-.189.091-.273.169-.2.333-.4.484-.616a1.4,1.4,0,0,0,.04-1.653,6.461,6.461,0,0,1-.745-1.629,1.562,1.562,0,0,0-1.659-1.307c-.649.01-.791-.215-.751-.8.012-.17.057-.265.247-.276a5.652,5.652,0,0,0,.614-.086,1.651,1.651,0,0,0,1.58-1.559,2.775,2.775,0,0,1,.4-1c.788-1.248.778-1.538-.166-2.742-.242-.308-.206-.538.1-.651a.942.942,0,0,1,.15-.03m10.581,6.4c.234-2.18-1.885-4.32-4.372-4.328a4.461,4.461,0,0,0-.018,8.922,4.368,4.368,0,0,0,4.39-4.594" transform="translate(-133.992 -133.69)" fill="#fdc208"/>
        <path id="Trazado_826291" data-name="Trazado 826291" d="M66.091,130.037c-2.078.007-4.156.019-6.234.019q-9.2,0-18.391,0a5.581,5.581,0,0,1-1.442-.11,1.228,1.228,0,0,1-.9-1.094,1.2,1.2,0,0,1,.8-1.281,2.035,2.035,0,0,1,.725-.144c.654,0,1.308-.015,1.962-.015l23.191.006a3.666,3.666,0,0,1,1,.1,1.191,1.191,0,0,1,.9,1.137,1.241,1.241,0,0,1-.991,1.308,3.407,3.407,0,0,1-.617.076h0" transform="translate(-26.797 -87.275)"/>
        <path id="Trazado_826292" data-name="Trazado 826292" d="M64.6,172.414c-.405-.005-.81-.016-1.215-.016q-11.238,0-22.476,0a1.821,1.821,0,0,1-1.608-.617,1.086,1.086,0,0,1-.133-1.165,1.169,1.169,0,0,1,1.006-.81c.534-.032,1.072-.009,1.608-.009,7.649,0,15.3.013,22.947-.018a1.263,1.263,0,0,1,1.2,1.471,1.278,1.278,0,0,1-1.255,1.159.061.061,0,0,0-.074,0" transform="translate(-26.755 -116.299)"/>
        <path id="Trazado_826293" data-name="Trazado 826293" d="M61.261,63.775c.226.154.5.074.747.157a1.637,1.637,0,0,1,.783.524l.083.141a6.181,6.181,0,0,1,0,.827,1.185,1.185,0,0,1-1.078.992q-10.752,0-21.5,0a1.212,1.212,0,0,1-1.2-1.554,1.177,1.177,0,0,1,1.123-.962,11.291,11.291,0,0,1,1.637-.061q9.378,0,18.756.011c.163,0,.341.06.489-.065-.013.084.036.1.1.091s.072-.046.06-.1" transform="translate(-26.752 -43.685)"/>
        <path id="Trazado_826294" data-name="Trazado 826294" d="M106.773,85.121h9.846a1.364,1.364,0,0,1,1.443,1.089,1.283,1.283,0,0,1-.9,1.5,2.745,2.745,0,0,1-.545.048q-9.689.007-19.379,0a1.8,1.8,0,0,1-1.29-.292,1.43,1.43,0,0,1-.49-1.4,1.545,1.545,0,0,1,1.315-.949q5,0,10,0" transform="translate(-65.353 -58.307)"/>
        <path id="Trazado_826295" data-name="Trazado 826295" d="M85.11,42.207a1.4,1.4,0,0,1,1.1.822,1.427,1.427,0,0,1-.29,1.515,1.082,1.082,0,0,1-.857.309c-.732.01-1.464,0-2.2,0l-12.317.007c-.078,0-.157,0-.235,0-1.037-.015-1.621-.377-1.519-1.588a1.215,1.215,0,0,1,1.03-1.044c.4-.013.811-.01,1.216-.01l13.572,0c.091,0,.183-.008.274-.012h.229" transform="translate(-47.113 -28.911)"/>
        <path id="Trazado_826296" data-name="Trazado 826296" d="M102.22,151.115q-6.925,0-13.85,0A1.436,1.436,0,0,1,87,149.871a1.4,1.4,0,0,1,1.228-1.35c.338-.034.679-.049,1.018-.05q6.219-.008,12.438-.007c.118,0,.235.011.352.016.042.06.1.032.153.026l.112,0c.667.222,1.006.6,1.023,1.124a1.3,1.3,0,0,1-.943,1.428c-.065-.012-.128-.02-.16.058" transform="translate(-59.594 -101.697)"/>
        <path id="Trazado_826297" data-name="Trazado 826297" d="M124.2,64.023c3.392-.184,6.787-.044,10.181-.075.47,0,.942-.015,1.411.015a1.305,1.305,0,0,1,1.33,1.026,1.325,1.325,0,0,1-1.062,1.528c-.144,0-.288,0-.431,0-3.672,0-7.345-.017-11.017.016a1.228,1.228,0,0,1-1.23-.776,1.144,1.144,0,0,1,.26-1.36c.136-.12.292-.217.439-.324l.12-.054" transform="translate(-84.432 -43.789)"/>
        <path id="Trazado_826298" data-name="Trazado 826298" d="M40.661,21.218c.457-.007.914-.02,1.372-.019q4.413.007,8.825.019h0l.737.026.163.061.52.337a.055.055,0,0,0,.035.058,1.177,1.177,0,0,1,.2,1.292,1.411,1.411,0,0,1-1.325.772c-3.519.141-7.039.022-10.558.059-.977.011-1.457-.433-1.517-1.223-.058-.75.326-1.187,1.185-1.375l.152-.01.2,0h.009" transform="translate(-26.792 -14.521)"/>
        <path id="Trazado_826299" data-name="Trazado 826299" d="M45.576,151.125H40.4a1.438,1.438,0,0,1-1.308-1.112,1.387,1.387,0,0,1,1.149-1.478c.378-.026.757-.052,1.136-.052q4.474-.007,8.947,0a5.294,5.294,0,0,1,.587.029,1.31,1.31,0,0,1,1.3,1.475,1.365,1.365,0,0,1-1.415,1.138c-1.242.013-2.485,0-3.728,0H45.576Z" transform="translate(-26.766 -101.707)"/>
        <path id="Trazado_826300" data-name="Trazado 826300" d="M86.292,106.293c1.4,0,2.8,0,4.2,0a1.66,1.66,0,0,1,.966.211,1.346,1.346,0,0,1,.061,2.07,1.834,1.834,0,0,1-1.162.384q-4.276,0-8.552,0A1.517,1.517,0,0,1,80.49,108a1.312,1.312,0,0,1,.393-1.382,1.555,1.555,0,0,1,1.133-.314c1.425-.019,2.851-.007,4.276-.007v-.008" transform="translate(-55.095 -72.809)"/>
        <path id="Trazado_826301" data-name="Trazado 826301" d="M91.038,23.837l-.268-.008-.028-.02-.031.016a.9.9,0,0,0-.406-.019.049.049,0,0,0-.07,0c-.914.055-1.141-.263-1.441-.96a1.241,1.241,0,0,1,.42-1.285,2.086,2.086,0,0,1,.7-.317l.038.008.036-.015.139.007.212-.014q3.589,0,7.178.005c.457,0,.916-.007,1.371.034a1.171,1.171,0,0,1,1.03,1.486c-.205.787-.65,1.1-1.612,1.1-2.183,0-4.367-.006-6.55-.009-.091,0-.182,0-.274.007a.833.833,0,0,0-.448-.01" transform="translate(-60.787 -14.54)"/>
        <path id="Trazado_826302" data-name="Trazado 826302" d="M44.016,106.3q1.685,0,3.371,0a1.817,1.817,0,0,1,.9.18,1.343,1.343,0,0,1,.154,2.08,1.745,1.745,0,0,1-1.151.405c-2.273,0-4.547.012-6.82-.006a1.391,1.391,0,0,1-1.323-.93,1.232,1.232,0,0,1,.283-1.3,1.422,1.422,0,0,1,1.179-.413c1.137-.014,2.273-.005,3.41-.005Z" transform="translate(-26.756 -72.815)"/>
        <path id="Trazado_826303" data-name="Trazado 826303" d="M127.6,106.295c.81,0,1.62,0,2.43,0,.92,0,1.516.48,1.532,1.25a1.438,1.438,0,0,1-1.5,1.414c-1.372.02-2.744.016-4.116,0a7.28,7.28,0,0,1-1.551-.064,1.39,1.39,0,0,1-1.054-1.05,1.242,1.242,0,0,1,.467-1.251,1.549,1.549,0,0,1,1.13-.291c.888-.027,1.777-.009,2.665-.009Z" transform="translate(-84.457 -72.809)"/>
        <path id="Trazado_826304" data-name="Trazado 826304" d="M42.344,44.879c-.754,0-1.51.023-2.263-.009-.457-.019-.684-.411-.9-.746a1.321,1.321,0,0,1,1.04-1.879q2.212-.049,4.426,0a1.393,1.393,0,0,1,1.157,1.807.986.986,0,0,1-.8.77,3.324,3.324,0,0,1-.661.057c-.339.006-.679-.008-1.018-.01s-.653,0-.979,0v.013" transform="translate(-26.739 -28.92)"/>
        <path id="Trazado_826305" data-name="Trazado 826305" d="M67.4,87.761c-.641,0-1.282.01-1.923,0A1.4,1.4,0,0,1,64.09,86.5,1.458,1.458,0,0,1,65.5,85.109c1.321-.008,2.643-.017,3.964,0a1.3,1.3,0,0,1,.127,2.6c-.73.043-1.464.01-2.2.01Z" transform="translate(-43.901 -58.293)"/>
        <path id="Trazado_826306" data-name="Trazado 826306" d="M41.839,85.119c.444,0,.889,0,1.333,0a1.3,1.3,0,0,1,1.3,1.109c.065.953-.467,1.481-1.152,1.508a21.937,21.937,0,0,1-3.093-.02,1.348,1.348,0,0,1-1.1-1.477,1.457,1.457,0,0,1,1.26-1.12c.484,0,.967,0,1.451,0" transform="translate(-26.801 -58.305)"/>
        <path id="Trazado_826307" data-name="Trazado 826307" d="M137.988,170.527a1.381,1.381,0,0,1-1.015,1.881l-.078.005c-.956-.007-1.913-.008-2.869-.023a1.3,1.3,0,0,1-.88-2.16,1.188,1.188,0,0,1,1.024-.429c.811.014,1.624.043,2.431-.007a1.375,1.375,0,0,1,1.323.639l.064.094" transform="translate(-90.965 -116.304)"/>
        <path id="Trazado_826308" data-name="Trazado 826308" d="M93.369,20.923l-.212.014c.026-.076.07-.153.149-.153a.086.086,0,0,1,.063.139" transform="translate(-63.812 -14.237)" fill="#29aaf4"/>
        <path id="Trazado_826309" data-name="Trazado 826309" d="M109.193,63.718c.012.052,0,.091-.06.1s-.115-.007-.1-.091a.128.128,0,0,1,.163-.006" transform="translate(-74.683 -43.629)" fill="#29aaf4"/>
        <path id="Trazado_826310" data-name="Trazado 826310" d="M96.034,29.456a.833.833,0,0,1,.448.01l-.448-.01" transform="translate(-65.782 -20.159)" fill="#d6e7ff"/>
        <path id="Trazado_826311" data-name="Trazado 826311" d="M134.886,148.5c-.054.006-.112.033-.153-.026l.161-.019a.066.066,0,0,1-.007.045" transform="translate(-92.291 -101.691)" fill="#29aaf4"/>
        <path id="Trazado_826312" data-name="Trazado 826312" d="M120.127,42.079H119.9a.14.14,0,0,1,.229,0" transform="translate(-82.129 -28.783)" fill="#d6e7ff"/>
        <path id="Trazado_826313" data-name="Trazado 826313" d="M114.49,66.075l-.083-.141a.153.153,0,0,1,.083.141" transform="translate(-78.368 -45.164)" fill="#f8f9fb"/>
        <path id="Trazado_826314" data-name="Trazado 826314" d="M76.383,21.123h0c0-.021,0-.042-.007-.063.051.013.019.04.011.063" transform="translate(-52.314 -14.426)" fill="#29aaf4"/>
        <path id="Trazado_826315" data-name="Trazado 826315" d="M43.045,21.153l-.152.01c.046-.065.1-.07.152-.01" transform="translate(-29.381 -14.461)" fill="#f8f9fb"/>
        <path id="Trazado_826316" data-name="Trazado 826316" d="M78.909,21.4l-.163-.06a.167.167,0,0,1,.163.06" transform="translate(-53.94 -14.616)" fill="#f8f9fb"/>
        <path id="Trazado_826317" data-name="Trazado 826317" d="M135.319,156.736c.032-.078.1-.07.16-.058l-.16.058" transform="translate(-92.692 -107.318)" fill="#f8f9fb"/>
        <path id="Trazado_826318" data-name="Trazado 826318" d="M120.143,178.107a.061.061,0,0,1,.074,0c-.024.037-.048.04-.074,0" transform="translate(-82.297 -121.992)" fill="#d6e7ff"/>
        <path id="Trazado_826319" data-name="Trazado 826319" d="M145.8,178.105l.078-.005c-.023.038-.049.043-.078.005" transform="translate(-99.874 -121.997)" fill="#d6e7ff"/>
        <path id="Trazado_826320" data-name="Trazado 826320" d="M95,29.442l.031-.016.028.02-.031.017Z" transform="translate(-65.071 -20.157)" fill="#d6e7ff"/>
        <path id="Trazado_826321" data-name="Trazado 826321" d="M93.486,29.376a.048.048,0,0,1,.069,0c-.025.035-.048.032-.069,0" transform="translate(-64.037 -20.114)" fill="#d6e7ff"/>
        <path id="Trazado_826322" data-name="Trazado 826322" d="M135.22,148.5a.066.066,0,0,0,.007-.045l.105.044h-.112" transform="translate(-92.624 -101.691)" fill="#f8f9fb"/>
        <path id="Trazado_826323" data-name="Trazado 826323" d="M80.947,22.662a.054.054,0,0,1-.035-.057.1.1,0,0,1,.035.057" transform="translate(-55.424 -15.484)" fill="#f8f9fb"/>
        <path id="Trazado_826324" data-name="Trazado 826324" d="M92.554,21.2l-.036.015-.038-.008c.022-.034.046-.04.074-.008" transform="translate(-63.348 -14.507)" fill="#f8f9fb"/>
        <path id="Trazado_826325" data-name="Trazado 826325" d="M44.007,21.227l-.009,0,.007-.014Z" transform="translate(-30.139 -14.53)" fill="#29aaf4"/>
        <path id="Trazado_826326" data-name="Trazado 826326" d="M125.991,64.234l-.12.054.12-.054" transform="translate(-86.221 -44)" fill="#f8f9fb"/>
        <path id="Trazado_826327" data-name="Trazado 826327" d="M124.741,135.75h0l0,.017Z" transform="translate(-85.446 -92.987)" fill="#29aaf4"/>
        <path id="Trazado_826328" data-name="Trazado 826328" d="M149.136,171.924l-.064-.094.064.094" transform="translate(-102.113 -117.702)" fill="#f8f9fb"/>
        <path id="Trazado_826329" data-name="Trazado 826329" d="M169.43,137.189a4.269,4.269,0,1,1,.4-8.523,4.2,4.2,0,0,1,3.987,4.3,4.249,4.249,0,0,1-4.388,4.225m-1.557-4.36a1.64,1.64,0,0,0,1.321,1.659c1.139.029,1.862-.531,1.916-1.416a1.643,1.643,0,0,0-1.622-1.8,1.672,1.672,0,0,0-1.614,1.557" transform="translate(-113.16 -88.128)"/>
        <path id="Trazado_826330" data-name="Trazado 826330" d="M219.309,214.106a4.368,4.368,0,0,1-4.39,4.594,4.461,4.461,0,0,1,.018-8.922c2.487.008,4.606,2.148,4.372,4.328m-4.425,1.931a1.778,1.778,0,0,0,1.843-1.821,1.717,1.717,0,0,0-1.779-1.782,1.8,1.8,0,0,0-1.835,1.8,1.875,1.875,0,0,0,1.77,1.8" transform="translate(-144.18 -143.696)"/>
      </g>
    </g>
  </g>
</svg>
