<svg xmlns="http://www.w3.org/2000/svg" xmlns:xlink="http://www.w3.org/1999/xlink" width="125" height="125" viewBox="0 0 125 125">
  <defs>
    <clipPath id="clip-path">
      <rect id="Rectángulo_378830" data-name="Rectángulo 378830" width="82.883" height="82.51" fill="none"/>
    </clipPath>
  </defs>
  <g id="Grupo_1074691" data-name="Grupo 1074691" transform="translate(-386 -2145.602)">
    <path id="Trazado_608385" data-name="Trazado 608385" d="M62.5,0A62.5,62.5,0,1,1,0,62.5,62.5,62.5,0,0,1,62.5,0Z" transform="translate(386 2145.602)" fill="#fff"/>
    <g id="Grupo_1074694" data-name="Grupo 1074694" transform="translate(407.117 2166.846)">
      <g id="Grupo_1074694-2" data-name="Grupo 1074694" clip-path="url(#clip-path)">
        <path id="Trazado_826185" data-name="Trazado 826185" d="M12.97,75.065q0-23.559-.009-47.117,0-4.613-.006-9.227c0-.138.142-.414-.214-.365a.706.706,0,0,0-.426,0c-.574-.054-1.149-.014-1.724-.014q-4.627-.007-9.253-.026c-.853,0-1.159-.224-1.281-.884,0-.028,0-.057,0-.086,0-3.4-.044-6.806.026-10.208A7.072,7.072,0,0,1,2.65,1.881,6.7,6.7,0,0,1,5.268.441a7.342,7.342,0,0,1,1.86-.3C14.359.009,21.592.1,28.824.087Q41.7.066,54.581.087c.078,0,.157-.006.235-.01a.256.256,0,0,0,.44,0c.546.1,1.1.133,1.652.2a6.844,6.844,0,0,1,3.7,1.755,7.473,7.473,0,0,1,2.244,3.427,6.775,6.775,0,0,1,.317,1.869c.174,7.221.033,14.443.078,21.664,0,.126,0,.252,0,.436a16.174,16.174,0,0,0,2.6-1.613,10.7,10.7,0,0,0,1.233-1.032,1.171,1.171,0,0,1,1.811.025A14.488,14.488,0,0,0,72.08,29.2a13.209,13.209,0,0,0,4.36,1.619A8.254,8.254,0,0,0,78.8,31.1l.088,0,.214.005a.07.07,0,0,0,.111,0,1.517,1.517,0,0,0,.539,0,.228.228,0,0,0,.227-.019,5.96,5.96,0,0,1,1.705-.324c.8-.026,1.034.13,1.21,1.121a2.052,2.052,0,0,1,.019.352q0,5.459-.01,10.919a11.819,11.819,0,0,1-2.425,6.879,37.608,37.608,0,0,1-7.949,7.926c-1.223.947-2.509,1.809-3.8,2.66-.18.119-.36.236-.531.367a.571.571,0,0,1-.715-.04c-1.2-.808-2.383-1.631-3.567-2.456-.193-.134-.395-.449-.577-.35-.219.119-.085.471-.086.719-.008,2.959,0,5.918-.011,8.877,0,.3.059.384.384.384,3.679-.007,7.357.017,11.036.009.875,0,1.219.456,1.2,1.255-.05,2.015,0,4.032-.036,6.047a6.732,6.732,0,0,1-1.663,4.227,8.477,8.477,0,0,1-3.438,2.459,9.992,9.992,0,0,1-1.934.353,8.124,8.124,0,0,1-1.636.069q-22.859,0-45.718.008a16.547,16.547,0,0,1-2.772-.241,1.235,1.235,0,0,1-.179-.063,7.75,7.75,0,0,1-5.022-4.735c-.069-.178-.051-.385-.181-.543-.009-.16.057-.333-.081-.471l-.188-1.261a.178.178,0,0,0-.038-.178m61.163-4.442c0-.2-.007-.393.007-.588.016-.237-.066-.3-.315-.3q-5.6.02-11.193.017-16.925,0-33.85-.013c-.815,0-.815,0-.738.812.008.078,0,.157,0,.236,0,.929,0,1.859,0,2.788a11.3,11.3,0,0,1-.148,2.354,8.567,8.567,0,0,1-2.216,4.41c-.059.062-.169.116-.124.223a.184.184,0,0,0,.232.1,4.342,4.342,0,0,1,1.243-.063q20.8-.006,41.59-.011a4.634,4.634,0,0,0,2-.392,5.483,5.483,0,0,0,3.469-4.8c.116-1.542.033-3.088.038-4.631.053-.005.1-.024.083-.085-.006-.023-.053-.035-.082-.052M61.277,30.148c.068-.046.063-.1.024-.166l.018-.143c0-.027,0-.055.005-.083.006-.157.017-.314.017-.47q0-10.507,0-21.014a8.438,8.438,0,0,0-.186-1.778,5.352,5.352,0,0,0-3-3.759c-.36-.183-.777-.145-1.119-.3a4.027,4.027,0,0,0-1.7-.238q-21.152-.032-42.3-.014c-.091,0-.208-.061-.3.1a1.176,1.176,0,0,1,.182.138A7.984,7.984,0,0,1,15.159,7.9q0,33.682-.008,67.364a5.151,5.151,0,0,0,.452,2.168,4.978,4.978,0,0,0,1.806,2.222,4,4,0,0,0,2.521.875l.1.016a4.926,4.926,0,0,0,3.253-.737,5.158,5.158,0,0,0,2.555-4.477c.022-2.067.006-4.135.008-6.2a.97.97,0,0,1,1.067-1.112c1.426-.028,2.852-.032,4.278-.032q13.954,0,27.909,0c.562,0,1.124-.017,1.686-.027a.087.087,0,0,0,.123,0l.107,0a.163.163,0,0,0,.239-.028c.026-.389.077-.778.075-1.168-.01-3.309.077-6.618-.039-9.928a.935.935,0,0,0-.371-.76,32.116,32.116,0,0,1-4.074-4,22.073,22.073,0,0,1-2.62-3.733,14.092,14.092,0,0,1-.984-2.285,5.343,5.343,0,0,1-.354-1.489c-.1-3.8-.04-7.594-.043-11.391,0-.419-.008-.838.009-1.256.025-.623.259-.845.87-.908a5.731,5.731,0,0,1,.771.084,17.321,17.321,0,0,0,4.972-.319,4.689,4.689,0,0,0,1.81-.631m19.881,8.541V33.663c0-.725,0-.723-.747-.674a11.256,11.256,0,0,1-2.583-.064,21.2,21.2,0,0,1-2.938-.655,17.786,17.786,0,0,1-6.574-3.638c-.131-.112-.221-.192-.384-.015a11.3,11.3,0,0,1-3.141,2.246,19.45,19.45,0,0,1-6.213,2.041,18.319,18.319,0,0,1-3.447.078c-.288-.011-.38.051-.379.356.011,3.495,0,6.99.016,10.484a5.573,5.573,0,0,0,.392,2.03,16.072,16.072,0,0,0,2.953,4.8,44.377,44.377,0,0,0,9.062,7.7,1.2,1.2,0,0,0,1.552-.016c.136-.1.292-.175.431-.272a45.846,45.846,0,0,0,8.1-7.029,17.445,17.445,0,0,0,3.033-4.221,8.049,8.049,0,0,0,.872-3.618c-.039-1.5-.009-3.01-.009-4.516M7.7,16.229v0c1.649,0,3.3-.007,4.946.007.262,0,.33-.062.329-.322-.012-2.316,0-4.632-.017-6.948A13.974,13.974,0,0,0,12.9,6.638a5.223,5.223,0,0,0-3.15-4.024,4.856,4.856,0,0,0-4.255.062,5.317,5.317,0,0,0-3.208,4.9c-.011,2.735.007,5.47-.005,8.2,0,.338.075.457.431.453,1.662-.017,3.324-.008,4.986-.008" transform="translate(-0.028 -0.047)" fill="#682f2a"/>
        <path id="Trazado_826186" data-name="Trazado 826186" d="M41.434,242.5c.138.138.073.311.081.471-.408-.091-.181-.292-.081-.471" transform="translate(-28.265 -166.046)" fill="#f4f3f4"/>
        <path id="Trazado_826187" data-name="Trazado 826187" d="M174.214.034a.256.256,0,0,1-.44,0,.771.771,0,0,1,.44,0" transform="translate(-118.986 0)" fill="#cbc9c9"/>
        <path id="Trazado_826188" data-name="Trazado 826188" d="M38.97,57.991a.71.71,0,0,1,.426,0,.786.786,0,0,1-.426,0" transform="translate(-26.683 -39.686)" fill="#cbc9c9"/>
        <path id="Trazado_826189" data-name="Trazado 826189" d="M253.085,98.443a.228.228,0,0,1-.227.019.284.284,0,0,1,.227-.019" transform="translate(-173.136 -67.396)" fill="#cbc9c9"/>
        <path id="Trazado_826190" data-name="Trazado 826190" d="M41.05,237.939a.178.178,0,0,1,.038.178l-.038-.178" transform="translate(-28.108 -162.921)" fill="#f4f3f4"/>
        <path id="Trazado_826191" data-name="Trazado 826191" d="M.025,54.856c0,.029,0,.057,0,.086A.4.4,0,0,1,0,54.881c0-.005.016-.016.026-.025" transform="translate(0 -37.561)" fill="#cbc9c9"/>
        <path id="Trazado_826192" data-name="Trazado 826192" d="M250.909,98.517a.07.07,0,0,1-.111,0l.111,0" transform="translate(-171.725 -67.453)" fill="#cbc9c9"/>
        <path id="Trazado_826193" data-name="Trazado 826193" d="M249.925,98.488l-.088,0,.088,0" transform="translate(-171.067 -67.434)" fill="#cbc9c9"/>
        <path id="Trazado_826194" data-name="Trazado 826194" d="M88.356,72.531c-.562.009-1.124.026-1.686.026q-13.955,0-27.909,0c-1.426,0-2.852,0-4.278.032A.97.97,0,0,0,53.415,73.7c0,2.067.014,4.135-.008,6.2a5.159,5.159,0,0,1-2.555,4.477,4.927,4.927,0,0,1-3.253.737l-.1-.016a4,4,0,0,1-2.521-.875,4.974,4.974,0,0,1-1.806-2.222,5.146,5.146,0,0,1-.452-2.168q.017-33.682.008-67.364A7.984,7.984,0,0,0,40.487,7a1.188,1.188,0,0,0-.182-.138c.09-.162.207-.1.3-.1q21.153,0,42.3.014a4.021,4.021,0,0,1,1.7.238c.342.154.76.115,1.12.3a5.353,5.353,0,0,1,3,3.759,8.437,8.437,0,0,1,.186,1.778q0,10.507,0,21.014c0,.157-.011.314-.017.471-.009.008-.027.016-.026.022a.335.335,0,0,0,.021.061l-.018.143c-.155.034-.038.107-.024.166a4.689,4.689,0,0,1-1.81.631,17.309,17.309,0,0,1-4.972.318,5.781,5.781,0,0,0-.771-.084c-.611.063-.845.285-.87.908-.016.418-.009.837-.009,1.256,0,3.8-.055,7.594.043,11.391a5.341,5.341,0,0,0,.354,1.489,14.08,14.08,0,0,0,.984,2.285,22.076,22.076,0,0,0,2.62,3.733,32.1,32.1,0,0,0,4.074,4,.937.937,0,0,1,.371.76c.116,3.309.029,6.618.039,9.928,0,.389-.049.778-.075,1.168l-.239.028-.107,0h-.123M57.267,27.471a.162.162,0,0,0,0-.055,4.6,4.6,0,0,0-2.439-1.121,4.789,4.789,0,0,0-2.083.1,5.213,5.213,0,0,0-3.657,6.944,5.351,5.351,0,0,0,5.583,3.351A5.253,5.253,0,0,0,59.228,31.6a4.933,4.933,0,0,0-.978-3.171,2.352,2.352,0,0,0-.983-.959m8.347-14.746v0q-7.874,0-15.747,0a1.036,1.036,0,0,0-.238,2.057,2.407,2.407,0,0,0,.62.06h30.71a2.714,2.714,0,0,0,.393-.005.975.975,0,0,0,.885-.607A1.045,1.045,0,0,0,81.2,12.726H65.614m.018,8.089H80.795a5.28,5.28,0,0,0,.739-.063.708.708,0,0,0,.693-.63c.05-.433.129-.9-.3-1.225a.539.539,0,0,0-.247-.112,7.225,7.225,0,0,0-.813-.094q-15.222.009-30.443.005a2.1,2.1,0,0,0-.509.01c-.245.063-.5-.023-.742.1-.452.24-.483.6-.407,1.057a.934.934,0,0,0,.771.859,9.061,9.061,0,0,0,1.012.092q7.542-.011,15.084,0m-11.7,31.194a5.279,5.279,0,0,0,5.292-5.253,5.1,5.1,0,0,0-5.559-5.2,5.176,5.176,0,0,0-4.947,5.119,5.331,5.331,0,0,0,5.214,5.335m.088,4.783a5.144,5.144,0,1,0,5.2,5.2,5.125,5.125,0,0,0-5.2-5.2M73.039,30.086v0q4.123,0,8.246,0a.978.978,0,0,0,1.04-.9,1,1,0,0,0-.793-1.166,2.4,2.4,0,0,0-.621-.055q-7.52,0-15.04,0c-.469,0-.936.022-1.406.057-1.013.077-1.083.784-.794,1.506.2.493.666.546,1.121.547q4.123.008,8.247,0m-.9,30.408H74.65c1.622,0,3.245,0,4.867,0a1,1,0,0,0,1-.9.935.935,0,0,0-.989-.916c-4.946.022-9.892.014-14.838.009a1.513,1.513,0,0,0-.756.164c-.412.229-.568.831-.256,1.1a1.808,1.808,0,0,0,1.233.556c2.407-.022,4.815-.01,7.223-.01M70.6,33.078H64.865a2.321,2.321,0,0,0-.5.047c-.576.127-.794.349-.811.871a.954.954,0,0,0,.761,1.114,2.315,2.315,0,0,0,.579.084q5.674-.006,11.348,0c.844,0,1.047-.223,1.009-1.067a.642.642,0,0,1,.005-.077c.051-.679-.207-.968-.881-.969q-2.886,0-5.772,0M69.446,43.21v0c-1.531,0-3.063-.006-4.594,0a1.467,1.467,0,0,0-.966.243,1.115,1.115,0,0,0-.309,1.185,1.255,1.255,0,0,0,1.143.758q4.633.011,9.266,0a1.055,1.055,0,0,0,.947-.462,1.215,1.215,0,0,0,0-1.271.982.982,0,0,0-.969-.461c-1.505.009-3.01,0-4.515,0m.193,20.421v0q-2.632,0-5.264,0a.786.786,0,0,0-.816.645.757.757,0,0,0,.439.875,2.127,2.127,0,0,0,1.024.207h9.27c.131,0,.263.007.393-.005a.985.985,0,0,0,.963-.9c-.03-.515-.41-.822-1.02-.823H69.639M69.581,48.55q-2.57,0-5.141,0a.9.9,0,0,0-.883.669.793.793,0,0,0,.569.913,1.682,1.682,0,0,0,.644.143q4.866,0,9.733,0a1.285,1.285,0,0,0,.832-.283.727.727,0,0,0,.246-.907.783.783,0,0,0-.78-.534h-5.22" transform="translate(-27.597 -4.619)" fill="#f4f3f4"/>
        <path id="Trazado_826195" data-name="Trazado 826195" d="M199.973,100.464c0,1.505-.03,3.011.009,4.515a8.043,8.043,0,0,1-.872,3.618,17.438,17.438,0,0,1-3.034,4.221,45.856,45.856,0,0,1-8.1,7.029c-.139.1-.3.17-.431.272a1.2,1.2,0,0,1-1.552.016,44.359,44.359,0,0,1-9.062-7.7,16.073,16.073,0,0,1-2.953-4.8,5.57,5.57,0,0,1-.392-2.03c-.02-3.495-.005-6.99-.016-10.485,0-.3.091-.366.379-.356a18.321,18.321,0,0,0,3.447-.078,19.454,19.454,0,0,0,6.213-2.041,11.3,11.3,0,0,0,3.141-2.247c.163-.178.253-.1.385.015a17.775,17.775,0,0,0,6.574,3.637,21.168,21.168,0,0,0,2.938.655,11.238,11.238,0,0,0,2.583.064c.748-.049.747-.051.747.674q0,2.513,0,5.027m-18.123,4.5a.941.941,0,0,0-.632,1.646c.721.758,1.467,1.493,2.23,2.209.52.487.912.461,1.441-.037q3.774-3.552,7.345-7.309a1.8,1.8,0,0,0,.38-.591.847.847,0,0,0-.725-1.117,1.516,1.516,0,0,0-1.328.6q-3.044,3.065-6.1,6.118c-.325.325-.355.318-.674-.031a11.28,11.28,0,0,0-1.326-1.28.842.842,0,0,0-.61-.208" transform="translate(-118.843 -61.821)" fill="#fdcc03"/>
        <path id="Trazado_826196" data-name="Trazado 826196" d="M129.524,222.05c-.006,1.544.078,3.089-.038,4.631a5.483,5.483,0,0,1-3.469,4.8,4.635,4.635,0,0,1-2,.392q-20.8.015-41.59.011a4.342,4.342,0,0,0-1.243.063.184.184,0,0,1-.232-.1c-.045-.107.065-.16.124-.223a8.567,8.567,0,0,0,2.216-4.41,11.315,11.315,0,0,0,.148-2.354c0-.929,0-1.859,0-2.788,0-.079.006-.158,0-.236-.077-.809-.078-.812.738-.812q16.925.006,33.85.013,5.6,0,11.193-.017c.248,0,.331.067.314.3-.014.2-.005.392-.007.588-.062.045-.061.09,0,.137m-18.746,3.86h2.864c.916,0,1.831.006,2.746,0a.851.851,0,0,0,.863-.43.957.957,0,0,0-.121-1,1.037,1.037,0,0,0-.856-.3q-5.453,0-10.906,0a2.362,2.362,0,0,0-.649.122.742.742,0,0,0-.535.735.714.714,0,0,0,.491.764,1.559,1.559,0,0,0,.649.113c1.818-.005,3.636,0,5.453,0m11.7-1.728c-.4,0-.726-.023-1.05.006-.344.031-.72.042-.936.381a.889.889,0,0,0,.827,1.334c.65.037,1.3.009,1.957.007a1.123,1.123,0,0,0,.556-.166.7.7,0,0,0,.379-.753c-.052-.325-.127-.629-.522-.742a6.46,6.46,0,0,0-1.211-.067" transform="translate(-55.42 -151.337)" fill="#e5e4e5"/>
        <path id="Trazado_826197" data-name="Trazado 826197" d="M12.564,20.758c-1.662,0-3.324-.009-4.986.008-.356,0-.433-.115-.431-.453.012-2.735-.005-5.47.005-8.2A5.317,5.317,0,0,1,10.36,7.2a4.856,4.856,0,0,1,4.255-.062,5.223,5.223,0,0,1,3.15,4.024,13.974,13.974,0,0,1,.058,2.331c.015,2.316.005,4.632.017,6.948,0,.259-.067.324-.329.322-1.649-.014-3.3-.007-4.946-.007Z" transform="translate(-4.894 -4.575)" fill="#cbc9c9"/>
        <path id="Trazado_826198" data-name="Trazado 826198" d="M234.94,223.987c-.06-.046-.061-.092,0-.137.029.017.076.029.082.052.016.061-.031.08-.083.085" transform="translate(-160.836 -153.274)" fill="#cbc9c9"/>
        <path id="Trazado_826199" data-name="Trazado 826199" d="M193.44,215.351l.239-.028a.163.163,0,0,1-.239.028" transform="translate(-132.451 -147.435)" fill="#cbc9c9"/>
        <path id="Trazado_826200" data-name="Trazado 826200" d="M194.144,95.114c-.014-.058-.131-.132.024-.166.039.062.044.119-.024.166" transform="translate(-132.896 -65.012)" fill="#cbc9c9"/>
        <path id="Trazado_826201" data-name="Trazado 826201" d="M192.711,215.4h.123a.087.087,0,0,1-.123,0" transform="translate(-131.952 -147.488)" fill="#cbc9c9"/>
        <path id="Trazado_826202" data-name="Trazado 826202" d="M63.125,255.273l.1.015-.1-.015" transform="translate(-43.223 -174.789)" fill="#cbc9c9"/>
        <path id="Trazado_826203" data-name="Trazado 826203" d="M194.354,94.314a.335.335,0,0,1-.021-.061c0-.006.017-.015.026-.022,0,.027,0,.055-.005.083" transform="translate(-133.063 -64.521)" fill="#cbc9c9"/>
        <path id="Trazado_826204" data-name="Trazado 826204" d="M83.98,25.712H99.57A1.045,1.045,0,0,1,100.6,27.22a.974.974,0,0,1-.885.608,2.756,2.756,0,0,1-.392.005H68.615a2.422,2.422,0,0,1-.621-.06,1.036,1.036,0,0,1,.238-2.057q7.874,0,15.747,0Z" transform="translate(-45.963 -17.605)" fill="#cbc9c9"/>
        <path id="Trazado_826205" data-name="Trazado 826205" d="M83.934,46.743q-7.542,0-15.084.005a9.06,9.06,0,0,1-1.012-.092.934.934,0,0,1-.771-.859c-.077-.456-.046-.817.407-1.057.24-.128.5-.041.742-.1a2.1,2.1,0,0,1,.509-.01q15.222,0,30.443-.005a7.224,7.224,0,0,1,.813.094.542.542,0,0,1,.247.112c.43.323.352.792.3,1.225a.707.707,0,0,1-.693.63,5.289,5.289,0,0,1-.739.063H83.934" transform="translate(-45.899 -30.549)" fill="#cbc9c9"/>
        <path id="Trazado_826206" data-name="Trazado 826206" d="M72.212,127.588A5.332,5.332,0,0,1,67,122.253a5.176,5.176,0,0,1,4.947-5.119,5.1,5.1,0,0,1,5.558,5.2,5.279,5.279,0,0,1-5.292,5.253m.064-8.324a3.131,3.131,0,0,0-3.174,3.181,3.274,3.274,0,0,0,3.107,3.179c2-.006,3.242-1.4,3.162-3.731a2.814,2.814,0,0,0-3.1-2.629" transform="translate(-45.874 -80.199)" fill="#682f2a"/>
        <path id="Trazado_826207" data-name="Trazado 826207" d="M75.539,69.773a2.351,2.351,0,0,1,.983.959A4.929,4.929,0,0,1,77.5,73.9,5.253,5.253,0,0,1,72.94,78.99a5.351,5.351,0,0,1-5.583-3.351,5.212,5.212,0,0,1,3.657-6.944,4.79,4.79,0,0,1,2.083-.1,4.6,4.6,0,0,1,2.439,1.121l-.061.039.063.016m-.1,3.946a3.156,3.156,0,0,0-6.31.077,3.326,3.326,0,0,0,3.14,3.292,3.292,3.292,0,0,0,3.171-3.369" transform="translate(-45.869 -46.92)" fill="#682f2a"/>
        <path id="Trazado_826208" data-name="Trazado 826208" d="M72.307,165.475a5.125,5.125,0,0,1,5.2,5.2,5.251,5.251,0,1,1-5.2-5.2m3.077,5.193a3.126,3.126,0,0,0-2.927-3.211,3.016,3.016,0,0,0-3.328,3.22,3.153,3.153,0,0,0,3.082,3.136,3.062,3.062,0,0,0,3.173-3.145" transform="translate(-45.881 -113.303)" fill="#682f2a"/>
        <path id="Trazado_826209" data-name="Trazado 826209" d="M123.465,76.18q-4.123,0-8.246,0c-.456,0-.924-.055-1.121-.547-.289-.722-.219-1.43.794-1.506.47-.035.937-.057,1.406-.057q7.52-.005,15.04,0a2.388,2.388,0,0,1,.622.055,1,1,0,0,1,.792,1.165.978.978,0,0,1-1.04.9q-4.123,0-8.246,0Z" transform="translate(-78.023 -50.713)" fill="#cbc9c9"/>
        <path id="Trazado_826210" data-name="Trazado 826210" d="M122.552,173.268c-2.408,0-4.815-.012-7.223.01a1.806,1.806,0,0,1-1.233-.556c-.311-.269-.155-.871.256-1.1a1.509,1.509,0,0,1,.756-.164c4.946,0,9.892.012,14.838-.01a.935.935,0,0,1,.989.916,1,1,0,0,1-1,.9c-1.622.006-3.245,0-4.867,0h-2.512" transform="translate(-78.011 -117.394)" fill="#cbc9c9"/>
        <path id="Trazado_826211" data-name="Trazado 826211" d="M121.077,90.264q2.886,0,5.772,0c.673,0,.932.29.881.969a.642.642,0,0,0-.006.077c.038.844-.165,1.066-1.009,1.067q-5.674,0-11.348,0a2.315,2.315,0,0,1-.579-.085.954.954,0,0,1-.761-1.114c.017-.522.234-.744.811-.871a2.321,2.321,0,0,1,.5-.047h5.733" transform="translate(-78.076 -61.805)" fill="#cbc9c9"/>
        <path id="Trazado_826212" data-name="Trazado 826212" d="M119.895,122.4c1.505,0,3.01.005,4.515,0a.982.982,0,0,1,.969.461,1.215,1.215,0,0,1,0,1.271,1.054,1.054,0,0,1-.947.462q-4.633.019-9.266,0a1.254,1.254,0,0,1-1.143-.758,1.115,1.115,0,0,1,.309-1.185,1.468,1.468,0,0,1,.966-.243c1.531-.011,3.062,0,4.594,0Z" transform="translate(-78.046 -83.804)" fill="#cbc9c9"/>
        <path id="Trazado_826213" data-name="Trazado 826213" d="M120.1,187.173h4.989c.61,0,.99.308,1.02.823a.985.985,0,0,1-.963.9c-.13.013-.262.005-.393.005h-9.27a2.127,2.127,0,0,1-1.024-.207.757.757,0,0,1-.439-.875.787.787,0,0,1,.816-.645q2.632,0,5.264,0Z" transform="translate(-78.055 -128.16)" fill="#cbc9c9"/>
        <path id="Trazado_826214" data-name="Trazado 826214" d="M120.043,139.338h5.22a.783.783,0,0,1,.78.534.727.727,0,0,1-.246.907,1.285,1.285,0,0,1-.832.283q-4.866.008-9.733,0a1.688,1.688,0,0,1-.644-.143.793.793,0,0,1-.569-.913.9.9,0,0,1,.883-.669h5.141" transform="translate(-78.059 -95.407)" fill="#cbc9c9"/>
        <path id="Trazado_826215" data-name="Trazado 826215" d="M93.967,72.363l-.063-.016.061-.039a.162.162,0,0,1,0,.055" transform="translate(-64.298 -49.51)" fill="#e5e4e5"/>
        <path id="Trazado_826216" data-name="Trazado 826216" d="M197.723,125.536a.842.842,0,0,1,.61.208,11.28,11.28,0,0,1,1.326,1.28c.319.35.349.357.674.031q3.052-3.057,6.1-6.118a1.516,1.516,0,0,1,1.328-.6.847.847,0,0,1,.725,1.117,1.8,1.8,0,0,1-.38.591q-3.568,3.759-7.345,7.309c-.529.5-.921.523-1.441.037-.763-.715-1.509-1.451-2.23-2.209a.941.941,0,0,1,.632-1.646" transform="translate(-134.717 -82.39)" fill="#682f2a"/>
        <path id="Trazado_826217" data-name="Trazado 826217" d="M161.247,232.767c-1.818,0-3.636,0-5.453,0a1.562,1.562,0,0,1-.649-.113.714.714,0,0,1-.492-.764.743.743,0,0,1,.535-.735,2.378,2.378,0,0,1,.649-.121q5.453.007,10.907,0a1.035,1.035,0,0,1,.856.3.957.957,0,0,1,.122,1,.851.851,0,0,1-.863.43c-.915.009-1.831,0-2.746,0h-2.864" transform="translate(-105.89 -158.193)" fill="#f4f3f4"/>
        <path id="Trazado_826218" data-name="Trazado 826218" d="M208.095,231.028a6.46,6.46,0,0,1,1.211.067c.4.113.47.417.522.742a.7.7,0,0,1-.379.753,1.123,1.123,0,0,1-.556.166c-.652,0-1.307.031-1.957-.007a.889.889,0,0,1-.827-1.334c.216-.338.592-.35.936-.381.323-.029.652-.006,1.05-.006" transform="translate(-141.04 -158.183)" fill="#f4f3f4"/>
        <path id="Trazado_826219" data-name="Trazado 826219" d="M76.847,123.893a2.814,2.814,0,0,1,3.1,2.629c.08,2.329-1.16,3.725-3.162,3.731a3.274,3.274,0,0,1-3.107-3.179,3.131,3.131,0,0,1,3.174-3.181" transform="translate(-50.445 -84.828)" fill="#cbc9c9"/>
        <path id="Trazado_826220" data-name="Trazado 826220" d="M80.085,78.4a3.292,3.292,0,0,1-3.171,3.369,3.326,3.326,0,0,1-3.14-3.292,3.156,3.156,0,0,1,6.31-.077" transform="translate(-50.514 -51.602)" fill="#fdcc03"/>
        <path id="Trazado_826221" data-name="Trazado 826221" d="M79.984,174.974a3.062,3.062,0,0,1-3.173,3.145,3.153,3.153,0,0,1-3.082-3.136,3.016,3.016,0,0,1,3.328-3.22,3.126,3.126,0,0,1,2.927,3.211" transform="translate(-50.482 -117.608)" fill="#cbc9c9"/>
      </g>
    </g>
  </g>
</svg>
