<svg xmlns="http://www.w3.org/2000/svg" xmlns:xlink="http://www.w3.org/1999/xlink" width="129" height="128" viewBox="0 0 129 128">
  <defs>
    <clipPath id="clip-path">
      <rect id="Rectángulo_378547" data-name="Rectángulo 378547" width="72.84" height="75.631" fill="none"/>
    </clipPath>
  </defs>
  <g id="Grupo_1074723" data-name="Grupo 1074723" transform="translate(-390 -10937)">
    <g id="Grupo_108927" data-name="Grupo 108927" transform="translate(0 6470)">
      <path id="Rectángulo_36179" data-name="Rectángulo 36179" d="M0,0H129V128H0Z" transform="translate(390 4467)" fill="#ecb062"/>
      <path id="Rectángulo_36181" data-name="Rectángulo 36181" d="M6.132,0H81.754a21.8,21.8,0,0,1,21.8,21.8v74.26a6.132,6.132,0,0,1-6.132,6.132H6.132A6.132,6.132,0,0,1,0,96.061V6.132A6.132,6.132,0,0,1,6.132,0Z" transform="translate(402.944 4479.944)" fill="#590e00"/>
    </g>
    <g id="Grupo_156312" data-name="Grupo 156312" transform="translate(116.172 6497.831)">
      <g id="Grupo_1074564" data-name="Grupo 1074564" transform="translate(301.828 4465.169)">
        <g id="Grupo_1074563" data-name="Grupo 1074563" clip-path="url(#clip-path)">
          <path id="Trazado_825849" data-name="Trazado 825849" d="M2.25,25.549v.407c0,1.345-.025,2.69.007,4.034a1.158,1.158,0,0,1-1.1,1.206A1.136,1.136,0,0,1,.02,30.01Q0,27.3.016,24.586a1.155,1.155,0,0,1,1.192-1.248c.18-.016.361-.012.542-.012q6.084,0,12.169.008c.261,0,.324-.083.323-.33-.009-1.831-.005-3.661-.005-5.492,0-.158,0-.317.011-.474a1.03,1.03,0,0,1,.947-1.015.989.989,0,0,1,1.155.847,10.871,10.871,0,0,1,.084,1.553q.009,10.968.008,21.935a8.408,8.408,0,0,1-2.413,6.169,1.977,1.977,0,0,0-.13.174H28.452v-.782q0-18.731.014-37.463A5.924,5.924,0,0,0,26.13,3.44a6.025,6.025,0,0,0-9.284,2.574,7.339,7.339,0,0,0-.425,2.555c-.018,1.062,0,2.124,0,3.186a2.728,2.728,0,0,1-.072.636,1.036,1.036,0,0,1-1.162.767,1,1,0,0,1-.929-.923,46.723,46.723,0,0,1,.089-5.111A8.126,8.126,0,0,1,21.83.066C22.415.025,23,0,23.59,0Q43.86,0,64.13,0a8.492,8.492,0,0,1,5.715,1.924A8.192,8.192,0,0,1,72.812,8.01c.019.383.027.768.027,1.152q0,22.986,0,45.972,0,9.543-.013,19.087a2.336,2.336,0,0,1-.063.6,1.013,1.013,0,0,1-1.368.735c-.684-.259-1.345-.58-2.013-.881q-1.249-.562-2.493-1.137a.956.956,0,0,0-.872,0c-1.3.607-2.613,1.174-3.9,1.8a1.933,1.933,0,0,1-1.835.014c-1.234-.607-2.5-1.149-3.745-1.735a1.271,1.271,0,0,0-1.189-.018c-1.24.594-2.507,1.133-3.746,1.731a1.959,1.959,0,0,1-1.867.019c-1.232-.611-2.5-1.15-3.743-1.739a1.312,1.312,0,0,0-1.222.005c-1.272.606-2.566,1.168-3.838,1.773a1.749,1.749,0,0,1-1.617.01c-1.282-.612-2.586-1.179-3.867-1.794a1.264,1.264,0,0,0-1.184,0c-1.276.6-2.562,1.175-3.846,1.758a4.807,4.807,0,0,1-.472.185,1.062,1.062,0,0,1-1.46-1.011c-.027-.779-.028-1.559-.029-2.339q-.005-4.2,0-8.408,0-.2.008-.407c.031-.784.46-1.253,1.133-1.24a1.147,1.147,0,0,1,1.123,1.262c.007,1.593.006,3.187,0,4.78,0,1.469-.01,2.938-.014,4.407,0,.067.009.133.018.256.534-.237,1.044-.461,1.551-.69.668-.3,1.342-.592,2-.919a1.226,1.226,0,0,1,1.157.007c1.38.644,2.774,1.255,4.152,1.9a1.181,1.181,0,0,0,1.094,0c1.4-.658,2.808-1.289,4.207-1.945a1.142,1.142,0,0,1,1.035.022c1.393.642,2.793,1.266,4.182,1.917a1.234,1.234,0,0,0,1.154-.021c1.426-.677,2.871-1.314,4.306-1.97a.885.885,0,0,1,.781.03c1.374.627,2.759,1.233,4.123,1.882a1.509,1.509,0,0,0,1.464,0c1.343-.666,2.724-1.253,4.088-1.878a.956.956,0,0,1,.845-.013c1.17.532,2.344,1.056,3.516,1.582.058.026.118.047.208.083v-.665q0-32.021.014-64.042a5.957,5.957,0,0,0-4.083-5.627,7.183,7.183,0,0,0-1.993-.323q-18.05-.028-36.1-.013h-.4c.085.107.131.176.189.234a8.393,8.393,0,0,1,2.5,6.174q.022,24.24.006,48.48c0,.407-.01.815-.047,1.219a1.138,1.138,0,0,1-1.14,1.039,1.059,1.059,0,0,1-1.052-1.033c-.038-.631-.026-1.265-.027-1.9q0-3.577,0-7.153c0-.236-.041-.3-.3-.3q-9.847.011-19.693,0a8.16,8.16,0,0,1-7.314-4.059A7.776,7.776,0,0,1,.023,40.812C-.009,38.948,0,37.084.006,35.219a1.112,1.112,0,0,1,1.061-1.182,1.2,1.2,0,0,1,1.169,1.1,4.718,4.718,0,0,1,.014.508c0,1.785,0,3.571,0,5.357A5.439,5.439,0,0,0,3.7,44.728a5.988,5.988,0,0,0,5.138,1.981,5.918,5.918,0,0,0,5.315-4.973,8.892,8.892,0,0,0,.077-1.251q0-7.288,0-14.577c0-.287-.055-.381-.368-.38-3.807.008-7.615,0-11.422,0a1.724,1.724,0,0,0-.2.026" transform="translate(0 0)" fill="#fff"/>
          <path id="Trazado_825850" data-name="Trazado 825850" d="M172.431,22.378v.479c0,1.717.009,3.434,0,5.151,0,.261.1.34.33.413a6.734,6.734,0,0,1,2.91,1.589,4.856,4.856,0,0,1,1.326,4.851,5.78,5.78,0,0,1-3.626,4.13,2.424,2.424,0,0,1-.552.155c-.313.044-.4.207-.385.51a8.514,8.514,0,0,1-.019,1.151,1.039,1.039,0,0,1-1.037,1,1.011,1.011,0,0,1-1.074-.948,7.685,7.685,0,0,1-.035-1.149c.01-.281-.058-.39-.365-.408a7.05,7.05,0,0,1-3.635-1.344,1.006,1.006,0,0,1-.475-1.136,1,1,0,0,1,.9-.805,1.788,1.788,0,0,1,.793.2c.642.27,1.254.617,1.909.844.837.289.866.239.866-.614,0-2.136,0-4.271.011-6.407a.409.409,0,0,0-.279-.427,20.942,20.942,0,0,1-1.888-1.056,3.946,3.946,0,0,1-1.746-4.273,4.689,4.689,0,0,1,3.727-4,.368.368,0,0,0,.184-.278c.032-.438.007-.881.053-1.317a1.039,1.039,0,0,1,2.009-.153,7.367,7.367,0,0,1,.1,1.309c0,.253.045.38.339.419a5.629,5.629,0,0,1,2.716,1.212,1.031,1.031,0,0,1,.42,1.04,1.081,1.081,0,0,1-.781.85.905.905,0,0,1-.8-.12c-.534-.284-1.079-.547-1.622-.815a1.323,1.323,0,0,0-.27-.052m.039,14.632a3.58,3.58,0,0,0,2.51-3.64c-.1-1.518-1-2.274-2.51-2.744Zm-2.219-14.464a2.53,2.53,0,0,0-1.822,2.247,2.273,2.273,0,0,0,1.822,2.5Z" transform="translate(-120.678 -12.975)" fill="#fff"/>
          <path id="Trazado_825851" data-name="Trazado 825851" d="M131.925,165.361c1.028,0,2.056-.006,3.084,0a1.188,1.188,0,0,1,1.275,1.234c.012,2.033,0,4.067-.034,6.1-.016.846-.461,1.255-1.314,1.342-.224.023-.451.032-.676.032q-2.559.008-5.118.007a3.163,3.163,0,0,1-.639-.057,1.114,1.114,0,0,1-.964-1.069,6.52,6.52,0,0,1-.029-.71q0-2.559,0-5.119c0-.079,0-.158,0-.237.035-1.192.381-1.528,1.563-1.523.475,0,.949,0,1.423,0h1.424ZM134,167.6H129.8a.621.621,0,0,0-.038.142c0,1.3-.008,2.594.006,3.891,0,.066.169.184.26.185,1.229.012,2.458.008,3.687.006.086,0,.171-.007.277-.012Z" transform="translate(-92.833 -120.389)" fill="#fff"/>
          <path id="Trazado_825852" data-name="Trazado 825852" d="M131.887,216.122h-3.152a1.169,1.169,0,0,1-1.181-1.067c-.025-.247-.037-.5-.037-.745q0-2.627,0-5.254c0-.555.044-1.106.607-1.411a1.417,1.417,0,0,1,.63-.2c2.067-.014,4.134-.011,6.2-.007a1.268,1.268,0,0,1,1.271,1.013,1.837,1.837,0,0,1,.063.435c-.009,1.988-.008,3.976-.044,5.964a1.2,1.2,0,0,1-1.347,1.267h-3.016m2.11-6.459c-.11-.008-.2-.019-.284-.019-1.195,0-2.39.014-3.585-.006-.3-.005-.363.077-.36.356.01,1.218,0,2.436-.007,3.654,0,.219.08.262.279.26,1.094-.008,2.188,0,3.281,0H134Z" transform="translate(-92.838 -151.026)" fill="#fff"/>
          <path id="Trazado_825853" data-name="Trazado 825853" d="M131.867,131.721c-1.039,0-2.078.009-3.117,0a1.051,1.051,0,0,1-1.2-1.157q-.022-3.151.025-6.3a1.087,1.087,0,0,1,1.193-1.152c.733-.033,1.467-.03,2.2-.029,1.31,0,2.62,0,3.929.024a1.207,1.207,0,0,1,1.38,1.287c.053.674.04,1.354.042,2.031,0,1.322,0,2.643-.006,3.965a1.164,1.164,0,0,1-1.268,1.324c-1.061.02-2.123,0-3.185,0v.007m-2.048-6.438v4.205h4.216c0-1.36,0-2.691-.011-4.021,0-.062-.157-.175-.242-.176-1.31-.011-2.62-.008-3.964-.008" transform="translate(-92.861 -89.606)" fill="#fff"/>
          <path id="Trazado_825854" data-name="Trazado 825854" d="M178.146,211.988q4.575,0,9.151,0a6.674,6.674,0,0,1,.778.029,1.08,1.08,0,0,1,1.039,1.052,1.172,1.172,0,0,1-1.009,1.14,3.973,3.973,0,0,1-.641.042q-9.3.006-18.606.005a2,2,0,0,1-1.206-.248,1.126,1.126,0,0,1-.529-1.092,1.149,1.149,0,0,1,.961-.882,9.838,9.838,0,0,1,1.048-.044q4.507,0,9.015,0" transform="translate(-121.659 -154.337)" fill="#fff"/>
          <path id="Trazado_825855" data-name="Trazado 825855" d="M178.132,169.807c3.185,0,6.369-.007,9.554.011a1.919,1.919,0,0,1,.987.253.967.967,0,0,1,.382,1.138,1.028,1.028,0,0,1-.939.757,5.949,5.949,0,0,1-.879.041q-9.181,0-18.363,0a4.585,4.585,0,0,1-.875-.069,1.134,1.134,0,0,1-.908-1.04,1.123,1.123,0,0,1,.948-1.035,4.036,4.036,0,0,1,.673-.048q4.71,0,9.419,0Z" transform="translate(-121.651 -123.626)" fill="#fff"/>
          <path id="Trazado_825856" data-name="Trazado 825856" d="M178.1,129.755c-3.231,0-6.461.006-9.691-.01a1.573,1.573,0,0,1-.85-.238.946.946,0,0,1-.423-1.062,1.135,1.135,0,0,1,.952-.852,3.081,3.081,0,0,1,.574-.036q9.233,0,18.467,0c.293,0,.588,0,.88.022a1.09,1.09,0,0,1,1.1,1.1,1.077,1.077,0,0,1-1.151,1.075c-.09,0-.181,0-.271,0H178.1" transform="translate(-121.66 -92.866)" fill="#fff"/>
          <path id="Trazado_825857" data-name="Trazado 825857" d="M176.323,228.906q-3.709,0-7.418,0a7.137,7.137,0,0,1-.744-.027,1.144,1.144,0,0,1-1.069-1.032,1.177,1.177,0,0,1,.971-1.1,2.969,2.969,0,0,1,.605-.056q7.672,0,15.343,0a2.4,2.4,0,0,1,.634.084,1.025,1.025,0,0,1,.831,1.148.977.977,0,0,1-.992.955,6,6,0,0,1-.71.028q-3.726,0-7.452,0" transform="translate(-121.65 -165.038)" fill="#fff"/>
          <path id="Trazado_825858" data-name="Trazado 825858" d="M176.3,184.5q4,0,7.993,0a1.11,1.11,0,0,1,1.167,1.352.99.99,0,0,1-.828.823,3.65,3.65,0,0,1-.54.039q-7.231-.011-14.462-.024c-.474,0-.949.029-1.422.005a1.169,1.169,0,0,1-1.115-1.1,1.218,1.218,0,0,1,1.18-1.095c.7-.011,1.4,0,2.1,0H176.3" transform="translate(-121.651 -134.322)" fill="#fff"/>
          <path id="Trazado_825859" data-name="Trazado 825859" d="M176.3,142.61q4.05,0,8.1,0a.953.953,0,0,1,.975.474,1.114,1.114,0,0,1-.029,1.161,1.258,1.258,0,0,1-1.114.531c-.836.009-1.672,0-2.508,0H168.508a1.251,1.251,0,0,1-1.291-.74,1.033,1.033,0,0,1,.917-1.427c.779-.013,1.559,0,2.338,0H176.3" transform="translate(-121.683 -103.824)" fill="#fff"/>
        </g>
      </g>
    </g>
  </g>
</svg>
