<svg xmlns="http://www.w3.org/2000/svg" xmlns:xlink="http://www.w3.org/1999/xlink" width="141" height="141" viewBox="0 0 141 141">
  <defs>
    <clipPath id="clip-path">
      <rect id="Rectángulo_378513" data-name="Rectángulo 378513" width="94.979" height="94.984" fill="none"/>
    </clipPath>
  </defs>
  <g id="Grupo_1071491" data-name="Grupo 1071491" transform="translate(-269 -958)">
    <circle id="Elipse_5614" data-name="Elipse 5614" cx="70.5" cy="70.5" r="70.5" transform="translate(269 958)" fill="#590e00"/>
    <g id="Grupo_1074431" data-name="Grupo 1074431" transform="translate(292.4 980.615)">
      <g id="Grupo_1074430" data-name="Grupo 1074430" clip-path="url(#clip-path)">
        <path id="Trazado_825806" data-name="Trazado 825806" d="M92.158,86.379V83.5H2.87v2.883H25.409c.346,0,.693.01,1.038,0,1.011-.034,1.861.309,1.9,1.4.036,1.117-.816,1.471-1.822,1.472q-2.373,0-4.747,0H20.093c0,1.334-.022,2.549.006,3.764.031,1.37-.6,1.976-1.974,1.964-3.461-.032-6.923,0-10.385-.016C6.2,94.96,5.759,94.487,5.728,92.9c-.021-1.038-.015-2.077-.028-3.115a3.569,3.569,0,0,0-.131-.527c-1.146,0-2.358-.015-3.57,0C.66,89.28-.029,88.7,0,87.3c.035-1.631.018-3.264.007-4.9C0,81.242.544,80.678,1.726,80.7c1.273.023,2.548.005,4,.005V78.672q0-37.9,0-75.809C5.725.2,5.922.006,8.59.005c1.236,0,2.473-.013,3.709,0,1.665.022,1.978.363,1.979,2.183q.007,15.206,0,30.413v1.889h2.868V32.739q0-12.313,0-24.627c0-2.105.305-2.415,2.391-2.415q27.965,0,55.931,0c2.055,0,2.367.324,2.367,2.44q0,12.313,0,24.627v1.728h2.868V32.727q0-15.132,0-30.264c0-2.222.22-2.434,2.477-2.438,1.434,0,2.868,0,4.3,0a1.563,1.563,0,0,1,1.765,1.729q.024,6.75,0,13.5c0,.926-.317,1.723-1.4,1.731-1.162.009-1.467-.814-1.468-1.81,0-4.052,0-8.1,0-12.275H83.5V80.583h2.884V78.848q0-27.891,0-55.781c0-.494-.153-1.1.074-1.455a2.413,2.413,0,0,1,1.433-1.141c.4-.038,1.02.626,1.273,1.117a3.773,3.773,0,0,1,.1,1.606q0,27.742,0,55.484V80.7c1.455,0,2.73.017,4,0,1.185-.02,1.72.555,1.712,1.718q-.017,2.522,0,5.044c.007,1.251-.661,1.79-1.851,1.793-1.225,0-2.451,0-3.867,0,0,1.31.016,2.481,0,3.65-.028,1.586-.473,2.056-2.021,2.063-3.462.017-6.924-.016-10.385.016-1.385.013-2-.609-1.963-1.973.029-1.179.006-2.358.006-3.754h-1.84q-19.361,0-38.721-.007c-1.1,0-2.556.274-2.573-1.416s1.421-1.449,2.534-1.449q27.965-.009,55.93,0h1.934M17.148,80.621V78.8q0-12.389,0-24.778c0-2.034.3-2.34,2.3-2.34q28.042,0,56.085,0c2,0,2.3.309,2.3,2.341q.006,12.389,0,24.778v1.808h2.8V43.152H78.83q-13.428,0-26.855,0a3.168,3.168,0,0,1-1.457-.1c-.488-.285-1.124-.864-1.114-1.3.01-.461.642-1.011,1.13-1.324.32-.205.866-.066,1.311-.066q13.5,0,27,0h1.74V37.5H14.369v2.859H43.5c.4,0,.885-.139,1.166.042.518.333,1.245.84,1.266,1.3s-.657,1.062-1.168,1.372c-.366.223-.963.076-1.457.076q-13.576,0-27.152,0H14.395V80.621ZM28.576,54.627H20.024V80.6H45.976V54.646H37.392c0,1.975.008,3.843,0,5.711-.011,2.025-.959,2.65-2.7,1.585a2.793,2.793,0,0,0-3.217-.061c-1.982,1.109-2.881.49-2.9-1.846-.012-1.767,0-3.535,0-5.409m20.457-.018V80.621H74.968V54.645H66.411c0,1.924.012,3.743,0,5.561-.018,2.147-.975,2.8-2.758,1.727a2.785,2.785,0,0,0-3.218-.046c-1.958,1.119-2.826.54-2.836-1.709-.008-1.855,0-3.71,0-5.569Zm-29.021-20.1H45.983V8.672H37.392c0,1.915.007,3.734,0,5.553-.01,2.248-.883,2.809-2.84,1.68a2.612,2.612,0,0,0-2.955-.063c-2.18,1.235-3.012.661-3.019-1.9,0-1.757,0-3.514,0-5.239H20.012Zm54.937.016V8.7H66.408c0,2.048.049,3.975-.014,5.9-.058,1.755-1.03,2.357-2.539,1.462A3.119,3.119,0,0,0,60.229,16c-1.739,1.041-2.624.4-2.633-1.681-.008-1.864,0-3.729,0-5.669H48.99V34.529ZM11.487,2.866H8.715V80.659h2.772ZM8.674,92.139h8.48V89.317H8.674Zm69.148,0h8.45V89.317h-8.45ZM31.514,12.471h3.038V8.65H31.514Zm28.926,0h3.039V8.655H60.439Zm3.015,42.168H60.426v3.775h3.028Zm-28.879,0H31.5v3.774h3.08Z" transform="translate(0 0)" fill="#fff"/>
        <path id="Trazado_825807" data-name="Trazado 825807" d="M121.119,255.227c-.791,0-1.581.007-2.372,0-.986-.01-1.82-.284-1.809-1.462.01-1.1.793-1.372,1.731-1.373,1.631,0,3.262-.007,4.892,0,.958.006,1.706.387,1.68,1.442s-.814,1.374-1.749,1.388c-.791.012-1.581,0-2.372,0" transform="translate(-82.242 -177.502)" fill="#fff"/>
        <path id="Trazado_825808" data-name="Trazado 825808" d="M218.738,252.286a10.73,10.73,0,0,1,2.642.055c.578.151,1.02.82,1.522,1.258-.447.5-.861,1.382-1.347,1.424a34.429,34.429,0,0,1-5.743,0c-.471-.039-1.288-.942-1.217-1.307a2.151,2.151,0,0,1,1.355-1.359,11.386,11.386,0,0,1,2.788-.06v-.008" transform="translate(-150.92 -177.391)" fill="#fff"/>
        <path id="Trazado_825809" data-name="Trazado 825809" d="M121.263,97.412a12.5,12.5,0,0,1,2.8.057c.53.125,1.345.886,1.287,1.237-.092.554-.777,1.384-1.272,1.428a31.37,31.37,0,0,1-5.621,0c-.488-.044-1.173-.876-1.255-1.423-.055-.366.735-1.126,1.256-1.249a12.469,12.469,0,0,1,2.8-.058v.006" transform="translate(-82.427 -68.468)" fill="#fff"/>
        <path id="Trazado_825810" data-name="Trazado 825810" d="M218.661,100.288a10.037,10.037,0,0,1-2.642-.057,2.434,2.434,0,0,1-1.562-1.351c-.206-.89.577-1.39,1.484-1.4q2.657-.037,5.315,0c.911.013,1.685.51,1.458,1.414a2.477,2.477,0,0,1-1.559,1.343,8.943,8.943,0,0,1-2.494.055" transform="translate(-150.803 -68.542)" fill="#fff"/>
      </g>
    </g>
  </g>
</svg>
