<svg xmlns="http://www.w3.org/2000/svg" xmlns:xlink="http://www.w3.org/1999/xlink" width="141" height="141" viewBox="0 0 141 141">
  <defs>
    <clipPath id="clip-path">
      <rect id="Rectángulo_378531" data-name="Rectángulo 378531" width="86.773" height="86.82" fill="none"/>
    </clipPath>
  </defs>
  <g id="Grupo_1074508" data-name="Grupo 1074508" transform="translate(-269 -958)">
    <circle id="Elipse_5614" data-name="Elipse 5614" cx="70.5" cy="70.5" r="70.5" transform="translate(269 958)" fill="#590e00"/>
    <g id="Grupo_1074510" data-name="Grupo 1074510" transform="translate(289.2 985.09)">
      <g id="Grupo_1074509" data-name="Grupo 1074509" clip-path="url(#clip-path)">
        <path id="Trazado_825898" data-name="Trazado 825898" d="M42.072,65.7c-1.13.712-1.96,1.233-2.788,1.758C29.561,73.617,19.848,79.8,10.094,85.909a6.875,6.875,0,0,1-2.912.845c-1.432.14-2.89.008-4.335.044-1.291.032-2.371-.272-2.753-1.655-.363-1.314.369-2.1,1.419-2.758,3.52-2.2,7.017-4.438,10.522-6.662.53-.336,1.056-.677,1.7-1.09-.289-.48-.531-.9-.788-1.3Q9.439,67.775,5.929,62.223c-1.16-1.846-.924-2.892.911-4.06q6.685-4.253,13.385-8.483c1.8-1.134,2.936-.874,4.087.906.662,1.024,1.324,2.049,1.957,3.091.45.74.52,1.505-.323,2-.77.45-1.372.084-1.814-.621-.692-1.1-1.4-2.2-2.177-3.422l-3.832,2.391c.953,1.507,1.864,2.935,2.762,4.371,1.077,1.722.879,2.573-.847,3.687-.683.441-1.366.881-2.059,1.306-1.591.975-2.438.779-3.479-.829-.927-1.432-1.83-2.879-2.82-4.44L7.864,60.534l8.051,12.723,14.08-8.911c-.791-1.259-1.525-2.434-2.266-3.6-.473-.747-.768-1.547.108-2.142.975-.663,1.571.01,2.066.8.715,1.147,1.445,2.284,2.335,3.686,2.666-1.882,5.3-3.72,7.9-5.615.242-.176.312-.71.312-1.077q.022-23.386,0-46.772c0-.4-.11-.995-.382-1.173a2.853,2.853,0,0,1-1.189-2.71c0-1.084-.04-2.171.017-3.253A2.269,2.269,0,0,1,41.468.012C47.7-.007,53.941.008,60.177,0c.907,0,1.7.2,1.7,1.27.006,1.1-.8,1.249-1.7,1.247Q51.638,2.5,43.1,2.512H41.537v3.55H84.145V2.512H82.652q-7.727,0-15.455,0c-.919,0-1.845-.065-1.825-1.255C65.392.1,66.308,0,67.229,0,72.832.007,78.436,0,84.039.009c1.917,0,2.727.812,2.728,2.731q.01,35.113,0,70.225c0,2.268-1.127,3.388-3.434,3.416-2.575.031-5.153.047-7.727-.011-1.005-.023-1.471.175-1.7,1.311a11.636,11.636,0,0,1-22.67.2c-.1-.437-.233-.868-.4-1.488-1.611,0-3.27.005-4.929,0-2.815-.011-3.832-1.032-3.837-3.852,0-2.163,0-4.327,0-6.838M84.191,8.826h-41V57.179h41ZM71.647,75.188a9.1,9.1,0,1,0-9.172,9.08,9.123,9.123,0,0,0,9.172-9.08M41.5,63.374H84.177V59.957H41.5ZM38.778,61.79,3.488,84.16c2.7.3,4.851.18,6.87-1.34,2.154-1.621,4.538-2.936,6.822-4.384q10.453-6.622,20.9-13.256a1.833,1.833,0,0,0,.855-1.026,11.9,11.9,0,0,0-.156-2.364M69.94,66a12.318,12.318,0,0,1,4.138,7.114,1.189,1.189,0,0,0,.906.674q4.2.079,8.392,0c.3-.006.836-.462.843-.722.066-2.331.039-4.664.039-7.063Zm-25.291.011c0,2.41-.022,4.743.033,7.075a1.021,1.021,0,0,0,.712.7c1.834.06,3.671.032,5.513.032a12.718,12.718,0,0,1,4.235-7.8ZM13.832,56.753,16.678,61.2l2.095-1.374-2.8-4.42-2.141,1.351" transform="translate(0 0)" fill="#fff"/>
        <path id="Trazado_825899" data-name="Trazado 825899" d="M24.672,111.858c.465.78.9,1.464,1.289,2.173.986,1.786.03,3.488-2,3.393-3.337-.155-6.667-.441-10-.674-.63-.044-1.259-.1-1.889-.149a2.1,2.1,0,0,1-2-2.932q2.288-5.71,4.763-11.345a2.128,2.128,0,0,1,3.766-.276c.53.72.972,1.506,1.5,2.334L31.46,97.4c2.622-1.61,3.284-1.454,4.871,1.138.447.731.908,1.454,1.34,2.194.931,1.6.681,2.65-.913,3.639-3.758,2.331-7.531,4.639-11.3,6.958-.229.141-.447.3-.788.526M33.684,99.1c-.417.22-.661.332-.889.472-3.843,2.356-7.678,4.726-11.529,7.071-1.466.892-2.372.655-3.284-.776l-1.155-1.811-4.212,10.067,10.825.717c-.454-.768-.72-1.221-.99-1.673-.968-1.619-.773-2.481.812-3.472,1.223-.765,2.46-1.51,3.688-2.267,2.832-1.745,5.663-3.491,8.587-5.294L33.684,99.1" transform="translate(-7.207 -70.227)" fill="#fff"/>
        <path id="Trazado_825900" data-name="Trazado 825900" d="M109.393,163.153a3.9,3.9,0,0,1-.831.96c-2.523,1.647-5.076,3.247-7.625,4.855-.736.464-1.515.553-1.98-.293-.434-.789-.084-1.431.691-1.913,2.519-1.566,5.005-3.184,7.524-4.751,1.1-.683,2.16-.26,2.222,1.142" transform="translate(-71.983 -117.842)" fill="#fff"/>
        <path id="Trazado_825901" data-name="Trazado 825901" d="M115.953,183.425a3.291,3.291,0,0,1-.732.92c-1.724,1.147-3.49,2.231-5.242,3.335-.753.474-1.492.5-1.992-.309-.475-.77-.087-1.37.6-1.81,1.749-1.112,3.48-2.256,5.257-3.322a1.3,1.3,0,0,1,2.1,1.186" transform="translate(-78.549 -132.619)" fill="#fff"/>
        <path id="Trazado_825902" data-name="Trazado 825902" d="M122.708,203.454c-.039.946-3.889,3.486-4.776,3.151a1.23,1.23,0,0,1-.374-2.161,25.621,25.621,0,0,1,3.406-2.155,1.186,1.186,0,0,1,1.745,1.165" transform="translate(-85.314 -147.321)" fill="#fff"/>
        <path id="Trazado_825903" data-name="Trazado 825903" d="M172.9,62.8q0-9.887.009-19.774a2.8,2.8,0,0,1,.229-1.429,1.536,1.536,0,0,1,1.173-.637,1.635,1.635,0,0,1,1.055.821,2.964,2.964,0,0,1,.123,1.327q.007,19.706,0,39.412c0,.316.112.713-.036.932a12.143,12.143,0,0,1-1.222,1.36,9.764,9.764,0,0,1-1.293-1.311c-.17-.246-.04-.7-.04-1.063q0-9.819,0-19.638" transform="translate(-125.976 -29.849)" fill="#fff"/>
        <path id="Trazado_825904" data-name="Trazado 825904" d="M243.727,62.785q0,9.754,0,19.508c0,.406.132.9-.053,1.2-.3.474-.773,1.057-1.246,1.131-.356.056-.938-.542-1.209-.98a2.756,2.756,0,0,1-.108-1.324q-.006-19.576,0-39.152c0-.181,0-.361,0-.542.023-.9.119-1.809,1.308-1.817s1.314.863,1.313,1.792q-.006,7.18,0,14.36v5.825" transform="translate(-175.706 -29.74)" fill="#fff"/>
        <path id="Trazado_825905" data-name="Trazado 825905" d="M263.934,62.864q0-9.818,0-19.636c0-.406-.127-.9.056-1.2.268-.438.75-1,1.165-1.021s.977.5,1.222.922a3.167,3.167,0,0,1,.119,1.459q.007,19.5-.006,39c0,.991.284,2.375-1.229,2.405-1.63.033-1.32-1.392-1.322-2.432q-.018-9.75-.006-19.5" transform="translate(-192.327 -29.888)" fill="#fff"/>
        <path id="Trazado_825906" data-name="Trazado 825906" d="M221.171,62.845q0,9.962,0,19.924c0,.405.1.914-.1,1.19a1.847,1.847,0,0,1-1.214.823c-.385-.014-.85-.533-1.09-.941a2.609,2.609,0,0,1-.073-1.2q0-19.789,0-39.577c0-.361-.112-.813.06-1.063.29-.422.769-.993,1.162-.988.412,0,.916.551,1.192.981.187.292.06.791.06,1.2q0,9.827,0,19.653" transform="translate(-159.361 -29.892)" fill="#fff"/>
        <path id="Trazado_825907" data-name="Trazado 825907" d="M195.885,62.8q0-10.02.012-20.041a2.508,2.508,0,0,1,.308-1.389,1.392,1.392,0,0,1,1.153-.434,1.476,1.476,0,0,1,.939.8,3.983,3.983,0,0,1,.117,1.467q.007,19.635,0,39.269c0,.226,0,.451,0,.677.011.856-.232,1.6-1.216,1.617-1.037.014-1.323-.71-1.321-1.651q.019-9.682.006-19.364,0-.474,0-.948" transform="translate(-142.759 -29.826)" fill="#fff"/>
        <path id="Trazado_825908" data-name="Trazado 825908" d="M289.274,62.919q0,9.826,0,19.653c0,.406.132.9-.05,1.2-.268.439-.764,1.018-1.164,1.019s-.91-.566-1.187-1c-.187-.294-.06-.791-.06-1.2q0-19.721,0-39.441c0-.361-.125-.822.048-1.062.322-.446.793-1,1.256-1.056.336-.04.838.6,1.114,1.034.165.259.043.7.043,1.065q0,9.894,0,19.788" transform="translate(-208.999 -29.903)" fill="#fff"/>
        <path id="Trazado_825909" data-name="Trazado 825909" d="M215.222,267.3a5.711,5.711,0,1,1,5.758-5.758,5.731,5.731,0,0,1-5.758,5.758m3.169-5.736a3.179,3.179,0,1,0-6.356.122,3.179,3.179,0,1,0,6.356-.122" transform="translate(-152.65 -186.487)" fill="#fff"/>
      </g>
    </g>
  </g>
</svg>
