<svg xmlns="http://www.w3.org/2000/svg" width="505" height="273.157" viewBox="0 0 505 273.157">
  <g id="Grupo_1074921" data-name="Grupo 1074921" transform="translate(3122 1553.903)">
    <path id="Background" d="M16,0H489a16,16,0,0,1,16,16V257.157a16,16,0,0,1-16,16H16a16,16,0,0,1-16-16V16A16,16,0,0,1,16,0Z" transform="translate(-3122 -1553.903)" fill="#dbe5f3"/>
    <path id="Trazado_826550" data-name="Trazado 826550" d="M273.5.019,0,0" transform="translate(-3088 -1400.519)" fill="none" stroke="#590e00" stroke-linecap="round" stroke-width="3"/>
    <path id="Trazado_826551" data-name="Trazado 826551" d="M14.065,23H3.463l.387-2.492,5.564-5.167.763-.763a4.436,4.436,0,0,0,1.644-3.405,1.228,1.228,0,0,0-1.289-1.278,1.7,1.7,0,0,0-1.4.671,3.436,3.436,0,0,0-.714,1.81L4.9,12.4a5.364,5.364,0,0,1,.892-2.691A5.554,5.554,0,0,1,7.948,7.8a6.14,6.14,0,0,1,2.874-.677,5.08,5.08,0,0,1,3.545,1.241,3.816,3.816,0,0,1,1.1,3.239,5.285,5.285,0,0,1-.79,2.342,12.07,12.07,0,0,1-2.014,2.4l-1.633,1.5L8.6,20.186l5.908.021Zm2.353-1.633a1.7,1.7,0,0,1,.559-1.354,2.086,2.086,0,0,1,2.739-.048,1.677,1.677,0,0,1,.58,1.273,1.719,1.719,0,0,1-.548,1.348,2.1,2.1,0,0,1-2.761.048A1.7,1.7,0,0,1,16.418,21.367Zm7.444-6.059,2.17-7.949h8.916L34.5,10.174H28.514L27.558,13.3a4.048,4.048,0,0,1,2.159-.58,3.785,3.785,0,0,1,3.174,1.429,5.176,5.176,0,0,1,.918,3.738,5.663,5.663,0,0,1-5.887,5.339,5.489,5.489,0,0,1-2.519-.645,4.438,4.438,0,0,1-1.756-1.67,4.505,4.505,0,0,1-.612-2.369h3.523a2.206,2.206,0,0,0,.419,1.343,1.4,1.4,0,0,0,1.117.526,1.736,1.736,0,0,0,1.461-.661A3.961,3.961,0,0,0,30.3,17.64a2.722,2.722,0,0,0-.322-1.81,1.522,1.522,0,0,0-1.343-.618,2.463,2.463,0,0,0-1.9.795ZM45.7,18.714l-1.289,1.117L43.864,23H40.33L43.2,6.489h3.534L45.1,15.3l.43-.516,3.212-3.405h4.479l-4.941,4.941,3,6.682H47.4ZM55.81,23H52.265l2.02-11.623h3.545ZM54.6,8.444a1.639,1.639,0,0,1,.553-1.311,1.986,1.986,0,0,1,1.391-.526,2.051,2.051,0,0,1,1.38.473A1.611,1.611,0,0,1,58.5,8.315a1.642,1.642,0,0,1-.548,1.316,1.993,1.993,0,0,1-1.4.521,2.076,2.076,0,0,1-1.37-.467A1.592,1.592,0,0,1,54.6,8.444ZM61.782,23H58.237L61.095,6.5H64.64Zm9.023-11.838a4.881,4.881,0,0,1,2.7.779,4.388,4.388,0,0,1,1.67,2.111,6.514,6.514,0,0,1,.381,3.008l-.021.236a6.888,6.888,0,0,1-1.987,4.318,5.592,5.592,0,0,1-4.168,1.6,4.861,4.861,0,0,1-2.675-.768,4.415,4.415,0,0,1-1.67-2.089,6.33,6.33,0,0,1-.392-2.986,7.165,7.165,0,0,1,1.96-4.555A5.557,5.557,0,0,1,70.806,11.162Zm-2.632,6.214-.032.633q-.15,2.391,1.461,2.434,2.084.064,2.417-3.378l.043-.976a2.634,2.634,0,0,0-.36-1.539,1.311,1.311,0,0,0-1.123-.6,1.848,1.848,0,0,0-1.606.8A5.228,5.228,0,0,0,68.174,17.376Zm8.551-.209A8.832,8.832,0,0,1,77.686,14a5.579,5.579,0,0,1,1.9-2.143,4.565,4.565,0,0,1,2.578-.7A3.174,3.174,0,0,1,84.8,12.408l.376-1.042,3.266.011-1.9,11.172a5.46,5.46,0,0,1-2.073,3.728,6.6,6.6,0,0,1-4.361,1.3,6.227,6.227,0,0,1-2.245-.462A4.837,4.837,0,0,1,76,25.782L77.681,23.7a3.042,3.042,0,0,0,2.428,1.214,2.841,2.841,0,0,0,2.986-2.5l.086-.354a3.634,3.634,0,0,1-2.653,1.16,3.584,3.584,0,0,1-1.966-.564,3.708,3.708,0,0,1-1.332-1.6,6.2,6.2,0,0,1-.548-2.32A10.087,10.087,0,0,1,76.725,17.167Zm3.491,1.149a2.819,2.819,0,0,0,.354,1.536,1.2,1.2,0,0,0,1.031.569,2.362,2.362,0,0,0,1.815-.773l.913-4.931a1.566,1.566,0,0,0-1.439-.773,2.057,2.057,0,0,0-1.729.875,4.72,4.72,0,0,0-.881,2.358Q80.216,17.854,80.216,18.316ZM96.9,14.653a10.111,10.111,0,0,0-1.1-.107,2.729,2.729,0,0,0-2.428,1.1L92.064,23H88.53l2.02-11.623,3.3-.011-.269,1.525a3.227,3.227,0,0,1,2.686-1.762,5.065,5.065,0,0,1,1.1.15ZM102.936,23a3.152,3.152,0,0,1-.15-1.053,3.585,3.585,0,0,1-2.847,1.268,3.5,3.5,0,0,1-2.514-1.01,3.035,3.035,0,0,1-.935-2.4A3.409,3.409,0,0,1,98.069,16.9a7.445,7.445,0,0,1,4.168-1.015l1.182.021.129-.655.043-.569a.923.923,0,0,0-.978-1.01,1.358,1.358,0,0,0-1.429,1.278l-3.545.011a3.367,3.367,0,0,1,.763-2.036,4.52,4.52,0,0,1,1.928-1.332,6.737,6.737,0,0,1,2.594-.435,5.2,5.2,0,0,1,2.315.553,3.446,3.446,0,0,1,1.488,1.45,3.7,3.7,0,0,1,.376,2.143l-.87,5.468-.054.666a2.936,2.936,0,0,0,.2,1.354l-.011.2Zm-2.02-2.342a2.28,2.28,0,0,0,1.9-.956l.354-1.869-.913-.011a2.406,2.406,0,0,0-1.461.5,1.894,1.894,0,0,0-.72,1.305.951.951,0,0,0,.167.725A.85.85,0,0,0,100.916,20.658Zm12.225-9.292-.236,1.4a4.173,4.173,0,0,1,3.395-1.6,3.066,3.066,0,0,1,1.729.494,2.252,2.252,0,0,1,.9,1.257,4.424,4.424,0,0,1,3.534-1.751,2.739,2.739,0,0,1,2.39,1.208,5.032,5.032,0,0,1,.564,3.314L124.205,23H120.66l1.235-7.317.043-.633q0-1.062-1-1.094a2.288,2.288,0,0,0-1.74.955L117.792,23h-3.545l1.225-7.3.043-.644q0-1.105-1-1.105a2.273,2.273,0,0,0-1.719.955L111.368,23h-3.534l2.02-11.623Zm19.938-.2a4.881,4.881,0,0,1,2.7.779,4.388,4.388,0,0,1,1.67,2.111,6.514,6.514,0,0,1,.381,3.008l-.021.236a6.888,6.888,0,0,1-1.987,4.318,5.592,5.592,0,0,1-4.168,1.6,4.861,4.861,0,0,1-2.675-.768,4.415,4.415,0,0,1-1.67-2.089,6.33,6.33,0,0,1-.392-2.986,7.165,7.165,0,0,1,1.96-4.555A5.557,5.557,0,0,1,133.078,11.162Zm-2.632,6.214-.032.633q-.15,2.391,1.461,2.434,2.084.064,2.417-3.378l.043-.976a2.634,2.634,0,0,0-.36-1.539,1.311,1.311,0,0,0-1.123-.6,1.848,1.848,0,0,0-1.606.8A5.228,5.228,0,0,0,130.446,17.376Zm14.5,2.294q.14-.709-1.1-1.063l-.763-.193a5.873,5.873,0,0,1-2.739-1.386,2.743,2.743,0,0,1-.816-2.116,3.371,3.371,0,0,1,1.488-2.723,5.662,5.662,0,0,1,3.5-1.026,5.246,5.246,0,0,1,3.325,1.042,3.4,3.4,0,0,1,1.294,2.75l-3.523-.011q.043-1.375-1.214-1.375a1.731,1.731,0,0,0-1,.317,1.231,1.231,0,0,0-.548.843q-.183.87,1.536,1.192a8.927,8.927,0,0,1,2.31.822,3.448,3.448,0,0,1,1.246,1.155,2.872,2.872,0,0,1,.4,1.654,3.106,3.106,0,0,1-.687,1.88,4.452,4.452,0,0,1-1.9,1.321,6.791,6.791,0,0,1-2.691.462,5.462,5.462,0,0,1-2.336-.526,4.166,4.166,0,0,1-1.687-1.4,3.641,3.641,0,0,1-.628-2.036l3.287.021a1.358,1.358,0,0,0,1.547,1.525,2.03,2.03,0,0,0,1.117-.3A1.278,1.278,0,0,0,144.948,19.67Zm18.1-13.943.548,1.826a10.205,10.205,0,0,0-3.244,4.286,23.275,23.275,0,0,0-1.525,7.176l-.054,1.053q-.161,4.394,1.891,5.983l-.773,1.783A5.867,5.867,0,0,1,157.7,25.9a8.6,8.6,0,0,1-1.289-3.131,15.8,15.8,0,0,1-.333-3.846,21.132,21.132,0,0,1,.988-5.769,14.7,14.7,0,0,1,2.417-4.716A8.369,8.369,0,0,1,163.049,5.727Zm4.834,14.7A1.521,1.521,0,0,0,169.075,20a2.1,2.1,0,0,0,.548-1.147l3.309-.011a4.35,4.35,0,0,1-.757,2.288,4.577,4.577,0,0,1-1.869,1.563,5.526,5.526,0,0,1-2.519.521,4.364,4.364,0,0,1-3.577-1.67,5.777,5.777,0,0,1-1.021-4.206l.032-.258a7.787,7.787,0,0,1,.988-3.121,5.654,5.654,0,0,1,2.089-2.1,5.419,5.419,0,0,1,2.9-.7,4.322,4.322,0,0,1,3.207,1.294,4.59,4.59,0,0,1,1.133,3.378l-3.309-.011q.054-1.837-1.321-1.869-1.869-.064-2.148,3.137l-.1,1.092-.011.407Q166.647,20.39,167.883,20.422ZM180.247,23a3.151,3.151,0,0,1-.15-1.053,3.585,3.585,0,0,1-2.847,1.268,3.5,3.5,0,0,1-2.514-1.01,3.035,3.035,0,0,1-.935-2.4,3.41,3.41,0,0,1,1.579-2.906,7.445,7.445,0,0,1,4.168-1.015l1.182.021.129-.655.043-.569a.923.923,0,0,0-.978-1.01,1.358,1.358,0,0,0-1.429,1.278l-3.545.011a3.367,3.367,0,0,1,.763-2.036,4.52,4.52,0,0,1,1.928-1.332,6.737,6.737,0,0,1,2.594-.435,5.2,5.2,0,0,1,2.315.553,3.446,3.446,0,0,1,1.488,1.45,3.7,3.7,0,0,1,.376,2.143l-.87,5.468-.054.666a2.936,2.936,0,0,0,.2,1.354l-.011.2Zm-2.02-2.342a2.28,2.28,0,0,0,1.9-.956l.354-1.869-.913-.011a2.406,2.406,0,0,0-1.461.5,1.894,1.894,0,0,0-.72,1.305.951.951,0,0,0,.167.725A.85.85,0,0,0,178.228,20.658Zm12.139-9.292-.247,1.4a4.131,4.131,0,0,1,3.362-1.611,2.775,2.775,0,0,1,2.4,1.2,5.013,5.013,0,0,1,.575,3.335L195.232,23h-3.545l1.235-7.346a3.8,3.8,0,0,0,.021-.688q-.075-1.022-1.2-1.022a2.209,2.209,0,0,0-1.708.828L188.583,23h-3.534l2.02-11.623Zm13.524-2.879-.5,2.89h1.858l-.44,2.514h-1.858l-.9,5.339a1.423,1.423,0,0,0,.07.827q.145.279.725.3a8.4,8.4,0,0,0,.924-.054l-.258,2.621a5.712,5.712,0,0,1-1.9.269,3.132,3.132,0,0,1-2.46-.967,3.3,3.3,0,0,1-.666-2.567l.945-5.769h-1.439l.43-2.514h1.439l.5-2.89ZM208.424,23h-3.545l2.02-11.623h3.545ZM207.21,8.444a1.639,1.639,0,0,1,.553-1.311,1.986,1.986,0,0,1,1.391-.526,2.051,2.051,0,0,1,1.38.473,1.611,1.611,0,0,1,.575,1.235,1.642,1.642,0,0,1-.548,1.316,1.993,1.993,0,0,1-1.4.521,2.076,2.076,0,0,1-1.37-.467A1.592,1.592,0,0,1,207.21,8.444Zm4.039,8.723a8.454,8.454,0,0,1,1.676-4.4,4.153,4.153,0,0,1,3.5-1.6,3.168,3.168,0,0,1,2.46,1.246L220.015,6.5h3.545L220.7,23h-3.147l.15-1.257a3.627,3.627,0,0,1-2.89,1.482,3.2,3.2,0,0,1-2.626-1.241,5.471,5.471,0,0,1-1.015-3.271,10.06,10.06,0,0,1,.043-1.321Zm3.523.247a8.436,8.436,0,0,0-.075,1.2q0,1.783,1.2,1.815a2.254,2.254,0,0,0,1.858-1l.795-4.458a1.431,1.431,0,0,0-1.418-1.021,1.807,1.807,0,0,0-1.6.854A5.508,5.508,0,0,0,214.772,17.414ZM229.328,23a3.151,3.151,0,0,1-.15-1.053,3.585,3.585,0,0,1-2.847,1.268,3.5,3.5,0,0,1-2.514-1.01,3.035,3.035,0,0,1-.935-2.4,3.41,3.41,0,0,1,1.579-2.906,7.445,7.445,0,0,1,4.168-1.015l1.182.021.129-.655.043-.569a.923.923,0,0,0-.978-1.01,1.358,1.358,0,0,0-1.429,1.278l-3.545.011a3.367,3.367,0,0,1,.763-2.036,4.52,4.52,0,0,1,1.928-1.332,6.737,6.737,0,0,1,2.594-.435,5.2,5.2,0,0,1,2.315.553,3.446,3.446,0,0,1,1.488,1.45,3.7,3.7,0,0,1,.376,2.143l-.87,5.468-.054.666a2.936,2.936,0,0,0,.2,1.354l-.011.2Zm-2.02-2.342a2.28,2.28,0,0,0,1.9-.956l.354-1.869-.913-.011a2.406,2.406,0,0,0-1.461.5,1.894,1.894,0,0,0-.72,1.305.951.951,0,0,0,.167.725A.85.85,0,0,0,227.309,20.658Zm7.477-3.491a8.454,8.454,0,0,1,1.676-4.4,4.153,4.153,0,0,1,3.5-1.6,3.168,3.168,0,0,1,2.46,1.246L243.551,6.5H247.1L244.238,23h-3.147l.15-1.257a3.627,3.627,0,0,1-2.89,1.482,3.2,3.2,0,0,1-2.626-1.241,5.471,5.471,0,0,1-1.015-3.271,10.06,10.06,0,0,1,.043-1.321Zm3.523.247a8.436,8.436,0,0,0-.075,1.2q0,1.783,1.2,1.815a2.254,2.254,0,0,0,1.858-1l.795-4.458a1.431,1.431,0,0,0-1.418-1.021,1.807,1.807,0,0,0-1.6.854A5.508,5.508,0,0,0,238.309,17.414ZM20.06,47.2a9.655,9.655,0,0,1-.956,3.25,5.314,5.314,0,0,1-1.81,2.116,4.176,4.176,0,0,1-2.412.661,3.158,3.158,0,0,1-2.471-1.2l-1.053,5.446H7.824l2.793-16.092,3.266-.011L13.7,42.473a3.416,3.416,0,0,1,2.761-1.311,3.253,3.253,0,0,1,2.648,1.214,5.363,5.363,0,0,1,1.015,3.255A12.557,12.557,0,0,1,20.06,47.2ZM16.622,45.76q-.054-1.772-1.2-1.8a2.083,2.083,0,0,0-1.858.913l-.827,4.608a1.434,1.434,0,0,0,1.482.956q1.88.032,2.31-3.233Q16.622,46.168,16.622,45.76ZM27.246,53a3.151,3.151,0,0,1-.15-1.053,3.585,3.585,0,0,1-2.847,1.268,3.5,3.5,0,0,1-2.514-1.01,3.035,3.035,0,0,1-.935-2.4A3.409,3.409,0,0,1,22.38,46.9a7.445,7.445,0,0,1,4.168-1.015l1.182.021.129-.655.043-.569a.923.923,0,0,0-.978-1.01A1.358,1.358,0,0,0,25.5,44.954l-3.545.011a3.367,3.367,0,0,1,.763-2.036A4.52,4.52,0,0,1,24.641,41.6a6.737,6.737,0,0,1,2.594-.435,5.2,5.2,0,0,1,2.315.553,3.446,3.446,0,0,1,1.488,1.45,3.7,3.7,0,0,1,.376,2.143l-.87,5.468-.054.666a2.936,2.936,0,0,0,.2,1.354l-.011.2Zm-2.02-2.342a2.28,2.28,0,0,0,1.9-.956l.354-1.869-.913-.011a2.406,2.406,0,0,0-1.461.5,1.894,1.894,0,0,0-.72,1.305.951.951,0,0,0,.167.725A.85.85,0,0,0,25.227,50.658Zm15.286-6a10.111,10.111,0,0,0-1.1-.107,2.729,2.729,0,0,0-2.428,1.1L35.679,53H32.145l2.02-11.623,3.3-.011-.269,1.525a3.227,3.227,0,0,1,2.686-1.762,5.064,5.064,0,0,1,1.1.15ZM46.55,53a3.151,3.151,0,0,1-.15-1.053,3.585,3.585,0,0,1-2.847,1.268,3.5,3.5,0,0,1-2.514-1.01,3.035,3.035,0,0,1-.935-2.4A3.409,3.409,0,0,1,41.684,46.9a7.445,7.445,0,0,1,4.168-1.015l1.182.021.129-.655.043-.569a.923.923,0,0,0-.978-1.01A1.358,1.358,0,0,0,44.8,44.954l-3.545.011a3.367,3.367,0,0,1,.763-2.036A4.52,4.52,0,0,1,43.945,41.6a6.737,6.737,0,0,1,2.594-.435,5.2,5.2,0,0,1,2.315.553,3.446,3.446,0,0,1,1.488,1.45,3.7,3.7,0,0,1,.376,2.143l-.87,5.468-.054.666A2.936,2.936,0,0,0,50,52.8l-.011.2Zm-2.02-2.342a2.28,2.28,0,0,0,1.9-.956l.354-1.869-.913-.011a2.406,2.406,0,0,0-1.461.5,1.894,1.894,0,0,0-.72,1.305.951.951,0,0,0,.167.725A.85.85,0,0,0,44.53,50.658Zm17.7-.236A1.521,1.521,0,0,0,63.426,50a2.1,2.1,0,0,0,.548-1.147l3.309-.011a4.35,4.35,0,0,1-.757,2.288,4.577,4.577,0,0,1-1.869,1.563,5.526,5.526,0,0,1-2.519.521,4.364,4.364,0,0,1-3.577-1.67,5.777,5.777,0,0,1-1.021-4.206l.032-.258a7.787,7.787,0,0,1,.988-3.121,5.654,5.654,0,0,1,2.089-2.1,5.419,5.419,0,0,1,2.9-.7,4.322,4.322,0,0,1,3.207,1.294,4.59,4.59,0,0,1,1.133,3.378l-3.309-.011q.054-1.837-1.321-1.869-1.869-.064-2.148,3.137l-.1,1.092L61,48.591Q61,50.39,62.233,50.422Zm12.59-9.26a4.881,4.881,0,0,1,2.7.779,4.388,4.388,0,0,1,1.67,2.111,6.514,6.514,0,0,1,.381,3.008l-.021.236a6.888,6.888,0,0,1-1.987,4.318,5.592,5.592,0,0,1-4.168,1.6,4.861,4.861,0,0,1-2.675-.768,4.415,4.415,0,0,1-1.67-2.089,6.33,6.33,0,0,1-.392-2.986,7.165,7.165,0,0,1,1.96-4.555A5.557,5.557,0,0,1,74.823,41.162Zm-2.632,6.214-.032.633q-.15,2.391,1.461,2.434,2.084.064,2.417-3.378l.043-.976a2.634,2.634,0,0,0-.36-1.539,1.311,1.311,0,0,0-1.123-.6,1.848,1.848,0,0,0-1.606.8A5.228,5.228,0,0,0,72.191,47.376Zm13.191-6.01-.247,1.4A4.131,4.131,0,0,1,88.5,41.151a2.775,2.775,0,0,1,2.4,1.2,5.013,5.013,0,0,1,.575,3.335L90.249,53H86.7l1.235-7.346a3.8,3.8,0,0,0,.021-.688q-.075-1.022-1.2-1.022a2.209,2.209,0,0,0-1.708.828L83.6,53H80.065l2.02-11.623Zm12.149,7.283,2.911-7.272h3.813L98.757,53h-3.6L93.3,41.377h3.631Zm11.655,4.565a5.4,5.4,0,0,1-2.777-.736,4.636,4.636,0,0,1-1.842-2.02,5.426,5.426,0,0,1-.494-2.852l.032-.3a7.125,7.125,0,0,1,1.993-4.539,5.512,5.512,0,0,1,4.173-1.606,4.5,4.5,0,0,1,2.557.758,4.238,4.238,0,0,1,1.558,2.033,6.228,6.228,0,0,1,.322,2.91l-.2,1.474h-6.918a2.266,2.266,0,0,0,.516,1.482,1.894,1.894,0,0,0,1.439.6A3.658,3.658,0,0,0,112.3,49.24l1.482,1.96a4.373,4.373,0,0,1-1.832,1.462,6.432,6.432,0,0,1-2.573.552Zm.859-9.26a1.818,1.818,0,0,0-1.305.47,3.946,3.946,0,0,0-.961,1.646h3.534l.064-.31a2.358,2.358,0,0,0,.021-.705A1.244,1.244,0,0,0,110.047,43.955Zm13.481.7a10.111,10.111,0,0,0-1.1-.107,2.729,2.729,0,0,0-2.428,1.1L118.694,53H115.16l2.02-11.623,3.3-.011-.269,1.525a3.227,3.227,0,0,1,2.686-1.762,5.064,5.064,0,0,1,1.1.15Zm6.972-6.166-.5,2.89h1.858l-.44,2.514h-1.858l-.9,5.339a1.423,1.423,0,0,0,.07.827q.145.279.725.3a8.4,8.4,0,0,0,.924-.054l-.258,2.621a5.712,5.712,0,0,1-1.9.269,3.132,3.132,0,0,1-2.46-.967,3.3,3.3,0,0,1-.666-2.567l.945-5.769h-1.439l.43-2.514h1.439l.5-2.89ZM135.033,53h-3.545l2.02-11.623h3.545Zm-1.214-14.556a1.639,1.639,0,0,1,.553-1.311,1.986,1.986,0,0,1,1.391-.526,2.051,2.051,0,0,1,1.38.473,1.611,1.611,0,0,1,.575,1.235,1.642,1.642,0,0,1-.548,1.316,1.993,1.993,0,0,1-1.4.521,2.076,2.076,0,0,1-1.37-.467A1.592,1.592,0,0,1,133.819,38.444Zm11.849,6.209a10.112,10.112,0,0,0-1.1-.107,2.729,2.729,0,0,0-2.428,1.1L140.834,53H137.3l2.02-11.623,3.3-.011-.269,1.525a3.227,3.227,0,0,1,2.686-1.762,5.064,5.064,0,0,1,1.1.15Zm6.424,2.234a18.309,18.309,0,0,1-1.348,4.893,13.368,13.368,0,0,1-2.46,3.867,8.444,8.444,0,0,1-3.217,2.208l-.548-1.826a10.573,10.573,0,0,0,3.25-4.329,22.9,22.9,0,0,0,1.52-7.144l.064-1.053q.107-4.415-1.9-5.973l.784-1.783a6.282,6.282,0,0,1,2.9,3.045,12.637,12.637,0,0,1,1.117,5.172l.011.677a18.111,18.111,0,0,1-.14,1.944Zm23.192-2.331,2.138-3.18h3.824L177.282,47.2l2.127,5.8h-3.523l-1.225-3.416L172.395,53h-3.867l4.168-6.123-2.03-5.5h3.556ZM199.046,53H195.5l2-11.494-3.642,1.031.494-2.868,6.918-2.31.4-.011Zm10.13.215a4.659,4.659,0,0,1-2.326-.628,3.889,3.889,0,0,1-1.531-1.751,6.626,6.626,0,0,1-.58-2.626,10.01,10.01,0,0,1,.064-1.6l.408-2.729a9.25,9.25,0,0,1,2.116-5.043,5.234,5.234,0,0,1,4.136-1.692,4.129,4.129,0,0,1,3.2,1.375A5.7,5.7,0,0,1,215.9,42.15a10.937,10.937,0,0,1-.075,1.6l-.43,2.782a9.166,9.166,0,0,1-2.132,5.038A5.236,5.236,0,0,1,209.176,53.215Zm3.19-9.947a12.345,12.345,0,0,0,.107-1.321q0-1.966-1.246-2.03-1.912-.1-2.374,3.276l-.569,3.867a12.233,12.233,0,0,0-.107,1.321q-.054,1.987,1.235,2.063,1.944.1,2.4-3.362Zm9.271,9.947a4.659,4.659,0,0,1-2.326-.628,3.889,3.889,0,0,1-1.531-1.751,6.626,6.626,0,0,1-.58-2.626,10.01,10.01,0,0,1,.064-1.6l.408-2.729a9.25,9.25,0,0,1,2.116-5.043,5.234,5.234,0,0,1,4.136-1.692,4.129,4.129,0,0,1,3.2,1.375,5.7,5.7,0,0,1,1.241,3.631,10.937,10.937,0,0,1-.075,1.6l-.43,2.782a9.166,9.166,0,0,1-2.132,5.038A5.236,5.236,0,0,1,221.637,53.215Zm3.19-9.947a12.345,12.345,0,0,0,.107-1.321q0-1.966-1.246-2.03-1.912-.1-2.374,3.276l-.569,3.867a12.233,12.233,0,0,0-.107,1.321q-.054,1.987,1.235,2.063,1.944.1,2.4-3.362Zm9.271,9.947a4.659,4.659,0,0,1-2.326-.628,3.889,3.889,0,0,1-1.531-1.751,6.626,6.626,0,0,1-.58-2.626,10.01,10.01,0,0,1,.064-1.6l.408-2.729a9.25,9.25,0,0,1,2.116-5.043,5.234,5.234,0,0,1,4.136-1.692,4.129,4.129,0,0,1,3.2,1.375,5.7,5.7,0,0,1,1.241,3.631,10.937,10.937,0,0,1-.075,1.6l-.43,2.782a9.166,9.166,0,0,1-2.132,5.038A5.236,5.236,0,0,1,234.1,53.215Zm3.19-9.947a12.345,12.345,0,0,0,.107-1.321q0-1.966-1.246-2.03-1.912-.1-2.374,3.276l-.569,3.867a12.233,12.233,0,0,0-.107,1.321q-.054,1.987,1.235,2.063,1.944.1,2.4-3.362ZM10.972,77.167A8.832,8.832,0,0,1,11.933,74a5.579,5.579,0,0,1,1.9-2.143,4.565,4.565,0,0,1,2.578-.7,3.174,3.174,0,0,1,2.643,1.257l.376-1.042,3.266.011-1.9,11.172a5.46,5.46,0,0,1-2.073,3.728,6.6,6.6,0,0,1-4.361,1.3,6.227,6.227,0,0,1-2.245-.462,4.837,4.837,0,0,1-1.858-1.332L11.928,83.7a3.042,3.042,0,0,0,2.428,1.214,2.841,2.841,0,0,0,2.986-2.5l.086-.354a3.634,3.634,0,0,1-2.653,1.16,3.584,3.584,0,0,1-1.966-.564,3.708,3.708,0,0,1-1.332-1.6,6.2,6.2,0,0,1-.548-2.32A10.087,10.087,0,0,1,10.972,77.167Zm3.491,1.149a2.819,2.819,0,0,0,.354,1.536,1.2,1.2,0,0,0,1.031.569,2.362,2.362,0,0,0,1.815-.773l.913-4.931a1.566,1.566,0,0,0-1.439-.773,2.057,2.057,0,0,0-1.729.875,4.72,4.72,0,0,0-.881,2.358Q14.463,77.854,14.463,78.316Zm16.683-3.663a10.111,10.111,0,0,0-1.1-.107,2.729,2.729,0,0,0-2.428,1.1L26.312,83H22.777L24.8,71.377l3.3-.011-.269,1.525a3.227,3.227,0,0,1,2.686-1.762,5.065,5.065,0,0,1,1.1.15ZM37.183,83a3.151,3.151,0,0,1-.15-1.053,3.585,3.585,0,0,1-2.847,1.268,3.5,3.5,0,0,1-2.514-1.01,3.035,3.035,0,0,1-.935-2.4A3.409,3.409,0,0,1,32.316,76.9a7.445,7.445,0,0,1,4.168-1.015l1.182.021.129-.655.043-.569a.923.923,0,0,0-.978-1.01,1.358,1.358,0,0,0-1.429,1.278l-3.545.011a3.367,3.367,0,0,1,.763-2.036A4.52,4.52,0,0,1,34.578,71.6a6.737,6.737,0,0,1,2.594-.435,5.2,5.2,0,0,1,2.315.553,3.446,3.446,0,0,1,1.488,1.45,3.7,3.7,0,0,1,.376,2.143l-.87,5.468-.054.666a2.936,2.936,0,0,0,.2,1.354l-.011.2Zm-2.02-2.342a2.28,2.28,0,0,0,1.9-.956l.354-1.869-.913-.011a2.406,2.406,0,0,0-1.461.5,1.894,1.894,0,0,0-.72,1.305.951.951,0,0,0,.167.725A.85.85,0,0,0,35.163,80.658Zm12.225-9.292-.236,1.4a4.173,4.173,0,0,1,3.395-1.6,3.066,3.066,0,0,1,1.729.494,2.252,2.252,0,0,1,.9,1.257,4.424,4.424,0,0,1,3.534-1.751,2.739,2.739,0,0,1,2.39,1.208,5.032,5.032,0,0,1,.564,3.314L58.452,83H54.907l1.235-7.317.043-.633q0-1.062-1-1.094a2.288,2.288,0,0,0-1.74.955L52.039,83H48.494l1.225-7.3.043-.644q0-1.105-1-1.105a2.273,2.273,0,0,0-1.719.955L45.615,83H42.081L44.1,71.377Zm19.938-.2a4.881,4.881,0,0,1,2.7.779,4.388,4.388,0,0,1,1.67,2.111,6.514,6.514,0,0,1,.381,3.008l-.021.236a6.888,6.888,0,0,1-1.987,4.318,5.592,5.592,0,0,1-4.168,1.6,4.861,4.861,0,0,1-2.675-.768,4.415,4.415,0,0,1-1.67-2.089,6.33,6.33,0,0,1-.392-2.986,7.165,7.165,0,0,1,1.96-4.555A5.557,5.557,0,0,1,67.325,71.162Zm-2.632,6.214-.032.633q-.15,2.391,1.461,2.434,2.084.064,2.417-3.378l.043-.976a2.634,2.634,0,0,0-.36-1.539,1.311,1.311,0,0,0-1.123-.6,1.848,1.848,0,0,0-1.606.8A5.228,5.228,0,0,0,64.693,77.376ZM79.2,79.67q.14-.709-1.1-1.063l-.763-.193A5.874,5.874,0,0,1,74.6,77.027a2.743,2.743,0,0,1-.816-2.116,3.371,3.371,0,0,1,1.488-2.723,5.662,5.662,0,0,1,3.5-1.026A5.246,5.246,0,0,1,82.09,72.2a3.4,3.4,0,0,1,1.294,2.75l-3.523-.011q.043-1.375-1.214-1.375a1.731,1.731,0,0,0-1,.317,1.231,1.231,0,0,0-.548.843q-.183.87,1.536,1.192a8.927,8.927,0,0,1,2.31.822A3.448,3.448,0,0,1,82.192,77.9a2.872,2.872,0,0,1,.4,1.654,3.106,3.106,0,0,1-.687,1.88,4.452,4.452,0,0,1-1.9,1.321,6.791,6.791,0,0,1-2.691.462,5.462,5.462,0,0,1-2.336-.526,4.166,4.166,0,0,1-1.687-1.4,3.641,3.641,0,0,1-.628-2.036l3.287.021A1.358,1.358,0,0,0,77.5,80.8a2.03,2.03,0,0,0,1.117-.3A1.278,1.278,0,0,0,79.2,79.67ZM97.3,65.727l.548,1.826A10.205,10.205,0,0,0,94.6,71.839a23.275,23.275,0,0,0-1.525,7.176l-.054,1.053q-.161,4.394,1.891,5.983l-.773,1.783A5.867,5.867,0,0,1,91.946,85.9a8.6,8.6,0,0,1-1.289-3.131,15.8,15.8,0,0,1-.333-3.846,21.133,21.133,0,0,1,.988-5.769,14.7,14.7,0,0,1,2.417-4.716A8.369,8.369,0,0,1,97.3,65.727Zm5.231,17.488a5.4,5.4,0,0,1-2.777-.736,4.636,4.636,0,0,1-1.842-2.02,5.426,5.426,0,0,1-.494-2.852l.032-.3a7.125,7.125,0,0,1,1.993-4.539,5.512,5.512,0,0,1,4.173-1.606,4.5,4.5,0,0,1,2.557.758,4.238,4.238,0,0,1,1.558,2.033,6.228,6.228,0,0,1,.322,2.91l-.2,1.474h-6.918a2.266,2.266,0,0,0,.516,1.482,1.894,1.894,0,0,0,1.439.6,3.658,3.658,0,0,0,2.761-1.182l1.482,1.96a4.373,4.373,0,0,1-1.832,1.462,6.432,6.432,0,0,1-2.573.552Zm.859-9.26a1.818,1.818,0,0,0-1.305.47,3.946,3.946,0,0,0-.961,1.646h3.534l.064-.31a2.358,2.358,0,0,0,.021-.705A1.244,1.244,0,0,0,103.387,73.955Zm5.672,3.18a9.754,9.754,0,0,1,.924-3.207,5.125,5.125,0,0,1,1.789-2.111,4.278,4.278,0,0,1,2.455-.655,3.023,3.023,0,0,1,2.643,1.482l.548-1.278,3.1.011-2.793,16.092h-3.545l1.085-5.457a3.415,3.415,0,0,1-2.653,1.2,3.189,3.189,0,0,1-2.6-1.235,5.477,5.477,0,0,1-1.021-3.3A12.532,12.532,0,0,1,109.059,77.135Zm3.459,1.117a2.93,2.93,0,0,0,.226,1.552,1.052,1.052,0,0,0,.967.618,2.159,2.159,0,0,0,1.848-.935l.827-4.63a1.419,1.419,0,0,0-1.429-.924q-1.944-.032-2.353,3.2Zm15.243,3.48a3.847,3.847,0,0,1-3.137,1.493,3.045,3.045,0,0,1-2.573-1.192,4.4,4.4,0,0,1-.671-3.137l1.257-7.52h3.534l-1.278,7.572a2.523,2.523,0,0,0,0,.57.936.936,0,0,0,1.042.914,2.283,2.283,0,0,0,1.9-.882l1.439-8.174h3.556L130.812,83h-3.287ZM136.44,83H132.9l2.02-11.623h3.545Zm-1.214-14.556a1.639,1.639,0,0,1,.553-1.311,1.986,1.986,0,0,1,1.391-.526,2.051,2.051,0,0,1,1.38.473,1.611,1.611,0,0,1,.575,1.235,1.642,1.642,0,0,1-.548,1.316,1.993,1.993,0,0,1-1.4.521,2.076,2.076,0,0,1-1.37-.467A1.592,1.592,0,0,1,135.227,68.444Zm8.712,10.205,2.911-7.272h3.813L145.163,83h-3.6l-1.858-11.623h3.631ZM156.206,83a3.151,3.151,0,0,1-.15-1.053,3.585,3.585,0,0,1-2.847,1.268,3.5,3.5,0,0,1-2.514-1.01,3.035,3.035,0,0,1-.935-2.4A3.41,3.41,0,0,1,151.34,76.9a7.445,7.445,0,0,1,4.168-1.015l1.182.021.129-.655.043-.569a.923.923,0,0,0-.978-1.01,1.358,1.358,0,0,0-1.429,1.278l-3.545.011a3.367,3.367,0,0,1,.763-2.036A4.52,4.52,0,0,1,153.6,71.6a6.737,6.737,0,0,1,2.594-.435,5.2,5.2,0,0,1,2.315.553A3.446,3.446,0,0,1,160,73.166a3.7,3.7,0,0,1,.376,2.143l-.87,5.468-.054.666a2.936,2.936,0,0,0,.2,1.354l-.011.2Zm-2.02-2.342a2.28,2.28,0,0,0,1.9-.956l.354-1.869-.913-.011a2.406,2.406,0,0,0-1.461.5,1.894,1.894,0,0,0-.72,1.305.951.951,0,0,0,.167.725A.85.85,0,0,0,154.187,80.658ZM164.811,83h-3.545l2.857-16.5h3.545Zm8.024.215a5.4,5.4,0,0,1-2.777-.736,4.636,4.636,0,0,1-1.842-2.02,5.426,5.426,0,0,1-.494-2.852l.032-.3a7.125,7.125,0,0,1,1.993-4.539,5.512,5.512,0,0,1,4.173-1.606,4.5,4.5,0,0,1,2.557.758,4.238,4.238,0,0,1,1.558,2.033,6.228,6.228,0,0,1,.322,2.91l-.2,1.474h-6.918a2.266,2.266,0,0,0,.516,1.482,1.894,1.894,0,0,0,1.439.6,3.658,3.658,0,0,0,2.761-1.182l1.482,1.96a4.373,4.373,0,0,1-1.832,1.462,6.432,6.432,0,0,1-2.573.552Zm.859-9.26a1.818,1.818,0,0,0-1.305.47,3.946,3.946,0,0,0-.961,1.646h3.534l.064-.31a2.358,2.358,0,0,0,.021-.705A1.244,1.244,0,0,0,173.694,73.955Zm10.334-2.589-.247,1.4a4.131,4.131,0,0,1,3.362-1.611,2.775,2.775,0,0,1,2.4,1.2,5.013,5.013,0,0,1,.575,3.335L188.895,83H185.35l1.235-7.346a3.8,3.8,0,0,0,.021-.688q-.075-1.022-1.2-1.022a2.209,2.209,0,0,0-1.708.828L182.245,83h-3.534l2.02-11.623Zm13.524-2.879-.5,2.89h1.858l-.44,2.514h-1.858l-.9,5.339a1.423,1.423,0,0,0,.07.827q.145.279.725.3a8.4,8.4,0,0,0,.924-.054l-.258,2.621a5.712,5.712,0,0,1-1.9.269,3.132,3.132,0,0,1-2.46-.967,3.3,3.3,0,0,1-.666-2.567l.945-5.769h-1.439l.43-2.514h1.439l.5-2.89Zm6.585,14.728a5.4,5.4,0,0,1-2.777-.736,4.636,4.636,0,0,1-1.842-2.02,5.426,5.426,0,0,1-.494-2.852l.032-.3a7.125,7.125,0,0,1,1.993-4.539,5.512,5.512,0,0,1,4.173-1.606,4.5,4.5,0,0,1,2.557.758,4.238,4.238,0,0,1,1.558,2.033,6.228,6.228,0,0,1,.322,2.91l-.2,1.474h-6.918a2.266,2.266,0,0,0,.516,1.482,1.894,1.894,0,0,0,1.439.6,3.658,3.658,0,0,0,2.761-1.182l1.482,1.96a4.373,4.373,0,0,1-1.832,1.462,6.432,6.432,0,0,1-2.573.552Zm.859-9.26a1.818,1.818,0,0,0-1.305.47,3.946,3.946,0,0,0-.961,1.646h3.534l.064-.31a2.358,2.358,0,0,0,.021-.705A1.244,1.244,0,0,0,205,73.955Zm11.1,3.212a8.454,8.454,0,0,1,1.676-4.4,4.153,4.153,0,0,1,3.5-1.6,3.168,3.168,0,0,1,2.46,1.246l1.128-5.908H228.4L225.547,83H222.4l.15-1.257a3.627,3.627,0,0,1-2.89,1.482,3.2,3.2,0,0,1-2.626-1.241,5.471,5.471,0,0,1-1.015-3.271,10.06,10.06,0,0,1,.043-1.321Zm3.523.247a8.436,8.436,0,0,0-.075,1.2q0,1.783,1.2,1.815a2.254,2.254,0,0,0,1.858-1l.795-4.458a1.431,1.431,0,0,0-1.418-1.021,1.807,1.807,0,0,0-1.6.854A5.508,5.508,0,0,0,219.617,77.414Zm13.782,5.8a5.4,5.4,0,0,1-2.777-.736,4.636,4.636,0,0,1-1.842-2.02,5.426,5.426,0,0,1-.494-2.852l.032-.3a7.125,7.125,0,0,1,1.993-4.539,5.512,5.512,0,0,1,4.173-1.606,4.5,4.5,0,0,1,2.557.758,4.238,4.238,0,0,1,1.558,2.033,6.228,6.228,0,0,1,.322,2.91l-.2,1.474H231.8a2.266,2.266,0,0,0,.516,1.482,1.894,1.894,0,0,0,1.439.6,3.658,3.658,0,0,0,2.761-1.182L238,81.2a4.373,4.373,0,0,1-1.832,1.462,6.432,6.432,0,0,1-2.573.552Zm.859-9.26a1.818,1.818,0,0,0-1.305.47,3.946,3.946,0,0,0-.961,1.646h3.534l.064-.31a2.358,2.358,0,0,0,.021-.705A1.244,1.244,0,0,0,234.259,73.955ZM27.16,113H23.615l2.857-16.5h3.545Zm8.8,0a3.151,3.151,0,0,1-.15-1.053,3.585,3.585,0,0,1-2.847,1.268,3.5,3.5,0,0,1-2.514-1.01,3.035,3.035,0,0,1-.935-2.4,3.409,3.409,0,0,1,1.579-2.906,7.445,7.445,0,0,1,4.168-1.015l1.182.021.129-.655.043-.569a.923.923,0,0,0-.978-1.01,1.358,1.358,0,0,0-1.429,1.278l-3.545.011a3.367,3.367,0,0,1,.763-2.036,4.52,4.52,0,0,1,1.928-1.332,6.737,6.737,0,0,1,2.594-.435,5.2,5.2,0,0,1,2.315.553,3.446,3.446,0,0,1,1.488,1.45,3.7,3.7,0,0,1,.376,2.143l-.87,5.468-.054.666a2.936,2.936,0,0,0,.2,1.354l-.011.2Zm-2.02-2.342a2.28,2.28,0,0,0,1.9-.956l.354-1.869-.913-.011a2.406,2.406,0,0,0-1.461.5,1.894,1.894,0,0,0-.72,1.305.951.951,0,0,0,.167.725A.85.85,0,0,0,33.938,110.658Zm19.508,1.074a3.847,3.847,0,0,1-3.137,1.493,3.045,3.045,0,0,1-2.573-1.192,4.4,4.4,0,0,1-.671-3.137l1.257-7.52h3.534l-1.278,7.572a2.523,2.523,0,0,0,0,.57.936.936,0,0,0,1.042.914,2.283,2.283,0,0,0,1.9-.882l1.439-8.174h3.556L56.5,113H53.21Zm10.194-10.366-.247,1.4a4.131,4.131,0,0,1,3.362-1.611,2.775,2.775,0,0,1,2.4,1.2,5.013,5.013,0,0,1,.575,3.335L68.507,113H64.962l1.235-7.346a3.8,3.8,0,0,0,.021-.688q-.075-1.022-1.2-1.022a2.209,2.209,0,0,0-1.708.828L61.857,113H58.323l2.02-11.623ZM74.265,113H70.72l2.02-11.623h3.545ZM73.051,98.444a1.639,1.639,0,0,1,.553-1.311A1.986,1.986,0,0,1,75,96.607a2.051,2.051,0,0,1,1.38.473,1.611,1.611,0,0,1,.575,1.235,1.642,1.642,0,0,1-.548,1.316,1.993,1.993,0,0,1-1.4.521,2.076,2.076,0,0,1-1.37-.467A1.592,1.592,0,0,1,73.051,98.444Zm4.039,8.723a8.454,8.454,0,0,1,1.676-4.4,4.153,4.153,0,0,1,3.5-1.6,3.168,3.168,0,0,1,2.46,1.246L85.855,96.5H89.4L86.543,113H83.4l.15-1.257a3.627,3.627,0,0,1-2.89,1.482,3.2,3.2,0,0,1-2.626-1.241,5.471,5.471,0,0,1-1.015-3.271,10.061,10.061,0,0,1,.043-1.321Zm3.523.247a8.436,8.436,0,0,0-.075,1.2q0,1.783,1.2,1.815a2.254,2.254,0,0,0,1.858-1l.795-4.458a1.431,1.431,0,0,0-1.418-1.021,1.807,1.807,0,0,0-1.6.854A5.508,5.508,0,0,0,80.613,107.414ZM95.169,113a3.152,3.152,0,0,1-.15-1.053,3.585,3.585,0,0,1-2.847,1.268,3.5,3.5,0,0,1-2.514-1.01,3.035,3.035,0,0,1-.935-2.4A3.409,3.409,0,0,1,90.3,106.9a7.445,7.445,0,0,1,4.168-1.015l1.182.021.129-.655.043-.569a.923.923,0,0,0-.978-1.01,1.358,1.358,0,0,0-1.429,1.278l-3.545.011a3.367,3.367,0,0,1,.763-2.036,4.52,4.52,0,0,1,1.928-1.332,6.737,6.737,0,0,1,2.594-.435,5.2,5.2,0,0,1,2.315.553,3.446,3.446,0,0,1,1.488,1.45,3.7,3.7,0,0,1,.376,2.143l-.87,5.468-.054.666a2.936,2.936,0,0,0,.2,1.354l-.011.2Zm-2.02-2.342a2.28,2.28,0,0,0,1.9-.956l.354-1.869-.913-.011a2.406,2.406,0,0,0-1.461.5,1.894,1.894,0,0,0-.72,1.305.951.951,0,0,0,.167.725A.85.85,0,0,0,93.149,110.658Zm7.477-3.491a8.454,8.454,0,0,1,1.676-4.4,4.153,4.153,0,0,1,3.5-1.6,3.168,3.168,0,0,1,2.46,1.246l1.128-5.908h3.545L110.079,113h-3.147l.15-1.257a3.627,3.627,0,0,1-2.89,1.482,3.2,3.2,0,0,1-2.626-1.241,5.471,5.471,0,0,1-1.015-3.271,10.061,10.061,0,0,1,.043-1.321Zm3.523.247a8.436,8.436,0,0,0-.075,1.2q0,1.783,1.2,1.815a2.254,2.254,0,0,0,1.858-1l.795-4.458a1.431,1.431,0,0,0-1.418-1.021,1.807,1.807,0,0,0-1.6.854A5.508,5.508,0,0,0,104.149,107.414Zm14.008-.247a8.454,8.454,0,0,1,1.676-4.4,4.153,4.153,0,0,1,3.5-1.6,3.168,3.168,0,0,1,2.46,1.246l1.128-5.908h3.545L127.61,113h-3.147l.15-1.257a3.627,3.627,0,0,1-2.89,1.482,3.2,3.2,0,0,1-2.626-1.241,5.471,5.471,0,0,1-1.015-3.271,10.061,10.061,0,0,1,.043-1.321Zm3.523.247a8.436,8.436,0,0,0-.075,1.2q0,1.783,1.2,1.815a2.254,2.254,0,0,0,1.858-1l.795-4.458a1.431,1.431,0,0,0-1.418-1.021,1.807,1.807,0,0,0-1.6.854A5.508,5.508,0,0,0,121.681,107.414Zm13.782,5.8a5.4,5.4,0,0,1-2.777-.736,4.636,4.636,0,0,1-1.842-2.02,5.426,5.426,0,0,1-.494-2.852l.032-.3a7.125,7.125,0,0,1,1.993-4.539,5.512,5.512,0,0,1,4.173-1.606,4.5,4.5,0,0,1,2.557.758,4.238,4.238,0,0,1,1.558,2.033,6.228,6.228,0,0,1,.322,2.91l-.2,1.474h-6.918a2.266,2.266,0,0,0,.516,1.482,1.894,1.894,0,0,0,1.439.6,3.658,3.658,0,0,0,2.761-1.182l1.482,1.96a4.373,4.373,0,0,1-1.832,1.462,6.432,6.432,0,0,1-2.573.552Zm.859-9.26a1.818,1.818,0,0,0-1.305.47,3.946,3.946,0,0,0-.961,1.646h3.534l.064-.31a2.358,2.358,0,0,0,.021-.705A1.244,1.244,0,0,0,136.322,103.955Zm15.845-2.589-.236,1.4a4.173,4.173,0,0,1,3.395-1.6,3.066,3.066,0,0,1,1.729.494,2.252,2.252,0,0,1,.9,1.257,4.424,4.424,0,0,1,3.534-1.751,2.739,2.739,0,0,1,2.39,1.208,5.032,5.032,0,0,1,.564,3.314L163.231,113h-3.545l1.235-7.317.043-.633q0-1.062-1-1.094a2.288,2.288,0,0,0-1.74.955L156.818,113h-3.545l1.225-7.3.043-.644q0-1.105-1-1.105a2.273,2.273,0,0,0-1.719.955L150.395,113H146.86l2.02-11.623Zm18.938,11.849a5.4,5.4,0,0,1-2.777-.736,4.636,4.636,0,0,1-1.842-2.02,5.426,5.426,0,0,1-.494-2.852l.032-.3a7.125,7.125,0,0,1,1.993-4.539,5.512,5.512,0,0,1,4.173-1.606,4.5,4.5,0,0,1,2.557.758,4.238,4.238,0,0,1,1.558,2.033,6.228,6.228,0,0,1,.322,2.91l-.2,1.474H169.5a2.266,2.266,0,0,0,.516,1.482,1.894,1.894,0,0,0,1.439.6,3.658,3.658,0,0,0,2.761-1.182l1.482,1.96a4.373,4.373,0,0,1-1.832,1.462,6.432,6.432,0,0,1-2.573.552Zm.859-9.26a1.818,1.818,0,0,0-1.305.47,3.946,3.946,0,0,0-.961,1.646h3.534l.064-.31a2.358,2.358,0,0,0,.021-.705A1.244,1.244,0,0,0,171.965,103.955Zm5.672,3.212a8.454,8.454,0,0,1,1.676-4.4,4.153,4.153,0,0,1,3.5-1.6,3.168,3.168,0,0,1,2.46,1.246L186.4,96.5h3.545L187.09,113h-3.147l.15-1.257a3.627,3.627,0,0,1-2.89,1.482,3.2,3.2,0,0,1-2.626-1.241,5.471,5.471,0,0,1-1.015-3.271,10.06,10.06,0,0,1,.043-1.321Zm3.523.247a8.436,8.436,0,0,0-.075,1.2q0,1.783,1.2,1.815a2.254,2.254,0,0,0,1.858-1l.795-4.458a1.431,1.431,0,0,0-1.418-1.021,1.807,1.807,0,0,0-1.6.854A5.508,5.508,0,0,0,181.16,107.414ZM192.891,113h-3.545l2.02-11.623h3.545Zm-1.214-14.556a1.639,1.639,0,0,1,.553-1.311,1.986,1.986,0,0,1,1.391-.526,2.051,2.051,0,0,1,1.38.473,1.611,1.611,0,0,1,.575,1.235,1.642,1.642,0,0,1-.548,1.316,1.993,1.993,0,0,1-1.4.521,2.076,2.076,0,0,1-1.37-.467A1.592,1.592,0,0,1,191.677,98.444Zm4.039,8.723a8.454,8.454,0,0,1,1.676-4.4,4.153,4.153,0,0,1,3.5-1.6,3.168,3.168,0,0,1,2.46,1.246l1.128-5.908h3.545L205.169,113h-3.147l.15-1.257a3.627,3.627,0,0,1-2.89,1.482,3.2,3.2,0,0,1-2.626-1.241,5.471,5.471,0,0,1-1.015-3.271,10.06,10.06,0,0,1,.043-1.321Zm3.523.247a8.436,8.436,0,0,0-.075,1.2q0,1.783,1.2,1.815a2.254,2.254,0,0,0,1.858-1l.795-4.458a1.431,1.431,0,0,0-1.418-1.021,1.807,1.807,0,0,0-1.6.854A5.508,5.508,0,0,0,199.239,107.414ZM213.795,113a3.151,3.151,0,0,1-.15-1.053,3.585,3.585,0,0,1-2.847,1.268,3.5,3.5,0,0,1-2.514-1.01,3.035,3.035,0,0,1-.935-2.4,3.41,3.41,0,0,1,1.579-2.906,7.445,7.445,0,0,1,4.168-1.015l1.182.021.129-.655.043-.569a.923.923,0,0,0-.978-1.01,1.358,1.358,0,0,0-1.429,1.278l-3.545.011a3.367,3.367,0,0,1,.763-2.036,4.52,4.52,0,0,1,1.928-1.332,6.737,6.737,0,0,1,2.594-.435,5.2,5.2,0,0,1,2.315.553,3.446,3.446,0,0,1,1.488,1.45,3.7,3.7,0,0,1,.376,2.143l-.87,5.468-.054.666a2.936,2.936,0,0,0,.2,1.354l-.011.2Zm-2.02-2.342a2.28,2.28,0,0,0,1.9-.956l.354-1.869-.913-.011a2.406,2.406,0,0,0-1.461.5,1.894,1.894,0,0,0-.72,1.305.951.951,0,0,0,.167.725A.85.85,0,0,0,211.775,110.658Zm13.514-3.771a18.309,18.309,0,0,1-1.348,4.893,13.368,13.368,0,0,1-2.46,3.867,8.444,8.444,0,0,1-3.217,2.208l-.548-1.826a10.573,10.573,0,0,0,3.25-4.329,22.9,22.9,0,0,0,1.52-7.144l.064-1.053q.107-4.415-1.9-5.973l.784-1.783a6.282,6.282,0,0,1,2.9,3.045,12.637,12.637,0,0,1,1.117,5.172l.011.677a18.111,18.111,0,0,1-.14,1.944Z" transform="translate(-3081 -1531.337)" fill="#12263f"/>
    <path id="Trazado_826552" data-name="Trazado 826552" d="M12.246,16.539H1.688l.539-3.047H12.773Zm-.891,5.145H.8l.539-3.047H11.883ZM31.137,25H19.57l.422-2.719,6.07-5.637.832-.832q1.957-1.969,1.793-3.715A1.339,1.339,0,0,0,27.281,10.7a1.851,1.851,0,0,0-1.529.732,3.749,3.749,0,0,0-.779,1.975l-3.832.023a5.852,5.852,0,0,1,.973-2.936,6.059,6.059,0,0,1,2.35-2.08A6.7,6.7,0,0,1,27.6,7.68a5.542,5.542,0,0,1,3.867,1.354,4.163,4.163,0,0,1,1.2,3.533,5.765,5.765,0,0,1-.861,2.555,13.168,13.168,0,0,1-2.2,2.613L27.82,19.375,25.172,21.93l6.445.023Zm3.539-8.391,2.367-8.672H46.77l-.492,3.07H39.75l-1.043,3.41a4.416,4.416,0,0,1,2.355-.633,4.129,4.129,0,0,1,3.463,1.559,5.646,5.646,0,0,1,1,4.078,6.178,6.178,0,0,1-6.422,5.824,5.988,5.988,0,0,1-2.748-.7,4.841,4.841,0,0,1-1.916-1.822,4.915,4.915,0,0,1-.668-2.584h3.844a2.406,2.406,0,0,0,.457,1.465,1.524,1.524,0,0,0,1.219.574,1.894,1.894,0,0,0,1.594-.721,4.321,4.321,0,0,0,.809-2.3,2.969,2.969,0,0,0-.352-1.975,1.66,1.66,0,0,0-1.465-.674,2.686,2.686,0,0,0-2.074.867Zm17.93,8.625a5.083,5.083,0,0,1-2.537-.686,4.242,4.242,0,0,1-1.67-1.91,7.229,7.229,0,0,1-.633-2.865,10.921,10.921,0,0,1,.07-1.746l.445-2.977a10.091,10.091,0,0,1,2.309-5.5A5.709,5.709,0,0,1,55.1,7.7a4.5,4.5,0,0,1,3.486,1.5,6.214,6.214,0,0,1,1.354,3.961,11.932,11.932,0,0,1-.082,1.746l-.469,3.035a10,10,0,0,1-2.326,5.5A5.712,5.712,0,0,1,52.605,25.234Zm3.48-10.852a13.469,13.469,0,0,0,.117-1.441q0-2.145-1.359-2.215-2.086-.105-2.59,3.574l-.621,4.219a13.344,13.344,0,0,0-.117,1.441q-.059,2.168,1.348,2.25,2.121.105,2.613-3.668ZM66.2,25.234a5.083,5.083,0,0,1-2.537-.686,4.242,4.242,0,0,1-1.67-1.91,7.229,7.229,0,0,1-.633-2.865,10.921,10.921,0,0,1,.07-1.746l.445-2.977a10.091,10.091,0,0,1,2.309-5.5A5.709,5.709,0,0,1,68.7,7.7a4.5,4.5,0,0,1,3.486,1.5,6.214,6.214,0,0,1,1.354,3.961,11.932,11.932,0,0,1-.082,1.746l-.469,3.035a10,10,0,0,1-2.326,5.5A5.712,5.712,0,0,1,66.2,25.234Zm3.48-10.852a13.469,13.469,0,0,0,.117-1.441q0-2.145-1.359-2.215-2.086-.105-2.59,3.574l-.621,4.219a13.344,13.344,0,0,0-.117,1.441q-.059,2.168,1.348,2.25,2.121.105,2.613-3.668Zm10.781,4.254A9.634,9.634,0,0,1,81.51,15.18a6.086,6.086,0,0,1,2.068-2.338,4.98,4.98,0,0,1,2.813-.768,3.462,3.462,0,0,1,2.883,1.371l.41-1.137,3.563.012L91.172,24.508a5.956,5.956,0,0,1-2.262,4.066,7.2,7.2,0,0,1-4.758,1.418,6.793,6.793,0,0,1-2.449-.5,5.277,5.277,0,0,1-2.027-1.453L81.5,25.762a3.319,3.319,0,0,0,2.648,1.324q2.566.047,3.258-2.73l.094-.387a3.965,3.965,0,0,1-2.895,1.266,3.91,3.91,0,0,1-2.145-.615,4.045,4.045,0,0,1-1.453-1.74,6.768,6.768,0,0,1-.6-2.531A11,11,0,0,1,80.461,18.637Zm3.809,1.254a3.075,3.075,0,0,0,.387,1.676,1.312,1.312,0,0,0,1.125.621,2.577,2.577,0,0,0,1.98-.844l1-5.379a1.708,1.708,0,0,0-1.57-.844,2.244,2.244,0,0,0-1.887.955,5.149,5.149,0,0,0-.961,2.572Q84.27,19.387,84.27,19.891Zm18.2-4a11.03,11.03,0,0,0-1.2-.117,2.977,2.977,0,0,0-2.648,1.2L97.2,25H93.34l2.2-12.68,3.6-.012-.293,1.664a3.52,3.52,0,0,1,2.93-1.922,5.525,5.525,0,0,1,1.2.164ZM109.055,25a3.438,3.438,0,0,1-.164-1.148,3.911,3.911,0,0,1-3.105,1.383,3.821,3.821,0,0,1-2.742-1.1,3.311,3.311,0,0,1-1.02-2.613,3.719,3.719,0,0,1,1.723-3.17,8.122,8.122,0,0,1,4.547-1.107l1.289.023.141-.715.047-.621a1.007,1.007,0,0,0-1.066-1.1,1.482,1.482,0,0,0-1.559,1.395l-3.867.012a3.673,3.673,0,0,1,.832-2.221,4.931,4.931,0,0,1,2.1-1.453,7.35,7.35,0,0,1,2.83-.475,5.668,5.668,0,0,1,2.525.6,3.76,3.76,0,0,1,1.623,1.582,4.042,4.042,0,0,1,.41,2.338l-.949,5.965-.059.727a3.2,3.2,0,0,0,.223,1.477L112.8,25Zm-2.2-2.555a2.487,2.487,0,0,0,2.074-1.043l.387-2.039-1-.012a2.625,2.625,0,0,0-1.594.545,2.067,2.067,0,0,0-.785,1.424,1.038,1.038,0,0,0,.182.791A.928.928,0,0,0,106.852,22.445Zm13.336-10.137-.258,1.523a4.552,4.552,0,0,1,3.7-1.746,3.345,3.345,0,0,1,1.887.539A2.457,2.457,0,0,1,126.5,14a4.826,4.826,0,0,1,3.855-1.91,2.988,2.988,0,0,1,2.607,1.318,5.49,5.49,0,0,1,.615,3.615L132.258,25h-3.867l1.348-7.983.047-.691q0-1.159-1.09-1.194a2.5,2.5,0,0,0-1.9,1.042L125.262,25h-3.867l1.336-7.959.047-.7q0-1.206-1.09-1.206a2.48,2.48,0,0,0-1.875,1.042L118.254,25H114.4l2.2-12.68Zm21.75-.223a5.325,5.325,0,0,1,2.941.85,4.786,4.786,0,0,1,1.822,2.3,7.106,7.106,0,0,1,.416,3.281l-.023.258a7.514,7.514,0,0,1-2.168,4.711,6.1,6.1,0,0,1-4.547,1.746,5.3,5.3,0,0,1-2.918-.838,4.817,4.817,0,0,1-1.822-2.279,6.906,6.906,0,0,1-.428-3.258,7.817,7.817,0,0,1,2.139-4.969A6.062,6.062,0,0,1,141.938,12.086Zm-2.871,6.779-.035.69q-.164,2.609,1.594,2.656,2.273.07,2.637-3.685l.047-1.065a2.873,2.873,0,0,0-.393-1.679,1.43,1.43,0,0,0-1.225-.649,2.016,2.016,0,0,0-1.752.872A5.7,5.7,0,0,0,139.066,18.865Zm15.82,2.5q.152-.773-1.2-1.16L152.859,20a6.407,6.407,0,0,1-2.988-1.512,2.992,2.992,0,0,1-.891-2.309,3.677,3.677,0,0,1,1.623-2.971,6.177,6.177,0,0,1,3.814-1.119,5.722,5.722,0,0,1,3.627,1.137,3.708,3.708,0,0,1,1.412,3l-3.844-.012q.047-1.5-1.324-1.5a1.889,1.889,0,0,0-1.09.346,1.343,1.343,0,0,0-.6.92q-.2.949,1.676,1.3a9.739,9.739,0,0,1,2.52.9,3.762,3.762,0,0,1,1.359,1.26,3.133,3.133,0,0,1,.434,1.8,3.388,3.388,0,0,1-.75,2.051,4.856,4.856,0,0,1-2.068,1.441,7.409,7.409,0,0,1-2.936.5,5.958,5.958,0,0,1-2.549-.574,4.545,4.545,0,0,1-1.84-1.529,3.972,3.972,0,0,1-.686-2.221l3.586.023a1.481,1.481,0,0,0,1.688,1.664,2.215,2.215,0,0,0,1.219-.322A1.394,1.394,0,0,0,154.887,21.367Z" transform="translate(-2801 -1417.519)" fill="#12263f"/>
    <path id="Trazado_826553" data-name="Trazado 826553" d="M36.119,23H32.574l2-11.494-3.642,1.031.494-2.868,6.918-2.31.4-.011Zm15.533-4.286-1.289,1.117L49.815,23H46.281L49.149,6.489h3.534L51.051,15.3l.43-.516,3.212-3.405h4.479L54.23,16.318l3,6.682H53.35ZM61.761,23H58.216l2.02-11.623H63.78ZM60.547,8.444A1.639,1.639,0,0,1,61.1,7.134a1.986,1.986,0,0,1,1.391-.526,2.051,2.051,0,0,1,1.38.473,1.611,1.611,0,0,1,.575,1.235A1.642,1.642,0,0,1,63.9,9.631a1.993,1.993,0,0,1-1.4.521,2.076,2.076,0,0,1-1.37-.467A1.592,1.592,0,0,1,60.547,8.444ZM67.733,23H64.188L67.046,6.5h3.545Zm9.023-11.838a4.881,4.881,0,0,1,2.7.779,4.388,4.388,0,0,1,1.67,2.111A6.514,6.514,0,0,1,81.5,17.06l-.021.236A6.888,6.888,0,0,1,79.5,21.614a5.592,5.592,0,0,1-4.168,1.6,4.861,4.861,0,0,1-2.675-.768,4.415,4.415,0,0,1-1.67-2.089,6.33,6.33,0,0,1-.392-2.986,7.165,7.165,0,0,1,1.96-4.555A5.557,5.557,0,0,1,76.757,11.162Zm-2.632,6.214-.032.633q-.15,2.391,1.461,2.434,2.084.064,2.417-3.378l.043-.976a2.634,2.634,0,0,0-.36-1.539,1.311,1.311,0,0,0-1.123-.6,1.848,1.848,0,0,0-1.606.8A5.228,5.228,0,0,0,74.125,17.376Zm8.551-.209A8.832,8.832,0,0,1,83.637,14a5.579,5.579,0,0,1,1.9-2.143,4.565,4.565,0,0,1,2.578-.7,3.174,3.174,0,0,1,2.643,1.257l.376-1.042,3.266.011-1.9,11.172a5.46,5.46,0,0,1-2.073,3.728,6.6,6.6,0,0,1-4.361,1.3,6.227,6.227,0,0,1-2.245-.462,4.837,4.837,0,0,1-1.858-1.332L83.632,23.7a3.042,3.042,0,0,0,2.428,1.214,2.841,2.841,0,0,0,2.986-2.5l.086-.354a3.634,3.634,0,0,1-2.653,1.16,3.584,3.584,0,0,1-1.966-.564,3.708,3.708,0,0,1-1.332-1.6,6.2,6.2,0,0,1-.548-2.32A10.087,10.087,0,0,1,82.676,17.167Zm3.491,1.149a2.819,2.819,0,0,0,.354,1.536,1.2,1.2,0,0,0,1.031.569,2.362,2.362,0,0,0,1.815-.773l.913-4.931a1.566,1.566,0,0,0-1.439-.773,2.057,2.057,0,0,0-1.729.875,4.72,4.72,0,0,0-.881,2.358Q86.167,17.854,86.167,18.316Zm16.683-3.663a10.111,10.111,0,0,0-1.1-.107,2.729,2.729,0,0,0-2.428,1.1L98.016,23H94.481L96.5,11.377l3.3-.011-.269,1.525a3.227,3.227,0,0,1,2.686-1.762,5.065,5.065,0,0,1,1.1.15ZM108.887,23a3.152,3.152,0,0,1-.15-1.053,3.585,3.585,0,0,1-2.847,1.268,3.5,3.5,0,0,1-2.514-1.01,3.035,3.035,0,0,1-.935-2.4,3.409,3.409,0,0,1,1.579-2.906,7.445,7.445,0,0,1,4.168-1.015l1.182.021.129-.655.043-.569a.923.923,0,0,0-.978-1.01,1.358,1.358,0,0,0-1.429,1.278l-3.545.011a3.367,3.367,0,0,1,.763-2.036,4.52,4.52,0,0,1,1.928-1.332,6.737,6.737,0,0,1,2.594-.435,5.2,5.2,0,0,1,2.315.553,3.446,3.446,0,0,1,1.488,1.45,3.7,3.7,0,0,1,.376,2.143l-.87,5.468-.054.666a2.936,2.936,0,0,0,.2,1.354l-.011.2Zm-2.02-2.342a2.28,2.28,0,0,0,1.9-.956l.354-1.869-.913-.011a2.406,2.406,0,0,0-1.461.5,1.894,1.894,0,0,0-.72,1.305.951.951,0,0,0,.167.725A.85.85,0,0,0,106.867,20.658Zm12.225-9.292-.236,1.4a4.173,4.173,0,0,1,3.395-1.6,3.066,3.066,0,0,1,1.729.494,2.252,2.252,0,0,1,.9,1.257,4.424,4.424,0,0,1,3.534-1.751,2.739,2.739,0,0,1,2.39,1.208,5.032,5.032,0,0,1,.564,3.314L130.156,23h-3.545l1.235-7.317.043-.633q0-1.062-1-1.094a2.288,2.288,0,0,0-1.74.955L123.743,23H120.2l1.225-7.3.043-.644q0-1.105-1-1.105a2.273,2.273,0,0,0-1.719.955L117.319,23h-3.534l2.02-11.623Zm19.938-.2a4.881,4.881,0,0,1,2.7.779,4.388,4.388,0,0,1,1.67,2.111,6.514,6.514,0,0,1,.381,3.008l-.021.236a6.888,6.888,0,0,1-1.987,4.318,5.592,5.592,0,0,1-4.168,1.6,4.861,4.861,0,0,1-2.675-.768,4.415,4.415,0,0,1-1.67-2.089,6.33,6.33,0,0,1-.392-2.986,7.165,7.165,0,0,1,1.96-4.555A5.557,5.557,0,0,1,139.029,11.162ZM136.4,17.376l-.032.633q-.15,2.391,1.461,2.434,2.084.064,2.417-3.378l.043-.976a2.634,2.634,0,0,0-.36-1.539,1.311,1.311,0,0,0-1.123-.6,1.848,1.848,0,0,0-1.606.8A5.228,5.228,0,0,0,136.4,17.376ZM43.15,35.727l.548,1.826a10.205,10.205,0,0,0-3.244,4.286,23.275,23.275,0,0,0-1.525,7.176l-.054,1.053q-.161,4.394,1.891,5.983l-.773,1.783A5.867,5.867,0,0,1,37.8,55.9a8.6,8.6,0,0,1-1.289-3.131,15.8,15.8,0,0,1-.333-3.846,21.132,21.132,0,0,1,.988-5.769,14.7,14.7,0,0,1,2.417-4.716A8.369,8.369,0,0,1,43.15,35.727Zm6.639,16.006a3.847,3.847,0,0,1-3.137,1.493,3.045,3.045,0,0,1-2.573-1.192,4.4,4.4,0,0,1-.671-3.137l1.257-7.52H48.2L46.92,48.949a2.523,2.523,0,0,0,0,.57.936.936,0,0,0,1.042.914,2.283,2.283,0,0,0,1.9-.882L51.3,41.377h3.556L52.839,53H49.552ZM59.983,41.366l-.247,1.4A4.131,4.131,0,0,1,63.1,41.151a2.775,2.775,0,0,1,2.4,1.2,5.013,5.013,0,0,1,.575,3.335L64.849,53H61.3l1.235-7.346a3.8,3.8,0,0,0,.021-.688q-.075-1.022-1.2-1.022a2.209,2.209,0,0,0-1.708.828L58.2,53H54.666l2.02-11.623ZM70.607,53H67.062l2.02-11.623h3.545ZM69.393,38.444a1.639,1.639,0,0,1,.553-1.311,1.986,1.986,0,0,1,1.391-.526,2.051,2.051,0,0,1,1.38.473,1.611,1.611,0,0,1,.575,1.235,1.642,1.642,0,0,1-.548,1.316,1.993,1.993,0,0,1-1.4.521,2.076,2.076,0,0,1-1.37-.467A1.592,1.592,0,0,1,69.393,38.444Zm4.039,8.723a8.454,8.454,0,0,1,1.676-4.4,4.153,4.153,0,0,1,3.5-1.6,3.168,3.168,0,0,1,2.46,1.246L82.2,36.5h3.545L82.885,53H79.738l.15-1.257A3.627,3.627,0,0,1,77,53.226a3.2,3.2,0,0,1-2.626-1.241,5.471,5.471,0,0,1-1.015-3.271,10.061,10.061,0,0,1,.043-1.321Zm3.523.247a8.436,8.436,0,0,0-.075,1.2q0,1.783,1.2,1.815a2.254,2.254,0,0,0,1.858-1l.795-4.458a1.431,1.431,0,0,0-1.418-1.021,1.807,1.807,0,0,0-1.6.854A5.508,5.508,0,0,0,76.956,47.414ZM91.511,53a3.152,3.152,0,0,1-.15-1.053,3.585,3.585,0,0,1-2.847,1.268A3.5,3.5,0,0,1,86,52.205a3.035,3.035,0,0,1-.935-2.4A3.409,3.409,0,0,1,86.645,46.9a7.445,7.445,0,0,1,4.168-1.015l1.182.021.129-.655.043-.569a.923.923,0,0,0-.978-1.01,1.358,1.358,0,0,0-1.429,1.278l-3.545.011a3.367,3.367,0,0,1,.763-2.036A4.52,4.52,0,0,1,88.906,41.6a6.737,6.737,0,0,1,2.594-.435,5.2,5.2,0,0,1,2.315.553,3.446,3.446,0,0,1,1.488,1.45,3.7,3.7,0,0,1,.376,2.143l-.87,5.468-.054.666a2.936,2.936,0,0,0,.2,1.354l-.011.2Zm-2.02-2.342a2.28,2.28,0,0,0,1.9-.956l.354-1.869-.913-.011a2.406,2.406,0,0,0-1.461.5,1.894,1.894,0,0,0-.72,1.305.951.951,0,0,0,.167.725A.85.85,0,0,0,89.492,50.658Zm7.477-3.491a8.454,8.454,0,0,1,1.676-4.4,4.153,4.153,0,0,1,3.5-1.6,3.168,3.168,0,0,1,2.46,1.246l1.128-5.908h3.545L106.421,53h-3.147l.15-1.257a3.627,3.627,0,0,1-2.89,1.482,3.2,3.2,0,0,1-2.626-1.241,5.471,5.471,0,0,1-1.015-3.271,10.061,10.061,0,0,1,.043-1.321Zm3.523.247a8.436,8.436,0,0,0-.075,1.2q0,1.783,1.2,1.815a2.254,2.254,0,0,0,1.858-1l.795-4.458a1.431,1.431,0,0,0-1.418-1.021,1.807,1.807,0,0,0-1.6.854A5.508,5.508,0,0,0,100.492,47.414Zm14.008-.247a8.454,8.454,0,0,1,1.676-4.4,4.153,4.153,0,0,1,3.5-1.6,3.168,3.168,0,0,1,2.46,1.246l1.128-5.908h3.545L123.953,53h-3.147l.15-1.257a3.627,3.627,0,0,1-2.89,1.482,3.2,3.2,0,0,1-2.626-1.241,5.471,5.471,0,0,1-1.015-3.271,10.061,10.061,0,0,1,.043-1.321Zm3.523.247a8.436,8.436,0,0,0-.075,1.2q0,1.783,1.2,1.815a2.254,2.254,0,0,0,1.858-1l.795-4.458a1.431,1.431,0,0,0-1.418-1.021,1.807,1.807,0,0,0-1.6.854A5.508,5.508,0,0,0,118.023,47.414Zm13.782,5.8a5.4,5.4,0,0,1-2.777-.736,4.636,4.636,0,0,1-1.842-2.02,5.426,5.426,0,0,1-.494-2.852l.032-.3a7.125,7.125,0,0,1,1.993-4.539,5.512,5.512,0,0,1,4.173-1.606,4.5,4.5,0,0,1,2.557.758A4.238,4.238,0,0,1,137,43.954a6.228,6.228,0,0,1,.322,2.91l-.2,1.474H130.2a2.266,2.266,0,0,0,.516,1.482,1.894,1.894,0,0,0,1.439.6,3.658,3.658,0,0,0,2.761-1.182L136.4,51.2a4.373,4.373,0,0,1-1.832,1.462,6.432,6.432,0,0,1-2.573.552Zm.859-9.26a1.818,1.818,0,0,0-1.305.47,3.946,3.946,0,0,0-.961,1.646h3.534l.064-.31a2.358,2.358,0,0,0,.021-.705A1.244,1.244,0,0,0,132.665,43.955ZM26.091,71.366l-.236,1.4a4.173,4.173,0,0,1,3.395-1.6,3.066,3.066,0,0,1,1.729.494,2.252,2.252,0,0,1,.9,1.257,4.424,4.424,0,0,1,3.534-1.751,2.739,2.739,0,0,1,2.39,1.208,5.032,5.032,0,0,1,.564,3.314L37.156,83H33.611l1.235-7.317.043-.633q0-1.062-1-1.094a2.288,2.288,0,0,0-1.74.955L30.743,83H27.2l1.225-7.3.043-.644q0-1.105-1-1.105a2.273,2.273,0,0,0-1.719.955L24.319,83H20.785L22.8,71.377ZM45.03,83.215a5.4,5.4,0,0,1-2.777-.736,4.636,4.636,0,0,1-1.842-2.02,5.426,5.426,0,0,1-.494-2.852l.032-.3a7.125,7.125,0,0,1,1.993-4.539,5.512,5.512,0,0,1,4.173-1.606,4.5,4.5,0,0,1,2.557.758,4.238,4.238,0,0,1,1.558,2.033,6.228,6.228,0,0,1,.322,2.91l-.2,1.474H43.429a2.266,2.266,0,0,0,.516,1.482,1.894,1.894,0,0,0,1.439.6,3.658,3.658,0,0,0,2.761-1.182l1.482,1.96A4.373,4.373,0,0,1,47.8,82.663a6.432,6.432,0,0,1-2.573.552Zm.859-9.26a1.818,1.818,0,0,0-1.305.47,3.946,3.946,0,0,0-.961,1.646h3.534l.064-.31a2.358,2.358,0,0,0,.021-.705A1.244,1.244,0,0,0,45.889,73.955Zm5.672,3.212a8.454,8.454,0,0,1,1.676-4.4,4.153,4.153,0,0,1,3.5-1.6,3.168,3.168,0,0,1,2.46,1.246L60.327,66.5h3.545L61.014,83H57.867l.15-1.257a3.627,3.627,0,0,1-2.89,1.482A3.2,3.2,0,0,1,52.5,81.985a5.471,5.471,0,0,1-1.015-3.271,10.06,10.06,0,0,1,.043-1.321Zm3.523.247a8.436,8.436,0,0,0-.075,1.2q0,1.783,1.2,1.815a2.254,2.254,0,0,0,1.858-1l.795-4.458a1.431,1.431,0,0,0-1.418-1.021,1.807,1.807,0,0,0-1.6.854A5.508,5.508,0,0,0,55.084,77.414ZM66.815,83H63.27l2.02-11.623h3.545ZM65.6,68.444a1.639,1.639,0,0,1,.553-1.311,1.986,1.986,0,0,1,1.391-.526,2.051,2.051,0,0,1,1.38.473,1.611,1.611,0,0,1,.575,1.235,1.642,1.642,0,0,1-.548,1.316,1.993,1.993,0,0,1-1.4.521,2.076,2.076,0,0,1-1.37-.467A1.592,1.592,0,0,1,65.6,68.444Zm4.039,8.723a8.454,8.454,0,0,1,1.676-4.4,4.153,4.153,0,0,1,3.5-1.6,3.168,3.168,0,0,1,2.46,1.246L78.406,66.5h3.545L79.093,83H75.946l.15-1.257a3.627,3.627,0,0,1-2.89,1.482,3.2,3.2,0,0,1-2.626-1.241,5.471,5.471,0,0,1-1.015-3.271,10.061,10.061,0,0,1,.043-1.321Zm3.523.247a8.436,8.436,0,0,0-.075,1.2q0,1.783,1.2,1.815a2.254,2.254,0,0,0,1.858-1l.795-4.458a1.431,1.431,0,0,0-1.418-1.021,1.807,1.807,0,0,0-1.6.854A5.508,5.508,0,0,0,73.164,77.414ZM87.719,83a3.152,3.152,0,0,1-.15-1.053,3.585,3.585,0,0,1-2.847,1.268,3.5,3.5,0,0,1-2.514-1.01,3.035,3.035,0,0,1-.935-2.4A3.409,3.409,0,0,1,82.853,76.9a7.445,7.445,0,0,1,4.168-1.015l1.182.021.129-.655.043-.569a.923.923,0,0,0-.978-1.01,1.358,1.358,0,0,0-1.429,1.278l-3.545.011a3.367,3.367,0,0,1,.763-2.036A4.52,4.52,0,0,1,85.114,71.6a6.737,6.737,0,0,1,2.594-.435,5.2,5.2,0,0,1,2.315.553,3.446,3.446,0,0,1,1.488,1.45,3.7,3.7,0,0,1,.376,2.143l-.87,5.468-.054.666a2.936,2.936,0,0,0,.2,1.354l-.011.2ZM85.7,80.658a2.28,2.28,0,0,0,1.9-.956l.354-1.869-.913-.011a2.406,2.406,0,0,0-1.461.5,1.894,1.894,0,0,0-.72,1.305.951.951,0,0,0,.167.725A.85.85,0,0,0,85.7,80.658Zm23.794-3.448a8.423,8.423,0,0,1-1.665,4.447,4.166,4.166,0,0,1-3.5,1.568,3.082,3.082,0,0,1-2.643-1.439L101.244,83h-3.2l2.868-16.5h3.534L103.3,72.333a3.508,3.508,0,0,1,2.61-1.171,3.274,3.274,0,0,1,2.664,1.219,5.317,5.317,0,0,1,1.01,3.26,11.823,11.823,0,0,1-.054,1.343ZM105.981,77a11.127,11.127,0,0,0,.1-1.244q0-1.727-1.235-1.8a2.117,2.117,0,0,0-1.837.933l-.838,4.633a1.421,1.421,0,0,0,1.461.912q1.729.054,2.181-2.252l.15-.954Zm10.71,6a3.152,3.152,0,0,1-.15-1.053,3.585,3.585,0,0,1-2.847,1.268,3.5,3.5,0,0,1-2.514-1.01,3.035,3.035,0,0,1-.935-2.4,3.409,3.409,0,0,1,1.579-2.906,7.445,7.445,0,0,1,4.168-1.015l1.182.021.129-.655.043-.569a.923.923,0,0,0-.978-1.01,1.358,1.358,0,0,0-1.429,1.278l-3.545.011a3.367,3.367,0,0,1,.763-2.036,4.52,4.52,0,0,1,1.928-1.332,6.737,6.737,0,0,1,2.594-.435,5.2,5.2,0,0,1,2.315.553,3.446,3.446,0,0,1,1.488,1.45,3.7,3.7,0,0,1,.376,2.143l-.87,5.468-.054.666a2.936,2.936,0,0,0,.2,1.354l-.011.2Zm-2.02-2.342a2.28,2.28,0,0,0,1.9-.956l.354-1.869-.913-.011a2.406,2.406,0,0,0-1.461.5,1.894,1.894,0,0,0-.72,1.305.951.951,0,0,0,.167.725A.85.85,0,0,0,114.671,80.658Zm13.449-.988q.14-.709-1.1-1.063l-.763-.193a5.874,5.874,0,0,1-2.739-1.386,2.743,2.743,0,0,1-.816-2.116,3.371,3.371,0,0,1,1.488-2.723,5.662,5.662,0,0,1,3.5-1.026,5.246,5.246,0,0,1,3.325,1.042,3.4,3.4,0,0,1,1.294,2.75l-3.523-.011q.043-1.375-1.214-1.375a1.731,1.731,0,0,0-1,.317,1.231,1.231,0,0,0-.548.843q-.183.87,1.536,1.192a8.927,8.927,0,0,1,2.31.822,3.448,3.448,0,0,1,1.246,1.155,2.872,2.872,0,0,1,.4,1.654,3.106,3.106,0,0,1-.687,1.88,4.452,4.452,0,0,1-1.9,1.321,6.791,6.791,0,0,1-2.691.462,5.462,5.462,0,0,1-2.336-.526,4.166,4.166,0,0,1-1.687-1.4,3.641,3.641,0,0,1-.628-2.036l3.287.021a1.358,1.358,0,0,0,1.547,1.525,2.03,2.03,0,0,0,1.117-.3A1.278,1.278,0,0,0,128.121,79.67Zm10.27,3.545a5.4,5.4,0,0,1-2.777-.736,4.636,4.636,0,0,1-1.842-2.02,5.426,5.426,0,0,1-.494-2.852l.032-.3a7.125,7.125,0,0,1,1.993-4.539,5.512,5.512,0,0,1,4.173-1.606,4.5,4.5,0,0,1,2.557.758,4.238,4.238,0,0,1,1.558,2.033,6.228,6.228,0,0,1,.322,2.91l-.2,1.474H136.79a2.266,2.266,0,0,0,.516,1.482,1.894,1.894,0,0,0,1.439.6,3.658,3.658,0,0,0,2.761-1.182l1.482,1.96a4.373,4.373,0,0,1-1.832,1.462,6.432,6.432,0,0,1-2.573.552Zm.859-9.26a1.818,1.818,0,0,0-1.305.47,3.946,3.946,0,0,0-.961,1.646h3.534l.064-.31a2.358,2.358,0,0,0,.021-.705A1.244,1.244,0,0,0,139.25,73.955Zm11.709,2.933a18.309,18.309,0,0,1-1.348,4.893,13.368,13.368,0,0,1-2.46,3.867,8.444,8.444,0,0,1-3.217,2.208l-.548-1.826a10.573,10.573,0,0,0,3.25-4.329,22.9,22.9,0,0,0,1.52-7.144l.064-1.053q.107-4.415-1.9-5.973l.784-1.783a6.282,6.282,0,0,1,2.9,3.045,12.637,12.637,0,0,1,1.117,5.172l.011.677a18.111,18.111,0,0,1-.14,1.944Z" transform="translate(-3049 -1383.519)" fill="#12263f"/>
  </g>
</svg>
