<svg xmlns="http://www.w3.org/2000/svg" width="1030" height="170.566" viewBox="0 0 1030 170.566">
  <g id="Grupo_1074493" data-name="Grupo 1074493" transform="translate(-285 -9555)">
    <path id="Background" d="M16,0h998a16,16,0,0,1,16,16V154.567a16,16,0,0,1-16,16H16a16,16,0,0,1-16-16V16A16,16,0,0,1,16,0Z" transform="translate(285 9555)" fill="#dbe5f3"/>
    <path id="Trazado_826489" data-name="Trazado 826489" d="M94.786,17.672a5.639,5.639,0,0,1-1.08,2.922,6.106,6.106,0,0,1-2.471,1.966,7.65,7.65,0,0,1-3.314.655,5.151,5.151,0,0,1-3.856-1.579A6.347,6.347,0,0,1,82.529,17.5a13.469,13.469,0,0,1,.381-3.792,10.023,10.023,0,0,1,1.558-3.572,7.157,7.157,0,0,1,2.546-2.277,6.609,6.609,0,0,1,3.207-.725A5.6,5.6,0,0,1,94.265,8.67a6.014,6.014,0,0,1,1.617,4.114l-3.663-.011a3.013,3.013,0,0,0-.516-2.041,2.264,2.264,0,0,0-1.7-.655q-2.9-.1-3.534,4.512a24.791,24.791,0,0,0-.29,2.976q-.054,2.643,1.955,2.718a2.87,2.87,0,0,0,2.073-.639,3.2,3.2,0,0,0,.988-1.928Zm7.4,5.328a3.152,3.152,0,0,1-.15-1.053,3.585,3.585,0,0,1-2.847,1.268,3.5,3.5,0,0,1-2.514-1.01,3.035,3.035,0,0,1-.935-2.4A3.409,3.409,0,0,1,97.321,16.9a7.445,7.445,0,0,1,4.168-1.015l1.182.021.129-.655.043-.569a.923.923,0,0,0-.978-1.01,1.358,1.358,0,0,0-1.429,1.278l-3.545.011a3.367,3.367,0,0,1,.763-2.036A4.52,4.52,0,0,1,99.582,11.6a6.737,6.737,0,0,1,2.594-.435,5.2,5.2,0,0,1,2.315.553,3.446,3.446,0,0,1,1.488,1.45,3.7,3.7,0,0,1,.376,2.143l-.87,5.468-.054.666a2.936,2.936,0,0,0,.2,1.354l-.011.2Zm-2.02-2.342a2.28,2.28,0,0,0,1.9-.956l.354-1.869-.913-.011a2.406,2.406,0,0,0-1.461.5,1.894,1.894,0,0,0-.72,1.305.951.951,0,0,0,.167.725A.85.85,0,0,0,100.167,20.658Zm12.139-9.292-.247,1.4a4.131,4.131,0,0,1,3.362-1.611,2.775,2.775,0,0,1,2.4,1.2,5.013,5.013,0,0,1,.575,3.335L117.172,23h-3.545l1.235-7.346a3.8,3.8,0,0,0,.021-.688q-.075-1.022-1.2-1.022a2.209,2.209,0,0,0-1.708.828L110.523,23h-3.534l2.02-11.623Zm13.524-2.879-.5,2.89h1.858l-.44,2.514h-1.858l-.9,5.339a1.423,1.423,0,0,0,.07.827q.145.279.725.3a8.4,8.4,0,0,0,.924-.054l-.258,2.621a5.712,5.712,0,0,1-1.9.269,3.132,3.132,0,0,1-2.46-.967,3.3,3.3,0,0,1-.666-2.567l.945-5.769h-1.439l.43-2.514h1.439l.5-2.89ZM130.364,23h-3.545l2.02-11.623h3.545ZM129.15,8.444a1.639,1.639,0,0,1,.553-1.311,1.986,1.986,0,0,1,1.391-.526,2.051,2.051,0,0,1,1.38.473,1.611,1.611,0,0,1,.575,1.235,1.642,1.642,0,0,1-.548,1.316,1.993,1.993,0,0,1-1.4.521,2.076,2.076,0,0,1-1.37-.467A1.592,1.592,0,0,1,129.15,8.444Zm4.039,8.723a8.454,8.454,0,0,1,1.676-4.4,4.153,4.153,0,0,1,3.5-1.6,3.168,3.168,0,0,1,2.46,1.246L141.955,6.5H145.5L142.642,23h-3.147l.15-1.257a3.627,3.627,0,0,1-2.89,1.482,3.2,3.2,0,0,1-2.626-1.241,5.471,5.471,0,0,1-1.015-3.271,10.06,10.06,0,0,1,.043-1.321Zm3.523.247a8.436,8.436,0,0,0-.075,1.2q0,1.783,1.2,1.815a2.254,2.254,0,0,0,1.858-1l.795-4.458a1.431,1.431,0,0,0-1.418-1.021,1.807,1.807,0,0,0-1.6.854A5.508,5.508,0,0,0,136.712,17.414ZM151.268,23a3.151,3.151,0,0,1-.15-1.053,3.585,3.585,0,0,1-2.847,1.268,3.5,3.5,0,0,1-2.514-1.01,3.035,3.035,0,0,1-.935-2.4A3.41,3.41,0,0,1,146.4,16.9a7.445,7.445,0,0,1,4.168-1.015l1.182.021.129-.655.043-.569a.923.923,0,0,0-.978-1.01,1.358,1.358,0,0,0-1.429,1.278l-3.545.011a3.367,3.367,0,0,1,.763-2.036,4.52,4.52,0,0,1,1.928-1.332,6.737,6.737,0,0,1,2.594-.435,5.2,5.2,0,0,1,2.315.553,3.446,3.446,0,0,1,1.488,1.45,3.7,3.7,0,0,1,.376,2.143l-.87,5.468-.054.666a2.936,2.936,0,0,0,.2,1.354l-.011.2Zm-2.02-2.342a2.28,2.28,0,0,0,1.9-.956l.354-1.869-.913-.011a2.406,2.406,0,0,0-1.461.5,1.894,1.894,0,0,0-.72,1.305.951.951,0,0,0,.167.725A.85.85,0,0,0,149.249,20.658Zm7.477-3.491a8.454,8.454,0,0,1,1.676-4.4,4.153,4.153,0,0,1,3.5-1.6,3.168,3.168,0,0,1,2.46,1.246L165.491,6.5h3.545L166.178,23h-3.147l.15-1.257a3.627,3.627,0,0,1-2.89,1.482,3.2,3.2,0,0,1-2.626-1.241,5.471,5.471,0,0,1-1.015-3.271,10.06,10.06,0,0,1,.043-1.321Zm3.523.247a8.436,8.436,0,0,0-.075,1.2q0,1.783,1.2,1.815a2.254,2.254,0,0,0,1.858-1l.795-4.458a1.431,1.431,0,0,0-1.418-1.021,1.807,1.807,0,0,0-1.6.854A5.508,5.508,0,0,0,160.249,17.414ZM185.16,17.2a9.655,9.655,0,0,1-.956,3.25,5.314,5.314,0,0,1-1.81,2.116,4.176,4.176,0,0,1-2.412.661,3.158,3.158,0,0,1-2.471-1.2l-1.053,5.446h-3.534l2.793-16.092,3.266-.011-.183,1.106a3.416,3.416,0,0,1,2.761-1.311,3.253,3.253,0,0,1,2.648,1.214,5.363,5.363,0,0,1,1.015,3.255A12.555,12.555,0,0,1,185.16,17.2Zm-3.437-1.439q-.054-1.772-1.2-1.8a2.083,2.083,0,0,0-1.858.913l-.827,4.608a1.434,1.434,0,0,0,1.482.956q1.88.032,2.31-3.233Q181.722,16.168,181.722,15.76ZM192.346,23a3.151,3.151,0,0,1-.15-1.053,3.585,3.585,0,0,1-2.847,1.268,3.5,3.5,0,0,1-2.514-1.01,3.035,3.035,0,0,1-.935-2.4A3.41,3.41,0,0,1,187.48,16.9a7.445,7.445,0,0,1,4.168-1.015l1.182.021.129-.655.043-.569a.923.923,0,0,0-.978-1.01,1.358,1.358,0,0,0-1.429,1.278l-3.545.011a3.367,3.367,0,0,1,.763-2.036,4.52,4.52,0,0,1,1.928-1.332,6.737,6.737,0,0,1,2.594-.435,5.2,5.2,0,0,1,2.315.553,3.446,3.446,0,0,1,1.488,1.45,3.7,3.7,0,0,1,.376,2.143l-.87,5.468-.054.666a2.936,2.936,0,0,0,.2,1.354l-.011.2Zm-2.02-2.342a2.28,2.28,0,0,0,1.9-.956l.354-1.869-.913-.011a2.406,2.406,0,0,0-1.461.5,1.894,1.894,0,0,0-.72,1.305.951.951,0,0,0,.167.725A.85.85,0,0,0,190.327,20.658Zm15.286-6a10.112,10.112,0,0,0-1.1-.107,2.729,2.729,0,0,0-2.428,1.1L200.779,23h-3.534l2.02-11.623,3.3-.011-.269,1.525a3.227,3.227,0,0,1,2.686-1.762,5.064,5.064,0,0,1,1.1.15ZM211.65,23a3.151,3.151,0,0,1-.15-1.053,3.585,3.585,0,0,1-2.847,1.268,3.5,3.5,0,0,1-2.514-1.01,3.035,3.035,0,0,1-.935-2.4,3.41,3.41,0,0,1,1.579-2.906,7.445,7.445,0,0,1,4.168-1.015l1.182.021.129-.655.043-.569a.923.923,0,0,0-.978-1.01,1.358,1.358,0,0,0-1.429,1.278l-3.545.011a3.367,3.367,0,0,1,.763-2.036,4.52,4.52,0,0,1,1.928-1.332,6.737,6.737,0,0,1,2.594-.435,5.2,5.2,0,0,1,2.315.553,3.446,3.446,0,0,1,1.488,1.45,3.7,3.7,0,0,1,.376,2.143l-.87,5.468-.054.666a2.936,2.936,0,0,0,.2,1.354l-.011.2Zm-2.02-2.342a2.28,2.28,0,0,0,1.9-.956l.354-1.869-.913-.011a2.406,2.406,0,0,0-1.461.5,1.894,1.894,0,0,0-.72,1.305.951.951,0,0,0,.167.725A.85.85,0,0,0,209.63,20.658Zm17.7-.236A1.521,1.521,0,0,0,228.526,20a2.1,2.1,0,0,0,.548-1.147l3.309-.011a4.35,4.35,0,0,1-.757,2.288,4.577,4.577,0,0,1-1.869,1.563,5.526,5.526,0,0,1-2.519.521,4.364,4.364,0,0,1-3.577-1.67,5.777,5.777,0,0,1-1.021-4.206l.032-.258a7.787,7.787,0,0,1,.988-3.121,5.654,5.654,0,0,1,2.089-2.1,5.419,5.419,0,0,1,2.9-.7,4.322,4.322,0,0,1,3.207,1.294,4.59,4.59,0,0,1,1.133,3.378l-3.309-.011q.054-1.837-1.321-1.869-1.869-.064-2.148,3.137l-.1,1.092-.011.407Q226.1,20.39,227.333,20.422Zm12.59-9.26a4.881,4.881,0,0,1,2.7.779,4.388,4.388,0,0,1,1.67,2.111,6.514,6.514,0,0,1,.381,3.008l-.021.236a6.888,6.888,0,0,1-1.987,4.318,5.592,5.592,0,0,1-4.168,1.6,4.861,4.861,0,0,1-2.675-.768,4.415,4.415,0,0,1-1.67-2.089,6.33,6.33,0,0,1-.392-2.986,7.165,7.165,0,0,1,1.96-4.555A5.557,5.557,0,0,1,239.923,11.162Zm-2.632,6.214-.032.633q-.15,2.391,1.461,2.434,2.084.064,2.417-3.378l.043-.976a2.634,2.634,0,0,0-.36-1.539,1.311,1.311,0,0,0-1.123-.6,1.848,1.848,0,0,0-1.606.8A5.228,5.228,0,0,0,237.292,17.376Zm13.191-6.01-.247,1.4a4.131,4.131,0,0,1,3.362-1.611,2.775,2.775,0,0,1,2.4,1.2,5.013,5.013,0,0,1,.575,3.335L255.349,23H251.8l1.235-7.346a3.8,3.8,0,0,0,.021-.688q-.075-1.022-1.2-1.022a2.209,2.209,0,0,0-1.708.828L248.7,23h-3.534l2.02-11.623Zm12.149,7.283,2.911-7.272h3.813L263.857,23h-3.6L258.4,11.377h3.631Zm11.655,4.565a5.4,5.4,0,0,1-2.777-.736,4.636,4.636,0,0,1-1.842-2.02,5.426,5.426,0,0,1-.494-2.852l.032-.3a7.125,7.125,0,0,1,1.993-4.539,5.512,5.512,0,0,1,4.173-1.606,4.5,4.5,0,0,1,2.557.758,4.238,4.238,0,0,1,1.558,2.033,6.227,6.227,0,0,1,.322,2.91l-.2,1.474h-6.918a2.266,2.266,0,0,0,.516,1.482,1.894,1.894,0,0,0,1.439.6A3.658,3.658,0,0,0,277.4,19.24l1.482,1.96a4.373,4.373,0,0,1-1.832,1.462,6.432,6.432,0,0,1-2.573.552Zm.859-9.26a1.818,1.818,0,0,0-1.305.47,3.946,3.946,0,0,0-.961,1.646h3.534l.064-.31a2.357,2.357,0,0,0,.021-.705A1.244,1.244,0,0,0,275.147,13.955Zm13.481.7a10.111,10.111,0,0,0-1.1-.107,2.729,2.729,0,0,0-2.428,1.1L283.794,23H280.26l2.02-11.623,3.3-.011-.269,1.525a3.227,3.227,0,0,1,2.686-1.762,5.065,5.065,0,0,1,1.1.15ZM295.6,8.487l-.5,2.89h1.858l-.44,2.514h-1.858l-.9,5.339a1.423,1.423,0,0,0,.07.827q.145.279.725.3a8.4,8.4,0,0,0,.924-.054l-.258,2.621a5.712,5.712,0,0,1-1.9.269,3.132,3.132,0,0,1-2.46-.967,3.3,3.3,0,0,1-.666-2.567l.945-5.769h-1.439l.43-2.514h1.439l.5-2.89ZM300.133,23h-3.545l2.02-11.623h3.545ZM298.919,8.444a1.639,1.639,0,0,1,.553-1.311,1.986,1.986,0,0,1,1.391-.526,2.051,2.051,0,0,1,1.38.473,1.611,1.611,0,0,1,.575,1.235,1.642,1.642,0,0,1-.548,1.316,1.993,1.993,0,0,1-1.4.521,2.076,2.076,0,0,1-1.37-.467A1.592,1.592,0,0,1,298.919,8.444Zm11.849,6.209a10.111,10.111,0,0,0-1.1-.107,2.729,2.729,0,0,0-2.428,1.1L305.934,23H302.4l2.02-11.623,3.3-.011-.269,1.525a3.227,3.227,0,0,1,2.686-1.762,5.065,5.065,0,0,1,1.1.15Zm16.575-.1,2.138-3.18h3.824L329.341,17.2l2.127,5.8h-3.523l-1.225-3.416L324.454,23h-3.867l4.168-6.123-2.03-5.5h3.556Zm16.371,8.658a5.4,5.4,0,0,1-2.777-.736,4.636,4.636,0,0,1-1.842-2.02,5.426,5.426,0,0,1-.494-2.852l.032-.3a7.125,7.125,0,0,1,1.993-4.539,5.512,5.512,0,0,1,4.173-1.606,4.5,4.5,0,0,1,2.557.758,4.238,4.238,0,0,1,1.558,2.033,6.227,6.227,0,0,1,.322,2.91l-.2,1.474h-6.918a2.266,2.266,0,0,0,.516,1.482,1.894,1.894,0,0,0,1.439.6,3.658,3.658,0,0,0,2.761-1.182l1.482,1.96a4.373,4.373,0,0,1-1.832,1.462,6.432,6.432,0,0,1-2.573.552Zm.859-9.26a1.818,1.818,0,0,0-1.305.47,3.946,3.946,0,0,0-.961,1.646h3.534l.064-.31a2.357,2.357,0,0,0,.021-.705A1.244,1.244,0,0,0,344.574,13.955Zm5.672,3.18a9.754,9.754,0,0,1,.924-3.207,5.125,5.125,0,0,1,1.789-2.111,4.278,4.278,0,0,1,2.455-.655,3.023,3.023,0,0,1,2.643,1.482l.548-1.278,3.1.011-2.793,16.092H355.37l1.085-5.457a3.415,3.415,0,0,1-2.653,1.2,3.189,3.189,0,0,1-2.6-1.235,5.477,5.477,0,0,1-1.021-3.3A12.535,12.535,0,0,1,350.246,17.135Zm3.459,1.117a2.929,2.929,0,0,0,.226,1.552,1.052,1.052,0,0,0,.967.618,2.159,2.159,0,0,0,1.848-.935l.827-4.63a1.419,1.419,0,0,0-1.429-.924q-1.944-.032-2.353,3.2Zm15.243,3.48a3.847,3.847,0,0,1-3.137,1.493,3.045,3.045,0,0,1-2.573-1.192,4.4,4.4,0,0,1-.671-3.137l1.257-7.52h3.534l-1.278,7.572a2.523,2.523,0,0,0,0,.57.936.936,0,0,0,1.042.914,2.284,2.284,0,0,0,1.9-.882l1.439-8.174h3.556L372,23h-3.287ZM377.627,23h-3.545l2.02-11.623h3.545ZM376.414,8.444a1.639,1.639,0,0,1,.553-1.311,1.986,1.986,0,0,1,1.391-.526,2.051,2.051,0,0,1,1.38.473,1.611,1.611,0,0,1,.575,1.235,1.642,1.642,0,0,1-.548,1.316,1.993,1.993,0,0,1-1.4.521A2.076,2.076,0,0,1,377,9.685,1.592,1.592,0,0,1,376.414,8.444Zm8.712,10.205,2.911-7.272h3.813L386.35,23h-3.6l-1.858-11.623h3.631ZM397.393,23a3.152,3.152,0,0,1-.15-1.053,3.585,3.585,0,0,1-2.847,1.268,3.5,3.5,0,0,1-2.514-1.01,3.035,3.035,0,0,1-.935-2.4,3.409,3.409,0,0,1,1.579-2.906,7.445,7.445,0,0,1,4.168-1.015l1.182.021.129-.655.043-.569a.923.923,0,0,0-.978-1.01,1.358,1.358,0,0,0-1.429,1.278l-3.545.011a3.366,3.366,0,0,1,.763-2.036,4.52,4.52,0,0,1,1.928-1.332,6.738,6.738,0,0,1,2.594-.435,5.2,5.2,0,0,1,2.315.553,3.446,3.446,0,0,1,1.488,1.45,3.7,3.7,0,0,1,.376,2.143l-.87,5.468-.054.666a2.936,2.936,0,0,0,.2,1.354l-.011.2Zm-2.02-2.342a2.28,2.28,0,0,0,1.9-.956l.354-1.869-.913-.011a2.406,2.406,0,0,0-1.461.5,1.894,1.894,0,0,0-.72,1.305.951.951,0,0,0,.167.725A.85.85,0,0,0,395.374,20.658ZM406,23h-3.545L405.31,6.5h3.545Zm8.024.215a5.4,5.4,0,0,1-2.777-.736,4.636,4.636,0,0,1-1.842-2.02,5.426,5.426,0,0,1-.494-2.852l.032-.3a7.125,7.125,0,0,1,1.993-4.539,5.512,5.512,0,0,1,4.173-1.606,4.5,4.5,0,0,1,2.557.758,4.238,4.238,0,0,1,1.558,2.033,6.227,6.227,0,0,1,.322,2.91l-.2,1.474h-6.918a2.266,2.266,0,0,0,.516,1.482,1.894,1.894,0,0,0,1.439.6,3.658,3.658,0,0,0,2.761-1.182l1.482,1.96a4.373,4.373,0,0,1-1.832,1.462,6.432,6.432,0,0,1-2.573.552Zm.859-9.26a1.818,1.818,0,0,0-1.305.47,3.946,3.946,0,0,0-.961,1.646h3.534l.064-.31a2.357,2.357,0,0,0,.021-.705A1.244,1.244,0,0,0,414.881,13.955Zm10.334-2.589-.247,1.4a4.131,4.131,0,0,1,3.362-1.611,2.775,2.775,0,0,1,2.4,1.2,5.013,5.013,0,0,1,.575,3.335L430.082,23h-3.545l1.235-7.346a3.8,3.8,0,0,0,.021-.688q-.075-1.022-1.2-1.022a2.209,2.209,0,0,0-1.708.828L423.432,23H419.9l2.02-11.623ZM438.74,8.487l-.5,2.89h1.858l-.44,2.514h-1.858l-.9,5.339a1.423,1.423,0,0,0,.07.827q.145.279.725.3a8.4,8.4,0,0,0,.924-.054l-.258,2.621a5.712,5.712,0,0,1-1.9.269,3.132,3.132,0,0,1-2.46-.967,3.3,3.3,0,0,1-.666-2.567l.945-5.769h-1.439l.43-2.514H434.7l.5-2.89Zm6.585,14.728a5.4,5.4,0,0,1-2.777-.736,4.636,4.636,0,0,1-1.842-2.02,5.426,5.426,0,0,1-.494-2.852l.032-.3a7.125,7.125,0,0,1,1.993-4.539,5.512,5.512,0,0,1,4.173-1.606,4.5,4.5,0,0,1,2.557.758,4.238,4.238,0,0,1,1.558,2.033,6.227,6.227,0,0,1,.322,2.91l-.2,1.474h-6.918a2.266,2.266,0,0,0,.516,1.482,1.894,1.894,0,0,0,1.439.6,3.658,3.658,0,0,0,2.761-1.182l1.482,1.96a4.373,4.373,0,0,1-1.832,1.462,6.432,6.432,0,0,1-2.573.552Zm.859-9.26a1.818,1.818,0,0,0-1.305.47,3.946,3.946,0,0,0-.961,1.646h3.534l.064-.31a2.357,2.357,0,0,0,.021-.705A1.244,1.244,0,0,0,446.184,13.955Zm11.1,3.212a8.454,8.454,0,0,1,1.676-4.4,4.153,4.153,0,0,1,3.5-1.6,3.168,3.168,0,0,1,2.46,1.246L466.046,6.5h3.545L466.734,23h-3.147l.15-1.257a3.627,3.627,0,0,1-2.89,1.482,3.2,3.2,0,0,1-2.626-1.241,5.471,5.471,0,0,1-1.015-3.271,10.062,10.062,0,0,1,.043-1.321Zm3.523.247a8.436,8.436,0,0,0-.075,1.2q0,1.783,1.2,1.815a2.254,2.254,0,0,0,1.858-1l.795-4.458a1.431,1.431,0,0,0-1.418-1.021,1.807,1.807,0,0,0-1.6.854A5.508,5.508,0,0,0,460.8,17.414Zm13.782,5.8a5.4,5.4,0,0,1-2.777-.736,4.636,4.636,0,0,1-1.842-2.02,5.426,5.426,0,0,1-.494-2.852l.032-.3a7.125,7.125,0,0,1,1.993-4.539,5.512,5.512,0,0,1,4.173-1.606,4.5,4.5,0,0,1,2.557.758,4.238,4.238,0,0,1,1.558,2.033,6.227,6.227,0,0,1,.322,2.91l-.2,1.474h-6.918a2.266,2.266,0,0,0,.516,1.482,1.894,1.894,0,0,0,1.439.6A3.658,3.658,0,0,0,477.7,19.24l1.482,1.96a4.373,4.373,0,0,1-1.832,1.462,6.432,6.432,0,0,1-2.573.552Zm.859-9.26a1.818,1.818,0,0,0-1.305.47,3.946,3.946,0,0,0-.961,1.646h3.534l.064-.31a2.357,2.357,0,0,0,.021-.705A1.244,1.244,0,0,0,475.446,13.955ZM489.69,23h-3.545L489,6.5h3.545Zm8.8,0a3.152,3.152,0,0,1-.15-1.053,3.585,3.585,0,0,1-2.847,1.268,3.5,3.5,0,0,1-2.514-1.01,3.035,3.035,0,0,1-.935-2.4,3.409,3.409,0,0,1,1.579-2.906,7.445,7.445,0,0,1,4.168-1.015l1.182.021.129-.655.043-.569a.923.923,0,0,0-.978-1.01,1.358,1.358,0,0,0-1.429,1.278l-3.545.011a3.366,3.366,0,0,1,.763-2.036,4.52,4.52,0,0,1,1.928-1.332,6.738,6.738,0,0,1,2.594-.435,5.2,5.2,0,0,1,2.315.553,3.446,3.446,0,0,1,1.488,1.45,3.7,3.7,0,0,1,.376,2.143l-.87,5.468-.054.666a2.936,2.936,0,0,0,.2,1.354l-.011.2Zm-2.02-2.342a2.28,2.28,0,0,0,1.9-.956l.354-1.869-.913-.011a2.406,2.406,0,0,0-1.461.5,1.894,1.894,0,0,0-.72,1.305.951.951,0,0,0,.167.725A.85.85,0,0,0,496.468,20.658Zm19.508,1.074a3.847,3.847,0,0,1-3.137,1.493,3.045,3.045,0,0,1-2.573-1.192A4.4,4.4,0,0,1,509.6,18.9l1.257-7.52h3.534l-1.278,7.572a2.523,2.523,0,0,0,0,.57.936.936,0,0,0,1.042.914,2.283,2.283,0,0,0,1.9-.882l1.439-8.174h3.556L519.027,23H515.74ZM526.17,11.366l-.247,1.4a4.131,4.131,0,0,1,3.362-1.611,2.775,2.775,0,0,1,2.4,1.2,5.013,5.013,0,0,1,.575,3.335L531.037,23h-3.545l1.235-7.346a3.8,3.8,0,0,0,.021-.688q-.075-1.022-1.2-1.022a2.209,2.209,0,0,0-1.708.828L524.387,23h-3.534l2.02-11.623ZM536.794,23H533.25l2.02-11.623h3.545ZM535.581,8.444a1.639,1.639,0,0,1,.553-1.311,1.986,1.986,0,0,1,1.391-.526,2.051,2.051,0,0,1,1.38.473,1.611,1.611,0,0,1,.575,1.235,1.642,1.642,0,0,1-.548,1.316,1.993,1.993,0,0,1-1.4.521,2.076,2.076,0,0,1-1.37-.467A1.592,1.592,0,0,1,535.581,8.444Zm4.039,8.723a8.453,8.453,0,0,1,1.676-4.4,4.153,4.153,0,0,1,3.5-1.6,3.167,3.167,0,0,1,2.46,1.246L548.385,6.5h3.545L549.073,23h-3.147l.15-1.257a3.627,3.627,0,0,1-2.89,1.482,3.2,3.2,0,0,1-2.626-1.241,5.471,5.471,0,0,1-1.015-3.271,10.057,10.057,0,0,1,.043-1.321Zm3.523.247a8.436,8.436,0,0,0-.075,1.2q0,1.783,1.2,1.815a2.254,2.254,0,0,0,1.858-1l.795-4.458a1.431,1.431,0,0,0-1.418-1.021,1.807,1.807,0,0,0-1.6.854A5.508,5.508,0,0,0,543.143,17.414ZM557.7,23a3.151,3.151,0,0,1-.15-1.053,3.585,3.585,0,0,1-2.847,1.268,3.5,3.5,0,0,1-2.514-1.01,3.035,3.035,0,0,1-.935-2.4,3.41,3.41,0,0,1,1.579-2.906A7.445,7.445,0,0,1,557,15.889l1.182.021.129-.655.043-.569a.923.923,0,0,0-.978-1.01,1.358,1.358,0,0,0-1.429,1.278l-3.545.011a3.367,3.367,0,0,1,.763-2.036,4.521,4.521,0,0,1,1.928-1.332,6.737,6.737,0,0,1,2.594-.435,5.2,5.2,0,0,1,2.315.553,3.446,3.446,0,0,1,1.488,1.45,3.7,3.7,0,0,1,.376,2.143L561,20.776l-.054.666a2.936,2.936,0,0,0,.2,1.354l-.011.2Zm-2.02-2.342a2.279,2.279,0,0,0,1.9-.956l.354-1.869-.913-.011a2.406,2.406,0,0,0-1.461.5,1.894,1.894,0,0,0-.72,1.305.951.951,0,0,0,.167.725A.85.85,0,0,0,555.679,20.658Zm7.477-3.491a8.453,8.453,0,0,1,1.676-4.4,4.153,4.153,0,0,1,3.5-1.6,3.167,3.167,0,0,1,2.46,1.246L571.921,6.5h3.545L572.609,23h-3.147l.15-1.257a3.627,3.627,0,0,1-2.89,1.482,3.2,3.2,0,0,1-2.626-1.241,5.471,5.471,0,0,1-1.015-3.271,10.057,10.057,0,0,1,.043-1.321Zm3.523.247a8.436,8.436,0,0,0-.075,1.2q0,1.783,1.2,1.815a2.254,2.254,0,0,0,1.858-1l.795-4.458a1.431,1.431,0,0,0-1.418-1.021,1.807,1.807,0,0,0-1.6.854A5.508,5.508,0,0,0,566.679,17.414Zm14.008-.247a8.453,8.453,0,0,1,1.676-4.4,4.153,4.153,0,0,1,3.5-1.6,3.167,3.167,0,0,1,2.46,1.246L589.453,6.5H593L590.14,23h-3.147l.15-1.257a3.627,3.627,0,0,1-2.89,1.482,3.2,3.2,0,0,1-2.626-1.241,5.471,5.471,0,0,1-1.015-3.271,10.057,10.057,0,0,1,.043-1.321Zm3.523.247a8.436,8.436,0,0,0-.075,1.2q0,1.783,1.2,1.815a2.254,2.254,0,0,0,1.858-1l.795-4.458a1.431,1.431,0,0,0-1.418-1.021,1.807,1.807,0,0,0-1.6.854A5.508,5.508,0,0,0,584.21,17.414Zm13.782,5.8a5.4,5.4,0,0,1-2.777-.736,4.636,4.636,0,0,1-1.842-2.02,5.427,5.427,0,0,1-.494-2.852l.032-.3a7.125,7.125,0,0,1,1.993-4.539,5.512,5.512,0,0,1,4.173-1.606,4.5,4.5,0,0,1,2.557.758,4.238,4.238,0,0,1,1.558,2.033,6.228,6.228,0,0,1,.322,2.91l-.2,1.474h-6.918a2.266,2.266,0,0,0,.516,1.482,1.894,1.894,0,0,0,1.439.6,3.658,3.658,0,0,0,2.761-1.182l1.482,1.96a4.373,4.373,0,0,1-1.832,1.462,6.433,6.433,0,0,1-2.573.552Zm.859-9.26a1.818,1.818,0,0,0-1.305.47,3.946,3.946,0,0,0-.961,1.646h3.534l.064-.31a2.358,2.358,0,0,0,.021-.705A1.244,1.244,0,0,0,598.852,13.955ZM614.7,11.366l-.236,1.4a4.173,4.173,0,0,1,3.395-1.6,3.066,3.066,0,0,1,1.729.494,2.252,2.252,0,0,1,.9,1.257,4.424,4.424,0,0,1,3.534-1.751,2.739,2.739,0,0,1,2.39,1.208,5.032,5.032,0,0,1,.564,3.314L625.761,23h-3.545l1.235-7.317.043-.633q0-1.062-1-1.094a2.288,2.288,0,0,0-1.74.955L619.348,23H615.8l1.225-7.3.043-.644q0-1.105-1-1.105a2.273,2.273,0,0,0-1.719.955L612.924,23H609.39l2.02-11.623Zm18.938,11.849a5.4,5.4,0,0,1-2.777-.736,4.636,4.636,0,0,1-1.842-2.02,5.427,5.427,0,0,1-.494-2.852l.032-.3a7.125,7.125,0,0,1,1.993-4.539,5.512,5.512,0,0,1,4.173-1.606,4.5,4.5,0,0,1,2.557.758,4.238,4.238,0,0,1,1.558,2.033,6.228,6.228,0,0,1,.322,2.91l-.2,1.474h-6.918a2.266,2.266,0,0,0,.516,1.482,1.894,1.894,0,0,0,1.439.6,3.658,3.658,0,0,0,2.761-1.182l1.482,1.96a4.373,4.373,0,0,1-1.832,1.462,6.433,6.433,0,0,1-2.573.552Zm.859-9.26a1.818,1.818,0,0,0-1.305.47,3.946,3.946,0,0,0-.961,1.646h3.534l.064-.31a2.358,2.358,0,0,0,.021-.705A1.244,1.244,0,0,0,634.495,13.955Zm5.672,3.212a8.453,8.453,0,0,1,1.676-4.4,4.153,4.153,0,0,1,3.5-1.6,3.167,3.167,0,0,1,2.46,1.246L648.932,6.5h3.545L649.62,23h-3.147l.15-1.257a3.627,3.627,0,0,1-2.89,1.482,3.2,3.2,0,0,1-2.626-1.241,5.471,5.471,0,0,1-1.015-3.271,10.057,10.057,0,0,1,.043-1.321Zm3.523.247a8.436,8.436,0,0,0-.075,1.2q0,1.783,1.2,1.815a2.254,2.254,0,0,0,1.858-1l.795-4.458a1.431,1.431,0,0,0-1.418-1.021,1.807,1.807,0,0,0-1.6.854A5.508,5.508,0,0,0,643.69,17.414ZM655.42,23h-3.545l2.02-11.623h3.545ZM654.207,8.444a1.639,1.639,0,0,1,.553-1.311,1.986,1.986,0,0,1,1.391-.526,2.051,2.051,0,0,1,1.38.473,1.611,1.611,0,0,1,.575,1.235,1.642,1.642,0,0,1-.548,1.316,1.993,1.993,0,0,1-1.4.521,2.076,2.076,0,0,1-1.37-.467A1.592,1.592,0,0,1,654.207,8.444Zm4.039,8.723a8.453,8.453,0,0,1,1.676-4.4,4.153,4.153,0,0,1,3.5-1.6,3.167,3.167,0,0,1,2.46,1.246L667.011,6.5h3.545L667.7,23h-3.147l.15-1.257a3.627,3.627,0,0,1-2.89,1.482,3.2,3.2,0,0,1-2.626-1.241,5.471,5.471,0,0,1-1.015-3.271,10.057,10.057,0,0,1,.043-1.321Zm3.523.247a8.436,8.436,0,0,0-.075,1.2q0,1.783,1.2,1.815a2.254,2.254,0,0,0,1.858-1l.795-4.458a1.431,1.431,0,0,0-1.418-1.021,1.807,1.807,0,0,0-1.6.854A5.508,5.508,0,0,0,661.769,17.414ZM676.325,23a3.151,3.151,0,0,1-.15-1.053,3.585,3.585,0,0,1-2.847,1.268,3.5,3.5,0,0,1-2.514-1.01,3.035,3.035,0,0,1-.935-2.4,3.41,3.41,0,0,1,1.579-2.906,7.445,7.445,0,0,1,4.168-1.015l1.182.021.129-.655.043-.569a.923.923,0,0,0-.978-1.01,1.358,1.358,0,0,0-1.429,1.278l-3.545.011a3.367,3.367,0,0,1,.763-2.036A4.521,4.521,0,0,1,673.72,11.6a6.737,6.737,0,0,1,2.594-.435,5.2,5.2,0,0,1,2.315.553,3.446,3.446,0,0,1,1.488,1.45,3.7,3.7,0,0,1,.376,2.143l-.87,5.468-.054.666a2.936,2.936,0,0,0,.2,1.354l-.011.2Zm-2.02-2.342a2.279,2.279,0,0,0,1.9-.956l.354-1.869-.913-.011a2.406,2.406,0,0,0-1.461.5,1.894,1.894,0,0,0-.72,1.305.951.951,0,0,0,.167.725A.85.85,0,0,0,674.305,20.658Z" transform="translate(362 9599.283)" fill="#12263f"/>
    <path id="Trazado_826490" data-name="Trazado 826490" d="M269.042,7.359,267.3,17.564a6.417,6.417,0,0,1-2.186,4.179,6.662,6.662,0,0,1-4.56,1.482,6.22,6.22,0,0,1-2.965-.736,4.311,4.311,0,0,1-1.853-1.987,5.347,5.347,0,0,1-.4-2.927l1.74-10.216h3.7l-1.729,10.235a4.919,4.919,0,0,0-.021,1.021,1.845,1.845,0,0,0,.5,1.236,1.827,1.827,0,0,0,1.262.473q2.363.075,2.847-2.742l1.74-10.224Zm4.694,4.007-.247,1.4a4.131,4.131,0,0,1,3.362-1.611,2.775,2.775,0,0,1,2.4,1.2,5.013,5.013,0,0,1,.575,3.335L278.6,23h-3.545l1.235-7.346a3.8,3.8,0,0,0,.021-.688q-.075-1.022-1.2-1.022a2.209,2.209,0,0,0-1.708.828L271.954,23h-3.534l2.02-11.623ZM284.361,23h-3.545l2.02-11.623h3.545ZM283.147,8.444a1.639,1.639,0,0,1,.553-1.311,1.986,1.986,0,0,1,1.391-.526,2.051,2.051,0,0,1,1.38.473,1.611,1.611,0,0,1,.575,1.235,1.642,1.642,0,0,1-.548,1.316,1.993,1.993,0,0,1-1.4.521,2.076,2.076,0,0,1-1.37-.467A1.592,1.592,0,0,1,283.147,8.444Zm4.039,8.723a8.454,8.454,0,0,1,1.676-4.4,4.153,4.153,0,0,1,3.5-1.6,3.168,3.168,0,0,1,2.46,1.246L295.952,6.5H299.5L296.639,23h-3.147l.15-1.257a3.627,3.627,0,0,1-2.89,1.482,3.2,3.2,0,0,1-2.626-1.241,5.471,5.471,0,0,1-1.015-3.271,10.062,10.062,0,0,1,.043-1.321Zm3.523.247a8.436,8.436,0,0,0-.075,1.2q0,1.783,1.2,1.815a2.254,2.254,0,0,0,1.858-1l.795-4.458a1.431,1.431,0,0,0-1.418-1.021,1.807,1.807,0,0,0-1.6.854A5.508,5.508,0,0,0,290.709,17.414ZM305.265,23a3.152,3.152,0,0,1-.15-1.053,3.585,3.585,0,0,1-2.847,1.268,3.5,3.5,0,0,1-2.514-1.01,3.035,3.035,0,0,1-.935-2.4A3.409,3.409,0,0,1,300.4,16.9a7.445,7.445,0,0,1,4.168-1.015l1.182.021.129-.655.043-.569a.923.923,0,0,0-.978-1.01,1.358,1.358,0,0,0-1.429,1.278l-3.545.011a3.366,3.366,0,0,1,.763-2.036A4.52,4.52,0,0,1,302.66,11.6a6.738,6.738,0,0,1,2.594-.435,5.2,5.2,0,0,1,2.315.553,3.446,3.446,0,0,1,1.488,1.45,3.7,3.7,0,0,1,.376,2.143l-.87,5.468-.054.666a2.936,2.936,0,0,0,.2,1.354l-.011.2Zm-2.02-2.342a2.28,2.28,0,0,0,1.9-.956l.354-1.869-.913-.011a2.406,2.406,0,0,0-1.461.5,1.894,1.894,0,0,0-.72,1.305.951.951,0,0,0,.167.725A.85.85,0,0,0,303.246,20.658Zm7.477-3.491a8.454,8.454,0,0,1,1.676-4.4,4.153,4.153,0,0,1,3.5-1.6,3.168,3.168,0,0,1,2.46,1.246L319.488,6.5h3.545L320.175,23h-3.147l.15-1.257a3.627,3.627,0,0,1-2.89,1.482,3.2,3.2,0,0,1-2.626-1.241,5.471,5.471,0,0,1-1.015-3.271,10.062,10.062,0,0,1,.043-1.321Zm3.523.247a8.436,8.436,0,0,0-.075,1.2q0,1.783,1.2,1.815a2.254,2.254,0,0,0,1.858-1l.795-4.458a1.431,1.431,0,0,0-1.418-1.021,1.807,1.807,0,0,0-1.6.854A5.508,5.508,0,0,0,314.246,17.414Zm14.008-.247a8.454,8.454,0,0,1,1.676-4.4,4.153,4.153,0,0,1,3.5-1.6,3.168,3.168,0,0,1,2.46,1.246L337.019,6.5h3.545L337.707,23h-3.147l.15-1.257a3.627,3.627,0,0,1-2.89,1.482,3.2,3.2,0,0,1-2.626-1.241,5.471,5.471,0,0,1-1.015-3.271,10.062,10.062,0,0,1,.043-1.321Zm3.523.247a8.436,8.436,0,0,0-.075,1.2q0,1.783,1.2,1.815a2.254,2.254,0,0,0,1.858-1l.795-4.458a1.431,1.431,0,0,0-1.418-1.021,1.807,1.807,0,0,0-1.6.854A5.508,5.508,0,0,0,331.777,17.414Zm13.782,5.8a5.4,5.4,0,0,1-2.777-.736,4.636,4.636,0,0,1-1.842-2.02,5.426,5.426,0,0,1-.494-2.852l.032-.3a7.125,7.125,0,0,1,1.993-4.539,5.512,5.512,0,0,1,4.173-1.606,4.5,4.5,0,0,1,2.557.758,4.238,4.238,0,0,1,1.558,2.033,6.227,6.227,0,0,1,.322,2.91l-.2,1.474h-6.918a2.266,2.266,0,0,0,.516,1.482,1.894,1.894,0,0,0,1.439.6,3.658,3.658,0,0,0,2.761-1.182l1.482,1.96a4.373,4.373,0,0,1-1.832,1.462,6.432,6.432,0,0,1-2.573.552Zm.859-9.26a1.818,1.818,0,0,0-1.305.47,3.946,3.946,0,0,0-.961,1.646h3.534l.064-.31a2.357,2.357,0,0,0,.021-.705A1.244,1.244,0,0,0,346.418,13.955Zm15.845-2.589-.236,1.4a4.173,4.173,0,0,1,3.395-1.6,3.066,3.066,0,0,1,1.729.494,2.252,2.252,0,0,1,.9,1.257,4.424,4.424,0,0,1,3.534-1.751,2.739,2.739,0,0,1,2.39,1.208,5.032,5.032,0,0,1,.564,3.314L373.328,23h-3.545l1.235-7.317.043-.633q0-1.062-1-1.094a2.288,2.288,0,0,0-1.74.955L366.915,23H363.37l1.225-7.3.043-.644q0-1.105-1-1.105a2.273,2.273,0,0,0-1.719.955L360.491,23h-3.534l2.02-11.623ZM381.2,23.215a5.4,5.4,0,0,1-2.777-.736,4.636,4.636,0,0,1-1.842-2.02,5.426,5.426,0,0,1-.494-2.852l.032-.3a7.125,7.125,0,0,1,1.993-4.539,5.512,5.512,0,0,1,4.173-1.606,4.5,4.5,0,0,1,2.557.758,4.238,4.238,0,0,1,1.558,2.033,6.227,6.227,0,0,1,.322,2.91l-.2,1.474H379.6a2.266,2.266,0,0,0,.516,1.482,1.894,1.894,0,0,0,1.439.6,3.658,3.658,0,0,0,2.761-1.182L385.8,21.2a4.373,4.373,0,0,1-1.832,1.462,6.432,6.432,0,0,1-2.573.552Zm.859-9.26a1.818,1.818,0,0,0-1.305.47,3.946,3.946,0,0,0-.961,1.646h3.534l.064-.31a2.357,2.357,0,0,0,.021-.705A1.244,1.244,0,0,0,382.061,13.955Zm5.672,3.212a8.454,8.454,0,0,1,1.676-4.4,4.153,4.153,0,0,1,3.5-1.6,3.168,3.168,0,0,1,2.46,1.246L396.5,6.5h3.545L397.186,23h-3.147l.15-1.257a3.627,3.627,0,0,1-2.89,1.482,3.2,3.2,0,0,1-2.626-1.241,5.471,5.471,0,0,1-1.015-3.271,10.062,10.062,0,0,1,.043-1.321Zm3.523.247a8.436,8.436,0,0,0-.075,1.2q0,1.783,1.2,1.815a2.254,2.254,0,0,0,1.858-1l.795-4.458a1.431,1.431,0,0,0-1.418-1.021,1.807,1.807,0,0,0-1.6.854A5.508,5.508,0,0,0,391.256,17.414ZM402.987,23h-3.545l2.02-11.623h3.545ZM401.773,8.444a1.639,1.639,0,0,1,.553-1.311,1.986,1.986,0,0,1,1.391-.526,2.051,2.051,0,0,1,1.38.473,1.611,1.611,0,0,1,.575,1.235,1.642,1.642,0,0,1-.548,1.316,1.993,1.993,0,0,1-1.4.521,2.076,2.076,0,0,1-1.37-.467A1.592,1.592,0,0,1,401.773,8.444Zm4.039,8.723a8.454,8.454,0,0,1,1.676-4.4,4.153,4.153,0,0,1,3.5-1.6,3.168,3.168,0,0,1,2.46,1.246L414.578,6.5h3.545L415.265,23h-3.147l.15-1.257a3.627,3.627,0,0,1-2.89,1.482,3.2,3.2,0,0,1-2.626-1.241,5.471,5.471,0,0,1-1.015-3.271,10.062,10.062,0,0,1,.043-1.321Zm3.523.247a8.436,8.436,0,0,0-.075,1.2q0,1.783,1.2,1.815a2.254,2.254,0,0,0,1.858-1l.795-4.458a1.431,1.431,0,0,0-1.418-1.021,1.807,1.807,0,0,0-1.6.854A5.508,5.508,0,0,0,409.335,17.414ZM423.891,23a3.152,3.152,0,0,1-.15-1.053,3.585,3.585,0,0,1-2.847,1.268,3.5,3.5,0,0,1-2.514-1.01,3.035,3.035,0,0,1-.935-2.4,3.409,3.409,0,0,1,1.579-2.906,7.445,7.445,0,0,1,4.168-1.015l1.182.021.129-.655.043-.569a.923.923,0,0,0-.978-1.01,1.358,1.358,0,0,0-1.429,1.278l-3.545.011a3.366,3.366,0,0,1,.763-2.036,4.52,4.52,0,0,1,1.928-1.332,6.738,6.738,0,0,1,2.594-.435,5.2,5.2,0,0,1,2.315.553,3.446,3.446,0,0,1,1.488,1.45,3.7,3.7,0,0,1,.376,2.143l-.87,5.468-.054.666a2.936,2.936,0,0,0,.2,1.354l-.011.2Zm-2.02-2.342a2.28,2.28,0,0,0,1.9-.956l.354-1.869-.913-.011a2.406,2.406,0,0,0-1.461.5,1.894,1.894,0,0,0-.72,1.305.951.951,0,0,0,.167.725A.85.85,0,0,0,421.872,20.658Zm23.794-3.448A8.423,8.423,0,0,1,444,21.657a4.166,4.166,0,0,1-3.5,1.568,3.082,3.082,0,0,1-2.643-1.439L437.416,23h-3.2l2.868-16.5h3.534l-1.149,5.833a3.508,3.508,0,0,1,2.61-1.171,3.274,3.274,0,0,1,2.664,1.219,5.317,5.317,0,0,1,1.01,3.26,11.821,11.821,0,0,1-.054,1.343ZM442.153,17a11.131,11.131,0,0,0,.1-1.244q0-1.727-1.235-1.8a2.117,2.117,0,0,0-1.837.933l-.838,4.633a1.421,1.421,0,0,0,1.461.912q1.729.054,2.181-2.252l.15-.954Zm10.71,6a3.152,3.152,0,0,1-.15-1.053,3.585,3.585,0,0,1-2.847,1.268,3.5,3.5,0,0,1-2.514-1.01,3.035,3.035,0,0,1-.935-2.4A3.409,3.409,0,0,1,448,16.9a7.445,7.445,0,0,1,4.168-1.015l1.182.021.129-.655.043-.569a.923.923,0,0,0-.978-1.01,1.358,1.358,0,0,0-1.429,1.278l-3.545.011a3.366,3.366,0,0,1,.763-2.036,4.52,4.52,0,0,1,1.928-1.332,6.738,6.738,0,0,1,2.594-.435,5.2,5.2,0,0,1,2.315.553,3.446,3.446,0,0,1,1.488,1.45,3.7,3.7,0,0,1,.376,2.143l-.87,5.468-.054.666a2.936,2.936,0,0,0,.2,1.354l-.011.2Zm-2.02-2.342a2.28,2.28,0,0,0,1.9-.956l.354-1.869-.913-.011a2.406,2.406,0,0,0-1.461.5,1.894,1.894,0,0,0-.72,1.305.951.951,0,0,0,.167.725A.85.85,0,0,0,450.843,20.658Zm13.449-.988q.14-.709-1.1-1.063l-.763-.193a5.873,5.873,0,0,1-2.739-1.386,2.743,2.743,0,0,1-.816-2.116,3.371,3.371,0,0,1,1.488-2.723,5.662,5.662,0,0,1,3.5-1.026,5.246,5.246,0,0,1,3.325,1.042,3.4,3.4,0,0,1,1.294,2.75l-3.523-.011q.043-1.375-1.214-1.375a1.731,1.731,0,0,0-1,.317,1.231,1.231,0,0,0-.548.843q-.183.87,1.536,1.192a8.927,8.927,0,0,1,2.31.822A3.448,3.448,0,0,1,467.29,17.9a2.872,2.872,0,0,1,.4,1.654,3.106,3.106,0,0,1-.687,1.88,4.452,4.452,0,0,1-1.9,1.321,6.791,6.791,0,0,1-2.691.462,5.462,5.462,0,0,1-2.336-.526,4.166,4.166,0,0,1-1.687-1.4,3.641,3.641,0,0,1-.628-2.036l3.287.021A1.358,1.358,0,0,0,462.6,20.8a2.03,2.03,0,0,0,1.117-.3A1.278,1.278,0,0,0,464.292,19.67Zm10.27,3.545a5.4,5.4,0,0,1-2.777-.736,4.636,4.636,0,0,1-1.842-2.02,5.426,5.426,0,0,1-.494-2.852l.032-.3a7.125,7.125,0,0,1,1.993-4.539,5.512,5.512,0,0,1,4.173-1.606,4.5,4.5,0,0,1,2.557.758,4.238,4.238,0,0,1,1.558,2.033,6.227,6.227,0,0,1,.322,2.91l-.2,1.474h-6.918a2.266,2.266,0,0,0,.516,1.482,1.894,1.894,0,0,0,1.439.6,3.658,3.658,0,0,0,2.761-1.182l1.482,1.96a4.373,4.373,0,0,1-1.832,1.462,6.432,6.432,0,0,1-2.573.552Zm.859-9.26a1.818,1.818,0,0,0-1.305.47,3.946,3.946,0,0,0-.961,1.646h3.534l.064-.31a2.357,2.357,0,0,0,.021-.705A1.244,1.244,0,0,0,475.421,13.955Z" transform="translate(390 9652.287)" fill="#12263f"/>
    <path id="Trazado_826491" data-name="Trazado 826491" d="M12.246,16.539H1.688l.539-3.047H12.773Zm-.891,5.145H.8l.539-3.047H11.883Zm12.07-2.062a5.76,5.76,0,0,1,1.793-4.242l.973-.773a5.3,5.3,0,0,0,1.2-1.3,2.657,2.657,0,0,0,.369-1.535.994.994,0,0,0-1.09-1.066,1.4,1.4,0,0,0-1.143.492,3.023,3.023,0,0,0-.65,1.453l-3.855.023a5.054,5.054,0,0,1,1.793-3.686A6.039,6.039,0,0,1,26.93,7.691a6.2,6.2,0,0,1,2.643.6,3.739,3.739,0,0,1,1.682,1.582,4.288,4.288,0,0,1,.457,2.379,5.3,5.3,0,0,1-2.227,3.68l-1.371,1.09A4.164,4.164,0,0,0,26.648,19.6Zm-1.219,3.621a1.869,1.869,0,0,1,.609-1.488,2.163,2.163,0,0,1,1.523-.586,2.128,2.128,0,0,1,1.5.551,1.966,1.966,0,0,1,.018,2.854,2.169,2.169,0,0,1-1.529.58,2.216,2.216,0,0,1-1.482-.521A1.8,1.8,0,0,1,22.207,23.242Zm13.2-3.621A5.76,5.76,0,0,1,37.2,15.379l.973-.773a5.3,5.3,0,0,0,1.2-1.3,2.657,2.657,0,0,0,.369-1.535.994.994,0,0,0-1.09-1.066,1.4,1.4,0,0,0-1.143.492,3.023,3.023,0,0,0-.65,1.453L33,12.672a5.054,5.054,0,0,1,1.793-3.686,6.039,6.039,0,0,1,4.113-1.295,6.2,6.2,0,0,1,2.643.6A3.739,3.739,0,0,1,43.23,9.871a4.288,4.288,0,0,1,.457,2.379,5.3,5.3,0,0,1-2.227,3.68L40.09,17.02A4.164,4.164,0,0,0,38.625,19.6Zm-1.219,3.621a1.869,1.869,0,0,1,.609-1.488,2.163,2.163,0,0,1,1.523-.586,2.128,2.128,0,0,1,1.5.551,1.966,1.966,0,0,1,.018,2.854,2.169,2.169,0,0,1-1.529.58,2.216,2.216,0,0,1-1.482-.521A1.8,1.8,0,0,1,34.184,23.242Zm13.2-3.621a5.76,5.76,0,0,1,1.793-4.242l.973-.773a5.3,5.3,0,0,0,1.2-1.3,2.657,2.657,0,0,0,.369-1.535.994.994,0,0,0-1.09-1.066,1.4,1.4,0,0,0-1.143.492,3.023,3.023,0,0,0-.65,1.453l-3.855.023A5.054,5.054,0,0,1,46.77,8.986a6.039,6.039,0,0,1,4.113-1.295,6.2,6.2,0,0,1,2.643.6,3.739,3.739,0,0,1,1.682,1.582,4.288,4.288,0,0,1,.457,2.379,5.3,5.3,0,0,1-2.227,3.68l-1.371,1.09A4.164,4.164,0,0,0,50.6,19.6ZM46.16,23.242a1.869,1.869,0,0,1,.609-1.488,2.163,2.163,0,0,1,1.523-.586,2.128,2.128,0,0,1,1.5.551,1.966,1.966,0,0,1,.018,2.854,2.169,2.169,0,0,1-1.529.58,2.216,2.216,0,0,1-1.482-.521A1.8,1.8,0,0,1,46.16,23.242Zm13.2-3.621a5.76,5.76,0,0,1,1.793-4.242l.973-.773a5.3,5.3,0,0,0,1.2-1.3,2.657,2.657,0,0,0,.369-1.535A.994.994,0,0,0,62.6,10.7a1.4,1.4,0,0,0-1.143.492,3.023,3.023,0,0,0-.65,1.453l-3.855.023a5.054,5.054,0,0,1,1.793-3.686,6.039,6.039,0,0,1,4.113-1.295,6.2,6.2,0,0,1,2.643.6,3.739,3.739,0,0,1,1.682,1.582,4.288,4.288,0,0,1,.457,2.379,5.3,5.3,0,0,1-2.227,3.68l-1.371,1.09A4.164,4.164,0,0,0,62.578,19.6Zm-1.219,3.621a1.869,1.869,0,0,1,.609-1.488,2.163,2.163,0,0,1,1.523-.586,2.128,2.128,0,0,1,1.5.551,1.966,1.966,0,0,1,.018,2.854,2.169,2.169,0,0,1-1.529.58,2.216,2.216,0,0,1-1.482-.521A1.8,1.8,0,0,1,58.137,23.242Z" transform="translate(1140.5 9622)" fill="#12263f"/>
    <path id="Trazado_826492" data-name="Trazado 826492" d="M735,0H0" transform="translate(390.5 9640.5)" fill="none" stroke="#590e00" stroke-linecap="round" stroke-width="3"/>
  </g>
</svg>
