<svg xmlns="http://www.w3.org/2000/svg" width="505" height="197.567" viewBox="0 0 505 197.567">
  <g id="Grupo_1074917" data-name="Grupo 1074917" transform="translate(3122 2386.294)">
    <rect id="Background" width="505" height="197.567" rx="16" transform="translate(-3122 -2386.294)" fill="#dbe5f3"/>
    <g id="Grupo_1074916" data-name="Grupo 1074916" transform="translate(6.5)">
      <path id="Trazado_826493" data-name="Trazado 826493" d="M29.416,19.188a6.152,6.152,0,0,1-1.178,3.188,6.662,6.662,0,0,1-2.7,2.145,8.345,8.345,0,0,1-3.615.715,5.62,5.62,0,0,1-4.207-1.723A6.924,6.924,0,0,1,16.045,19a14.694,14.694,0,0,1,.416-4.137,10.934,10.934,0,0,1,1.7-3.9,7.807,7.807,0,0,1,2.777-2.484,7.21,7.21,0,0,1,3.5-.791,6.1,6.1,0,0,1,4.412,1.676,6.56,6.56,0,0,1,1.764,4.488l-4-.012a3.287,3.287,0,0,0-.562-2.227A2.469,2.469,0,0,0,24.2,10.9q-3.164-.105-3.855,4.922a27.045,27.045,0,0,0-.316,3.246q-.059,2.883,2.133,2.965a3.131,3.131,0,0,0,2.262-.7,3.487,3.487,0,0,0,1.078-2.1ZM37.49,25a3.438,3.438,0,0,1-.164-1.148,3.911,3.911,0,0,1-3.105,1.383,3.821,3.821,0,0,1-2.742-1.1,3.311,3.311,0,0,1-1.02-2.613,3.719,3.719,0,0,1,1.723-3.17,8.122,8.122,0,0,1,4.547-1.107l1.289.023.141-.715.047-.621a1.007,1.007,0,0,0-1.066-1.1,1.482,1.482,0,0,0-1.559,1.395l-3.867.012a3.673,3.673,0,0,1,.832-2.221,4.931,4.931,0,0,1,2.1-1.453,7.35,7.35,0,0,1,2.83-.475,5.668,5.668,0,0,1,2.525.6,3.76,3.76,0,0,1,1.623,1.582,4.042,4.042,0,0,1,.41,2.338l-.949,5.965-.059.727a3.2,3.2,0,0,0,.223,1.477L41.24,25Zm-2.2-2.555A2.487,2.487,0,0,0,37.361,21.4l.387-2.039-1-.012a2.625,2.625,0,0,0-1.594.545,2.067,2.067,0,0,0-.785,1.424,1.038,1.038,0,0,0,.182.791A.928.928,0,0,0,35.287,22.445ZM48.529,12.309l-.27,1.523a4.507,4.507,0,0,1,3.668-1.758,3.027,3.027,0,0,1,2.619,1.307,5.469,5.469,0,0,1,.627,3.639L53.838,25H49.971l1.348-8.013a4.144,4.144,0,0,0,.023-.751q-.082-1.115-1.312-1.115a2.409,2.409,0,0,0-1.863.9L46.584,25H42.729l2.2-12.68ZM63.283,9.168l-.551,3.152H64.76l-.48,2.742H62.252l-.984,5.824a1.552,1.552,0,0,0,.076.9q.158.3.791.328a9.164,9.164,0,0,0,1.008-.059l-.281,2.859a6.231,6.231,0,0,1-2.074.293A3.417,3.417,0,0,1,58.1,24.156a3.6,3.6,0,0,1-.727-2.8l1.031-6.293h-1.57l.469-2.742h1.57l.551-3.152ZM68.229,25H64.361l2.2-12.68h3.867ZM66.9,9.121a1.788,1.788,0,0,1,.6-1.43,2.167,2.167,0,0,1,1.518-.574,2.237,2.237,0,0,1,1.506.516,1.757,1.757,0,0,1,.627,1.348,1.792,1.792,0,0,1-.6,1.436,2.174,2.174,0,0,1-1.523.568,2.265,2.265,0,0,1-1.494-.51A1.737,1.737,0,0,1,66.9,9.121Zm4.406,9.516a9.222,9.222,0,0,1,1.828-4.8,4.53,4.53,0,0,1,3.82-1.746,3.455,3.455,0,0,1,2.684,1.359L80.873,7H84.74L81.623,25H78.189l.164-1.371A3.957,3.957,0,0,1,75.2,25.246a3.493,3.493,0,0,1-2.865-1.354,5.968,5.968,0,0,1-1.107-3.568,10.975,10.975,0,0,1,.047-1.441Zm3.844.27a9.2,9.2,0,0,0-.082,1.313q0,1.945,1.313,1.98a2.458,2.458,0,0,0,2.027-1.09l.867-4.863a1.561,1.561,0,0,0-1.547-1.113,1.971,1.971,0,0,0-1.74.932A6.009,6.009,0,0,0,75.154,18.906ZM91.033,25a3.438,3.438,0,0,1-.164-1.148,3.911,3.911,0,0,1-3.105,1.383,3.821,3.821,0,0,1-2.742-1.1A3.311,3.311,0,0,1,84,21.52a3.719,3.719,0,0,1,1.723-3.17,8.122,8.122,0,0,1,4.547-1.107l1.289.023.141-.715.047-.621a1.007,1.007,0,0,0-1.066-1.1,1.482,1.482,0,0,0-1.559,1.395l-3.867.012a3.673,3.673,0,0,1,.832-2.221,4.931,4.931,0,0,1,2.1-1.453,7.35,7.35,0,0,1,2.83-.475,5.668,5.668,0,0,1,2.525.6,3.76,3.76,0,0,1,1.623,1.582,4.042,4.042,0,0,1,.41,2.338l-.949,5.965-.059.727a3.2,3.2,0,0,0,.223,1.477L94.783,25Zm-2.2-2.555A2.487,2.487,0,0,0,90.9,21.4l.387-2.039-1-.012A2.625,2.625,0,0,0,88.7,19.9a2.067,2.067,0,0,0-.785,1.424,1.038,1.038,0,0,0,.182.791A.928.928,0,0,0,88.83,22.445Zm8.156-3.809a9.222,9.222,0,0,1,1.828-4.8,4.53,4.53,0,0,1,3.82-1.746,3.455,3.455,0,0,1,2.684,1.359L106.549,7h3.867L107.3,25h-3.434l.164-1.371a3.957,3.957,0,0,1-3.152,1.617,3.493,3.493,0,0,1-2.865-1.354A5.968,5.968,0,0,1,96.9,20.324a10.975,10.975,0,0,1,.047-1.441Zm3.844.27a9.2,9.2,0,0,0-.082,1.313q0,1.945,1.313,1.98a2.458,2.458,0,0,0,2.027-1.09l.867-4.863a1.561,1.561,0,0,0-1.547-1.113,1.971,1.971,0,0,0-1.74.932A6.009,6.009,0,0,0,100.83,18.906Zm27.176-.234a10.532,10.532,0,0,1-1.043,3.545,5.8,5.8,0,0,1-1.975,2.309,4.556,4.556,0,0,1-2.631.721,3.445,3.445,0,0,1-2.7-1.312l-1.148,5.941h-3.855l3.047-17.555,3.563-.012-.2,1.207a3.727,3.727,0,0,1,3.012-1.43,3.549,3.549,0,0,1,2.889,1.324,5.851,5.851,0,0,1,1.107,3.551A13.7,13.7,0,0,1,128.006,18.672Zm-3.75-1.57q-.059-1.934-1.312-1.969a2.273,2.273,0,0,0-2.027,1l-.9,5.027a1.565,1.565,0,0,0,1.617,1.043q2.051.035,2.52-3.527Q124.256,17.547,124.256,17.1Zm11.59,7.9a3.438,3.438,0,0,1-.164-1.148,3.911,3.911,0,0,1-3.105,1.383,3.821,3.821,0,0,1-2.742-1.1,3.311,3.311,0,0,1-1.02-2.613,3.719,3.719,0,0,1,1.723-3.17,8.122,8.122,0,0,1,4.547-1.107l1.289.023.141-.715.047-.621a1.007,1.007,0,0,0-1.066-1.1,1.482,1.482,0,0,0-1.559,1.395l-3.867.012a3.673,3.673,0,0,1,.832-2.221,4.931,4.931,0,0,1,2.1-1.453,7.35,7.35,0,0,1,2.83-.475,5.668,5.668,0,0,1,2.525.6,3.76,3.76,0,0,1,1.623,1.582,4.042,4.042,0,0,1,.41,2.338l-.949,5.965-.059.727a3.2,3.2,0,0,0,.223,1.477L139.6,25Zm-2.2-2.555a2.487,2.487,0,0,0,2.074-1.043l.387-2.039-1-.012a2.625,2.625,0,0,0-1.594.545,2.067,2.067,0,0,0-.785,1.424,1.038,1.038,0,0,0,.182.791A.928.928,0,0,0,133.643,22.445Zm16.676-6.551a11.03,11.03,0,0,0-1.2-.117,2.977,2.977,0,0,0-2.648,1.2L145.045,25h-3.855l2.2-12.68,3.6-.012-.293,1.664a3.52,3.52,0,0,1,2.93-1.922,5.525,5.525,0,0,1,1.2.164ZM156.9,25a3.438,3.438,0,0,1-.164-1.148,3.911,3.911,0,0,1-3.105,1.383,3.821,3.821,0,0,1-2.742-1.1,3.311,3.311,0,0,1-1.02-2.613,3.719,3.719,0,0,1,1.723-3.17,8.122,8.122,0,0,1,4.547-1.107l1.289.023.141-.715.047-.621a1.007,1.007,0,0,0-1.066-1.1,1.482,1.482,0,0,0-1.559,1.395l-3.867.012a3.673,3.673,0,0,1,.832-2.221,4.931,4.931,0,0,1,2.1-1.453,7.35,7.35,0,0,1,2.83-.475,5.668,5.668,0,0,1,2.525.6,3.76,3.76,0,0,1,1.623,1.582,4.042,4.042,0,0,1,.41,2.338l-.949,5.965-.059.727a3.2,3.2,0,0,0,.223,1.477l-.012.223Zm-2.2-2.555a2.487,2.487,0,0,0,2.074-1.043l.387-2.039-1-.012a2.625,2.625,0,0,0-1.594.545,2.067,2.067,0,0,0-.785,1.424,1.038,1.038,0,0,0,.182.791A.928.928,0,0,0,154.7,22.445Zm19.313-.258a1.659,1.659,0,0,0,1.3-.46,2.289,2.289,0,0,0,.6-1.251l3.609-.012a4.745,4.745,0,0,1-.826,2.5,4.993,4.993,0,0,1-2.039,1.705,6.028,6.028,0,0,1-2.748.568,4.76,4.76,0,0,1-3.9-1.822,6.3,6.3,0,0,1-1.113-4.588l.035-.281a8.495,8.495,0,0,1,1.078-3.4,6.168,6.168,0,0,1,2.279-2.291,5.911,5.911,0,0,1,3.158-.762,4.715,4.715,0,0,1,3.5,1.412,5.007,5.007,0,0,1,1.236,3.686l-3.609-.012q.059-2-1.441-2.039-2.039-.07-2.344,3.422l-.105,1.191-.012.444Q172.666,22.153,174.014,22.188Zm13.734-10.1a5.325,5.325,0,0,1,2.941.85,4.786,4.786,0,0,1,1.822,2.3,7.106,7.106,0,0,1,.416,3.281l-.023.258a7.514,7.514,0,0,1-2.168,4.711,6.1,6.1,0,0,1-4.547,1.746,5.3,5.3,0,0,1-2.918-.838,4.817,4.817,0,0,1-1.822-2.279,6.906,6.906,0,0,1-.428-3.258,7.817,7.817,0,0,1,2.139-4.969A6.062,6.062,0,0,1,187.748,12.086Zm-2.871,6.779-.035.69q-.164,2.609,1.594,2.656,2.273.07,2.637-3.685l.047-1.065a2.873,2.873,0,0,0-.393-1.679,1.43,1.43,0,0,0-1.225-.649A2.016,2.016,0,0,0,185.75,16,5.7,5.7,0,0,0,184.877,18.865Zm14.391-6.556L199,13.832a4.507,4.507,0,0,1,3.668-1.758,3.027,3.027,0,0,1,2.619,1.307,5.469,5.469,0,0,1,.627,3.639L204.576,25h-3.867l1.348-8.013a4.144,4.144,0,0,0,.023-.751q-.082-1.115-1.312-1.115a2.409,2.409,0,0,0-1.863.9L197.322,25h-3.855l2.2-12.68Zm13.254,7.945L215.7,12.32h4.16l-6,12.68h-3.926L207.9,12.32h3.961Zm12.715,4.98a5.894,5.894,0,0,1-3.029-.8,5.058,5.058,0,0,1-2.01-2.2,5.92,5.92,0,0,1-.539-3.111l.035-.328a7.772,7.772,0,0,1,2.174-4.951,6.014,6.014,0,0,1,4.553-1.752,4.9,4.9,0,0,1,2.789.827,4.624,4.624,0,0,1,1.7,2.218,6.794,6.794,0,0,1,.352,3.175l-.223,1.608H223.49a2.472,2.472,0,0,0,.563,1.617,2.066,2.066,0,0,0,1.57.656,3.991,3.991,0,0,0,3.012-1.289l1.617,2.139a4.771,4.771,0,0,1-2,1.6,7.017,7.017,0,0,1-2.807.6Zm.938-10.1a1.983,1.983,0,0,0-1.424.513,4.305,4.305,0,0,0-1.049,1.8h3.855l.07-.338a2.572,2.572,0,0,0,.023-.769A1.357,1.357,0,0,0,226.174,15.133Zm14.707.762a11.03,11.03,0,0,0-1.2-.117,2.977,2.977,0,0,0-2.648,1.2L235.607,25h-3.855l2.2-12.68,3.6-.012-.293,1.664a3.52,3.52,0,0,1,2.93-1.922,5.525,5.525,0,0,1,1.2.164Zm7.605-6.727-.551,3.152h2.027l-.48,2.742h-2.027l-.984,5.824a1.552,1.552,0,0,0,.076.9q.158.3.791.328a9.164,9.164,0,0,0,1.008-.059l-.281,2.859a6.231,6.231,0,0,1-2.074.293,3.417,3.417,0,0,1-2.684-1.055,3.6,3.6,0,0,1-.727-2.8l1.031-6.293h-1.57l.469-2.742h1.57l.551-3.152ZM253.432,25h-3.867l2.2-12.68h3.867ZM252.107,9.121a1.788,1.788,0,0,1,.6-1.43,2.167,2.167,0,0,1,1.518-.574,2.237,2.237,0,0,1,1.506.516,1.757,1.757,0,0,1,.627,1.348,1.792,1.792,0,0,1-.6,1.436,2.174,2.174,0,0,1-1.523.568,2.265,2.265,0,0,1-1.494-.51A1.737,1.737,0,0,1,252.107,9.121Zm12.926,6.773a11.03,11.03,0,0,0-1.2-.117,2.977,2.977,0,0,0-2.648,1.2L259.76,25H255.9l2.2-12.68,3.6-.012-.293,1.664a3.52,3.52,0,0,1,2.93-1.922,5.525,5.525,0,0,1,1.2.164Zm18.082-.105,2.332-3.469h4.172l-4.324,6.352L287.615,25h-3.844l-1.336-3.727L279.963,25h-4.219l4.547-6.68-2.215-6h3.879ZM13.057,55.234a5.894,5.894,0,0,1-3.029-.8,5.058,5.058,0,0,1-2.01-2.2,5.92,5.92,0,0,1-.539-3.111l.035-.328a7.772,7.772,0,0,1,2.174-4.951,6.014,6.014,0,0,1,4.553-1.752,4.9,4.9,0,0,1,2.789.827,4.624,4.624,0,0,1,1.7,2.218,6.794,6.794,0,0,1,.352,3.175l-.223,1.608H11.311a2.472,2.472,0,0,0,.563,1.617,2.066,2.066,0,0,0,1.57.656A3.991,3.991,0,0,0,16.455,50.9l1.617,2.139a4.771,4.771,0,0,1-2,1.6,7.017,7.017,0,0,1-2.807.6Zm.938-10.1a1.983,1.983,0,0,0-1.424.513,4.305,4.305,0,0,0-1.049,1.8h3.855l.07-.338a2.572,2.572,0,0,0,.023-.769A1.357,1.357,0,0,0,13.994,45.133ZM20.182,48.6a10.641,10.641,0,0,1,1.008-3.5,5.591,5.591,0,0,1,1.951-2.3,4.666,4.666,0,0,1,2.678-.715A3.3,3.3,0,0,1,28.7,43.7l.6-1.395,3.387.012L29.639,59.875H25.771l1.184-5.953a3.726,3.726,0,0,1-2.895,1.313,3.479,3.479,0,0,1-2.836-1.348,5.975,5.975,0,0,1-1.113-3.6A13.67,13.67,0,0,1,20.182,48.6Zm3.773,1.219a3.2,3.2,0,0,0,.246,1.693,1.147,1.147,0,0,0,1.055.674,2.355,2.355,0,0,0,2.016-1.02l.9-5.051a1.548,1.548,0,0,0-1.559-1.008q-2.121-.035-2.566,3.492Zm16.629,3.8a4.2,4.2,0,0,1-3.422,1.629,3.322,3.322,0,0,1-2.807-1.3,4.8,4.8,0,0,1-.732-3.422l1.371-8.2H38.85l-1.395,8.26a2.752,2.752,0,0,0,0,.622,1.021,1.021,0,0,0,1.137,1,2.491,2.491,0,0,0,2.074-.962l1.57-8.917h3.879L43.912,55H40.326ZM50.053,55H46.186l2.2-12.68h3.867ZM48.729,39.121a1.788,1.788,0,0,1,.6-1.43,2.167,2.167,0,0,1,1.518-.574,2.237,2.237,0,0,1,1.506.516,1.757,1.757,0,0,1,.627,1.348,1.792,1.792,0,0,1-.6,1.436,2.174,2.174,0,0,1-1.523.568,2.265,2.265,0,0,1-1.494-.51A1.737,1.737,0,0,1,48.729,39.121Zm9.5,11.133,3.176-7.934h4.16l-6,12.68H55.643L53.615,42.32h3.961ZM71.615,55a3.438,3.438,0,0,1-.164-1.148,3.911,3.911,0,0,1-3.105,1.383,3.821,3.821,0,0,1-2.742-1.1,3.311,3.311,0,0,1-1.02-2.613,3.719,3.719,0,0,1,1.723-3.17,8.122,8.122,0,0,1,4.547-1.107l1.289.023.141-.715.047-.621a1.007,1.007,0,0,0-1.066-1.1,1.482,1.482,0,0,0-1.559,1.395l-3.867.012a3.673,3.673,0,0,1,.832-2.221,4.931,4.931,0,0,1,2.1-1.453,7.35,7.35,0,0,1,2.83-.475,5.668,5.668,0,0,1,2.525.6,3.76,3.76,0,0,1,1.623,1.582,4.042,4.042,0,0,1,.41,2.338l-.949,5.965-.059.727a3.2,3.2,0,0,0,.223,1.477L75.365,55Zm-2.2-2.555A2.487,2.487,0,0,0,71.486,51.4l.387-2.039-1-.012a2.625,2.625,0,0,0-1.594.545A2.067,2.067,0,0,0,68.5,51.32a1.038,1.038,0,0,0,.182.791A.928.928,0,0,0,69.412,52.445ZM81,55H77.135l3.117-18h3.867Zm8.754.234a5.894,5.894,0,0,1-3.029-.8,5.058,5.058,0,0,1-2.01-2.2,5.92,5.92,0,0,1-.539-3.111l.035-.328a7.772,7.772,0,0,1,2.174-4.951,6.014,6.014,0,0,1,4.553-1.752,4.9,4.9,0,0,1,2.789.827,4.624,4.624,0,0,1,1.7,2.218,6.794,6.794,0,0,1,.352,3.175l-.223,1.608H88.01a2.472,2.472,0,0,0,.563,1.617,2.066,2.066,0,0,0,1.57.656A3.991,3.991,0,0,0,93.154,50.9l1.617,2.139a4.771,4.771,0,0,1-2,1.6,7.017,7.017,0,0,1-2.807.6Zm.938-10.1a1.983,1.983,0,0,0-1.424.513,4.305,4.305,0,0,0-1.049,1.8h3.855l.07-.338a2.572,2.572,0,0,0,.023-.769A1.357,1.357,0,0,0,90.693,45.133Zm11.273-2.824-.27,1.523a4.507,4.507,0,0,1,3.668-1.758,3.027,3.027,0,0,1,2.619,1.307,5.469,5.469,0,0,1,.627,3.639L107.275,55h-3.867l1.348-8.013a4.144,4.144,0,0,0,.023-.751q-.082-1.115-1.312-1.115a2.409,2.409,0,0,0-1.863.9L100.021,55H96.166l2.2-12.68Zm14.754-3.141-.551,3.152H118.2l-.48,2.742h-2.027l-.984,5.824a1.552,1.552,0,0,0,.076.9q.158.3.791.328a9.164,9.164,0,0,0,1.008-.059l-.281,2.859a6.231,6.231,0,0,1-2.074.293,3.417,3.417,0,0,1-2.684-1.055,3.6,3.6,0,0,1-.727-2.8l1.031-6.293h-1.57l.469-2.742h1.57l.551-3.152ZM123.9,55.234a5.894,5.894,0,0,1-3.029-.8,5.058,5.058,0,0,1-2.01-2.2,5.92,5.92,0,0,1-.539-3.111l.035-.328a7.772,7.772,0,0,1,2.174-4.951,6.014,6.014,0,0,1,4.553-1.752,4.9,4.9,0,0,1,2.789.827,4.624,4.624,0,0,1,1.7,2.218,6.794,6.794,0,0,1,.352,3.175l-.223,1.608h-7.547a2.472,2.472,0,0,0,.563,1.617,2.066,2.066,0,0,0,1.57.656A3.991,3.991,0,0,0,127.3,50.9l1.617,2.139a4.771,4.771,0,0,1-2,1.6,7.017,7.017,0,0,1-2.807.6Zm.938-10.1a1.983,1.983,0,0,0-1.424.513,4.305,4.305,0,0,0-1.049,1.8h3.855l.07-.338a2.572,2.572,0,0,0,.023-.769A1.357,1.357,0,0,0,124.842,45.133Zm12.105,3.5a9.222,9.222,0,0,1,1.828-4.8,4.53,4.53,0,0,1,3.82-1.746,3.455,3.455,0,0,1,2.684,1.359L146.51,37h3.867L147.26,55h-3.434l.164-1.371a3.957,3.957,0,0,1-3.152,1.617,3.493,3.493,0,0,1-2.865-1.354,5.968,5.968,0,0,1-1.107-3.568,10.975,10.975,0,0,1,.047-1.441Zm3.844.27a9.2,9.2,0,0,0-.082,1.313q0,1.945,1.313,1.98a2.458,2.458,0,0,0,2.027-1.09l.867-4.863a1.561,1.561,0,0,0-1.547-1.113,1.971,1.971,0,0,0-1.74.932A6.009,6.009,0,0,0,140.791,48.906Zm15.035,6.328a5.894,5.894,0,0,1-3.029-.8,5.058,5.058,0,0,1-2.01-2.2,5.92,5.92,0,0,1-.539-3.111l.035-.328a7.772,7.772,0,0,1,2.174-4.951,6.014,6.014,0,0,1,4.553-1.752,4.9,4.9,0,0,1,2.789.827,4.624,4.624,0,0,1,1.7,2.218,6.794,6.794,0,0,1,.352,3.175l-.223,1.608H154.08a2.472,2.472,0,0,0,.563,1.617,2.066,2.066,0,0,0,1.57.656,3.991,3.991,0,0,0,3.012-1.289l1.617,2.139a4.771,4.771,0,0,1-2,1.6,7.017,7.017,0,0,1-2.807.6Zm.938-10.1a1.983,1.983,0,0,0-1.424.513,4.305,4.305,0,0,0-1.049,1.8h3.855l.07-.338a2.572,2.572,0,0,0,.023-.769A1.357,1.357,0,0,0,156.764,45.133ZM172.3,55h-3.867l3.117-18h3.867Zm9.6,0a3.438,3.438,0,0,1-.164-1.148,3.911,3.911,0,0,1-3.105,1.383,3.821,3.821,0,0,1-2.742-1.1,3.311,3.311,0,0,1-1.02-2.613,3.719,3.719,0,0,1,1.723-3.17,8.122,8.122,0,0,1,4.547-1.107l1.289.023.141-.715.047-.621a1.007,1.007,0,0,0-1.066-1.1,1.482,1.482,0,0,0-1.559,1.395l-3.867.012a3.673,3.673,0,0,1,.832-2.221,4.931,4.931,0,0,1,2.1-1.453,7.35,7.35,0,0,1,2.83-.475,5.668,5.668,0,0,1,2.525.6,3.76,3.76,0,0,1,1.623,1.582,4.042,4.042,0,0,1,.41,2.338l-.949,5.965-.059.727a3.2,3.2,0,0,0,.223,1.477L185.65,55Zm-2.2-2.555a2.487,2.487,0,0,0,2.074-1.043l.387-2.039-1-.012a2.625,2.625,0,0,0-1.594.545,2.067,2.067,0,0,0-.785,1.424,1.038,1.038,0,0,0,.182.791A.928.928,0,0,0,179.7,52.445Zm21.281,1.172a4.2,4.2,0,0,1-3.422,1.629,3.322,3.322,0,0,1-2.807-1.3,4.8,4.8,0,0,1-.732-3.422l1.371-8.2h3.855l-1.395,8.26a2.752,2.752,0,0,0,0,.622,1.021,1.021,0,0,0,1.137,1,2.491,2.491,0,0,0,2.074-.962l1.57-8.917h3.879L204.307,55h-3.586ZM212.1,42.309l-.27,1.523a4.507,4.507,0,0,1,3.668-1.758,3.027,3.027,0,0,1,2.619,1.307,5.469,5.469,0,0,1,.627,3.639L217.408,55h-3.867l1.348-8.013a4.144,4.144,0,0,0,.023-.751q-.082-1.115-1.312-1.115a2.409,2.409,0,0,0-1.863.9L210.154,55H206.3l2.2-12.68ZM223.689,55h-3.867l2.2-12.68h3.867Zm-1.324-15.879a1.788,1.788,0,0,1,.6-1.43,2.167,2.167,0,0,1,1.518-.574,2.237,2.237,0,0,1,1.506.516,1.757,1.757,0,0,1,.627,1.348,1.792,1.792,0,0,1-.6,1.436,2.174,2.174,0,0,1-1.523.568,2.265,2.265,0,0,1-1.494-.51A1.737,1.737,0,0,1,222.365,39.121Zm4.406,9.516a9.222,9.222,0,0,1,1.828-4.8,4.53,4.53,0,0,1,3.82-1.746,3.455,3.455,0,0,1,2.684,1.359L236.334,37H240.2l-3.117,18H233.65l.164-1.371a3.957,3.957,0,0,1-3.152,1.617,3.493,3.493,0,0,1-2.865-1.354,5.968,5.968,0,0,1-1.107-3.568,10.975,10.975,0,0,1,.047-1.441Zm3.844.27a9.2,9.2,0,0,0-.082,1.313q0,1.945,1.313,1.98a2.458,2.458,0,0,0,2.027-1.09l.867-4.863a1.561,1.561,0,0,0-1.547-1.113,1.971,1.971,0,0,0-1.74.932A6.009,6.009,0,0,0,230.615,48.906ZM246.494,55a3.438,3.438,0,0,1-.164-1.148,3.911,3.911,0,0,1-3.105,1.383,3.821,3.821,0,0,1-2.742-1.1,3.311,3.311,0,0,1-1.02-2.613,3.719,3.719,0,0,1,1.723-3.17,8.122,8.122,0,0,1,4.547-1.107l1.289.023.141-.715.047-.621a1.007,1.007,0,0,0-1.066-1.1,1.482,1.482,0,0,0-1.559,1.395l-3.867.012a3.673,3.673,0,0,1,.832-2.221,4.931,4.931,0,0,1,2.1-1.453,7.35,7.35,0,0,1,2.83-.475,5.668,5.668,0,0,1,2.525.6,3.76,3.76,0,0,1,1.623,1.582,4.042,4.042,0,0,1,.41,2.338l-.949,5.965-.059.727a3.2,3.2,0,0,0,.223,1.477l-.012.223Zm-2.2-2.555a2.487,2.487,0,0,0,2.074-1.043l.387-2.039-1-.012a2.625,2.625,0,0,0-1.594.545,2.067,2.067,0,0,0-.785,1.424,1.038,1.038,0,0,0,.182.791A.928.928,0,0,0,244.291,52.445Zm8.156-3.809a9.222,9.222,0,0,1,1.828-4.8,4.53,4.53,0,0,1,3.82-1.746,3.455,3.455,0,0,1,2.684,1.359L262.01,37h3.867L262.76,55h-3.434l.164-1.371a3.957,3.957,0,0,1-3.152,1.617,3.493,3.493,0,0,1-2.865-1.354,5.968,5.968,0,0,1-1.107-3.568,10.975,10.975,0,0,1,.047-1.441Zm3.844.27a9.2,9.2,0,0,0-.082,1.313q0,1.945,1.313,1.98a2.458,2.458,0,0,0,2.027-1.09l.867-4.863a1.561,1.561,0,0,0-1.547-1.113,1.971,1.971,0,0,0-1.74.932A6.009,6.009,0,0,0,256.291,48.906Zm15.281-.27a9.222,9.222,0,0,1,1.828-4.8,4.53,4.53,0,0,1,3.82-1.746,3.455,3.455,0,0,1,2.684,1.359L281.135,37H285l-3.117,18h-3.434l.164-1.371a3.957,3.957,0,0,1-3.152,1.617,3.493,3.493,0,0,1-2.865-1.354,5.968,5.968,0,0,1-1.107-3.568,10.975,10.975,0,0,1,.047-1.441Zm3.844.27a9.2,9.2,0,0,0-.082,1.313q0,1.945,1.313,1.98a2.458,2.458,0,0,0,2.027-1.09l.867-4.863a1.561,1.561,0,0,0-1.547-1.113,1.971,1.971,0,0,0-1.74.932A6.009,6.009,0,0,0,275.416,48.906Zm15.035,6.328a5.894,5.894,0,0,1-3.029-.8,5.058,5.058,0,0,1-2.01-2.2,5.92,5.92,0,0,1-.539-3.111l.035-.328a7.772,7.772,0,0,1,2.174-4.951,6.014,6.014,0,0,1,4.553-1.752,4.9,4.9,0,0,1,2.789.827,4.624,4.624,0,0,1,1.7,2.218,6.794,6.794,0,0,1,.352,3.175l-.223,1.608h-7.547a2.472,2.472,0,0,0,.563,1.617,2.066,2.066,0,0,0,1.57.656A3.991,3.991,0,0,0,293.85,50.9l1.617,2.139a4.771,4.771,0,0,1-2,1.6,7.017,7.017,0,0,1-2.807.6Zm.938-10.1a1.983,1.983,0,0,0-1.424.513,4.305,4.305,0,0,0-1.049,1.8h3.855l.07-.338a2.572,2.572,0,0,0,.023-.769A1.357,1.357,0,0,0,291.389,45.133ZM118.479,72.309l-.258,1.523a4.552,4.552,0,0,1,3.7-1.746,3.345,3.345,0,0,1,1.887.539A2.457,2.457,0,0,1,124.795,74a4.826,4.826,0,0,1,3.855-1.91,2.988,2.988,0,0,1,2.607,1.318,5.49,5.49,0,0,1,.615,3.615L130.549,85h-3.867l1.348-7.983.047-.691q0-1.159-1.09-1.194a2.5,2.5,0,0,0-1.9,1.042L123.553,85h-3.867l1.336-7.959.047-.7q0-1.206-1.09-1.206a2.48,2.48,0,0,0-1.875,1.042L116.545,85h-3.855l2.2-12.68Zm20.66,12.926a5.894,5.894,0,0,1-3.029-.8,5.058,5.058,0,0,1-2.01-2.2,5.92,5.92,0,0,1-.539-3.111l.035-.328a7.772,7.772,0,0,1,2.174-4.951,6.014,6.014,0,0,1,4.553-1.752,4.9,4.9,0,0,1,2.789.827,4.624,4.624,0,0,1,1.7,2.218,6.794,6.794,0,0,1,.352,3.175l-.223,1.608h-7.547a2.472,2.472,0,0,0,.563,1.617,2.066,2.066,0,0,0,1.57.656,3.991,3.991,0,0,0,3.012-1.289l1.617,2.139a4.771,4.771,0,0,1-2,1.6,7.017,7.017,0,0,1-2.807.6Zm.938-10.1a1.983,1.983,0,0,0-1.424.513,4.305,4.305,0,0,0-1.049,1.8h3.855l.07-.338a2.572,2.572,0,0,0,.023-.769A1.357,1.357,0,0,0,140.076,75.133Zm6.188,3.5a9.222,9.222,0,0,1,1.828-4.8,4.53,4.53,0,0,1,3.82-1.746,3.455,3.455,0,0,1,2.684,1.359L155.826,67h3.867l-3.117,18h-3.434l.164-1.371a3.957,3.957,0,0,1-3.152,1.617,3.493,3.493,0,0,1-2.865-1.354,5.968,5.968,0,0,1-1.107-3.568,10.975,10.975,0,0,1,.047-1.441Zm3.844.27a9.2,9.2,0,0,0-.082,1.313q0,1.945,1.313,1.98a2.458,2.458,0,0,0,2.027-1.09l.867-4.863a1.561,1.561,0,0,0-1.547-1.113,1.971,1.971,0,0,0-1.74.932A6.009,6.009,0,0,0,150.107,78.906ZM162.9,85h-3.867l2.2-12.68h3.867ZM161.58,69.121a1.788,1.788,0,0,1,.6-1.43,2.167,2.167,0,0,1,1.518-.574,2.237,2.237,0,0,1,1.506.516,1.757,1.757,0,0,1,.627,1.348,1.792,1.792,0,0,1-.6,1.436,2.174,2.174,0,0,1-1.523.568,2.265,2.265,0,0,1-1.494-.51A1.737,1.737,0,0,1,161.58,69.121Zm4.406,9.516a9.222,9.222,0,0,1,1.828-4.8,4.53,4.53,0,0,1,3.82-1.746,3.455,3.455,0,0,1,2.684,1.359L175.549,67h3.867L176.3,85h-3.434l.164-1.371a3.957,3.957,0,0,1-3.152,1.617,3.493,3.493,0,0,1-2.865-1.354,5.968,5.968,0,0,1-1.107-3.568,10.975,10.975,0,0,1,.047-1.441Zm3.844.27a9.2,9.2,0,0,0-.082,1.313q0,1.945,1.313,1.98a2.458,2.458,0,0,0,2.027-1.09l.867-4.863a1.561,1.561,0,0,0-1.547-1.113,1.971,1.971,0,0,0-1.74.932A6.009,6.009,0,0,0,169.83,78.906ZM185.709,85a3.438,3.438,0,0,1-.164-1.148,3.911,3.911,0,0,1-3.105,1.383,3.821,3.821,0,0,1-2.742-1.1,3.311,3.311,0,0,1-1.02-2.613,3.719,3.719,0,0,1,1.723-3.17,8.122,8.122,0,0,1,4.547-1.107l1.289.023.141-.715.047-.621a1.007,1.007,0,0,0-1.066-1.1,1.482,1.482,0,0,0-1.559,1.395l-3.867.012a3.673,3.673,0,0,1,.832-2.221,4.931,4.931,0,0,1,2.1-1.453,7.35,7.35,0,0,1,2.83-.475,5.668,5.668,0,0,1,2.525.6,3.76,3.76,0,0,1,1.623,1.582,4.042,4.042,0,0,1,.41,2.338l-.949,5.965-.059.727a3.2,3.2,0,0,0,.223,1.477l-.012.223Zm-2.2-2.555A2.487,2.487,0,0,0,185.58,81.4l.387-2.039-1-.012a2.625,2.625,0,0,0-1.594.545,2.067,2.067,0,0,0-.785,1.424,1.038,1.038,0,0,0,.182.791A.928.928,0,0,0,183.506,82.445Z" transform="translate(-3073.5 -2363.717)" fill="#12263f"/>
      <path id="Trazado_826494" data-name="Trazado 826494" d="M20.592,7.938l-1.9,11.133a7,7,0,0,1-2.385,4.559,7.268,7.268,0,0,1-4.975,1.617,6.785,6.785,0,0,1-3.234-.8,4.7,4.7,0,0,1-2.021-2.168,5.833,5.833,0,0,1-.439-3.193l1.9-11.145h4.031L9.682,19.1a5.367,5.367,0,0,0-.023,1.114,2.013,2.013,0,0,0,.545,1.349,1.993,1.993,0,0,0,1.377.516q2.578.082,3.105-2.991l1.9-11.154Zm5.121,4.371-.27,1.523a4.507,4.507,0,0,1,3.668-1.758,3.027,3.027,0,0,1,2.619,1.307,5.469,5.469,0,0,1,.627,3.639L31.021,25H27.154L28.5,16.987a4.144,4.144,0,0,0,.023-.751q-.082-1.115-1.312-1.115a2.409,2.409,0,0,0-1.863.9L23.768,25H19.912l2.2-12.68ZM37.3,25H33.436l2.2-12.68h3.867ZM35.979,9.121a1.788,1.788,0,0,1,.6-1.43A2.167,2.167,0,0,1,38.1,7.117a2.237,2.237,0,0,1,1.506.516,1.757,1.757,0,0,1,.627,1.348,1.792,1.792,0,0,1-.6,1.436,2.174,2.174,0,0,1-1.523.568,2.265,2.265,0,0,1-1.494-.51A1.737,1.737,0,0,1,35.979,9.121Zm4.406,9.516a9.222,9.222,0,0,1,1.828-4.8,4.53,4.53,0,0,1,3.82-1.746,3.455,3.455,0,0,1,2.684,1.359L49.947,7h3.867L50.7,25H47.264l.164-1.371a3.957,3.957,0,0,1-3.152,1.617,3.493,3.493,0,0,1-2.865-1.354A5.968,5.968,0,0,1,40.3,20.324a10.975,10.975,0,0,1,.047-1.441Zm3.844.27a9.2,9.2,0,0,0-.082,1.313q0,1.945,1.313,1.98a2.458,2.458,0,0,0,2.027-1.09l.867-4.863a1.561,1.561,0,0,0-1.547-1.113,1.971,1.971,0,0,0-1.74.932A6.009,6.009,0,0,0,44.229,18.906ZM60.107,25a3.438,3.438,0,0,1-.164-1.148,3.911,3.911,0,0,1-3.105,1.383,3.821,3.821,0,0,1-2.742-1.1,3.311,3.311,0,0,1-1.02-2.613A3.719,3.719,0,0,1,54.8,18.35a8.122,8.122,0,0,1,4.547-1.107l1.289.023.141-.715.047-.621a1.007,1.007,0,0,0-1.066-1.1A1.482,1.482,0,0,0,58.2,16.223l-3.867.012a3.673,3.673,0,0,1,.832-2.221,4.931,4.931,0,0,1,2.1-1.453,7.35,7.35,0,0,1,2.83-.475,5.668,5.668,0,0,1,2.525.6,3.76,3.76,0,0,1,1.623,1.582,4.042,4.042,0,0,1,.41,2.338l-.949,5.965-.059.727a3.2,3.2,0,0,0,.223,1.477L63.857,25Zm-2.2-2.555A2.487,2.487,0,0,0,59.979,21.4l.387-2.039-1-.012a2.625,2.625,0,0,0-1.594.545,2.067,2.067,0,0,0-.785,1.424,1.038,1.038,0,0,0,.182.791A.928.928,0,0,0,57.9,22.445Zm8.156-3.809a9.222,9.222,0,0,1,1.828-4.8,4.53,4.53,0,0,1,3.82-1.746,3.455,3.455,0,0,1,2.684,1.359L75.623,7H79.49L76.373,25H72.939l.164-1.371a3.957,3.957,0,0,1-3.152,1.617,3.493,3.493,0,0,1-2.865-1.354,5.968,5.968,0,0,1-1.107-3.568,10.975,10.975,0,0,1,.047-1.441Zm3.844.27a9.2,9.2,0,0,0-.082,1.313q0,1.945,1.313,1.98a2.458,2.458,0,0,0,2.027-1.09l.867-4.863a1.561,1.561,0,0,0-1.547-1.113,1.971,1.971,0,0,0-1.74.932A6.009,6.009,0,0,0,69.9,18.906Zm15.281-.27a9.222,9.222,0,0,1,1.828-4.8,4.53,4.53,0,0,1,3.82-1.746,3.455,3.455,0,0,1,2.684,1.359L94.748,7h3.867L95.5,25H92.064l.164-1.371a3.957,3.957,0,0,1-3.152,1.617,3.493,3.493,0,0,1-2.865-1.354A5.968,5.968,0,0,1,85.1,20.324a10.975,10.975,0,0,1,.047-1.441Zm3.844.27a9.2,9.2,0,0,0-.082,1.313q0,1.945,1.313,1.98a2.458,2.458,0,0,0,2.027-1.09l.867-4.863a1.561,1.561,0,0,0-1.547-1.113,1.971,1.971,0,0,0-1.74.932A6.009,6.009,0,0,0,89.029,18.906Zm15.035,6.328a5.894,5.894,0,0,1-3.029-.8,5.058,5.058,0,0,1-2.01-2.2,5.92,5.92,0,0,1-.539-3.111l.035-.328a7.772,7.772,0,0,1,2.174-4.951,6.014,6.014,0,0,1,4.553-1.752,4.9,4.9,0,0,1,2.789.827,4.624,4.624,0,0,1,1.7,2.218,6.794,6.794,0,0,1,.352,3.175l-.223,1.608h-7.547a2.472,2.472,0,0,0,.563,1.617,2.066,2.066,0,0,0,1.57.656,3.991,3.991,0,0,0,3.012-1.289l1.617,2.139a4.771,4.771,0,0,1-2,1.6,7.017,7.017,0,0,1-2.807.6Zm.938-10.1a1.983,1.983,0,0,0-1.424.513,4.305,4.305,0,0,0-1.049,1.8h3.855l.07-.338a2.572,2.572,0,0,0,.023-.769A1.357,1.357,0,0,0,105,15.133Zm17.285-2.824-.258,1.523a4.552,4.552,0,0,1,3.7-1.746,3.345,3.345,0,0,1,1.887.539A2.457,2.457,0,0,1,128.6,14a4.826,4.826,0,0,1,3.855-1.91,2.988,2.988,0,0,1,2.607,1.318,5.49,5.49,0,0,1,.615,3.615L134.357,25H130.49l1.348-7.983.047-.691q0-1.159-1.09-1.194a2.5,2.5,0,0,0-1.9,1.042L127.361,25h-3.867l1.336-7.959.047-.7q0-1.206-1.09-1.206a2.48,2.48,0,0,0-1.875,1.042L120.354,25H116.5l2.2-12.68Zm20.66,12.926a5.894,5.894,0,0,1-3.029-.8,5.058,5.058,0,0,1-2.01-2.2,5.92,5.92,0,0,1-.539-3.111l.035-.328a7.772,7.772,0,0,1,2.174-4.951,6.014,6.014,0,0,1,4.553-1.752,4.9,4.9,0,0,1,2.789.827,4.624,4.624,0,0,1,1.7,2.218,6.794,6.794,0,0,1,.352,3.175l-.223,1.608H141.2a2.472,2.472,0,0,0,.563,1.617,2.066,2.066,0,0,0,1.57.656,3.991,3.991,0,0,0,3.012-1.289l1.617,2.139a4.771,4.771,0,0,1-2,1.6,7.017,7.017,0,0,1-2.807.6Zm.938-10.1a1.983,1.983,0,0,0-1.424.513,4.305,4.305,0,0,0-1.049,1.8h3.855l.07-.338a2.572,2.572,0,0,0,.023-.769A1.357,1.357,0,0,0,143.885,15.133Zm6.188,3.5a9.222,9.222,0,0,1,1.828-4.8,4.53,4.53,0,0,1,3.82-1.746,3.455,3.455,0,0,1,2.684,1.359L159.635,7H163.5l-3.117,18h-3.434l.164-1.371a3.957,3.957,0,0,1-3.152,1.617,3.493,3.493,0,0,1-2.865-1.354,5.968,5.968,0,0,1-1.107-3.568,10.975,10.975,0,0,1,.047-1.441Zm3.844.27a9.2,9.2,0,0,0-.082,1.313q0,1.945,1.313,1.98a2.458,2.458,0,0,0,2.027-1.09l.867-4.863a1.561,1.561,0,0,0-1.547-1.113,1.971,1.971,0,0,0-1.74.932A6.009,6.009,0,0,0,153.916,18.906ZM166.713,25h-3.867l2.2-12.68h3.867ZM165.389,9.121a1.788,1.788,0,0,1,.6-1.43,2.167,2.167,0,0,1,1.518-.574,2.237,2.237,0,0,1,1.506.516,1.757,1.757,0,0,1,.627,1.348,1.792,1.792,0,0,1-.6,1.436,2.174,2.174,0,0,1-1.523.568,2.265,2.265,0,0,1-1.494-.51A1.737,1.737,0,0,1,165.389,9.121Zm4.406,9.516a9.222,9.222,0,0,1,1.828-4.8,4.53,4.53,0,0,1,3.82-1.746,3.455,3.455,0,0,1,2.684,1.359L179.357,7h3.867l-3.117,18h-3.434l.164-1.371a3.957,3.957,0,0,1-3.152,1.617,3.493,3.493,0,0,1-2.865-1.354,5.968,5.968,0,0,1-1.107-3.568,10.975,10.975,0,0,1,.047-1.441Zm3.844.27a9.2,9.2,0,0,0-.082,1.313q0,1.945,1.313,1.98a2.458,2.458,0,0,0,2.027-1.09l.867-4.863a1.561,1.561,0,0,0-1.547-1.113,1.971,1.971,0,0,0-1.74.932A6.009,6.009,0,0,0,173.639,18.906ZM189.518,25a3.438,3.438,0,0,1-.164-1.148,3.911,3.911,0,0,1-3.105,1.383,3.821,3.821,0,0,1-2.742-1.1,3.311,3.311,0,0,1-1.02-2.613,3.719,3.719,0,0,1,1.723-3.17,8.122,8.122,0,0,1,4.547-1.107l1.289.023.141-.715.047-.621a1.007,1.007,0,0,0-1.066-1.1,1.482,1.482,0,0,0-1.559,1.395l-3.867.012a3.673,3.673,0,0,1,.832-2.221,4.931,4.931,0,0,1,2.1-1.453,7.35,7.35,0,0,1,2.83-.475,5.668,5.668,0,0,1,2.525.6,3.76,3.76,0,0,1,1.623,1.582,4.042,4.042,0,0,1,.41,2.338l-.949,5.965-.059.727a3.2,3.2,0,0,0,.223,1.477l-.012.223Zm-2.2-2.555a2.487,2.487,0,0,0,2.074-1.043l.387-2.039-1-.012a2.625,2.625,0,0,0-1.594.545,2.067,2.067,0,0,0-.785,1.424,1.038,1.038,0,0,0,.182.791A.928.928,0,0,0,187.314,22.445Zm25.957-3.762a9.188,9.188,0,0,1-1.816,4.852,4.545,4.545,0,0,1-3.82,1.711,3.362,3.362,0,0,1-2.883-1.57L204.271,25h-3.492l3.129-18h3.855l-1.254,6.363a3.827,3.827,0,0,1,2.848-1.277,3.572,3.572,0,0,1,2.906,1.33,5.8,5.8,0,0,1,1.1,3.557,12.9,12.9,0,0,1-.059,1.465Zm-3.832-.228a12.137,12.137,0,0,0,.105-1.357q0-1.884-1.348-1.965a2.309,2.309,0,0,0-2,1.018l-.914,5.054a1.551,1.551,0,0,0,1.594.994q1.887.059,2.379-2.457l.164-1.041ZM221.123,25a3.438,3.438,0,0,1-.164-1.148,3.911,3.911,0,0,1-3.105,1.383,3.821,3.821,0,0,1-2.742-1.1,3.311,3.311,0,0,1-1.02-2.613,3.719,3.719,0,0,1,1.723-3.17,8.122,8.122,0,0,1,4.547-1.107l1.289.023.141-.715.047-.621a1.007,1.007,0,0,0-1.066-1.1,1.482,1.482,0,0,0-1.559,1.395l-3.867.012a3.673,3.673,0,0,1,.832-2.221,4.931,4.931,0,0,1,2.1-1.453,7.35,7.35,0,0,1,2.83-.475,5.668,5.668,0,0,1,2.525.6,3.76,3.76,0,0,1,1.623,1.582,4.042,4.042,0,0,1,.41,2.338l-.949,5.965-.059.727a3.2,3.2,0,0,0,.223,1.477l-.012.223Zm-2.2-2.555a2.487,2.487,0,0,0,2.074-1.043l.387-2.039-1-.012a2.625,2.625,0,0,0-1.594.545,2.067,2.067,0,0,0-.785,1.424,1.038,1.038,0,0,0,.182.791A.928.928,0,0,0,218.92,22.445Zm14.672-1.078q.152-.773-1.2-1.16L231.564,20a6.407,6.407,0,0,1-2.988-1.512,2.992,2.992,0,0,1-.891-2.309,3.677,3.677,0,0,1,1.623-2.971,6.177,6.177,0,0,1,3.814-1.119,5.722,5.722,0,0,1,3.627,1.137,3.708,3.708,0,0,1,1.412,3l-3.844-.012q.047-1.5-1.324-1.5a1.889,1.889,0,0,0-1.09.346,1.343,1.343,0,0,0-.6.92q-.2.949,1.676,1.3a9.739,9.739,0,0,1,2.52.9,3.762,3.762,0,0,1,1.359,1.26,3.133,3.133,0,0,1,.434,1.8,3.388,3.388,0,0,1-.75,2.051,4.856,4.856,0,0,1-2.068,1.441,7.409,7.409,0,0,1-2.936.5,5.958,5.958,0,0,1-2.549-.574,4.545,4.545,0,0,1-1.84-1.529,3.972,3.972,0,0,1-.686-2.221l3.586.023A1.481,1.481,0,0,0,231.74,22.6a2.215,2.215,0,0,0,1.219-.322A1.394,1.394,0,0,0,233.592,21.367Zm11.2,3.867a5.894,5.894,0,0,1-3.029-.8,5.058,5.058,0,0,1-2.01-2.2,5.92,5.92,0,0,1-.539-3.111l.035-.328a7.772,7.772,0,0,1,2.174-4.951,6.014,6.014,0,0,1,4.553-1.752,4.9,4.9,0,0,1,2.789.827,4.624,4.624,0,0,1,1.7,2.218,6.794,6.794,0,0,1,.352,3.175l-.223,1.608h-7.547a2.472,2.472,0,0,0,.563,1.617,2.066,2.066,0,0,0,1.57.656,3.991,3.991,0,0,0,3.012-1.289l1.617,2.139a4.771,4.771,0,0,1-2,1.6,7.017,7.017,0,0,1-2.807.6Zm.938-10.1a1.983,1.983,0,0,0-1.424.513,4.305,4.305,0,0,0-1.049,1.8h3.855l.07-.338a2.572,2.572,0,0,0,.023-.769A1.357,1.357,0,0,0,245.732,15.133Z" transform="translate(-3053 -2249.227)" fill="#12263f"/>
      <path id="Trazado_826495" data-name="Trazado 826495" d="M296,0H0" transform="translate(-3069.5 -2266.5)" fill="none" stroke="#590e00" stroke-linecap="round" stroke-width="3"/>
      <path id="Trazado_826496" data-name="Trazado 826496" d="M12.246,16.539H1.688l.539-3.047H12.773Zm-.891,5.145H.8l.539-3.047H11.883Zm12.07-2.062a5.76,5.76,0,0,1,1.793-4.242l.973-.773a5.3,5.3,0,0,0,1.2-1.3,2.657,2.657,0,0,0,.369-1.535.994.994,0,0,0-1.09-1.066,1.4,1.4,0,0,0-1.143.492,3.023,3.023,0,0,0-.65,1.453l-3.855.023a5.054,5.054,0,0,1,1.793-3.686A6.039,6.039,0,0,1,26.93,7.691a6.2,6.2,0,0,1,2.643.6,3.739,3.739,0,0,1,1.682,1.582,4.288,4.288,0,0,1,.457,2.379,5.3,5.3,0,0,1-2.227,3.68l-1.371,1.09A4.164,4.164,0,0,0,26.648,19.6Zm-1.219,3.621a1.869,1.869,0,0,1,.609-1.488,2.163,2.163,0,0,1,1.523-.586,2.128,2.128,0,0,1,1.5.551,1.966,1.966,0,0,1,.018,2.854,2.169,2.169,0,0,1-1.529.58,2.216,2.216,0,0,1-1.482-.521A1.8,1.8,0,0,1,22.207,23.242Zm13.2-3.621A5.76,5.76,0,0,1,37.2,15.379l.973-.773a5.3,5.3,0,0,0,1.2-1.3,2.657,2.657,0,0,0,.369-1.535.994.994,0,0,0-1.09-1.066,1.4,1.4,0,0,0-1.143.492,3.023,3.023,0,0,0-.65,1.453L33,12.672a5.054,5.054,0,0,1,1.793-3.686,6.039,6.039,0,0,1,4.113-1.295,6.2,6.2,0,0,1,2.643.6A3.739,3.739,0,0,1,43.23,9.871a4.288,4.288,0,0,1,.457,2.379,5.3,5.3,0,0,1-2.227,3.68L40.09,17.02A4.164,4.164,0,0,0,38.625,19.6Zm-1.219,3.621a1.869,1.869,0,0,1,.609-1.488,2.163,2.163,0,0,1,1.523-.586,2.128,2.128,0,0,1,1.5.551,1.966,1.966,0,0,1,.018,2.854,2.169,2.169,0,0,1-1.529.58,2.216,2.216,0,0,1-1.482-.521A1.8,1.8,0,0,1,34.184,23.242Zm13.2-3.621a5.76,5.76,0,0,1,1.793-4.242l.973-.773a5.3,5.3,0,0,0,1.2-1.3,2.657,2.657,0,0,0,.369-1.535.994.994,0,0,0-1.09-1.066,1.4,1.4,0,0,0-1.143.492,3.023,3.023,0,0,0-.65,1.453l-3.855.023A5.054,5.054,0,0,1,46.77,8.986a6.039,6.039,0,0,1,4.113-1.295,6.2,6.2,0,0,1,2.643.6,3.739,3.739,0,0,1,1.682,1.582,4.288,4.288,0,0,1,.457,2.379,5.3,5.3,0,0,1-2.227,3.68l-1.371,1.09A4.164,4.164,0,0,0,50.6,19.6ZM46.16,23.242a1.869,1.869,0,0,1,.609-1.488,2.163,2.163,0,0,1,1.523-.586,2.128,2.128,0,0,1,1.5.551,1.966,1.966,0,0,1,.018,2.854,2.169,2.169,0,0,1-1.529.58,2.216,2.216,0,0,1-1.482-.521A1.8,1.8,0,0,1,46.16,23.242Zm13.2-3.621a5.76,5.76,0,0,1,1.793-4.242l.973-.773a5.3,5.3,0,0,0,1.2-1.3,2.657,2.657,0,0,0,.369-1.535A.994.994,0,0,0,62.6,10.7a1.4,1.4,0,0,0-1.143.492,3.023,3.023,0,0,0-.65,1.453l-3.855.023a5.054,5.054,0,0,1,1.793-3.686,6.039,6.039,0,0,1,4.113-1.295,6.2,6.2,0,0,1,2.643.6,3.739,3.739,0,0,1,1.682,1.582,4.288,4.288,0,0,1,.457,2.379,5.3,5.3,0,0,1-2.227,3.68l-1.371,1.09A4.164,4.164,0,0,0,62.578,19.6Zm-1.219,3.621a1.869,1.869,0,0,1,.609-1.488,2.163,2.163,0,0,1,1.523-.586,2.128,2.128,0,0,1,1.5.551,1.966,1.966,0,0,1,.018,2.854,2.169,2.169,0,0,1-1.529.58,2.216,2.216,0,0,1-1.482-.521A1.8,1.8,0,0,1,58.137,23.242Z" transform="translate(-2735.5 -2286.227)" fill="#12263f"/>
    </g>
  </g>
</svg>
