<svg xmlns="http://www.w3.org/2000/svg" xmlns:xlink="http://www.w3.org/1999/xlink" width="190" height="143" viewBox="0 0 190 143">
  <defs>
    <clipPath id="clip-path">
      <rect id="Rect치ngulo_378491" data-name="Rect치ngulo 378491" width="122.66" height="124.75" fill="none"/>
    </clipPath>
  </defs>
  <g id="Grupo_1074728" data-name="Grupo 1074728" transform="translate(-285 -420)">
    <rect id="Rect치ngulo_378841" data-name="Rect치ngulo 378841" width="190" height="143" transform="translate(285 420)" fill="none"/>
    <g id="Grupo_1074416" data-name="Grupo 1074416" transform="translate(323.67 429.125)">
      <g id="Grupo_1074413" data-name="Grupo 1074413" clip-path="url(#clip-path)">
        <path id="Trazado_825726" data-name="Trazado 825726" d="M235.982,4.781c-2.229,10.854,13.17,35.089,33.863,24.537S239.361-11.667,235.982,4.781" transform="translate(-152.843 0)" fill="#fccd32"/>
        <path id="Trazado_825727" data-name="Trazado 825727" d="M116.493,314.95c-6.174,8.743,46.178,15.252,38.829,4.62-6.878-9.95-31.186-15.443-38.829-4.62" transform="translate(-75.191 -200.336)" fill="#fccd32"/>
        <path id="Trazado_825728" data-name="Trazado 825728" d="M0,55.951c0,30.356,7.489,45.273,28.009,52.631,14.258,5.112,27.543-1.605,47.032,6.557,14.912,6.245,37.61-3.995,44.8-24.187,5.039-14.146,5.632-41.258-18.273-47.356C72.764,36.246,79.453,2,32.9,12.763,12.656,17.441,0,35.675,0,55.951" transform="translate(0 -6.929)" fill="#fccd32"/>
        <path id="Trazado_825729" data-name="Trazado 825729" d="M110.887,116.659c-2.55,0-4.706.066-6.854-.027-1.1-.048-1.328.338-1.3,1.353.066,2.69.038,5.383.018,8.075-.02,2.589-1.287,3.874-3.869,3.875q-24.468.015-48.936,0c-2.689,0-3.907-1.258-3.92-3.986-.013-2.746-.037-5.492.017-8.236.017-.861-.244-1.095-1.087-1.073-2.239.056-4.482.019-7.056.019,1.395-2.1,2.594-3.977,3.87-5.8a1.138,1.138,0,0,0-.113-1.745,42.051,42.051,0,0,1-7.965-11.66,1.252,1.252,0,0,0-1.352-.837c-1.883.042-3.768.028-5.653.011-2.676-.025-3.987-1.307-3.994-3.933q-.02-7.832,0-15.666c.008-2.488,1.269-3.748,3.764-3.842,3.089-.116,3.032-.127,3.668-3.247.406-1.991.99-3.948,1.541-5.908.166-.589.159-.9-.486-1.219a3.18,3.18,0,0,1-1.789-3.163c.041-2.906-.013-5.814.026-8.721.012-.853-.1-1.2-1.125-1.118A4.945,4.945,0,0,1,23.019,46.7a5,5,0,0,1,1.9-5.977q6.492-4.919,13.035-9.77a4.81,4.81,0,0,1,6.115-.012q4.426,3.232,8.77,6.578a1.653,1.653,0,0,0,1.989.176C71.287,30.4,86.9,31.9,101.573,42.382c.753.538,1.145.57,1.569-.244.173-.332.408-.631.612-.947.552-.857,1.42-1.666,1.566-2.588.15-.95-1.137-1.414-1.7-2.173a3.986,3.986,0,0,1,1.86-6.308,2.285,2.285,0,0,0,1.28-1.065,4.958,4.958,0,0,1,8.648.01,2.046,2.046,0,0,0,1.11,1.026c3.067,1.072,3.992,4.473,1.627,6.656-1.531,1.414-1.316,2.316-.232,3.784,1.912,2.587,3.71,5.268,4.364,8.533,1.173,5.859.01,11.091-4.123,15.506a1.554,1.554,0,0,0-.371,1.72,38.462,38.462,0,0,1,1.523,9.356c.026.84.4.919,1.094.949,5.4.239,5.714.581,5.685,5.9-.016,2.9-1.223,4.095-4.131,4.1a3.263,3.263,0,0,1-.645-.006c-1.692-.34-2.148.426-1.957,2,.235,1.945-.139,3.675-2.236,4.489-.454.177-.4.6-.526.931a45.055,45.055,0,0,1-9.428,15.061c-.686.72-.6,1.167-.1,1.878,1.251,1.784,2.432,3.617,3.824,5.7m2.373-23.445c-4.628,0-8.989.015-13.35-.007-2.086-.01-3.33-.8-3.7-2.419a7.673,7.673,0,0,1-.117-2.564c.163-1.359-.315-1.7-1.657-1.679-1.27.02-1.883.215-1.69,1.642a21.781,21.781,0,0,1,.024,2.9c0,2.219,0,2.189-2.285,2.14-.773-.017-1.17-.135-1.16-1.054.045-3.984-.026-7.969.037-11.953.038-2.4,1.367-3.618,3.781-3.639,2.638-.022,5.279-.077,7.914.025,1.3.05,1.784-.251,1.718-1.645a4.575,4.575,0,0,1,2.769-4.527c3.516-1.74,7.152.7,7.226,4.953.036,2.065,1.461.955,2.272,1.163,1.076.276,1.084-.486.984-1.246a58.564,58.564,0,0,0-1.331-7.777c-.191-.706-.456-1.048-1.307-.973a36.937,36.937,0,0,1-4.036.033,7.846,7.846,0,0,1-6.618-3.4,16.978,16.978,0,0,1-2.4-15.771,1.711,1.711,0,0,0-.667-2.349C89.082,37.335,77.4,34.817,64.6,37.723a29.185,29.185,0,0,0-7.679,2.752c2.322,2,2.952,3.91,2.129,6.19a5.051,5.051,0,0,1-5.574,3.143c-.944-.2-.767.409-.769.912-.005,2.746,0,5.492,0,8.238,0,3.112-1.176,4.3-4.265,4.313-3.877.01-7.754.049-11.63-.028a1.592,1.592,0,0,0-1.837,1.281A69.574,69.574,0,0,0,33.182,71.7c-.242,1.28.084,1.538,1.32,1.52,4.737-.068,9.476-.044,14.214-.02,2.546.013,3.951,1.2,3.968,3.453q.065,8.238,0,16.476c-.015,2.189-1.428,3.473-3.773,3.5-3.446.034-6.892.009-10.338.009H36.983a41.534,41.534,0,0,0,7.275,10.418,21.89,21.89,0,0,0,1.44-2.186,2.94,2.94,0,0,1,3.093-1.663c6.514.085,13.03.044,19.544.024.537,0,1.158.235,1.778-.39-1.438-1.384-2.76-2.808-4.244-4.038-1.13-.937-.629-1.475.138-2.214.732-.705,1.232-1.384,2.239-.2,1.285,1.512,2.8,2.829,4.483,4.493,0-5.976-.017-11.508.018-17.039.006-.867-.567-.875-1.11-1.074a8.451,8.451,0,0,1-5.628-8.042c-.014-.956-.029-1.736,1.3-1.543.945.138,2.122-.494,2.108,1.423-.025,3.348,2.053,5.249,5.366,5.288,1.238.014,2.478-.029,3.715.014.692.024.951-.2.925-.912-.046-1.237.012-2.477-.019-3.715-.082-3.31-2.031-5.273-5.335-5.409a8.336,8.336,0,0,1-8.029-8.1c-.063-2.422.03-4.847-.039-7.268-.027-.964.194-1.365,1.232-1.29,1.232.088,2.488-.09,3.711.049,1.537.175,1.978-.43,1.818-1.868-.054-.486-.382-1.219.438-1.5,1.826-.628,2.908.1,2.813,2.035-.055,1.113.312,1.527,1.373,1.89a8.4,8.4,0,0,1,5.377,8.049c.007.932-.061,1.611-1.258,1.416-.913-.148-2.147.564-2.143-1.375.005-3.428-2.085-5.341-5.484-5.339-1.445,0-3.434-.493-4.2.247-.972.942-.313,2.938-.292,4.472a5.064,5.064,0,0,0,5.244,5.326,8.284,8.284,0,0,1,8.086,7.863c.106,2.58-.007,5.169.049,7.752.019.884-.315,1.1-1.128,1.077-1.452-.05-2.91.046-4.36-.034-1-.056-1.269.272-1.26,1.267.05,5.114.023,10.23.028,15.345,0,.243-.1.554.407.676,1.344-1.357,2.836-2.686,4.106-4.2,1.045-1.247,1.543-.4,2.229.272.667.656,1.358,1.121.206,2.1-1.519,1.286-2.838,2.811-4.523,4.517h2.023c5.923,0,11.852.159,17.766-.07,2.732-.106,4.66.474,5.718,3.1a.9.9,0,0,0,.666.647,41.659,41.659,0,0,0,8.616-13.7M72.728,111.1l-.352-.125c-1.015,1.509-2.094,2.98-3.021,4.541a2.2,2.2,0,0,1-2.222,1.164c-5.484-.049-10.968,0-16.452-.042-.943-.006-1.34.193-1.31,1.237.072,2.525.042,5.054.013,7.581-.009.778.162,1.178,1.063,1.174,7.1-.027,14.195-.019,21.292-.011.633,0,1-.148,1-.894-.019-4.875-.01-9.75-.01-14.626m3.686-.107-.374.089c0,4.87.013,9.739-.013,14.609,0,.869.469.931,1.129.93q10.566-.013,21.133.009c.862,0,1.11-.326,1.1-1.141-.036-2.473-.069-4.949.013-7.42.038-1.136-.318-1.448-1.442-1.436-5.377.056-10.755-.022-16.131.059a2.568,2.568,0,0,1-2.578-1.419c-.867-1.473-1.883-2.857-2.836-4.28M37.6,93.2c3.494,0,6.988-.029,10.481.019.961.013,1.33-.239,1.3-1.259q-.1-3.706,0-7.416c.024-1-.317-1.28-1.29-1.275q-10.4.051-20.8,0c-.963,0-1.327.251-1.3,1.265q.1,3.706,0,7.416c-.026,1.005.32,1.283,1.292,1.27,3.439-.049,6.88-.019,10.32-.02m73.7-29.9c1.782.063,3.862.053,5.272-1.836a14,14,0,0,0,2.539-11.438c-.534-2.845-2.355-5.014-3.693-7.452-1.206-2.2-2.733-3.169-5.256-2.827-1.032.14-1.784.257-2.343,1.256-.759,1.356-1.7,2.61-2.572,3.9a14.134,14.134,0,0,0-2.075,11.69c1.169,4.835,3.354,6.7,8.128,6.7m-70.2-3.47c2.369,0,4.739-.043,7.106.021.938.026,1.184-.285,1.165-1.186-.054-2.529-.05-5.061,0-7.59.017-.892-.228-1.21-1.173-1.2-4.791.045-9.583.035-14.374.006-.788,0-1.162.136-1.143,1.047.056,2.637.063,5.277,0,7.913-.024.956.415,1.012,1.157,1,2.422-.032,4.845-.012,7.268-.012m29.988,47c-.278-.121-.37-.2-.462-.2q-10.579-.015-21.158-.017c-.371,0-.794-.072-1.041.292-1.363,2.013-2.711,4.036-4.221,6.291,7.546,0,14.7-.006,21.859.01a1.414,1.414,0,0,0,1.294-.767c1.2-1.842,2.432-3.667,3.729-5.614m33.466,6.373c-1.334-2.018-2.5-3.685-3.556-5.42a2.253,2.253,0,0,0-2.222-1.193c-6.568.048-13.136.021-19.7.032-.406,0-.848-.142-1.26.18a5.156,5.156,0,0,0,1.037,1.767c1.014,1.52,1.752,3.589,3.182,4.361s3.565.263,5.39.268c5.592.014,11.184,0,17.133,0M40.94,33.285c-.553-.112-.95.3-1.377.611q-2.138,1.583-4.26,3.187c-2.748,2.066-5.487,4.144-8.245,6.2-.952.709-1.416,1.581-.652,2.6.777,1.034,1.755.807,2.669.056.331-.273.688-.514,1.032-.771,3.223-2.419,6.479-4.8,9.648-7.283a1.755,1.755,0,0,1,2.6.045c3.474,2.709,7.034,5.305,10.548,7.963.971.735,1.965,1.1,2.777-.064.72-1.035.235-1.89-.718-2.6q-6.272-4.665-12.51-9.376a1.954,1.954,0,0,0-1.513-.565m66.712,50c4.568,0,9.137-.07,13.7.038,1.565.037,1.4-.8,1.422-1.806s.029-1.667-1.382-1.656q-13.621.1-27.243,0c-1.384-.011-1.461.594-1.389,1.624.065.913-.308,1.885,1.349,1.842,4.511-.117,9.027-.04,13.54-.04M37.606,79.932c3.492,0,6.986-.072,10.475.035,1.432.044,1.413-.692,1.362-1.677-.046-.867.29-1.791-1.258-1.775q-10.475.107-20.951,0c-1.529-.016-1.249.871-1.276,1.755-.028.951-.127,1.745,1.335,1.7,3.435-.109,6.875-.035,10.314-.035m70.222,6.634c-2.468,0-4.936.046-7.4-.017-1.543-.04-1,1.051-1.041,1.775s-.343,1.622,1.048,1.6q7.321-.09,14.644,0c1.575.017.973-1.071,1.015-1.774s.4-1.659-1.022-1.609c-2.411.084-4.827.023-7.241.023M48.233,46.511c-2.3-1.739-4.319-3.254-6.33-4.777-.44-.333-.849-.665-1.426-.228-2.117,1.606-4.246,3.2-6.649,5Zm62.9-10.063c2.022.67,3.359-.4,4.539-1.844.239-.293.523-.564.31-.992-.176-.352-.52-.339-.835-.352a10.578,10.578,0,0,0-1.289,0c-.722.059-1.1-.147-1.059-.97.064-1.241-.26-2.359-1.758-2.353-1.429.006-1.709,1.117-1.659,2.277.039.905-.384,1.117-1.166,1.046-.373-.034-.752,0-1.128,0s-.784.041-.957.446c-.184.431.184.676.406.968,1.159,1.528,2.6,2.353,4.6,1.778m-3.508,40.1c.95.02,1.863.24,1.741-1.187-.1-1.143-.35-2.086-1.689-2.033-1.293.051-1.555,1-1.641,2.129-.116,1.536.964,1,1.589,1.091" transform="translate(-14.698 -17.198)" fill="#060606"/>
        <path id="Trazado_825730" data-name="Trazado 825730" d="M121.935,266.742c0,4.875-.009,9.751.01,14.626,0,.746-.366.895-1,.894-7.1-.008-14.195-.017-21.292.011-.9,0-1.072-.4-1.063-1.174.029-2.527.059-5.055-.013-7.58-.03-1.044.367-1.243,1.31-1.237,5.484.037,10.969-.008,16.452.042a2.2,2.2,0,0,0,2.222-1.164c.927-1.561,2.006-3.032,3.021-4.541l.352.124" transform="translate(-63.905 -172.843)" fill="#fabc5f"/>
        <path id="Trazado_825731" data-name="Trazado 825731" d="M174.757,266.669c.952,1.422,1.969,2.807,2.836,4.28a2.568,2.568,0,0,0,2.578,1.418c5.376-.081,10.754,0,16.131-.059,1.125-.012,1.48.3,1.442,1.436-.082,2.471-.048,4.946-.013,7.42.012.815-.236,1.144-1.1,1.141q-10.566-.037-21.132-.009c-.661,0-1.134-.061-1.129-.93.026-4.869.012-9.739.012-14.609l.374-.088" transform="translate(-113.041 -172.876)" fill="#fabc5f"/>
        <path id="Trazado_825732" data-name="Trazado 825732" d="M43.713,197.792c-3.44,0-6.88-.03-10.32.019-.972.014-1.319-.264-1.292-1.27q.1-3.706,0-7.416c-.027-1.014.337-1.269,1.3-1.265q10.4.051,20.8,0c.974,0,1.315.278,1.29,1.275-.06,2.471-.063,4.946,0,7.416.028,1.02-.342,1.272-1.3,1.259-3.493-.047-6.987-.019-10.481-.019" transform="translate(-20.81 -121.786)" fill="#a8adb8"/>
        <path id="Trazado_825733" data-name="Trazado 825733" d="M258.837,87.547c-4.774,0-6.959-1.867-8.128-6.7a14.132,14.132,0,0,1,2.076-11.69c.871-1.293,1.813-2.548,2.571-3.9.559-1,1.311-1.116,2.343-1.256,2.524-.342,4.051.631,5.256,2.826,1.339,2.437,3.16,4.606,3.694,7.452a14,14,0,0,1-2.54,11.438c-1.41,1.889-3.49,1.9-5.272,1.836m2.928-13.454c1.682,0,1.682,0,1.816-.65a5.148,5.148,0,0,0-3.942-5.814,4.949,4.949,0,1,0-1.866,9.715,6.52,6.52,0,0,1,1.427.238,1.572,1.572,0,0,1,1.086,1.777,1.607,1.607,0,0,1-1.525,1.436,1.488,1.488,0,0,1-1.7-1.162c-.121-.461-.11-.955-.189-1.428-.208-1.243-1.188-.594-1.805-.644-.5-.041-1.4-.478-1.465.642a5.253,5.253,0,0,0,2.125,4.952,4.746,4.746,0,0,0,5.327.279,5.005,5.005,0,0,0,2.484-5.191c-.436-2.23-2.111-3.708-4.791-4.067-1.167-.156-1.836-.718-1.779-1.849a1.481,1.481,0,0,1,1.587-1.5,1.623,1.623,0,0,1,1.763,1.857c-.079,1.312.469,1.606,1.447,1.41" transform="translate(-162.233 -41.443)" fill="#f9bf30"/>
        <path id="Trazado_825734" data-name="Trazado 825734" d="M59.542,102.864c-2.423,0-4.846-.02-7.268.012-.742.009-1.181-.046-1.157-1,.066-2.637.059-5.276,0-7.913-.019-.911.355-1.051,1.143-1.046,4.791.028,9.583.039,14.374-.007.945-.009,1.19.31,1.173,1.2-.047,2.529-.052,5.061,0,7.59.019.9-.227,1.212-1.165,1.186-2.367-.065-4.737-.021-7.106-.021" transform="translate(-33.138 -60.23)" fill="#fabc5f"/>
        <path id="Trazado_825735" data-name="Trazado 825735" d="M110.785,254.443c-1.3,1.947-2.526,3.772-3.729,5.614a1.414,1.414,0,0,1-1.295.767c-7.156-.016-14.313-.011-21.859-.011,1.51-2.255,2.858-4.278,4.221-6.291.247-.365.67-.292,1.04-.292q10.579,0,21.158.017c.093,0,.185.075.462.2" transform="translate(-54.393 -164.808)" fill="#e59e47"/>
        <path id="Trazado_825736" data-name="Trazado 825736" d="M206.19,260.775c-5.949,0-11.541.009-17.133-.005-1.826,0-3.961.5-5.39-.267s-2.169-2.842-3.182-4.361a5.156,5.156,0,0,1-1.037-1.767c.412-.321.854-.179,1.26-.18,6.568-.011,13.137.017,19.7-.032a2.253,2.253,0,0,1,2.222,1.193c1.055,1.735,2.222,3.4,3.556,5.42" transform="translate(-116.332 -164.768)" fill="#e59e47"/>
        <path id="Trazado_825737" data-name="Trazado 825737" d="M47.115,45.7a1.952,1.952,0,0,1,1.513.565q6.25,4.694,12.509,9.376c.952.708,1.438,1.563.718,2.6-.813,1.168-1.806.8-2.777.064C55.565,55.648,52,53.052,48.531,50.343a1.755,1.755,0,0,0-2.6-.045c-3.169,2.487-6.425,4.864-9.648,7.283-.344.258-.7.5-1.032.771-.913.751-1.892.979-2.669-.056-.765-1.018-.3-1.89.651-2.6,2.758-2.053,5.5-4.131,8.246-6.2q2.126-1.6,4.259-3.187c.427-.316.824-.723,1.377-.611" transform="translate(-20.874 -29.616)" fill="#cc4e49"/>
        <path id="Trazado_825738" data-name="Trazado 825738" d="M236.805,181.58c-4.514,0-9.03-.077-13.54.04-1.657.043-1.284-.929-1.349-1.842-.073-1.029,0-1.634,1.388-1.624q13.622.107,27.244,0c1.411-.011,1.4.654,1.382,1.656s.142,1.843-1.423,1.806c-4.565-.108-9.134-.038-13.7-.038" transform="translate(-143.851 -115.494)" fill="#a8adb8"/>
        <path id="Trazado_825739" data-name="Trazado 825739" d="M43.636,172.062c-3.438,0-6.879-.074-10.314.035-1.462.046-1.364-.748-1.335-1.7.027-.885-.253-1.771,1.276-1.755q10.475.111,20.951,0c1.548-.016,1.212.908,1.258,1.775.052.986.07,1.721-1.361,1.677-3.489-.108-6.983-.035-10.475-.035" transform="translate(-20.728 -109.328)" fill="#c19c6c"/>
        <path id="Trazado_825740" data-name="Trazado 825740" d="M249.105,197.179c2.414,0,4.83.061,7.241-.023,1.423-.05,1.064.906,1.022,1.609s.56,1.792-1.015,1.774q-7.321-.081-14.644,0c-1.391.017-1.086-.88-1.048-1.6s-.5-1.815,1.041-1.775c2.466.063,4.935.017,7.4.017" transform="translate(-155.976 -127.811)" fill="#a8adb8"/>
        <path id="Trazado_825741" data-name="Trazado 825741" d="M68.8,73.73h-14.4c2.4-1.807,4.531-3.4,6.649-5.005.576-.437.986-.1,1.425.228,2.01,1.522,4.025,3.038,6.33,4.777" transform="translate(-35.261 -44.418)" fill="#fff"/>
        <path id="Trazado_825742" data-name="Trazado 825742" d="M264.871,42.73c-1.994.575-3.437-.25-4.6-1.778-.222-.293-.591-.537-.406-.968.173-.405.566-.447.957-.446s.755-.031,1.128,0c.781.071,1.2-.141,1.165-1.046-.05-1.16.23-2.27,1.659-2.277,1.5-.007,1.822,1.111,1.758,2.353-.043.823.337,1.029,1.059.97a10.58,10.58,0,0,1,1.289,0c.315.013.659,0,.835.352.213.428-.07.7-.31.992-1.18,1.444-2.516,2.514-4.539,1.844" transform="translate(-168.435 -23.48)" fill="#f9bf30"/>
        <path id="Trazado_825743" data-name="Trazado 825743" d="M261.263,162.808c-.625-.087-1.7.445-1.589-1.091.086-1.133.348-2.078,1.641-2.129,1.339-.053,1.592.889,1.689,2.033.122,1.427-.791,1.207-1.741,1.187" transform="translate(-168.336 -103.456)" fill="#a8adb8"/>
        <path id="Trazado_825744" data-name="Trazado 825744" d="M267.912,80.745c-.977.2-1.526-.1-1.447-1.41a1.623,1.623,0,0,0-1.763-1.857,1.481,1.481,0,0,0-1.587,1.5c-.058,1.13.612,1.692,1.779,1.849,2.68.359,4.355,1.837,4.792,4.067a5.005,5.005,0,0,1-2.484,5.191,4.747,4.747,0,0,1-5.328-.279,5.253,5.253,0,0,1-2.125-4.952c.064-1.12.962-.683,1.465-.642.617.05,1.6-.6,1.805.644.079.474.068.967.189,1.428a1.488,1.488,0,0,0,1.7,1.162,1.607,1.607,0,0,0,1.525-1.436,1.572,1.572,0,0,0-1.086-1.777A6.519,6.519,0,0,0,263.92,84a4.949,4.949,0,1,1,1.866-9.715,5.148,5.148,0,0,1,3.942,5.814c-.134.653-.134.653-1.816.65" transform="translate(-168.38 -48.095)" fill="#060606"/>
      </g>
    </g>
  </g>
</svg>
