<svg xmlns="http://www.w3.org/2000/svg" xmlns:xlink="http://www.w3.org/1999/xlink" width="190" height="131" viewBox="0 0 190 131">
  <defs>
    <linearGradient id="linear-gradient" x1="0.5" x2="0.5" y2="1" gradientUnits="objectBoundingBox">
      <stop offset="0" stop-color="#f8e1c3"/>
      <stop offset="1" stop-color="#fff"/>
    </linearGradient>
    <clipPath id="clip-path">
      <rect id="Rect치ngulo_378519" data-name="Rect치ngulo 378519" width="98.695" height="98.686" fill="none"/>
    </clipPath>
  </defs>
  <g id="Grupo_1074771" data-name="Grupo 1074771" transform="translate(-180 -6594)">
    <rect id="Rect치ngulo_378845" data-name="Rect치ngulo 378845" width="190" height="131" transform="translate(180 6594)" fill="url(#linear-gradient)"/>
    <g id="Grupo_1074461" data-name="Grupo 1074461" transform="translate(226 6610)">
      <g id="Grupo_1074460" data-name="Grupo 1074460" clip-path="url(#clip-path)">
        <path id="Trazado_825859" data-name="Trazado 825859" d="M24.08,97.112a1.607,1.607,0,0,0,1.636,1.523,28.849,28.849,0,0,0,3.438,0,1.706,1.706,0,0,0,1.669-1.519l3.825.027c.274,1.591,1.491,1.521,2.672,1.52H89.5c.331,0,.665.022.993-.01,1.075-.1,1.719-.582,1.69-1.789-.044-1.821.053-3.647-.034-5.464-.051-1.065.338-1.334,1.326-1.268,1.154.077,2.318.03,3.477.007,1.27-.025,1.776-.689,1.57-1.935Q97.2,80.217,95.892,72.23c-1.615-9.779-3.368-19.537-4.8-29.342-1.09-7.44-6.407-11.868-13.4-11.6-6.231.24-12.478.026-18.717.074-1.07.008-1.43-.254-1.381-1.366a62.381,62.381,0,0,0,0-6.291c-.08-1.4.229-1.857,1.76-1.838,7.564.095,15.129.05,22.694.038A16.185,16.185,0,0,0,93.9,16.934c4.245-4.266,5.054-9.616,4.727-15.292C98.56.423,97.691,0,96.549,0Q90.254.017,83.96,0a1.884,1.884,0,0,0-2.051,1.521l-3.364.035C78.272-.013,77.092,0,75.885,0q-35.64.008-71.279,0c-4.617,0-4.617,0-4.6,4.61C.03,14.783,7.13,21.893,17.288,21.909c7.459.012,14.919.022,22.378-.019,1.042-.006,1.45.206,1.4,1.345-.1,2.206-.119,4.424.006,6.627.075,1.319-.41,1.515-1.585,1.5q-9.7-.084-19.394-.015C13.575,31.4,9,35.232,7.882,41.658,6.564,49.2,5.377,56.769,4.121,64.323,2.792,72.313,1.442,80.3.12,88.29a1.4,1.4,0,0,0,1.511,1.844c1.215.027,2.434.066,3.646,0,.929-.053,1.266.231,1.228,1.2-.071,1.765.033,3.537-.036,5.3-.056,1.433.618,2.029,1.961,2.031q4.724.007,9.449,0c1.05,0,1.83-.384,2-1.543l4.2,0" transform="translate(0 -0.001)" fill="#f6f8f9"/>
        <path id="Trazado_825860" data-name="Trazado 825860" d="M19.876,97.115c-.167,1.159-.947,1.541-2,1.543q-4.725.011-9.449,0c-1.344,0-2.017-.6-1.961-2.031.069-1.765-.035-3.537.036-5.3.039-.965-.3-1.249-1.228-1.2-1.211.069-2.431.03-3.646,0A1.4,1.4,0,0,1,.12,88.29c1.321-7.991,2.672-15.977,4-23.967C5.377,56.769,6.564,49.2,7.882,41.658,9,35.232,13.575,31.4,20.092,31.351q9.7-.076,19.394.015c1.175.01,1.66-.185,1.585-1.5-.125-2.2-.1-4.42-.006-6.626.05-1.14-.359-1.351-1.4-1.345-7.459.041-14.919.031-22.378.019C7.13,21.893.03,14.783,0,4.616-.011.007-.011.007,4.605.007q35.64,0,71.279,0c1.207,0,2.387-.016,2.66,1.554-.3,1.5-1.448,1.406-2.581,1.406q-35.448-.009-70.9,0c-.442,0-.884.018-1.325,0-.556-.02-.757.227-.8.783C2.305,12.359,8.3,18.181,14.719,18.822c6,.6,12.027.213,18.042.231q24.1.071,48.2.007c9.084-.018,14.967-5.988,14.77-14.813-.023-1.009-.281-1.329-1.307-1.311-3.422.059-6.847-.007-10.269.038-1.132.015-1.957-.256-2.248-1.452A1.885,1.885,0,0,1,83.96,0q6.295.025,12.59,0c1.142,0,2.011.419,2.081,1.638.326,5.676-.482,11.026-4.727,15.292a16.184,16.184,0,0,1-11.858,4.972c-7.565.011-15.13.056-22.694-.038-1.531-.019-1.84.442-1.76,1.839a62.374,62.374,0,0,1,0,6.291c-.049,1.112.31,1.374,1.381,1.365,6.239-.048,12.486.166,18.717-.074,6.989-.269,12.306,4.159,13.4,11.6,1.436,9.8,3.189,19.563,4.8,29.341Q97.21,80.216,98.524,88.2c.206,1.247-.3,1.911-1.57,1.935-1.159.022-2.323.07-3.477-.007-.988-.066-1.377.2-1.326,1.267.087,1.818-.011,3.644.034,5.465.029,1.207-.615,1.685-1.69,1.79-.328.032-.662.01-.993.01H37.321c-1.181,0-2.4.07-2.672-1.52.289-1.49,1.417-1.434,2.563-1.433q24.267.013,48.534.006c3.651,0,3.566,0,3.68-3.623.051-1.618-.451-2-2.03-2q-37.022.076-74.043.036c-4.2,0-4.167,0-4.1,4.181.017,1.065.313,1.458,1.414,1.425,2.372-.071,4.748,0,7.122-.032,1.062-.016,1.85.262,2.089,1.41M49.2,87.231H93.29c.442,0,.884-.015,1.326,0,.7.017.8-.323.693-.947-.559-3.26-1.075-6.526-1.619-9.788C91.842,65.4,89.942,54.318,88.156,43.217c-.966-6.008-4.365-9.064-10.435-9.07q-9.863-.01-19.725,0-18.73,0-37.461.006c-5.264.007-8.734,2.781-9.729,7.847-.722,3.676-1.313,7.378-1.924,11.075C7.094,63.9,5.368,74.729,3.5,85.539c-.262,1.515.05,1.723,1.442,1.719,14.752-.043,29.5-.027,44.257-.027m.153-65.326c-1.436,0-2.872.034-4.306-.013-.777-.025-1.072.22-1.058,1.029q.061,3.725,0,7.452c-.015.856.377.991,1.1.984,2.815-.027,5.632-.038,8.447.005.853.014,1.162-.235,1.144-1.116-.049-2.428-.054-4.858,0-7.286.023-.945-.4-1.093-1.192-1.067-1.379.046-2.76.013-4.14.013" transform="translate(0 -0.001)" fill="#060505"/>
        <path id="Trazado_825861" data-name="Trazado 825861" d="M87.748,4.586c.291,1.2,1.116,1.467,2.248,1.452,3.423-.045,6.847.021,10.269-.038,1.026-.018,1.284.3,1.307,1.311.2,8.824-5.686,14.795-14.77,14.812q-24.1.047-48.2-.007c-6.015-.018-12.045.368-18.042-.231C14.138,21.245,8.144,15.423,8.784,6.807c.041-.556.242-.8.8-.783.441.016.883,0,1.325,0q35.448,0,70.9,0c1.133,0,2.28.092,2.581-1.406l3.364-.035M27.817,9.317c-2.263,0-4.527.012-6.79-.006-1.062-.008-2.173.079-2.167,1.417.007,1.374,1.1,1.558,2.257,1.552,4.472-.024,8.944-.016,13.416-.005,1.071,0,2.107-.116,2.146-1.461.041-1.382-.993-1.508-2.071-1.5-2.263.015-4.527,0-6.791,0m16.05.01c-.771,0-1.543-.031-2.313.008A1.41,1.41,0,0,0,40.1,10.651a1.334,1.334,0,0,0,1.2,1.534,32.792,32.792,0,0,0,4.94-.024,1.315,1.315,0,0,0,1.109-1.593,1.335,1.335,0,0,0-1.341-1.227c-.713-.044-1.431-.009-2.147-.014" transform="translate(-5.839 -3.065)" fill="#d35858"/>
        <path id="Trazado_825862" data-name="Trazado 825862" d="M38.484,278.64c-.239-1.149-1.027-1.425-2.089-1.41-2.374.034-4.75-.039-7.122.032-1.1.033-1.4-.36-1.414-1.425-.066-4.182-.1-4.181,4.1-4.181q37.022,0,74.043-.035c1.579,0,2.081.379,2.03,2-.114,3.62-.029,3.623-3.68,3.623q-24.267,0-48.534-.006c-1.145,0-2.273-.057-2.563,1.433l-3.825-.027a1.786,1.786,0,0,0-2.076-1.408c-.924.042-1.852.033-2.776,0a1.654,1.654,0,0,0-1.891,1.4l-4.2,0" transform="translate(-18.609 -181.525)" fill="#6e7780"/>
        <path id="Trazado_825863" data-name="Trazado 825863" d="M72.6,289.936a1.654,1.654,0,0,1,1.891-1.4c.925.03,1.853.038,2.776,0a1.786,1.786,0,0,1,2.076,1.408,1.706,1.706,0,0,1-1.669,1.519,28.857,28.857,0,0,1-3.438,0,1.607,1.607,0,0,1-1.636-1.523" transform="translate(-48.517 -192.824)" fill="#060505"/>
        <path id="Trazado_825864" data-name="Trazado 825864" d="M56.079,156.019c-14.752,0-29.5-.017-44.257.027-1.391,0-1.7-.2-1.442-1.719,1.868-10.809,3.595-21.642,5.383-32.465.611-3.7,1.2-7.4,1.924-11.075,1-5.066,4.465-7.84,9.729-7.848q18.73-.026,37.461-.006,9.863,0,19.725,0c6.07.006,9.469,3.063,10.435,9.07,1.785,11.1,3.685,22.183,5.533,33.275.544,3.262,1.06,6.529,1.619,9.788.107.624.007.965-.693.947-.441-.011-.884,0-1.326,0H56.079m21.379-26.512a21.25,21.25,0,1,0-21.226,21.36,21.255,21.255,0,0,0,21.226-21.36" transform="translate(-6.881 -68.788)" fill="#d35858"/>
        <path id="Trazado_825865" data-name="Trazado 825865" d="M137.974,66.006c1.38,0,2.762.033,4.14-.013.8-.026,1.215.122,1.192,1.067-.058,2.427-.053,4.858,0,7.286.018.882-.292,1.13-1.144,1.117-2.815-.044-5.632-.033-8.447-.006-.724.007-1.117-.128-1.1-.984q.066-3.725,0-7.452c-.014-.809.281-1.054,1.058-1.029,1.434.047,2.871.013,4.306.013" transform="translate(-88.623 -44.102)" fill="#e4d343"/>
        <path id="Trazado_825866" data-name="Trazado 825866" d="M48.212,18.837c2.263,0,4.527.01,6.791,0,1.078-.007,2.112.119,2.071,1.5C57.035,21.679,56,21.8,54.928,21.8c-4.472-.011-8.944-.018-13.416.005-1.158.006-2.251-.178-2.258-1.552-.006-1.338,1.1-1.425,2.167-1.417,2.263.018,4.527.005,6.791.005" transform="translate(-26.234 -12.585)" fill="#060505"/>
        <path id="Trazado_825867" data-name="Trazado 825867" d="M107.045,18.859c.716,0,1.434-.033,2.147.012a1.335,1.335,0,0,1,1.341,1.226,1.315,1.315,0,0,1-1.109,1.593,32.792,32.792,0,0,1-4.94.024,1.334,1.334,0,0,1-1.2-1.533,1.409,1.409,0,0,1,1.452-1.316c.769-.039,1.542-.009,2.313-.006" transform="translate(-69.017 -12.595)" fill="#060505"/>
        <path id="Trazado_825868" data-name="Trazado 825868" d="M127.153,140.183a21.249,21.249,0,1,1-21.273-21.277,21.322,21.322,0,0,1,21.273,21.277m-18.818,18.188c6.769-.322,14.046-6.911,15.474-13.978.163-.807.544-1.781.25-2.41-.311-.668-1.4-.168-2.134-.275-.949-.138-1.543-.589-1.482-1.618.057-.967.683-1.313,1.565-1.332a5.387,5.387,0,0,1,.992,0c1.132.19,1.249-.342,1.1-1.3a18.58,18.58,0,0,0-15.544-15.471c-.948-.152-1.3-.006-1.272,1.015.031,1.1.4,2.643-1.3,2.7-1.862.065-1.463-1.554-1.467-2.7,0-.81-.116-1.183-1.1-1.055a18.69,18.69,0,0,0-15.373,13.889c-.2.9-.752,1.95-.281,2.715.352.572,1.445.126,2.2.206.814.087,1.35.457,1.406,1.329a1.4,1.4,0,0,1-1.321,1.593,3.546,3.546,0,0,1-1.155.018c-1.207-.19-1.34.367-1.163,1.4a18.666,18.666,0,0,0,14.523,15.164c2.106.438,2.2.392,2.237-1.756.019-1.01.294-1.826,1.412-1.827s1.457.808,1.407,1.823c-.014.275.02.554,0,.828-.073.815.123,1.33,1.031,1.043" transform="translate(-56.576 -79.465)" fill="#060505"/>
        <path id="Trazado_825869" data-name="Trazado 825869" d="M114.219,164.453c-.908.286-1.1-.228-1.031-1.043.025-.274-.008-.552.005-.828.05-1.015-.292-1.824-1.407-1.823s-1.393.817-1.412,1.828c-.041,2.148-.131,2.194-2.236,1.756a18.667,18.667,0,0,1-14.524-15.164c-.177-1.031-.044-1.587,1.163-1.4a3.547,3.547,0,0,0,1.155-.019,1.4,1.4,0,0,0,1.321-1.593c-.057-.872-.592-1.243-1.406-1.329-.759-.081-1.852.366-2.2-.206-.47-.765.082-1.819.281-2.715A18.691,18.691,0,0,1,109.3,128.031c.987-.127,1.1.246,1.1,1.055,0,1.149-.394,2.768,1.467,2.7,1.7-.059,1.331-1.607,1.3-2.7-.029-1.021.323-1.167,1.271-1.015a18.579,18.579,0,0,1,15.544,15.471c.148.962.031,1.494-1.1,1.3a5.385,5.385,0,0,0-.992,0c-.882.019-1.508.365-1.565,1.332-.061,1.029.533,1.48,1.482,1.618.738.107,1.823-.394,2.134.275.293.63-.087,1.6-.25,2.41-1.428,7.066-8.7,13.656-15.474,13.978m-6.765-18.324a4.342,4.342,0,0,0,4.25,4.55c2.3.052,4.713-1.844,4.291-4.028-.475-2.459,1-3.467,2.279-4.8q1.379-1.431,2.81-2.812c.769-.744,1.166-1.56.28-2.417-.83-.8-1.6-.37-2.291.332-1.514,1.532-3.059,3.033-4.56,4.577a1.518,1.518,0,0,1-1.714.529,4.252,4.252,0,0,0-5.346,4.068" transform="translate(-62.459 -85.547)" fill="#e0eaf0"/>
        <path id="Trazado_825870" data-name="Trazado 825870" d="M135.646,162.619a4.252,4.252,0,0,1,5.346-4.068,1.518,1.518,0,0,0,1.714-.529c1.5-1.544,3.046-3.045,4.56-4.577.694-.7,1.461-1.135,2.291-.331.886.857.489,1.673-.28,2.417q-1.428,1.382-2.81,2.812c-1.283,1.332-2.754,2.339-2.279,4.8.422,2.184-1.987,4.08-4.291,4.028a4.343,4.343,0,0,1-4.25-4.551m4.38,1.693c.849-.194,1.4-.641,1.372-1.573a1.42,1.42,0,1,0-2.838.1c.026.927.6,1.347,1.465,1.474" transform="translate(-90.652 -102.037)" fill="#060505"/>
        <path id="Trazado_825871" data-name="Trazado 825871" d="M145.9,181.727c-.862-.127-1.439-.547-1.465-1.474a1.42,1.42,0,1,1,2.838-.1c.03.931-.523,1.379-1.372,1.573" transform="translate(-96.527 -119.452)" fill="#e0eaf0"/>
      </g>
    </g>
  </g>
</svg>
