<svg xmlns="http://www.w3.org/2000/svg" xmlns:xlink="http://www.w3.org/1999/xlink" width="190" height="270" viewBox="0 0 190 270">
  <defs>
    <linearGradient id="linear-gradient" x1="0.5" x2="0.5" y2="1" gradientUnits="objectBoundingBox">
      <stop offset="0" stop-color="#f8e1c3"/>
      <stop offset="1" stop-color="#fff"/>
    </linearGradient>
    <clipPath id="clip-path">
      <rect id="Rect치ngulo_378498" data-name="Rect치ngulo 378498" width="124.312" height="124.288" fill="none"/>
    </clipPath>
  </defs>
  <g id="Grupo_1074734" data-name="Grupo 1074734" transform="translate(-180 -2767)">
    <rect id="Rect치ngulo_378844" data-name="Rect치ngulo 378844" width="190" height="270" transform="translate(180 2767)" fill="url(#linear-gradient)"/>
    <g id="Grupo_1074424" data-name="Grupo 1074424" transform="translate(218 2789.712)">
      <g id="Grupo_1074423" data-name="Grupo 1074423" clip-path="url(#clip-path)">
        <path id="Trazado_825773" data-name="Trazado 825773" d="M62.045,124.287H3.525c-3.17,0-3.525-.361-3.525-3.576Q0,92.156,0,63.6c0-3.044.414-3.458,3.437-3.461,2.4,0,4.81-.028,7.214.014.923.016,1.411-.067,1.407-1.25q-.07-20.84-.008-41.681c0-.988-.281-1.2-1.233-1.216-2.329-.048-2.784-.568-2.795-2.869-.016-3.473-.022-6.947,0-10.42C8.041.615,8.654.007,10.8.007q33.268-.014,66.536,0c2.253,0,2.842.6,2.854,2.835.018,3.473-.034,6.947.02,10.42.03,1.93-.776,2.933-2.737,2.761-1.076-.095-1.323.3-1.311,1.327.054,4.341.088,8.685-.014,13.024-.034,1.419.352,1.744,1.749,1.737,11.69-.061,23.381-.037,35.071-.034,2.879,0,3.312.445,3.312,3.386,0,10.287.031,20.573-.034,30.86-.009,1.438.246,2.066,1.816,1.866,1.183-.15,2.4,0,3.6-.036,1.859-.056,2.665.827,2.646,2.67-.04,3.74-.012,7.481-.012,11.222q0,19.438,0,38.875c0,2.932-.431,3.367-3.334,3.368q-29.46,0-58.92,0m46.2-78.237c4.037.215,4.037.215,4.037-3.755V39.9c0-3.969,0-3.969-4.037-3.755-10.089-.019-20.178,0-30.266-.1-1.55-.015-1.842.434-1.828,1.885.075,7.817.046,15.634.028,23.451,0,2.122-.633,2.742-2.738,2.763-2.673.026-5.349.1-8.017-.026-1.608-.074-1.368.948-1.232,1.795.133.827-.856,2.268,1.157,2.262q21.448-.069,42.9-.071c4.037.215,4.037.215,4.037-3.755v-2.4c0-3.969,0-3.969-4.037-3.755-1.8-.019-3.6-.067-5.4-.05-1.727.017-2.614-.748-2.6-2.517q.028-3.505,0-7.01c-.014-1.77.873-2.533,2.6-2.516,1.8.019,3.6-.03,5.4-.049m-40.1,14.027c.4.021.8.064,1.2.059,3.364-.045,2.819.393,2.825-2.863q.036-18.683.01-37.367c0-4,0-4-4.03-3.8-5.6-.021-11.2-.023-16.8-.08-.972-.01-1.24.329-1.238,1.266q.036,20.8,0,41.6c0,.938.267,1.276,1.238,1.266,5.6-.057,11.2-.059,16.8-.079M116.259,72.23c-4.874-.021-9.749,0-14.622-.089-1.2-.021-1.431.43-1.416,1.508.054,3.873.035,7.746.016,11.62-.012,2.341-.607,2.92-2.988,2.931-3.406.016-6.812.022-10.218,0-2.214-.016-2.811-.63-2.822-2.893-.02-3.873-.06-7.748.025-11.619.028-1.273-.389-1.557-1.589-1.545q-8.515.088-17.03,0c-1.11-.01-1.485.276-1.482,1.441q.055,22.639,0,45.277c0,1.169.379,1.447,1.485,1.437q8.515-.073,17.03,0c1.205.013,1.614-.279,1.587-1.547-.084-3.872-.045-7.746-.025-11.619.011-2.263.606-2.874,2.823-2.89,3.406-.024,6.812-.018,10.218,0,2.382.011,2.976.589,2.987,2.931.018,3.873.038,7.747-.016,11.62-.015,1.078.214,1.528,1.416,1.508,4.873-.084,9.748-.068,14.622-.089.4.021.8.064,1.2.059,3.365-.045,2.82.393,2.825-2.865q.034-20.687.01-41.373c0-4.006,0-4.006-4.03-3.805m-60.142,47.99c.4.022.8.061,1.2.064,2.84.028,2.84.026,2.84-2.833V67.976c0-3.984,0-3.984-4.037-3.771-4.807-.019-9.615.013-14.421-.09-1.343-.029-1.648.388-1.63,1.667.071,5.14.038,10.283.026,15.424-.006,2.39-.577,2.971-2.92,2.983q-5.008.025-10.017,0c-2.585-.008-3.093-.535-3.1-3.208-.007-5.142-.036-10.283.024-15.424.013-1.142-.325-1.446-1.449-1.435-5.676.054-11.353.071-17.028-.009-1.347-.019-1.64.4-1.626,1.671.065,6.009.029,12.019.029,18.029q0,17.328.009,34.655c0,.831-.426,1.845,1.216,1.838,16.961-.068,33.922-.068,50.883-.087M16.039,38.091c0,6.744.03,13.489-.026,20.233C16,59.617,16.186,60.2,17.7,60.177c6.277-.089,12.555-.067,18.832-.012,1.2.011,1.591-.278,1.586-1.545q-.07-20.533,0-41.067c0-1.275-.4-1.55-1.592-1.54-6.21.055-12.422.073-18.632-.01-1.469-.02-1.918.321-1.9,1.856.091,6.743.039,13.488.039,20.233M23.258,4.011c-3.139,0-6.28.058-9.416-.027-1.33-.036-1.962.246-1.839,1.733a32.968,32.968,0,0,1,.007,4.6c-.073,1.246.244,1.754,1.629,1.739,6.277-.071,12.556-.055,18.834-.01,1.151.008,1.719-.217,1.636-1.526a39.843,39.843,0,0,1,0-5.005c.082-1.3-.476-1.553-1.633-1.529-3.071.064-6.144.022-9.216.022m41.806,8.018c1.6,0,3.209.06,4.809-.015,2.041-.095,4.835.868,5.912-.487,1.022-1.287.3-3.955.351-6.015,0-.067-.008-.135,0-.2.114-.957-.317-1.268-1.262-1.266q-9.718.02-19.437-.053c-1.11-.01-1.352.446-1.319,1.428a48.472,48.472,0,0,1-.013,5.007c-.1,1.4.509,1.654,1.743,1.626,3.071-.072,6.145-.024,9.217-.024M46.111,38.3c0-6.871-.075-13.743.051-20.611.033-1.8-.854-1.682-2.043-1.667-1.153.014-2.078-.193-2.066,1.642q.135,20.41,0,40.822c-.012,1.8.852,1.681,2.042,1.666,1.153-.014,2.1.2,2.067-1.643-.128-6.735-.051-13.473-.051-20.21M28.068,72.163c0,.533-.027,1.067,0,1.6.127,2.1-.922,4.987.417,6.089,1.283,1.056,4.06.3,6.18.335a1.573,1.573,0,0,1,.2,0c.96.142,1.254-.271,1.236-1.224-.054-2.8.033-5.594-.036-8.388-.052-2.1.934-4.987-.405-6.089-1.283-1.056-4.06-.3-6.18-.335a1.58,1.58,0,0,1-.2,0c-.96-.142-1.261.271-1.236,1.225.06,2.262.019,4.527.019,6.79M43.992,12.028c1.663,0,3.328-.036,4.99.015.846.026,1.183-.218,1.156-1.116-.058-1.928-.053-3.859,0-5.787.023-.857-.24-1.159-1.125-1.147q-4.89.067-9.78,0c-.845-.01-1.182.22-1.155,1.116.057,1.928.053,3.859,0,5.787-.022.857.238,1.18,1.126,1.147,1.595-.061,3.193-.017,4.79-.017M88.175,77.985c.237,2.027-.867,4.747.46,5.9,1.15,1,3.8.274,5.786.31a4.954,4.954,0,0,1,.6,0c.964.136,1.25-.281,1.232-1.23-.053-2.859-.138-5.728.024-8.579.1-1.821-.427-2.443-2.261-2.255s-4.317-.6-5.4.331c-1.252,1.084-.219,3.621-.444,5.519m.164,36.108c0,1.984-.781,4.661.2,5.771,1.142,1.286,3.87.284,5.9.412.133.008.269-.017.4,0,1.175.191,1.435-.371,1.409-1.455-.067-2.792-.155-5.6.024-8.379.121-1.881-.516-2.4-2.291-2.225-1.838.176-4.329-.592-5.384.346-1.227,1.091-.217,3.626-.266,5.526m20.055-63.976c-1,0-2,.073-2.984-.017-1.491-.136-1.287.936-1.111,1.679.192.811-.984,2.346,1.045,2.346h5.972c.478,0,.829-.013.975-.671.557-2.512-.025-3.335-2.5-3.336h-1.393" transform="translate(0 0)"/>
        <path id="Trazado_825774" data-name="Trazado 825774" d="M62.044,215.93c-16.961.019-33.922.019-50.883.087-1.641.006-1.215-1.007-1.216-1.839q-.02-17.327-.009-34.655c0-6.01.036-12.02-.029-18.029-.014-1.273.279-1.69,1.626-1.671,5.675.08,11.352.063,17.028.009,1.123-.011,1.462.294,1.449,1.435-.059,5.141-.03,10.283-.024,15.424,0,2.674.51,3.2,3.1,3.209q5.008.016,10.017,0c2.343-.012,2.914-.594,2.92-2.983.013-5.141.046-10.283-.025-15.424-.018-1.279.287-1.7,1.63-1.667,4.805.1,9.613.071,14.421.09V215.93M38.17,207.969c-4.871,0-9.745.079-14.613-.044-1.617-.041-1.737.682-1.593,1.883.116.976-.577,2.234,1.461,2.214q14.612-.145,29.226,0c1.886.016,1.352-1.142,1.378-2.078.027-.991.4-2.072-1.447-2.017-4.8.141-9.607.047-14.412.047m-8.185-16.7.546-.259,1.12,1.419c1.219,1.544,1.747-.025,2.405-.595.675-.585,1.759-1.127.445-2.285-1.646-1.45-3.153-3.061-4.683-4.638-1.3-1.345-2.5-1.242-3.752.079a47.49,47.49,0,0,1-3.973,3.934c-1.416,1.175-1.337,1.95-.022,3.2,1.093,1.041,1.728,1.136,2.63-.045.272-.357.546-.933,1.275-.762,0,3.672.119,7.336-.051,10.986-.083,1.794.818,1.712,2.02,1.67,1.1-.038,2.179.3,2.09-1.6-.172-3.7-.05-7.4-.05-11.107m16.039-.336c0,4.15.037,7.93-.024,11.709-.016,1.043.268,1.346,1.329,1.351,2.7.012,2.7.073,2.7-2.55,0-3.414,0-6.828,0-10.482,2.937,2.472,2.9,2.442,4.773.25.543-.637.416-.965-.087-1.458-1.713-1.678-3.386-3.4-5.1-5.073a2.037,2.037,0,0,0-3.17-.01q-2.571,2.515-5.083,5.09c-.281.287-.746.488-.388,1.139,1.1,2,2.528,2.3,4.128.786.188-.179.4-.331.917-.753" transform="translate(-5.926 -95.709)" fill="#edcf8c"/>
        <path id="Trazado_825775" data-name="Trazado 825775" d="M211.992,227.905c-4.874.021-9.749,0-14.622.089-1.2.021-1.431-.43-1.416-1.508.054-3.872.035-7.746.016-11.619-.012-2.342-.605-2.92-2.987-2.931-3.406-.016-6.812-.022-10.218,0-2.217.015-2.811.627-2.823,2.89-.02,3.873-.059,7.748.025,11.619.027,1.268-.382,1.56-1.587,1.548q-8.514-.089-17.03,0c-1.106.01-1.488-.268-1.485-1.438q.055-22.638,0-45.277c0-1.165.372-1.45,1.482-1.441q8.515.073,17.03,0c1.2-.012,1.617.272,1.589,1.544-.085,3.872-.045,7.746-.025,11.619.011,2.262.608,2.877,2.822,2.893,3.406.024,6.813.018,10.218,0,2.381-.012,2.976-.591,2.988-2.931.018-3.873.038-7.747-.016-11.62-.015-1.078.214-1.528,1.416-1.508,4.873.084,9.748.068,14.622.089v47.985" transform="translate(-95.733 -107.69)" fill="#b28c5c"/>
        <path id="Trazado_825776" data-name="Trazado 825776" d="M39.922,61.98c0-6.744.052-13.489-.039-20.233-.02-1.535.428-1.875,1.9-1.855,6.21.083,12.422.065,18.632.01,1.195-.01,1.6.265,1.592,1.54q-.071,20.533,0,41.067c0,1.267-.384,1.556-1.586,1.545-6.277-.056-12.556-.078-18.832.012-1.516.021-1.7-.56-1.689-1.853.057-6.744.026-13.489.026-20.233" transform="translate(-23.883 -23.888)" fill="#b28c5c"/>
        <path id="Trazado_825777" data-name="Trazado 825777" d="M142.94,83.994c-5.6.02-11.2.022-16.8.079-.971.01-1.24-.328-1.238-1.266q.036-20.8,0-41.6c0-.938.267-1.276,1.238-1.266,5.6.057,11.2.059,16.8.079l.016,3.976c-2.922-.01-5.846.044-8.765-.053-1.788-.059-1.225,1.181-1.225,2.027S132.4,48.056,134.191,48c2.919-.1,5.843-.043,8.765-.053v4.069c-2.922-.01-5.846.044-8.765-.053-1.788-.059-1.225,1.181-1.225,2.028s-.563,2.086,1.225,2.027c2.919-.1,5.843-.043,8.765-.053l-.016,28.031" transform="translate(-74.797 -23.917)" fill="#b28c5c"/>
        <path id="Trazado_825778" data-name="Trazado 825778" d="M203.875,121.9q-21.448.028-42.9.071c-2.013.006-1.024-1.435-1.157-2.262-.136-.846-.377-1.869,1.232-1.795,2.667.122,5.344.053,8.017.026,2.1-.021,2.733-.641,2.738-2.763.017-7.817.046-15.635-.028-23.451-.014-1.451.278-1.9,1.828-1.885,10.088.1,20.178.079,30.266.1v9.908c-1.8.019-3.6.068-5.4.049-1.728-.018-2.615.745-2.6,2.516q.028,3.505,0,7.01c-.014,1.77.873,2.534,2.6,2.517,1.8-.017,3.6.03,5.4.05V121.9M183.988,93.9c-1.934,0-3.868-.006-5.8,0a2.092,2.092,0,0,0-2.356,2.334c-.01,1.8-.022,3.6,0,5.4a8.034,8.034,0,0,0,4.834,7.636c.416.2,1.163.1,1.153.878a10.3,10.3,0,0,1-.19,3.528c-.268.668-1.6.315-2.418.235-1.9-.185-1.331,1.155-1.366,2.081-.037,1-.38,2.111,1.457,2,2.857-.168,5.735-.12,8.6-.013,1.478.056,2.1-.235,2.016-1.9-.076-1.431-.045-2.468-1.95-2.173-.654.1-1.544.4-2.058-.283-.715-.955.257-3.943,1.384-4.51a7.772,7.772,0,0,0,4.541-6.989c.093-1.93.026-3.866.03-5.8a2.151,2.151,0,0,0-2.473-2.428c-1.8.011-3.6,0-5.4,0" transform="translate(-95.631 -53.803)" fill="#edcf8c"/>
        <path id="Trazado_825779" data-name="Trazado 825779" d="M139.889,215.957V159.942c4.037-.214,4.037-.214,4.037,3.77v49.475c0,2.859,0,2.861-2.84,2.833-.4,0-.8-.042-1.2-.065" transform="translate(-83.771 -95.736)" fill="#b28c5c"/>
        <path id="Trazado_825780" data-name="Trazado 825780" d="M289.808,227.94V179.955c4.03-.2,4.03-.2,4.03,3.805q0,20.687-.01,41.373c-.005,3.258.54,2.82-2.825,2.865-.4.005-.8-.038-1.2-.059" transform="translate(-173.549 -107.725)" fill="#856b47"/>
        <path id="Trazado_825781" data-name="Trazado 825781" d="M41.151,9.954c3.072,0,6.145.042,9.216-.022,1.157-.024,1.715.225,1.633,1.529a39.92,39.92,0,0,0,0,5.005c.083,1.308-.485,1.534-1.636,1.526-6.278-.044-12.557-.061-18.834.01-1.386.016-1.7-.493-1.629-1.739a32.962,32.962,0,0,0-.007-4.6c-.123-1.487.509-1.769,1.839-1.733,3.137.085,6.277.027,9.416.027" transform="translate(-17.894 -5.943)" fill="#856b47"/>
        <path id="Trazado_825782" data-name="Trazado 825782" d="M145.813,17.988c-3.073,0-6.147-.048-9.218.024-1.233.028-1.841-.222-1.742-1.626a48.47,48.47,0,0,0,.013-5.007c-.032-.981.209-1.438,1.319-1.428q9.718.087,19.437.053c.946,0,1.376.308,1.262,1.266a1.96,1.96,0,0,0,0,.2c-.047,2.061.671,4.729-.351,6.015-1.077,1.356-3.871.393-5.912.488-1.6.074-3.206.015-4.809.015" transform="translate(-80.749 -5.959)" fill="#856b47"/>
        <path id="Trazado_825783" data-name="Trazado 825783" d="M108.887,62.21c0,6.737-.077,13.476.051,20.21.035,1.839-.914,1.628-2.067,1.643-1.189.014-2.054.132-2.042-1.666q.135-20.41,0-40.822c-.012-1.835.913-1.628,2.066-1.642,1.189-.015,2.076-.136,2.043,1.667-.126,6.868-.051,13.74-.051,20.611" transform="translate(-62.776 -23.909)" fill="#a8adb9"/>
        <path id="Trazado_825784" data-name="Trazado 825784" d="M169.866,84.013l.016-28.031V44.013l-.016-3.976c4.03-.2,4.03-.2,4.03,3.8q0,18.683-.01,37.367c-.006,3.257.539,2.818-2.825,2.863-.4.005-.8-.038-1.2-.059" transform="translate(-101.723 -23.936)" fill="#856b47"/>
        <path id="Trazado_825785" data-name="Trazado 825785" d="M69.569,167.583c0-2.264.041-4.528-.019-6.79-.025-.954.276-1.366,1.236-1.225a1.58,1.58,0,0,0,.2,0c2.12.038,4.9-.72,6.18.335,1.339,1.1.353,3.986.405,6.089.069,2.794-.018,5.593.036,8.388.018.953-.276,1.366-1.236,1.224a1.577,1.577,0,0,0-.2,0c-2.121-.039-4.9.72-6.18-.335-1.339-1.1-.29-3.988-.418-6.089-.032-.53,0-1.065,0-1.6" transform="translate(-41.501 -95.42)" fill="#a8adb9"/>
        <path id="Trazado_825786" data-name="Trazado 825786" d="M100.828,17.99c-1.6,0-3.2-.044-4.79.017-.888.034-1.148-.29-1.126-1.147.051-1.928.056-3.86,0-5.787-.026-.9.31-1.126,1.155-1.116q4.89.058,9.78,0c.885-.012,1.148.29,1.125,1.147-.051,1.928-.056,3.859,0,5.787.027.9-.311,1.142-1.156,1.116-1.662-.051-3.326-.015-4.99-.015" transform="translate(-56.836 -5.962)" fill="#a8adb9"/>
        <path id="Trazado_825787" data-name="Trazado 825787" d="M219.492,185.464c.223-1.9-.809-4.434.443-5.518,1.078-.933,3.557-.144,5.395-.331s2.364.434,2.261,2.255c-.162,2.851-.077,5.72-.024,8.579.018.948-.268,1.366-1.232,1.23a4.959,4.959,0,0,0-.6,0c-1.986-.036-4.635.69-5.786-.31-1.327-1.153-.223-3.872-.459-5.9" transform="translate(-131.316 -107.48)" fill="#a8adb9"/>
        <path id="Trazado_825788" data-name="Trazado 825788" d="M219.694,275.449c.049-1.9-.961-4.435.266-5.526,1.055-.938,3.545-.17,5.383-.347,1.775-.17,2.411.344,2.291,2.226-.179,2.782-.091,5.586-.024,8.379.026,1.084-.233,1.646-1.408,1.455-.13-.021-.266,0-.4,0-2.034-.128-4.762.873-5.9-.413-.985-1.11-.2-3.786-.2-5.77" transform="translate(-131.355 -161.356)" fill="#a8adb9"/>
        <path id="Trazado_825789" data-name="Trazado 825789" d="M269.826,99.892V89.984c4.037-.214,4.037-.214,4.037,3.755v2.4c0,3.969,0,3.969-4.037,3.755" transform="translate(-161.583 -53.842)" fill="#b28c5c"/>
        <path id="Trazado_825790" data-name="Trazado 825790" d="M269.826,154.859v-9.909c4.037-.214,4.037-.214,4.037,3.755v2.4c0,3.969,0,3.969-4.037,3.755" transform="translate(-161.583 -86.759)" fill="#b28c5c"/>
        <path id="Trazado_825791" data-name="Trazado 825791" d="M263.837,124.888h1.393c2.478,0,3.059.824,2.5,3.336-.146.658-.5.671-.975.672h-5.972c-2.029,0-.852-1.534-1.045-2.346-.176-.743-.379-1.815,1.111-1.679.987.09,1.989.017,2.984.017" transform="translate(-155.443 -74.771)" fill="#a8adb9"/>
        <path id="Trazado_825792" data-name="Trazado 825792" d="M56.118,279.764c4.8,0,9.611.094,14.412-.047,1.848-.055,1.475,1.026,1.447,2.017-.026.937.509,2.095-1.378,2.078q-14.612-.126-29.226,0c-2.039.02-1.345-1.238-1.461-2.214-.143-1.2-.024-1.924,1.593-1.883,4.868.122,9.741.044,14.612.044" transform="translate(-23.874 -167.505)"/>
        <path id="Trazado_825793" data-name="Trazado 825793" d="M46.645,227.274c0,3.7-.122,7.412.051,11.107.088,1.9-.987,1.561-2.09,1.6-1.2.041-2.1.123-2.02-1.67.17-3.65.051-7.314.051-10.986-.729-.171-1,.4-1.275.762-.9,1.181-1.538,1.086-2.63.045-1.315-1.252-1.394-2.027.022-3.2a47.3,47.3,0,0,0,3.973-3.933c1.254-1.321,2.447-1.424,3.752-.079,1.53,1.577,3.038,3.188,4.684,4.638,1.314,1.159.23,1.7-.445,2.285-.658.57-1.186,2.139-2.4.595l-1.12-1.419-.546.259" transform="translate(-22.587 -131.717)"/>
        <path id="Trazado_825794" data-name="Trazado 825794" d="M92.228,226.893c-.517.422-.729.575-.917.753-1.6,1.516-3.03,1.211-4.128-.786-.358-.651.106-.852.388-1.139q2.517-2.569,5.083-5.09a2.037,2.037,0,0,1,3.17.01c1.714,1.676,3.387,3.395,5.1,5.073.5.493.63.821.087,1.458-1.871,2.192-1.836,2.222-4.773-.25,0,3.654,0,7.068,0,10.482,0,2.623,0,2.562-2.7,2.55-1.061,0-1.345-.308-1.329-1.351.06-3.779.024-7.559.024-11.709" transform="translate(-52.131 -131.672)"/>
        <path id="Trazado_825795" data-name="Trazado 825795" d="M154.867,49.967v3.949c-2.922.01-5.846-.044-8.765.053-1.788.059-1.225-1.181-1.225-2.028s-.563-2.086,1.225-2.027c2.919.1,5.843.043,8.765.053" transform="translate(-86.708 -29.889)"/>
        <path id="Trazado_825796" data-name="Trazado 825796" d="M154.867,69.955V73.9c-2.922.01-5.846-.044-8.765.053-1.788.059-1.225-1.181-1.225-2.028s-.563-2.086,1.225-2.027c2.919.1,5.843.043,8.765.053" transform="translate(-86.708 -41.859)"/>
        <path id="Trazado_825797" data-name="Trazado 825797" d="M208.056,99.943c1.8,0,3.6.008,5.4,0a2.151,2.151,0,0,1,2.474,2.429c-.005,1.934.062,3.87-.031,5.8a7.772,7.772,0,0,1-4.541,6.989c-1.127.566-2.1,3.555-1.384,4.51.515.688,1.4.384,2.058.283,1.906-.294,1.875.743,1.95,2.173.089,1.669-.538,1.96-2.016,1.9-2.863-.108-5.741-.156-8.6.013-1.837.108-1.494-1.005-1.457-2,.035-.926-.538-2.265,1.366-2.081.82.079,2.15.432,2.418-.235a10.3,10.3,0,0,0,.19-3.527c.01-.775-.737-.675-1.153-.879a8.034,8.034,0,0,1-4.834-7.636c-.023-1.8-.011-3.6,0-5.4a2.092,2.092,0,0,1,2.356-2.334c1.934-.007,3.868,0,5.8,0m-1.326,11.728c2.646.718,4.853-.675,5.2-3.279.587-4.457.4-4.663-3.972-4.392-5.016.049-3.967-1.1-4.01,4.065a3.435,3.435,0,0,0,2.786,3.606" transform="translate(-119.7 -59.848)"/>
        <path id="Trazado_825798" data-name="Trazado 825798" d="M218.17,109.946c4.373-.271,4.559-.065,3.972,4.392-.343,2.6-2.55,4-5.2,3.279,1.855-2.326,1.144-5.061,1.224-7.671" transform="translate(-129.916 -65.793)" fill="#856b47"/>
        <path id="Trazado_825799" data-name="Trazado 825799" d="M213.916,109.95c-.08,2.609.631,5.345-1.224,7.671a3.435,3.435,0,0,1-2.786-3.606c.043-5.161-1.007-4.016,4.01-4.065" transform="translate(-125.662 -65.797)" fill="#a8adb9"/>
      </g>
    </g>
  </g>
</svg>
