<svg xmlns="http://www.w3.org/2000/svg" xmlns:xlink="http://www.w3.org/1999/xlink" width="190" height="294" viewBox="0 0 190 294">
  <defs>
    <linearGradient id="linear-gradient" x1="0.5" x2="0.5" y2="1" gradientUnits="objectBoundingBox">
      <stop offset="0" stop-color="#f8e1c3"/>
      <stop offset="1" stop-color="#fff"/>
    </linearGradient>
    <clipPath id="clip-path">
      <rect id="Rect치ngulo_378492" data-name="Rect치ngulo 378492" width="150.343" height="130.861" fill="none"/>
    </clipPath>
  </defs>
  <g id="Grupo_1074733" data-name="Grupo 1074733" transform="translate(-180 -1686)">
    <rect id="Rect치ngulo_378843" data-name="Rect치ngulo 378843" width="190" height="294" transform="translate(180 1686)" fill="url(#linear-gradient)"/>
    <g id="Grupo_1074732" data-name="Grupo 1074732" transform="translate(199.829 1702.139)">
      <g id="Grupo_1074418" data-name="Grupo 1074418" clip-path="url(#clip-path)">
        <path id="Trazado_825745" data-name="Trazado 825745" d="M51,.059c4.923,0,9.85.107,14.769-.054,1.9-.063,2.214.55,2.187,2.279-.1,6.616.045,13.238-.1,19.853-.041,1.907.559,2.251,2.284,2.18,3.385-.138,6.786.1,10.165-.094,1.928-.108,2.2.58,2.176,2.288-.1,6.536.064,13.077-.1,19.611-.054,2.121.623,2.7,2.542,2.386a6.4,6.4,0,0,1,1.692,0,5.327,5.327,0,0,0,4.895-1.767,10.285,10.285,0,0,1,7.66-3.058c8.717-.031,17.435-.089,26.151.014a11.911,11.911,0,0,1,11.739,10.2c1.033,6.11,2.072,12.219,3.01,18.343a2.17,2.17,0,0,0,1.511,1.907c6.521,2.69,9.031,7.651,8.733,14.573-.277,6.445-.044,12.911-.064,19.368-.016,5.345-2.883,8.4-8.211,8.156-4.073-.187-6.669.169-8.325,4.986-2.318,6.745-9.672,10.289-16.589,9.539a16.852,16.852,0,0,1-14.781-12.985c-.3-1.277-.778-1.491-1.9-1.488q-20.462.04-40.923-.005c-1.2,0-1.55.355-1.836,1.561a16.869,16.869,0,0,1-32.827,0c-.331-1.436-.914-1.577-2.085-1.559-3.147.05-6.3.027-9.443.015-5.546-.02-8.375-2.8-8.39-8.287q-.026-9.322.012-18.644c.007-1.272.047-2.41-1.663-2.5a1.876,1.876,0,0,1-.877-.37C-1.04,84.155.255,80.562.164,77.4a4.221,4.221,0,0,1,3.429-4.409c1.293-.313,1.37-.945,1.365-1.992-.03-6.86.041-13.721-.057-20.58-.023-1.621.458-2.006,2-1.958,3.629.113,7.265-.032,10.895.07,1.413.039,1.716-.431,1.7-1.76-.063-6.86.029-13.721-.072-20.58-.024-1.641.488-1.994,2.016-1.947,3.548.109,7.106-.063,10.652.078,1.658.066,1.958-.508,1.94-2.021-.078-6.7.051-13.4-.088-20.1C33.913.305,34.5-.027,36.231.016c4.921.12,9.846.043,14.77.043M92.215,75.137c-.027.321-.076.642-.076.962q-.007,16.7.021,33.406c0,.668-.526,1.618.738,1.957,2.873.771,4.078-.083,4.078-3.009q0-24.692.007-49.382c0-3.558,1.686-5.649,4.845-5.691,7.262-.095,14.525-.057,21.787-.015,2.34.014,4.225,1.152,4.686,3.455,1.04,5.2,2.506,10.352,2.563,15.7q.124,11.738-.006,23.48c-.038,3.4-.242,6.752,2.511,9.387a2.57,2.57,0,0,1,.782,1.477c.409,4.9,3.7,5.077,7.415,4.6.4-.05.806,0,1.21-.016a2.5,2.5,0,0,0,2.638-2.548c.541-5.233.474-5.385-4.16-7.7a6.116,6.116,0,0,0-1.075-.546c-3.836-1.014-5.171-3.475-4.481-7.315.35-1.949-.863-4.608.487-5.757,1.14-.97,3.688-.248,5.609-.353,1.181-.065,2.933.612,3.416-.348.711-1.414.022-3.137-.811-4.58a7,7,0,0,0-2.939-2.789c-1.292-.657-2.561-1.368-3.889-1.941a2.87,2.87,0,0,1-1.9-2.478c-1.046-6.679-2.206-13.342-3.35-20.005-.733-4.276-3.334-6.56-7.609-6.579-8.311-.036-16.623-.016-24.934-.007a6.4,6.4,0,0,0-5.221,2.022,5.967,5.967,0,0,0-2.387,5.033c-.036,6.526.026,13.054.05,19.582M48.487,87.245c-12.268,0-24.536.052-36.8-.052-2.016-.017-1.992.938-1.905,2.336.079,1.28-.491,2.73,1.875,2.611,3.864-.2,7.747-.006,11.619-.078,1.331-.025,1.706.359,1.364,1.656-.985,3.735-1.959,7.475-2.817,11.241-.316,1.389-.982,1.745-2.331,1.693-2.74-.108-5.487-.048-8.231-.018-.566.006-1.247-.275-1.486.738-.543,2.3.661,4.039,3.067,4.076,3.308.051,6.62-.058,9.926.047,1.432.045,1.8-.453,2.146-1.825a16.873,16.873,0,0,1,32.73.087c.359,1.469.9,1.737,2.224,1.73,8.475-.048,16.95-.083,25.423.021,1.833.023,2.051-.665,2.032-2.227-.078-6.617-.111-13.237.016-19.852.036-1.87-.53-2.236-2.29-2.224-12.187.079-24.374.042-36.562.042m53.336,22.368c2.017-4.868,4.937-8.74,9.7-11.025,4.724-2.267,9.554-2.057,14.519-.134,0-5.058-.033-9.728.023-14.4.015-1.2-.255-1.7-1.587-1.684q-10.514.092-21.029,0c-1.248-.01-1.658.33-1.651,1.621.053,8.538.027,17.077.027,25.615M46,82.4q19.489,0,38.978-.019c.745,0,1.931.466,2.163-.437a8,8,0,0,0,.018-3.829c-.273-1.076-1.527-.531-2.321-.532-25.824-.03-51.648,0-77.472-.076-2.066-.006-2.526.572-2.5,2.543.024,1.863.467,2.411,2.4,2.4C20.18,82.355,33.093,82.4,46,82.4m4.722-58.124c3.55,0,7.1-.034,10.65.02,1.151.017,1.741-.156,1.722-1.543-.075-5.485-.067-10.972-.013-16.457.022-2.257-1.612-1.274-2.568-1.34-.93-.064-2.4-.692-2.311,1.355.1,2.254-.028,4.518.043,6.774.036,1.135-.3,1.549-1.487,1.53q-5.807-.1-11.617,0c-1.206.021-1.505-.433-1.47-1.547.068-2.175-.1-4.364.051-6.532.16-2.351-1.49-1.541-2.583-1.609-1.132-.071-2.384-.438-2.332,1.627.133,5.321.086,10.649.015,15.972-.018,1.348.329,1.822,1.738,1.78,3.386-.1,6.776-.031,10.165-.032M36.474,48.493c3.469,0,6.939-.013,10.408.008.948.005,1.7.05,1.681-1.324-.063-5.566-.054-11.134-.013-16.7.017-2.282-1.651-1.207-2.6-1.3s-2.38-.623-2.275,1.392c.113,2.173-.058,4.36.054,6.533.073,1.406-.421,1.774-1.775,1.742-3.629-.086-7.265-.127-10.89.014-1.716.067-2-.617-1.926-2.087.1-2.012-.079-4.04.053-6.048.156-2.378-1.547-1.479-2.616-1.569-1.146-.1-2.363-.418-2.3,1.66.155,5.32.1,10.648.02,15.973-.02,1.4.422,1.775,1.777,1.74,3.467-.088,6.938-.029,10.408-.029m28.9,0c3.469,0,6.94-.044,10.408.024,1.253.024,1.879-.157,1.854-1.661-.088-5.4-.1-10.812,0-16.215.042-2.186-1.434-1.481-2.453-1.482s-2.569-.7-2.446,1.483c.122,2.172-.036,4.358.05,6.533.049,1.236-.293,1.692-1.605,1.663q-5.685-.124-11.375,0c-1.316.028-1.651-.435-1.6-1.667.085-2.175-.072-4.361.049-6.533.123-2.19-1.431-1.479-2.448-1.481s-2.492-.7-2.451,1.484c.1,5.4.088,10.811,0,16.215-.025,1.508.607,1.683,1.857,1.658,3.387-.068,6.777-.024,10.165-.024m-43.5,24.218c3.469,0,6.939-.028,10.408.016,1.105.014,1.777-.073,1.757-1.5-.078-5.485-.088-10.973,0-16.457.032-2.026-1.354-1.457-2.3-1.374S29.1,52.43,29.153,54.71c.058,2.258-.032,4.519.03,6.776.031,1.091-.221,1.588-1.451,1.565-3.872-.069-7.746-.063-11.617,0-1.161.018-1.547-.353-1.506-1.511.076-2.176-.117-4.367.06-6.531.172-2.09-1.18-1.721-2.312-1.642-1.082.075-2.662-.77-2.607,1.59.125,5.322.107,10.65,0,15.973-.032,1.6.573,1.846,1.957,1.811,3.387-.085,6.776-.028,10.165-.028m29.064,0c3.469,0,6.939-.028,10.408.016,1.106.014,1.777-.073,1.757-1.5-.078-5.485-.088-10.973,0-16.457.032-2.026-1.354-1.457-2.3-1.374s-2.643-.961-2.584,1.319c.058,2.258-.032,4.519.03,6.776.031,1.091-.22,1.588-1.451,1.565-3.872-.069-7.746-.063-11.617,0-1.161.018-1.547-.353-1.506-1.511.076-2.176-.117-4.367.06-6.531.172-2.09-1.18-1.721-2.312-1.642-1.082.075-2.662-.77-2.606,1.59.125,5.322.106,10.65,0,15.973-.033,1.6.572,1.846,1.957,1.811,3.387-.085,6.776-.028,10.165-.028M125.6,67.924c-.529-2.995-1.056-5.752-1.489-8.524-.189-1.211-.923-1.287-1.9-1.284q-9.438.034-18.876,0c-1.043,0-1.612.126-1.6,1.408.063,5.564.047,11.131.01,16.7-.006,1.008.247,1.436,1.343,1.415,3.134-.062,6.269-.022,9.32-.022.4-.886-.189-1.392-.356-1.987-1.4-4.973.6-7.682,5.724-7.7,2.568-.008,5.137,0,7.818,0M53.382,113.918a12.11,12.11,0,1,0-12.206,12.074,12.116,12.116,0,0,0,12.206-12.074m65.481,12.074a12.109,12.109,0,1,0-12.2-12.083,12.124,12.124,0,0,0,12.2,12.083M77.5,72.711c2.658,0,5.321-.1,7.972.037,1.549.078,1.941-.464,1.849-1.913a38.609,38.609,0,0,1,0-5.553c.141-1.741-.3-2.4-2.2-2.3-3.536.171-7.087-.01-10.629.079-1.364.034-1.834-.357-1.764-1.749.11-2.169-.061-4.353.054-6.521.106-2-1.309-1.5-2.265-1.4s-2.622-.976-2.61,1.287q.044,8.336-.01,16.672c-.008,1.052.331,1.4,1.383,1.38,2.737-.058,5.477-.019,8.215-.018M82.22,58.128c1.042,0,2.092-.08,3.124.02,1.415.138,1.823-.3,1.971-1.813.24-2.442-.463-3.306-2.928-2.981a22.027,22.027,0,0,1-4.8.008c-1.643-.145-1.918.529-1.991,2.03-.1,2.1.407,3.162,2.7,2.753a11.284,11.284,0,0,1,1.921-.017m39.049,14.556c-.885,0-1.777-.067-2.653.021-.736.074-1.785-.506-2.143.416-.321.826.264,1.689.778,2.426,1.593,2.283,3.994,1.937,6.323,2.085,1.941.123,2.634-.344,2.577-2.445-.052-1.9-.348-2.881-2.471-2.524a14.7,14.7,0,0,1-2.41.021M13.6,101.82c4.446,0,4.411-.005,4.926-3.537.148-1.013.025-1.457-1.131-1.417-2.16.073-4.325.021-6.487.022-.574,0-1,.012-1.187.8-.72,3.083.042,4.131,3.158,4.131H13.6M51.165,5c-1.655-.269-2.886-.177-2.617,2.087.171,1.441-.295,2.895,2.121,2.665,1.648-.156,2.961.05,2.717-2.323-.161-1.565.027-3.012-2.221-2.43M38.742,31.495c.524-2.031-.465-2.383-2.293-2.381-1.794,0-2.476.345-2.473,2.348,0,2.027.554,2.534,2.553,2.528s2.654-.609,2.212-2.495m24.437.011c-.452,1.9.241,2.557,2.224,2.465,1.669-.078,2.608-.141,2.539-2.279-.061-1.906-.36-2.678-2.483-2.592-1.831.074-2.8.392-2.281,2.407M24.226,56.037c.172-1.584.3-3.015-2.051-2.679-1.367.2-2.98-.419-2.7,2.066.177,1.56-.187,3.042,2.267,2.756,1.5-.177,3.069.154,2.483-2.143m26.7-2.59c-2.015-.515-2.4.438-2.394,2.284.008,1.784.321,2.492,2.34,2.481s2.552-.528,2.537-2.544c-.015-1.969-.582-2.673-2.484-2.221m94.537,44.46a21.363,21.363,0,0,1,.023-3.064c.384-2.318-.49-3.29-2.808-2.786-.734.159-2-.662-2.094.771-.074,1.147-.654,2.6,1.123,3.252,1.178.432,2.272,1.095,3.756,1.827" transform="translate(0 0)" fill="#010101"/>
        <path id="Trazado_825746" data-name="Trazado 825746" d="M58.741,179.972c12.187,0,24.375.037,36.562-.042,1.76-.011,2.326.354,2.29,2.224-.127,6.615-.094,13.235-.016,19.852.018,1.562-.2,2.25-2.032,2.227-8.473-.1-16.949-.07-25.423-.021-1.324.008-1.865-.261-2.224-1.73a16.874,16.874,0,0,0-32.731-.087c-.342,1.372-.714,1.87-2.146,1.825-3.306-.1-6.618,0-9.926-.047-2.407-.037-3.61-1.777-3.067-4.076.239-1.013.92-.731,1.486-.738,2.744-.031,5.491-.09,8.231.017,1.349.053,2.015-.3,2.331-1.692.857-3.766,1.832-7.506,2.817-11.241.342-1.3-.033-1.681-1.364-1.656-3.873.072-7.755-.118-11.619.078-2.365.12-1.8-1.331-1.875-2.611-.087-1.4-.111-2.353,1.905-2.336,12.267.1,24.535.052,36.8.052" transform="translate(-10.255 -92.727)" fill="#e2806d"/>
        <path id="Trazado_825747" data-name="Trazado 825747" d="M192.447,102.086a6.4,6.4,0,0,1,5.221-2.022c8.312-.009,16.623-.031,24.934.007,4.275.019,6.875,2.3,7.609,6.579,1.143,6.664,2.3,13.326,3.349,20.006a2.872,2.872,0,0,0,1.9,2.478c1.328.574,2.6,1.284,3.889,1.941a6.991,6.991,0,0,1,2.939,2.789c.834,1.442,1.522,3.166.811,4.579-.482.96-2.235.283-3.416.348-1.921.105-4.468-.616-5.608.354-1.35,1.149-.137,3.808-.487,5.757-.69,3.84.646,6.3,4.481,7.315a6.048,6.048,0,0,1,1.075.546c4.634,2.318,4.7,2.47,4.161,7.7a2.5,2.5,0,0,1-2.639,2.548c-.4.017-.812-.034-1.21.016-3.719.473-7.007.3-7.415-4.605a2.569,2.569,0,0,0-.781-1.476c-2.754-2.635-2.549-5.986-2.512-9.387q.129-11.739.006-23.48c-.057-5.346-1.523-10.5-2.563-15.7-.46-2.3-2.346-3.441-4.686-3.454-7.262-.043-14.525-.081-21.787.015-3.16.042-4.842,2.133-4.846,5.691q-.022,24.691-.007,49.382c0,2.927-1.2,3.78-4.077,3.009-1.264-.339-.736-1.289-.739-1.957q-.054-16.7-.021-33.405c0-.321.049-.642.076-.963,1.971.324,2.4-.612,2.379-2.447-.094-7.388-.041-14.778-.042-22.167" transform="translate(-97.896 -51.564)" fill="#e2806d"/>
        <path id="Trazado_825748" data-name="Trazado 825748" d="M210.079,197.214c0-8.538.026-17.077-.027-25.616-.008-1.291.4-1.629,1.651-1.62q10.514.079,21.029,0c1.332-.012,1.6.48,1.587,1.683-.056,4.669-.023,9.339-.023,14.4-4.965-1.923-9.8-2.133-14.519.134-4.761,2.285-7.681,6.158-9.7,11.025" transform="translate(-108.257 -87.602)" fill="#dc6d52"/>
        <path id="Trazado_825749" data-name="Trazado 825749" d="M51.182,164.76c-12.912,0-25.824-.044-38.736.047-1.931.014-2.374-.534-2.4-2.4-.025-1.97.435-2.549,2.5-2.542,25.824.078,51.648.046,77.473.076.794,0,2.048-.544,2.321.532a8.013,8.013,0,0,1-.018,3.829c-.233.9-1.418.435-2.164.436q-19.489.041-38.978.02" transform="translate(-5.178 -82.361)" fill="#dc6d52"/>
        <path id="Trazado_825750" data-name="Trazado 825750" d="M92,29.377c-3.388,0-6.779-.066-10.165.032-1.409.041-1.756-.433-1.738-1.78.07-5.324.117-10.651-.015-15.973-.051-2.065,1.2-1.7,2.332-1.627,1.094.069,2.743-.741,2.583,1.609-.148,2.168.018,4.356-.05,6.532-.035,1.114.264,1.567,1.47,1.547q5.807-.1,11.618,0c1.184.019,1.523-.395,1.487-1.529-.071-2.257.058-4.521-.043-6.775-.092-2.047,1.381-1.419,2.311-1.355.957.066,2.591-.918,2.568,1.339-.054,5.485-.062,10.973.014,16.458.019,1.387-.57,1.56-1.722,1.543-3.549-.054-7.1-.02-10.65-.02" transform="translate(-41.27 -5.102)" fill="#c49e6e"/>
        <path id="Trazado_825751" data-name="Trazado 825751" d="M62.281,79.337c-3.469,0-6.94-.058-10.407.03-1.355.034-1.8-.34-1.777-1.741.079-5.324.135-10.652-.02-15.973-.06-2.078,1.157-1.757,2.3-1.66,1.068.09,2.771-.809,2.615,1.569-.131,2.008.051,4.036-.052,6.048-.076,1.469.21,2.153,1.925,2.087,3.625-.141,7.261-.1,10.89-.014,1.355.032,1.847-.336,1.775-1.743-.112-2.173.059-4.36-.054-6.532-.105-2.015,1.324-1.488,2.276-1.391s2.618-.978,2.6,1.3c-.041,5.567-.051,11.134.013,16.7.016,1.374-.733,1.33-1.68,1.325-3.469-.021-6.939-.008-10.408-.008" transform="translate(-25.808 -30.844)" fill="#c49e6e"/>
        <path id="Trazado_825752" data-name="Trazado 825752" d="M122.108,79.388c-3.388,0-6.778-.044-10.165.024-1.25.025-1.882-.15-1.857-1.658.089-5.4.1-10.811,0-16.215-.042-2.184,1.431-1.486,2.451-1.484s2.57-.709,2.448,1.481c-.121,2.172.036,4.358-.049,6.532-.048,1.232.286,1.7,1.6,1.667q5.685-.125,11.375,0c1.312.029,1.654-.427,1.6-1.663-.086-2.174.073-4.361-.05-6.533-.123-2.188,1.427-1.483,2.446-1.483s2.494-.7,2.453,1.481c-.1,5.4-.087,10.811,0,16.215.025,1.5-.6,1.685-1.854,1.66-3.468-.067-6.938-.024-10.408-.024" transform="translate(-56.736 -30.895)" fill="#c49e6e"/>
        <path id="Trazado_825753" data-name="Trazado 825753" d="M32.237,129.313c-3.388,0-6.779-.057-10.165.028-1.385.034-1.989-.207-1.957-1.811.108-5.323.127-10.651,0-15.973-.055-2.361,1.525-1.515,2.607-1.59,1.132-.079,2.483-.447,2.312,1.642-.178,2.164.016,4.355-.061,6.531-.041,1.158.346,1.529,1.506,1.511,3.872-.061,7.746-.067,11.618,0,1.23.022,1.481-.474,1.451-1.565-.063-2.257.028-4.519-.03-6.776-.059-2.28,1.631-1.237,2.584-1.32s2.328-.652,2.3,1.375c-.086,5.484-.076,10.972,0,16.457.02,1.432-.651,1.518-1.757,1.5-3.468-.044-6.938-.016-10.408-.016" transform="translate(-10.366 -56.602)" fill="#c49e6e"/>
        <path id="Trazado_825754" data-name="Trazado 825754" d="M92.208,129.313c-3.388,0-6.779-.057-10.165.028-1.385.034-1.989-.207-1.957-1.811.108-5.323.127-10.651,0-15.973-.055-2.361,1.525-1.515,2.607-1.59,1.132-.079,2.483-.447,2.312,1.642-.178,2.164.016,4.355-.061,6.531-.041,1.158.346,1.529,1.506,1.511,3.872-.061,7.746-.066,11.617,0,1.231.022,1.481-.474,1.451-1.565-.063-2.257.028-4.519-.031-6.776-.058-2.28,1.631-1.237,2.585-1.32s2.328-.652,2.3,1.375c-.086,5.484-.076,10.972,0,16.457.02,1.432-.651,1.518-1.757,1.5-3.468-.044-6.938-.016-10.408-.016" transform="translate(-41.274 -56.602)" fill="#c49e6e"/>
        <path id="Trazado_825755" data-name="Trazado 825755" d="M233.8,129.724c-2.681,0-5.25-.006-7.819,0-5.126.015-7.126,2.724-5.723,7.7.168.6.753,1.1.356,1.987-3.051,0-6.187-.04-9.32.022-1.1.021-1.35-.407-1.343-1.415.036-5.565.054-11.132-.01-16.7-.015-1.282.554-1.413,1.6-1.408q9.438.049,18.876,0c.974,0,1.708.073,1.9,1.283.432,2.772.96,5.53,1.489,8.524" transform="translate(-108.198 -61.8)" fill="#9399a3"/>
        <path id="Trazado_825756" data-name="Trazado 825756" d="M84.394,222.153a12.11,12.11,0,1,1-12.133-12.144,12.123,12.123,0,0,1,12.133,12.144M72.282,214.88a7.238,7.238,0,1,0,7.241,7.234,7.252,7.252,0,0,0-7.241-7.234" transform="translate(-31.013 -108.235)" fill="#9399a3"/>
        <path id="Trazado_825757" data-name="Trazado 825757" d="M232.3,234.227a12.109,12.109,0,1,1,12.02-12.259,12.119,12.119,0,0,1-12.02,12.259m-.143-4.871a7.238,7.238,0,1,0-7.183-7.293,7.263,7.263,0,0,0,7.183,7.293" transform="translate(-113.435 -108.235)" fill="#9399a3"/>
        <path id="Trazado_825758" data-name="Trazado 825758" d="M149.7,129.31c-2.739,0-5.478-.039-8.215.019-1.051.022-1.39-.329-1.383-1.381q.062-8.336.01-16.672c-.012-2.263,1.659-1.186,2.61-1.287s2.371-.607,2.265,1.4c-.115,2.168.055,4.352-.054,6.521-.07,1.391.4,1.782,1.764,1.748,3.542-.089,7.093.093,10.629-.079,1.9-.092,2.342.562,2.2,2.3a38.611,38.611,0,0,0,0,5.553c.092,1.449-.3,1.991-1.848,1.913-2.651-.133-5.314-.037-7.972-.037" transform="translate(-72.207 -56.599)" fill="#c49e6e"/>
        <path id="Trazado_825759" data-name="Trazado 825759" d="M192.554,104.252c0,7.389-.052,14.779.042,22.167.024,1.836-.408,2.771-2.379,2.447-.024-6.527-.086-13.055-.05-19.582a5.967,5.967,0,0,1,2.387-5.032" transform="translate(-98.003 -53.73)" fill="#c49e6e"/>
        <path id="Trazado_825760" data-name="Trazado 825760" d="M164.727,114.8a11.138,11.138,0,0,0-1.921.017c-2.3.409-2.806-.648-2.7-2.753.074-1.5.348-2.176,1.991-2.03a22.032,22.032,0,0,0,4.8-.009c2.464-.325,3.167.538,2.927,2.981-.148,1.512-.556,1.95-1.971,1.812-1.032-.1-2.082-.019-3.124-.019" transform="translate(-82.507 -56.67)" fill="#dc6d52"/>
        <path id="Trazado_825761" data-name="Trazado 825761" d="M245.037,149.881a14.7,14.7,0,0,0,2.41-.021c2.123-.358,2.419.626,2.471,2.524.057,2.1-.635,2.568-2.577,2.444-2.329-.148-4.73.2-6.323-2.084-.514-.737-1.1-1.6-.779-2.426.359-.923,1.408-.342,2.143-.416.876-.088,1.768-.021,2.653-.021" transform="translate(-123.768 -77.198)" fill="#9399a3"/>
        <path id="Trazado_825762" data-name="Trazado 825762" d="M23.677,204.833h-.721c-3.116,0-3.877-1.049-3.158-4.131.184-.789.614-.8,1.187-.8,2.163,0,4.327.051,6.487-.022,1.156-.04,1.279.4,1.131,1.417-.515,3.531-.479,3.537-4.926,3.537" transform="translate(-10.074 -103.012)" fill="#c49e6e"/>
        <path id="Trazado_825763" data-name="Trazado 825763" d="M102.756,10.187c2.248-.583,2.06.864,2.221,2.43.243,2.373-1.07,2.167-2.717,2.323-2.415.229-1.95-1.225-2.121-2.666-.269-2.265.961-2.356,2.617-2.087" transform="translate(-51.591 -5.182)" fill="#dc6d52"/>
        <path id="Trazado_825764" data-name="Trazado 825764" d="M74.874,62.456c.442,1.885-.224,2.489-2.212,2.495s-2.55-.5-2.553-2.528c0-2,.679-2.347,2.473-2.348,1.827,0,2.816.35,2.292,2.381" transform="translate(-36.133 -30.962)" fill="#dc6d52"/>
        <path id="Trazado_825765" data-name="Trazado 825765" d="M130.222,62.446c-.516-2.015.45-2.332,2.281-2.406,2.123-.086,2.422.686,2.483,2.592.069,2.139-.871,2.2-2.539,2.279-1.984.093-2.677-.563-2.224-2.465" transform="translate(-67.043 -30.94)" fill="#dc6d52"/>
        <path id="Trazado_825766" data-name="Trazado 825766" d="M44.9,112.73c.586,2.3-.978,1.967-2.483,2.143-2.454.287-2.09-1.195-2.267-2.756-.281-2.484,1.332-1.87,2.7-2.065,2.356-.336,2.222,1.094,2.051,2.678" transform="translate(-20.678 -56.693)" fill="#dc6d52"/>
        <path id="Trazado_825767" data-name="Trazado 825767" d="M102.535,110.141c1.9-.452,2.469.252,2.484,2.221.015,2.016-.526,2.532-2.537,2.544s-2.331-.7-2.34-2.481c-.009-1.846.378-2.8,2.394-2.284" transform="translate(-51.611 -56.693)" fill="#dc6d52"/>
        <path id="Trazado_825768" data-name="Trazado 825768" d="M294.809,195.671c-1.483-.733-2.578-1.4-3.756-1.827-1.778-.652-1.2-2.105-1.123-3.252.092-1.433,1.36-.611,2.094-.771,2.318-.5,3.192.468,2.808,2.786a21.362,21.362,0,0,0-.023,3.064" transform="translate(-149.348 -97.763)" fill="#c49e6e"/>
        <path id="Trazado_825769" data-name="Trazado 825769" d="M77.464,220.061A7.238,7.238,0,1,1,70.23,227.3a7.254,7.254,0,0,1,7.234-7.238m.189,9.733a2.38,2.38,0,0,0,2.257-2.482,2.441,2.441,0,1,0-4.881.092c.039,1.515,1.007,2.254,2.624,2.39" transform="translate(-36.195 -113.415)" fill="#010101"/>
        <path id="Trazado_825770" data-name="Trazado 825770" d="M237.335,234.535a7.238,7.238,0,1,1,7.293-7.185,7.258,7.258,0,0,1-7.293,7.185m.066-4.754a2.357,2.357,0,0,0,2.429-2.438,2.44,2.44,0,1,0-4.879.028,2.345,2.345,0,0,0,2.45,2.41" transform="translate(-118.616 -113.415)" fill="#010101"/>
        <path id="Trazado_825771" data-name="Trazado 825771" d="M82.757,234.9c-1.617-.136-2.584-.875-2.624-2.39a2.441,2.441,0,1,1,4.881-.092,2.38,2.38,0,0,1-2.257,2.482" transform="translate(-41.299 -118.52)" fill="#9399a3"/>
        <path id="Trazado_825772" data-name="Trazado 825772" d="M242.505,234.886a2.345,2.345,0,0,1-2.45-2.41,2.44,2.44,0,1,1,4.879-.028,2.357,2.357,0,0,1-2.429,2.438" transform="translate(-123.72 -118.519)" fill="#9399a3"/>
      </g>
    </g>
  </g>
</svg>
