<svg xmlns="http://www.w3.org/2000/svg" xmlns:xlink="http://www.w3.org/1999/xlink" width="190" height="131" viewBox="0 0 190 131">
  <defs>
    <linearGradient id="linear-gradient" x1="0.5" x2="0.5" y2="1" gradientUnits="objectBoundingBox">
      <stop offset="0" stop-color="#f8e1c3"/>
      <stop offset="1" stop-color="#fff"/>
    </linearGradient>
    <clipPath id="clip-path">
      <rect id="Rectángulo_378525" data-name="Rectángulo 378525" width="117.226" height="104.76" fill="none"/>
    </clipPath>
  </defs>
  <g id="Grupo_1074772" data-name="Grupo 1074772" transform="translate(-180 -9376)">
    <rect id="Rectángulo_378848" data-name="Rectángulo 378848" width="190" height="131" transform="translate(180 9376)" fill="url(#linear-gradient)"/>
    <g id="Grupo_1074486" data-name="Grupo 1074486" transform="translate(216.387 9385.12)">
      <g id="Grupo_1074485" data-name="Grupo 1074485">
        <g id="Grupo_1074484" data-name="Grupo 1074484" clip-path="url(#clip-path)">
          <path id="Trazado_825893" data-name="Trazado 825893" d="M306.223,4.014c-1.872,9.114,11.059,29.466,28.437,20.605S309.06-9.8,306.223,4.014" transform="translate(-222.185 0)" fill="#cc4e49"/>
          <path id="Trazado_825894" data-name="Trazado 825894" d="M177.352,338.083c-5.184,7.342,38.778,12.808,32.607,3.88-5.776-8.356-26.189-12.968-32.607-3.88" transform="translate(-128.447 -241.835)" fill="#cc4e49"/>
          <path id="Trazado_825895" data-name="Trazado 825895" d="M51.9,49.53c0,25.492,6.289,38.018,23.52,44.2,11.973,4.293,23.129-1.348,39.5,5.506,12.523,5.244,31.583-3.355,37.624-20.311,4.232-11.879,4.729-34.646-15.344-39.768-24.191-6.172-18.574-34.928-57.67-25.893C62.53,17.19,51.9,32.5,51.9,49.53" transform="translate(-37.68 -8.364)" fill="#cc4e49"/>
          <path id="Trazado_825896" data-name="Trazado 825896" d="M32.7,103.575v10.4c2.753-2.786,6.065-2.738,9.431-2.726,13.017.048,26.034.019,39.051.019h1.725V54.317H81.443q-20.758,0-41.517,0c-4.642,0-7.279,2.659-7.284,7.323-.005,4.8.021,9.594-.033,14.389a2.264,2.264,0,0,1-.7,1.6c-.741.563-1.738-.093-1.742-1.14-.02-5.618-.145-11.243.064-16.854.162-4.365,4.316-7.822,9.039-7.842,8.038-.035,16.077-.011,24.116-.011q10,0,20.005,0c1.889,0,2.124.239,2.124,2.136q0,31.452-.026,62.9a13.148,13.148,0,0,1-.6,2.148c-.136.729-.46,1.723-.127,2.179.884,1.21.74,2.486.751,3.789.008.959,0,1.919,0,2.878a1.275,1.275,0,0,1-1.348,1.4c-.227.018-.456.015-.685.015q-21.992,0-43.984-.01a8.9,8.9,0,0,1-9.125-6.955,10.524,10.524,0,0,1-.212-2.442c-.018-5.341-.009-10.682-.009-16.246H28.5q-13.085,0-26.171,0c-2.1,0-2.331-.237-2.332-2.377Q0,91.81,0,82.422c0-1.739.327-2.071,2.084-2.071q38.092,0,76.184,0c1.809,0,2.121.327,2.122,2.188q.007,9.456,0,18.912c0,1.806-.332,2.122-2.191,2.122q-21.855,0-43.71,0Zm-30.12-2.75H77.737V83.135H2.581Zm80.356,23.308H40.319c-.456,0-.916.028-1.369-.016a3.938,3.938,0,0,1-3.6-4.826c.451-1.845,1.955-2.877,4.254-2.878q20.818-.007,41.635,0h1.676v-2.657H60.268c-6.894,0-13.787-.026-20.681.01-4.628.024-7.679,3.753-6.687,8.078a6.329,6.329,0,0,0,6.38,4.769q21.3.016,42.594,0c.349,0,.7-.062,1.063-.1ZM81.9,119.022c-.382-.027-.734-.074-1.087-.074q-20.525-.005-41.05,0c-.361,0-.834-.071-1.057.121-.369.316-.813.836-.786,1.241s.55.835.958,1.1c.263.168.71.058,1.074.058q20.251,0,40.5,0H81.9Z" transform="translate(0 -37.588)"/>
          <path id="Trazado_825897" data-name="Trazado 825897" d="M228.959,351.571c-3.745,0-7.491.006-11.236,0-1.688,0-1.983-.307-2-2.012-.011-1.325.015-2.65-.005-3.974-.017-1.112.423-1.7,1.613-1.7q11.579.023,23.157,0c1.155,0,1.671.486,1.639,1.651-.039,1.415-.052,2.834,0,4.248.052,1.306-.538,1.807-1.8,1.8-3.791-.027-7.582-.01-11.373-.01m10.618-5.08H218.369v2.426h21.208Z" transform="translate(-156.611 -249.657)"/>
          <rect id="Rectángulo_378524" data-name="Rectángulo 378524" width="76.309" height="17.69" transform="translate(2.004 45.042)" fill="#fabc5f"/>
        </g>
      </g>
      <text id="EJEMPLO" transform="translate(5.766 56.24)" font-size="13" font-family="BerlinSansFBDemi-Bold, Berlin Sans FB" font-weight="700"><tspan x="0" y="0">EJEMPLO</tspan></text>
    </g>
  </g>
</svg>
